<?xml version="1.0" encoding="utf-8" standalone="no"?>
<!DOCTYPE svg PUBLIC "-//W3C//DTD SVG 1.1//EN"
  "http://www.w3.org/Graphics/SVG/1.1/DTD/svg11.dtd">
<svg xmlns:xlink="http://www.w3.org/1999/xlink" width="246.703125pt" height="226.194375pt" viewBox="0 0 246.703125 226.194375" xmlns="http://www.w3.org/2000/svg" version="1.1">
 <metadata>
  <rdf:RDF xmlns:dc="http://purl.org/dc/elements/1.1/" xmlns:cc="http://creativecommons.org/ns#" xmlns:rdf="http://www.w3.org/1999/02/22-rdf-syntax-ns#">
   <cc:Work>
    <dc:type rdf:resource="http://purl.org/dc/dcmitype/StillImage"/>
    <dc:date>2025-10-02T21:16:03.628439</dc:date>
    <dc:format>image/svg+xml</dc:format>
    <dc:creator>
     <cc:Agent>
      <dc:title>Matplotlib v3.10.3, https://matplotlib.org/</dc:title>
     </cc:Agent>
    </dc:creator>
   </cc:Work>
  </rdf:RDF>
 </metadata>
 <defs>
  <style type="text/css">*{stroke-linejoin: round; stroke-linecap: butt}</style>
 </defs>
 <g id="figure_1">
  <g id="patch_1">
   <path d="M 0 226.194375 
L 246.703125 226.194375 
L 246.703125 0 
L 0 0 
z
" style="fill: #ffffff"/>
  </g>
  <g id="axes_1">
   <g id="patch_2">
    <path d="M 44.203125 188.638125 
L 239.503125 188.638125 
L 239.503125 22.318125 
L 44.203125 22.318125 
z
" style="fill: #ffffff"/>
   </g>
   <g id="matplotlib.axis_1">
    <g id="xtick_1">
     <g id="line2d_1">
      <defs>
       <path id="m6d940bf089" d="M 0 0 
L 0 3.5 
" style="stroke: #000000; stroke-width: 0.8"/>
      </defs>
      <g>
       <use xlink:href="#m6d940bf089" x="53.080398" y="188.638125" style="stroke: #000000; stroke-width: 0.8"/>
      </g>
     </g>
     <g id="text_1">
      <!-- 0 -->
      <g transform="translate(49.899148 203.236563) scale(0.1 -0.1)">
       <defs>
        <path id="DejaVuSans-30" d="M 2034 4250 
Q 1547 4250 1301 3770 
Q 1056 3291 1056 2328 
Q 1056 1369 1301 889 
Q 1547 409 2034 409 
Q 2525 409 2770 889 
Q 3016 1369 3016 2328 
Q 3016 3291 2770 3770 
Q 2525 4250 2034 4250 
z
M 2034 4750 
Q 2819 4750 3233 4129 
Q 3647 3509 3647 2328 
Q 3647 1150 3233 529 
Q 2819 -91 2034 -91 
Q 1250 -91 836 529 
Q 422 1150 422 2328 
Q 422 3509 836 4129 
Q 1250 4750 2034 4750 
z
" transform="scale(0.015625)"/>
       </defs>
       <use xlink:href="#DejaVuSans-30"/>
      </g>
     </g>
    </g>
    <g id="xtick_2">
     <g id="line2d_2">
      <g>
       <use xlink:href="#m6d940bf089" x="94.611498" y="188.638125" style="stroke: #000000; stroke-width: 0.8"/>
      </g>
     </g>
     <g id="text_2">
      <!-- 200 -->
      <g transform="translate(85.067748 203.236563) scale(0.1 -0.1)">
       <defs>
        <path id="DejaVuSans-32" d="M 1228 531 
L 3431 531 
L 3431 0 
L 469 0 
L 469 531 
Q 828 903 1448 1529 
Q 2069 2156 2228 2338 
Q 2531 2678 2651 2914 
Q 2772 3150 2772 3378 
Q 2772 3750 2511 3984 
Q 2250 4219 1831 4219 
Q 1534 4219 1204 4116 
Q 875 4013 500 3803 
L 500 4441 
Q 881 4594 1212 4672 
Q 1544 4750 1819 4750 
Q 2544 4750 2975 4387 
Q 3406 4025 3406 3419 
Q 3406 3131 3298 2873 
Q 3191 2616 2906 2266 
Q 2828 2175 2409 1742 
Q 1991 1309 1228 531 
z
" transform="scale(0.015625)"/>
       </defs>
       <use xlink:href="#DejaVuSans-32"/>
       <use xlink:href="#DejaVuSans-30" transform="translate(63.623047 0)"/>
       <use xlink:href="#DejaVuSans-30" transform="translate(127.246094 0)"/>
      </g>
     </g>
    </g>
    <g id="xtick_3">
     <g id="line2d_3">
      <g>
       <use xlink:href="#m6d940bf089" x="136.142599" y="188.638125" style="stroke: #000000; stroke-width: 0.8"/>
      </g>
     </g>
     <g id="text_3">
      <!-- 400 -->
      <g transform="translate(126.598849 203.236563) scale(0.1 -0.1)">
       <defs>
        <path id="DejaVuSans-34" d="M 2419 4116 
L 825 1625 
L 2419 1625 
L 2419 4116 
z
M 2253 4666 
L 3047 4666 
L 3047 1625 
L 3713 1625 
L 3713 1100 
L 3047 1100 
L 3047 0 
L 2419 0 
L 2419 1100 
L 313 1100 
L 313 1709 
L 2253 4666 
z
" transform="scale(0.015625)"/>
       </defs>
       <use xlink:href="#DejaVuSans-34"/>
       <use xlink:href="#DejaVuSans-30" transform="translate(63.623047 0)"/>
       <use xlink:href="#DejaVuSans-30" transform="translate(127.246094 0)"/>
      </g>
     </g>
    </g>
    <g id="xtick_4">
     <g id="line2d_4">
      <g>
       <use xlink:href="#m6d940bf089" x="177.673699" y="188.638125" style="stroke: #000000; stroke-width: 0.8"/>
      </g>
     </g>
     <g id="text_4">
      <!-- 600 -->
      <g transform="translate(168.129949 203.236563) scale(0.1 -0.1)">
       <defs>
        <path id="DejaVuSans-36" d="M 2113 2584 
Q 1688 2584 1439 2293 
Q 1191 2003 1191 1497 
Q 1191 994 1439 701 
Q 1688 409 2113 409 
Q 2538 409 2786 701 
Q 3034 994 3034 1497 
Q 3034 2003 2786 2293 
Q 2538 2584 2113 2584 
z
M 3366 4563 
L 3366 3988 
Q 3128 4100 2886 4159 
Q 2644 4219 2406 4219 
Q 1781 4219 1451 3797 
Q 1122 3375 1075 2522 
Q 1259 2794 1537 2939 
Q 1816 3084 2150 3084 
Q 2853 3084 3261 2657 
Q 3669 2231 3669 1497 
Q 3669 778 3244 343 
Q 2819 -91 2113 -91 
Q 1303 -91 875 529 
Q 447 1150 447 2328 
Q 447 3434 972 4092 
Q 1497 4750 2381 4750 
Q 2619 4750 2861 4703 
Q 3103 4656 3366 4563 
z
" transform="scale(0.015625)"/>
       </defs>
       <use xlink:href="#DejaVuSans-36"/>
       <use xlink:href="#DejaVuSans-30" transform="translate(63.623047 0)"/>
       <use xlink:href="#DejaVuSans-30" transform="translate(127.246094 0)"/>
      </g>
     </g>
    </g>
    <g id="xtick_5">
     <g id="line2d_5">
      <g>
       <use xlink:href="#m6d940bf089" x="219.2048" y="188.638125" style="stroke: #000000; stroke-width: 0.8"/>
      </g>
     </g>
     <g id="text_5">
      <!-- 800 -->
      <g transform="translate(209.66105 203.236563) scale(0.1 -0.1)">
       <defs>
        <path id="DejaVuSans-38" d="M 2034 2216 
Q 1584 2216 1326 1975 
Q 1069 1734 1069 1313 
Q 1069 891 1326 650 
Q 1584 409 2034 409 
Q 2484 409 2743 651 
Q 3003 894 3003 1313 
Q 3003 1734 2745 1975 
Q 2488 2216 2034 2216 
z
M 1403 2484 
Q 997 2584 770 2862 
Q 544 3141 544 3541 
Q 544 4100 942 4425 
Q 1341 4750 2034 4750 
Q 2731 4750 3128 4425 
Q 3525 4100 3525 3541 
Q 3525 3141 3298 2862 
Q 3072 2584 2669 2484 
Q 3125 2378 3379 2068 
Q 3634 1759 3634 1313 
Q 3634 634 3220 271 
Q 2806 -91 2034 -91 
Q 1263 -91 848 271 
Q 434 634 434 1313 
Q 434 1759 690 2068 
Q 947 2378 1403 2484 
z
M 1172 3481 
Q 1172 3119 1398 2916 
Q 1625 2713 2034 2713 
Q 2441 2713 2670 2916 
Q 2900 3119 2900 3481 
Q 2900 3844 2670 4047 
Q 2441 4250 2034 4250 
Q 1625 4250 1398 4047 
Q 1172 3844 1172 3481 
z
" transform="scale(0.015625)"/>
       </defs>
       <use xlink:href="#DejaVuSans-38"/>
       <use xlink:href="#DejaVuSans-30" transform="translate(63.623047 0)"/>
       <use xlink:href="#DejaVuSans-30" transform="translate(127.246094 0)"/>
      </g>
     </g>
    </g>
    <g id="text_6">
     <!-- Rank -->
     <g transform="translate(129.363281 216.914688) scale(0.1 -0.1)">
      <defs>
       <path id="DejaVuSans-52" d="M 2841 2188 
Q 3044 2119 3236 1894 
Q 3428 1669 3622 1275 
L 4263 0 
L 3584 0 
L 2988 1197 
Q 2756 1666 2539 1819 
Q 2322 1972 1947 1972 
L 1259 1972 
L 1259 0 
L 628 0 
L 628 4666 
L 2053 4666 
Q 2853 4666 3247 4331 
Q 3641 3997 3641 3322 
Q 3641 2881 3436 2590 
Q 3231 2300 2841 2188 
z
M 1259 4147 
L 1259 2491 
L 2053 2491 
Q 2509 2491 2742 2702 
Q 2975 2913 2975 3322 
Q 2975 3731 2742 3939 
Q 2509 4147 2053 4147 
L 1259 4147 
z
" transform="scale(0.015625)"/>
       <path id="DejaVuSans-61" d="M 2194 1759 
Q 1497 1759 1228 1600 
Q 959 1441 959 1056 
Q 959 750 1161 570 
Q 1363 391 1709 391 
Q 2188 391 2477 730 
Q 2766 1069 2766 1631 
L 2766 1759 
L 2194 1759 
z
M 3341 1997 
L 3341 0 
L 2766 0 
L 2766 531 
Q 2569 213 2275 61 
Q 1981 -91 1556 -91 
Q 1019 -91 701 211 
Q 384 513 384 1019 
Q 384 1609 779 1909 
Q 1175 2209 1959 2209 
L 2766 2209 
L 2766 2266 
Q 2766 2663 2505 2880 
Q 2244 3097 1772 3097 
Q 1472 3097 1187 3025 
Q 903 2953 641 2809 
L 641 3341 
Q 956 3463 1253 3523 
Q 1550 3584 1831 3584 
Q 2591 3584 2966 3190 
Q 3341 2797 3341 1997 
z
" transform="scale(0.015625)"/>
       <path id="DejaVuSans-6e" d="M 3513 2113 
L 3513 0 
L 2938 0 
L 2938 2094 
Q 2938 2591 2744 2837 
Q 2550 3084 2163 3084 
Q 1697 3084 1428 2787 
Q 1159 2491 1159 1978 
L 1159 0 
L 581 0 
L 581 3500 
L 1159 3500 
L 1159 2956 
Q 1366 3272 1645 3428 
Q 1925 3584 2291 3584 
Q 2894 3584 3203 3211 
Q 3513 2838 3513 2113 
z
" transform="scale(0.015625)"/>
       <path id="DejaVuSans-6b" d="M 581 4863 
L 1159 4863 
L 1159 1991 
L 2875 3500 
L 3609 3500 
L 1753 1863 
L 3688 0 
L 2938 0 
L 1159 1709 
L 1159 0 
L 581 0 
L 581 4863 
z
" transform="scale(0.015625)"/>
      </defs>
      <use xlink:href="#DejaVuSans-52"/>
      <use xlink:href="#DejaVuSans-61" transform="translate(67.232422 0)"/>
      <use xlink:href="#DejaVuSans-6e" transform="translate(128.511719 0)"/>
      <use xlink:href="#DejaVuSans-6b" transform="translate(191.890625 0)"/>
     </g>
    </g>
   </g>
   <g id="matplotlib.axis_2">
    <g id="ytick_1">
     <g id="line2d_6">
      <defs>
       <path id="mb3fbe6b018" d="M 0 0 
L -3.5 0 
" style="stroke: #000000; stroke-width: 0.8"/>
      </defs>
      <g>
       <use xlink:href="#mb3fbe6b018" x="44.203125" y="181.147973" style="stroke: #000000; stroke-width: 0.8"/>
      </g>
     </g>
     <g id="text_7">
      <!-- 0.0 -->
      <g transform="translate(21.3 184.947192) scale(0.1 -0.1)">
       <defs>
        <path id="DejaVuSans-2e" d="M 684 794 
L 1344 794 
L 1344 0 
L 684 0 
L 684 794 
z
" transform="scale(0.015625)"/>
       </defs>
       <use xlink:href="#DejaVuSans-30"/>
       <use xlink:href="#DejaVuSans-2e" transform="translate(63.623047 0)"/>
       <use xlink:href="#DejaVuSans-30" transform="translate(95.410156 0)"/>
      </g>
     </g>
    </g>
    <g id="ytick_2">
     <g id="line2d_7">
      <g>
       <use xlink:href="#mb3fbe6b018" x="44.203125" y="144.294031" style="stroke: #000000; stroke-width: 0.8"/>
      </g>
     </g>
     <g id="text_8">
      <!-- 0.2 -->
      <g transform="translate(21.3 148.09325) scale(0.1 -0.1)">
       <use xlink:href="#DejaVuSans-30"/>
       <use xlink:href="#DejaVuSans-2e" transform="translate(63.623047 0)"/>
       <use xlink:href="#DejaVuSans-32" transform="translate(95.410156 0)"/>
      </g>
     </g>
    </g>
    <g id="ytick_3">
     <g id="line2d_8">
      <g>
       <use xlink:href="#mb3fbe6b018" x="44.203125" y="107.44009" style="stroke: #000000; stroke-width: 0.8"/>
      </g>
     </g>
     <g id="text_9">
      <!-- 0.4 -->
      <g transform="translate(21.3 111.239308) scale(0.1 -0.1)">
       <use xlink:href="#DejaVuSans-30"/>
       <use xlink:href="#DejaVuSans-2e" transform="translate(63.623047 0)"/>
       <use xlink:href="#DejaVuSans-34" transform="translate(95.410156 0)"/>
      </g>
     </g>
    </g>
    <g id="ytick_4">
     <g id="line2d_9">
      <g>
       <use xlink:href="#mb3fbe6b018" x="44.203125" y="70.586148" style="stroke: #000000; stroke-width: 0.8"/>
      </g>
     </g>
     <g id="text_10">
      <!-- 0.6 -->
      <g transform="translate(21.3 74.385367) scale(0.1 -0.1)">
       <use xlink:href="#DejaVuSans-30"/>
       <use xlink:href="#DejaVuSans-2e" transform="translate(63.623047 0)"/>
       <use xlink:href="#DejaVuSans-36" transform="translate(95.410156 0)"/>
      </g>
     </g>
    </g>
    <g id="ytick_5">
     <g id="line2d_10">
      <g>
       <use xlink:href="#mb3fbe6b018" x="44.203125" y="33.732206" style="stroke: #000000; stroke-width: 0.8"/>
      </g>
     </g>
     <g id="text_11">
      <!-- 0.8 -->
      <g transform="translate(21.3 37.531425) scale(0.1 -0.1)">
       <use xlink:href="#DejaVuSans-30"/>
       <use xlink:href="#DejaVuSans-2e" transform="translate(63.623047 0)"/>
       <use xlink:href="#DejaVuSans-38" transform="translate(95.410156 0)"/>
      </g>
     </g>
    </g>
    <g id="text_12">
     <!-- Score Correlation $|r|$ -->
     <g transform="translate(14.9 155.978125) rotate(-90) scale(0.1 -0.1)">
      <defs>
       <path id="DejaVuSans-53" d="M 3425 4513 
L 3425 3897 
Q 3066 4069 2747 4153 
Q 2428 4238 2131 4238 
Q 1616 4238 1336 4038 
Q 1056 3838 1056 3469 
Q 1056 3159 1242 3001 
Q 1428 2844 1947 2747 
L 2328 2669 
Q 3034 2534 3370 2195 
Q 3706 1856 3706 1288 
Q 3706 609 3251 259 
Q 2797 -91 1919 -91 
Q 1588 -91 1214 -16 
Q 841 59 441 206 
L 441 856 
Q 825 641 1194 531 
Q 1563 422 1919 422 
Q 2459 422 2753 634 
Q 3047 847 3047 1241 
Q 3047 1584 2836 1778 
Q 2625 1972 2144 2069 
L 1759 2144 
Q 1053 2284 737 2584 
Q 422 2884 422 3419 
Q 422 4038 858 4394 
Q 1294 4750 2059 4750 
Q 2388 4750 2728 4690 
Q 3069 4631 3425 4513 
z
" transform="scale(0.015625)"/>
       <path id="DejaVuSans-63" d="M 3122 3366 
L 3122 2828 
Q 2878 2963 2633 3030 
Q 2388 3097 2138 3097 
Q 1578 3097 1268 2742 
Q 959 2388 959 1747 
Q 959 1106 1268 751 
Q 1578 397 2138 397 
Q 2388 397 2633 464 
Q 2878 531 3122 666 
L 3122 134 
Q 2881 22 2623 -34 
Q 2366 -91 2075 -91 
Q 1284 -91 818 406 
Q 353 903 353 1747 
Q 353 2603 823 3093 
Q 1294 3584 2113 3584 
Q 2378 3584 2631 3529 
Q 2884 3475 3122 3366 
z
" transform="scale(0.015625)"/>
       <path id="DejaVuSans-6f" d="M 1959 3097 
Q 1497 3097 1228 2736 
Q 959 2375 959 1747 
Q 959 1119 1226 758 
Q 1494 397 1959 397 
Q 2419 397 2687 759 
Q 2956 1122 2956 1747 
Q 2956 2369 2687 2733 
Q 2419 3097 1959 3097 
z
M 1959 3584 
Q 2709 3584 3137 3096 
Q 3566 2609 3566 1747 
Q 3566 888 3137 398 
Q 2709 -91 1959 -91 
Q 1206 -91 779 398 
Q 353 888 353 1747 
Q 353 2609 779 3096 
Q 1206 3584 1959 3584 
z
" transform="scale(0.015625)"/>
       <path id="DejaVuSans-72" d="M 2631 2963 
Q 2534 3019 2420 3045 
Q 2306 3072 2169 3072 
Q 1681 3072 1420 2755 
Q 1159 2438 1159 1844 
L 1159 0 
L 581 0 
L 581 3500 
L 1159 3500 
L 1159 2956 
Q 1341 3275 1631 3429 
Q 1922 3584 2338 3584 
Q 2397 3584 2469 3576 
Q 2541 3569 2628 3553 
L 2631 2963 
z
" transform="scale(0.015625)"/>
       <path id="DejaVuSans-65" d="M 3597 1894 
L 3597 1613 
L 953 1613 
Q 991 1019 1311 708 
Q 1631 397 2203 397 
Q 2534 397 2845 478 
Q 3156 559 3463 722 
L 3463 178 
Q 3153 47 2828 -22 
Q 2503 -91 2169 -91 
Q 1331 -91 842 396 
Q 353 884 353 1716 
Q 353 2575 817 3079 
Q 1281 3584 2069 3584 
Q 2775 3584 3186 3129 
Q 3597 2675 3597 1894 
z
M 3022 2063 
Q 3016 2534 2758 2815 
Q 2500 3097 2075 3097 
Q 1594 3097 1305 2825 
Q 1016 2553 972 2059 
L 3022 2063 
z
" transform="scale(0.015625)"/>
       <path id="DejaVuSans-20" transform="scale(0.015625)"/>
       <path id="DejaVuSans-43" d="M 4122 4306 
L 4122 3641 
Q 3803 3938 3442 4084 
Q 3081 4231 2675 4231 
Q 1875 4231 1450 3742 
Q 1025 3253 1025 2328 
Q 1025 1406 1450 917 
Q 1875 428 2675 428 
Q 3081 428 3442 575 
Q 3803 722 4122 1019 
L 4122 359 
Q 3791 134 3420 21 
Q 3050 -91 2638 -91 
Q 1578 -91 968 557 
Q 359 1206 359 2328 
Q 359 3453 968 4101 
Q 1578 4750 2638 4750 
Q 3056 4750 3426 4639 
Q 3797 4528 4122 4306 
z
" transform="scale(0.015625)"/>
       <path id="DejaVuSans-6c" d="M 603 4863 
L 1178 4863 
L 1178 0 
L 603 0 
L 603 4863 
z
" transform="scale(0.015625)"/>
       <path id="DejaVuSans-74" d="M 1172 4494 
L 1172 3500 
L 2356 3500 
L 2356 3053 
L 1172 3053 
L 1172 1153 
Q 1172 725 1289 603 
Q 1406 481 1766 481 
L 2356 481 
L 2356 0 
L 1766 0 
Q 1100 0 847 248 
Q 594 497 594 1153 
L 594 3053 
L 172 3053 
L 172 3500 
L 594 3500 
L 594 4494 
L 1172 4494 
z
" transform="scale(0.015625)"/>
       <path id="DejaVuSans-69" d="M 603 3500 
L 1178 3500 
L 1178 0 
L 603 0 
L 603 3500 
z
M 603 4863 
L 1178 4863 
L 1178 4134 
L 603 4134 
L 603 4863 
z
" transform="scale(0.015625)"/>
       <path id="DejaVuSans-7c" d="M 1344 4891 
L 1344 -1509 
L 813 -1509 
L 813 4891 
L 1344 4891 
z
" transform="scale(0.015625)"/>
       <path id="DejaVuSans-Oblique-72" d="M 2853 2969 
Q 2766 3016 2653 3041 
Q 2541 3066 2413 3066 
Q 1953 3066 1609 2717 
Q 1266 2369 1153 1784 
L 800 0 
L 225 0 
L 909 3500 
L 1484 3500 
L 1375 2956 
Q 1603 3259 1920 3421 
Q 2238 3584 2597 3584 
Q 2691 3584 2781 3573 
Q 2872 3563 2963 3538 
L 2853 2969 
z
" transform="scale(0.015625)"/>
      </defs>
      <use xlink:href="#DejaVuSans-53" transform="translate(0 0.578125)"/>
      <use xlink:href="#DejaVuSans-63" transform="translate(63.476562 0.578125)"/>
      <use xlink:href="#DejaVuSans-6f" transform="translate(118.457031 0.578125)"/>
      <use xlink:href="#DejaVuSans-72" transform="translate(179.638672 0.578125)"/>
      <use xlink:href="#DejaVuSans-65" transform="translate(220.751953 0.578125)"/>
      <use xlink:href="#DejaVuSans-20" transform="translate(282.275391 0.578125)"/>
      <use xlink:href="#DejaVuSans-43" transform="translate(314.0625 0.578125)"/>
      <use xlink:href="#DejaVuSans-6f" transform="translate(383.886719 0.578125)"/>
      <use xlink:href="#DejaVuSans-72" transform="translate(445.068359 0.578125)"/>
      <use xlink:href="#DejaVuSans-72" transform="translate(486.181641 0.578125)"/>
      <use xlink:href="#DejaVuSans-65" transform="translate(527.294922 0.578125)"/>
      <use xlink:href="#DejaVuSans-6c" transform="translate(588.818359 0.578125)"/>
      <use xlink:href="#DejaVuSans-61" transform="translate(616.601562 0.578125)"/>
      <use xlink:href="#DejaVuSans-74" transform="translate(677.880859 0.578125)"/>
      <use xlink:href="#DejaVuSans-69" transform="translate(717.089844 0.578125)"/>
      <use xlink:href="#DejaVuSans-6f" transform="translate(744.873047 0.578125)"/>
      <use xlink:href="#DejaVuSans-6e" transform="translate(806.054688 0.578125)"/>
      <use xlink:href="#DejaVuSans-20" transform="translate(869.433594 0.578125)"/>
      <use xlink:href="#DejaVuSans-7c" transform="translate(901.220703 0.578125)"/>
      <use xlink:href="#DejaVuSans-Oblique-72" transform="translate(934.912109 0.578125)"/>
      <use xlink:href="#DejaVuSans-7c" transform="translate(976.025391 0.578125)"/>
     </g>
    </g>
   </g>
   <g id="line2d_11">
    <path d="M 53.080398 29.878125 
L 53.288053 32.478165 
L 53.495709 32.629832 
L 53.703364 33.737172 
L 54.118675 39.15901 
L 54.326331 39.51645 
L 54.533986 42.099791 
L 54.949297 44.255589 
L 55.156953 44.281681 
L 55.364608 45.521275 
L 55.572264 45.69699 
L 55.779919 46.823009 
L 55.987575 46.900061 
L 56.610541 48.544856 
L 56.818197 48.626246 
L 57.233508 50.044062 
L 57.441163 50.183095 
L 57.648819 51.592708 
L 57.856474 52.097902 
L 58.06413 52.950512 
L 58.271785 53.013051 
L 58.479441 53.653805 
L 58.687096 55.069076 
L 59.102407 55.530106 
L 59.310063 56.590734 
L 59.725374 57.177651 
L 59.933029 57.714237 
L 60.34834 57.909071 
L 60.763651 60.052315 
L 61.178962 60.339739 
L 61.594273 61.429603 
L 61.801929 61.644428 
L 62.009584 62.064444 
L 62.424895 62.241418 
L 62.632551 62.852255 
L 62.840206 65.064422 
L 63.047862 65.121161 
L 63.255517 65.332484 
L 63.670828 66.62589 
L 63.878484 67.004554 
L 64.293795 68.551858 
L 64.50145 69.746837 
L 64.709106 69.922251 
L 64.916761 70.523285 
L 65.124417 70.554427 
L 65.332072 70.961553 
L 65.747383 72.787535 
L 66.785661 74.192601 
L 67.200972 75.645079 
L 67.408627 75.849528 
L 67.616283 77.563604 
L 68.446905 79.484346 
L 68.65456 79.679871 
L 68.862216 80.345459 
L 69.069871 80.636764 
L 69.277527 80.699725 
L 69.485182 80.992975 
L 69.692838 81.547106 
L 69.900493 81.775202 
L 70.315804 83.54329 
L 70.52346 83.966099 
L 70.731115 84.698221 
L 70.938771 84.821868 
L 71.146426 85.467701 
L 71.354082 85.473875 
L 71.977048 86.166783 
L 72.184704 87.00337 
L 72.392359 88.717774 
L 72.600015 88.746651 
L 72.80767 89.025918 
L 73.222981 92.545031 
L 73.430637 92.942299 
L 74.261259 93.408755 
L 74.468914 93.620241 
L 74.67657 93.656295 
L 74.884225 93.827405 
L 75.299536 94.510528 
L 75.507192 95.134507 
L 75.922503 95.575993 
L 76.545469 97.513702 
L 76.753125 97.625772 
L 76.960781 98.78781 
L 77.168436 98.873699 
L 77.376092 99.203612 
L 77.999058 102.983758 
L 78.622025 104.132995 
L 78.82968 106.243632 
L 79.037336 106.278325 
L 79.244991 106.801382 
L 79.452647 106.816921 
L 79.660302 107.342498 
L 80.283269 107.915502 
L 80.490924 108.532563 
L 80.69858 108.773148 
L 80.906235 109.33419 
L 81.113891 109.456956 
L 81.944513 112.322021 
L 82.152168 112.553542 
L 82.359824 114.536019 
L 82.775135 114.696462 
L 82.98279 115.117271 
L 83.398101 115.171923 
L 83.605757 115.371412 
L 84.021068 116.295045 
L 84.436379 116.607649 
L 84.644034 116.684792 
L 84.85169 117.860129 
L 85.267001 118.302338 
L 85.474656 118.744408 
L 85.682312 118.831996 
L 85.889967 119.213055 
L 86.097623 119.264138 
L 86.305278 119.884053 
L 86.512934 119.974157 
L 86.720589 120.187749 
L 86.928245 120.724986 
L 87.343556 120.980386 
L 87.551211 122.26979 
L 87.758867 122.401243 
L 88.381833 123.461598 
L 88.797144 125.325394 
L 89.0048 125.353072 
L 89.212455 125.8862 
L 89.420111 126.023526 
L 89.627766 126.476427 
L 90.043077 126.792856 
L 90.250733 127.103946 
L 90.458388 127.146398 
L 90.873699 127.692482 
L 91.496666 128.795301 
L 91.704321 128.809111 
L 91.911977 129.790007 
L 92.534943 130.263675 
L 92.742599 130.300828 
L 93.365565 131.260372 
L 93.573221 131.444665 
L 93.780876 131.926977 
L 94.196187 132.239968 
L 94.819154 132.541402 
L 95.026809 132.809383 
L 95.234465 133.989481 
L 95.44212 134.08632 
L 95.649776 134.572017 
L 95.857431 134.649863 
L 96.065087 135.422693 
L 96.480398 135.526739 
L 96.895709 135.752533 
L 97.31102 135.852369 
L 97.726331 136.56955 
L 97.933986 136.758039 
L 98.141642 136.765611 
L 98.349297 136.925575 
L 98.556953 137.762077 
L 98.972264 137.950649 
L 99.179919 138.187326 
L 99.387575 138.605425 
L 99.59523 138.605916 
L 100.010541 138.76521 
L 100.425852 139.004448 
L 100.633508 139.408426 
L 101.048819 139.609857 
L 101.256474 139.667387 
L 101.671785 139.943827 
L 101.879441 139.989792 
L 102.087096 140.19215 
L 102.294752 140.591294 
L 103.540685 141.336489 
L 103.74834 141.713799 
L 103.955996 142.67069 
L 104.371307 142.954963 
L 104.786618 143.179627 
L 105.61724 143.658498 
L 106.032551 143.789779 
L 106.240206 143.989375 
L 106.655517 144.030482 
L 107.070828 144.721686 
L 108.109106 144.950837 
L 108.316761 145.036266 
L 108.732072 145.42445 
L 109.355039 145.643563 
L 110.808627 145.920479 
L 111.223938 146.213987 
L 111.639249 146.327506 
L 111.846905 146.339133 
L 112.677527 146.871109 
L 112.885182 146.879356 
L 113.300493 147.136393 
L 113.508149 147.170695 
L 113.92346 147.335279 
L 115.584704 147.949102 
L 116.000015 148.619406 
L 116.622981 148.739171 
L 118.907192 149.903474 
L 119.322503 150.07921 
L 119.945469 150.302308 
L 120.776092 150.571242 
L 121.814369 150.992535 
L 122.22968 151.517643 
L 123.683269 152.023536 
L 125.552168 152.514804 
L 126.798101 153.172912 
L 127.421068 153.35097 
L 127.628723 153.56555 
L 128.044034 153.589622 
L 128.459345 153.853433 
L 129.912934 154.16722 
L 130.5359 154.682531 
L 131.989489 155.27256 
L 132.820111 155.71065 
L 133.027766 155.797078 
L 133.235422 156.073088 
L 133.858388 156.233234 
L 134.481355 156.386975 
L 134.896666 156.521708 
L 136.350254 157.03774 
L 137.803843 157.352216 
L 138.426809 157.661869 
L 139.049776 157.784999 
L 139.465087 157.865111 
L 140.71102 158.020941 
L 142.579919 158.388539 
L 143.618197 158.516939 
L 144.033508 158.908672 
L 144.656474 159.043512 
L 145.071785 159.348 
L 145.694752 159.373659 
L 146.317718 159.6363 
L 146.940685 159.693649 
L 147.14834 159.959016 
L 148.186618 160.151915 
L 149.847862 160.441134 
L 150.470828 160.914037 
L 151.093795 160.997343 
L 151.509106 161.363168 
L 152.547383 161.597589 
L 152.755039 161.600007 
L 153.17035 161.944105 
L 153.585661 162.042079 
L 154.416283 162.289586 
L 154.623938 162.508621 
L 155.039249 162.571339 
L 155.246905 162.740723 
L 156.285182 162.794196 
L 156.700493 163.032198 
L 157.32346 163.211138 
L 157.738771 163.218359 
L 157.946426 163.387837 
L 158.569393 163.521123 
L 158.984704 163.704565 
L 159.60767 163.785706 
L 160.230637 163.911035 
L 160.853603 164.027499 
L 163.553125 164.786621 
L 163.760781 164.972876 
L 163.968436 164.986552 
L 164.176092 165.22327 
L 166.460302 166.0064 
L 166.875613 166.190673 
L 167.290924 166.282362 
L 168.329202 166.518862 
L 168.952168 166.724341 
L 171.65169 167.711993 
L 172.067001 167.944104 
L 172.897623 167.994796 
L 173.105278 168.154316 
L 173.312934 168.158759 
L 174.558867 168.807732 
L 176.843077 169.169134 
L 177.258388 169.309216 
L 177.881355 169.410589 
L 178.504321 169.49887 
L 178.711977 169.504901 
L 178.919632 169.712768 
L 179.542599 169.863558 
L 179.95791 170.289063 
L 180.373221 170.39847 
L 185.979919 171.636977 
L 187.018197 171.840452 
L 189.094752 172.335023 
L 189.717718 172.361178 
L 190.133029 172.511794 
L 192.41724 172.762194 
L 192.832551 172.87491 
L 194.286139 173.134446 
L 194.493795 173.484965 
L 195.116761 173.547067 
L 195.947383 173.8668 
L 196.985661 173.991957 
L 197.400972 174.032727 
L 197.608627 174.202121 
L 199.685182 174.413665 
L 201.761737 174.626448 
L 202.384704 174.689931 
L 203.215326 174.937387 
L 203.630637 175.061418 
L 204.461259 175.300315 
L 205.084225 175.391384 
L 205.914847 175.506577 
L 206.330158 175.686113 
L 207.160781 175.951308 
L 207.783747 176.068392 
L 209.237336 176.337293 
L 210.067958 176.553967 
L 210.690924 176.646102 
L 212.144513 176.886433 
L 212.975135 177.058672 
L 214.428723 177.611317 
L 214.844034 177.761227 
L 215.259345 177.899595 
L 216.089967 178.114634 
L 216.297623 178.260316 
L 217.3359 178.400094 
L 218.374178 178.595899 
L 218.789489 178.702791 
L 220.243077 178.98506 
L 220.658388 179.034407 
L 221.281355 179.254716 
L 222.527288 179.466996 
L 222.734943 179.613707 
L 223.565565 179.734545 
L 223.980876 179.791019 
L 224.188532 180.01282 
L 227.718675 180.453599 
L 228.133986 180.540822 
L 229.172264 180.674556 
L 229.79523 180.807898 
L 230.002886 180.814853 
L 230.418197 181.047046 
L 230.625852 181.078125 
L 230.625852 181.078125 
" clip-path="url(#p9edfb9340b)" style="fill: none; stroke: #1f77b4; stroke-width: 1.5; stroke-linecap: square"/>
   </g>
   <g id="patch_3">
    <path d="M 44.203125 188.638125 
L 44.203125 22.318125 
" style="fill: none; stroke: #000000; stroke-width: 0.8; stroke-linejoin: miter; stroke-linecap: square"/>
   </g>
   <g id="patch_4">
    <path d="M 239.503125 188.638125 
L 239.503125 22.318125 
" style="fill: none; stroke: #000000; stroke-width: 0.8; stroke-linejoin: miter; stroke-linecap: square"/>
   </g>
   <g id="patch_5">
    <path d="M 44.203125 188.638125 
L 239.503125 188.638125 
" style="fill: none; stroke: #000000; stroke-width: 0.8; stroke-linejoin: miter; stroke-linecap: square"/>
   </g>
   <g id="patch_6">
    <path d="M 44.203125 22.318125 
L 239.503125 22.318125 
" style="fill: none; stroke: #000000; stroke-width: 0.8; stroke-linejoin: miter; stroke-linecap: square"/>
   </g>
   <g id="text_13">
    <!-- Feature Attributions -->
    <g transform="translate(82.21125 16.318125) scale(0.12 -0.12)">
     <defs>
      <path id="DejaVuSans-46" d="M 628 4666 
L 3309 4666 
L 3309 4134 
L 1259 4134 
L 1259 2759 
L 3109 2759 
L 3109 2228 
L 1259 2228 
L 1259 0 
L 628 0 
L 628 4666 
z
" transform="scale(0.015625)"/>
      <path id="DejaVuSans-75" d="M 544 1381 
L 544 3500 
L 1119 3500 
L 1119 1403 
Q 1119 906 1312 657 
Q 1506 409 1894 409 
Q 2359 409 2629 706 
Q 2900 1003 2900 1516 
L 2900 3500 
L 3475 3500 
L 3475 0 
L 2900 0 
L 2900 538 
Q 2691 219 2414 64 
Q 2138 -91 1772 -91 
Q 1169 -91 856 284 
Q 544 659 544 1381 
z
M 1991 3584 
L 1991 3584 
z
" transform="scale(0.015625)"/>
      <path id="DejaVuSans-41" d="M 2188 4044 
L 1331 1722 
L 3047 1722 
L 2188 4044 
z
M 1831 4666 
L 2547 4666 
L 4325 0 
L 3669 0 
L 3244 1197 
L 1141 1197 
L 716 0 
L 50 0 
L 1831 4666 
z
" transform="scale(0.015625)"/>
      <path id="DejaVuSans-62" d="M 3116 1747 
Q 3116 2381 2855 2742 
Q 2594 3103 2138 3103 
Q 1681 3103 1420 2742 
Q 1159 2381 1159 1747 
Q 1159 1113 1420 752 
Q 1681 391 2138 391 
Q 2594 391 2855 752 
Q 3116 1113 3116 1747 
z
M 1159 2969 
Q 1341 3281 1617 3432 
Q 1894 3584 2278 3584 
Q 2916 3584 3314 3078 
Q 3713 2572 3713 1747 
Q 3713 922 3314 415 
Q 2916 -91 2278 -91 
Q 1894 -91 1617 61 
Q 1341 213 1159 525 
L 1159 0 
L 581 0 
L 581 4863 
L 1159 4863 
L 1159 2969 
z
" transform="scale(0.015625)"/>
      <path id="DejaVuSans-73" d="M 2834 3397 
L 2834 2853 
Q 2591 2978 2328 3040 
Q 2066 3103 1784 3103 
Q 1356 3103 1142 2972 
Q 928 2841 928 2578 
Q 928 2378 1081 2264 
Q 1234 2150 1697 2047 
L 1894 2003 
Q 2506 1872 2764 1633 
Q 3022 1394 3022 966 
Q 3022 478 2636 193 
Q 2250 -91 1575 -91 
Q 1294 -91 989 -36 
Q 684 19 347 128 
L 347 722 
Q 666 556 975 473 
Q 1284 391 1588 391 
Q 1994 391 2212 530 
Q 2431 669 2431 922 
Q 2431 1156 2273 1281 
Q 2116 1406 1581 1522 
L 1381 1569 
Q 847 1681 609 1914 
Q 372 2147 372 2553 
Q 372 3047 722 3315 
Q 1072 3584 1716 3584 
Q 2034 3584 2315 3537 
Q 2597 3491 2834 3397 
z
" transform="scale(0.015625)"/>
     </defs>
     <use xlink:href="#DejaVuSans-46"/>
     <use xlink:href="#DejaVuSans-65" transform="translate(52.019531 0)"/>
     <use xlink:href="#DejaVuSans-61" transform="translate(113.542969 0)"/>
     <use xlink:href="#DejaVuSans-74" transform="translate(174.822266 0)"/>
     <use xlink:href="#DejaVuSans-75" transform="translate(214.03125 0)"/>
     <use xlink:href="#DejaVuSans-72" transform="translate(277.410156 0)"/>
     <use xlink:href="#DejaVuSans-65" transform="translate(316.273438 0)"/>
     <use xlink:href="#DejaVuSans-20" transform="translate(377.796875 0)"/>
     <use xlink:href="#DejaVuSans-41" transform="translate(409.583984 0)"/>
     <use xlink:href="#DejaVuSans-74" transform="translate(476.242188 0)"/>
     <use xlink:href="#DejaVuSans-74" transform="translate(515.451172 0)"/>
     <use xlink:href="#DejaVuSans-72" transform="translate(554.660156 0)"/>
     <use xlink:href="#DejaVuSans-69" transform="translate(595.773438 0)"/>
     <use xlink:href="#DejaVuSans-62" transform="translate(623.556641 0)"/>
     <use xlink:href="#DejaVuSans-75" transform="translate(687.033203 0)"/>
     <use xlink:href="#DejaVuSans-74" transform="translate(750.412109 0)"/>
     <use xlink:href="#DejaVuSans-69" transform="translate(789.621094 0)"/>
     <use xlink:href="#DejaVuSans-6f" transform="translate(817.404297 0)"/>
     <use xlink:href="#DejaVuSans-6e" transform="translate(878.585938 0)"/>
     <use xlink:href="#DejaVuSans-73" transform="translate(941.964844 0)"/>
    </g>
   </g>
   <g id="axes_2">
    <g id="patch_7">
     <path d="M 198.490125 107.141325 
L 227.785125 107.141325 
L 227.785125 40.613325 
L 198.490125 40.613325 
z
" style="fill: #ffffff"/>
    </g>
    <g id="patch_8">
     <path d="M 198.490125 41.563725 
L 226.390125 41.563725 
L 226.390125 49.166925 
L 198.490125 49.166925 
z
" clip-path="url(#pd3cd3cff4b)" style="fill: #3274a1"/>
    </g>
    <g id="patch_9">
     <path d="M 198.490125 51.067725 
L 223.942757 51.067725 
L 223.942757 58.670925 
L 198.490125 58.670925 
z
" clip-path="url(#pd3cd3cff4b)" style="fill: #3274a1"/>
    </g>
    <g id="patch_10">
     <path d="M 198.490125 60.571725 
L 222.963809 60.571725 
L 222.963809 68.174925 
L 198.490125 68.174925 
z
" clip-path="url(#pd3cd3cff4b)" style="fill: #3274a1"/>
    </g>
    <g id="patch_11">
     <path d="M 198.490125 70.075725 
L 219.04802 70.075725 
L 219.04802 77.678925 
L 198.490125 77.678925 
z
" clip-path="url(#pd3cd3cff4b)" style="fill: #3274a1"/>
    </g>
    <g id="patch_12">
     <path d="M 198.490125 79.579725 
L 215.13223 79.579725 
L 215.13223 87.182925 
L 198.490125 87.182925 
z
" clip-path="url(#pd3cd3cff4b)" style="fill: #3274a1"/>
    </g>
    <g id="patch_13">
     <path d="M 198.490125 89.083725 
L 206.811178 89.083725 
L 206.811178 96.686925 
L 198.490125 96.686925 
z
" clip-path="url(#pd3cd3cff4b)" style="fill: #3274a1"/>
    </g>
    <g id="patch_14">
     <path d="M 198.490125 98.587725 
L 205.83223 98.587725 
L 205.83223 106.190925 
L 198.490125 106.190925 
z
" clip-path="url(#pd3cd3cff4b)" style="fill: #3274a1"/>
    </g>
    <g id="matplotlib.axis_3">
     <g id="xtick_6">
      <g id="line2d_12">
       <g>
        <use xlink:href="#m6d940bf089" x="198.490125" y="107.141325" style="stroke: #000000; stroke-width: 0.8"/>
       </g>
      </g>
      <g id="text_14">
       <!-- 0 -->
       <g transform="translate(196.26325 119.460231) scale(0.07 -0.07)">
        <use xlink:href="#DejaVuSans-30"/>
       </g>
      </g>
     </g>
     <g id="xtick_7">
      <g id="line2d_13">
       <g>
        <use xlink:href="#m6d940bf089" x="222.963809" y="107.141325" style="stroke: #000000; stroke-width: 0.8"/>
       </g>
      </g>
      <g id="text_15">
       <!-- 50 -->
       <g transform="translate(218.510059 119.460231) scale(0.07 -0.07)">
        <defs>
         <path id="DejaVuSans-35" d="M 691 4666 
L 3169 4666 
L 3169 4134 
L 1269 4134 
L 1269 2991 
Q 1406 3038 1543 3061 
Q 1681 3084 1819 3084 
Q 2600 3084 3056 2656 
Q 3513 2228 3513 1497 
Q 3513 744 3044 326 
Q 2575 -91 1722 -91 
Q 1428 -91 1123 -41 
Q 819 9 494 109 
L 494 744 
Q 775 591 1075 516 
Q 1375 441 1709 441 
Q 2250 441 2565 725 
Q 2881 1009 2881 1497 
Q 2881 1984 2565 2268 
Q 2250 2553 1709 2553 
Q 1456 2553 1204 2497 
Q 953 2441 691 2322 
L 691 4666 
z
" transform="scale(0.015625)"/>
        </defs>
        <use xlink:href="#DejaVuSans-35"/>
        <use xlink:href="#DejaVuSans-30" transform="translate(63.623047 0)"/>
       </g>
      </g>
     </g>
     <g id="text_16">
      <!-- Features -->
      <g transform="translate(198.091453 130.234919) scale(0.07 -0.07)">
       <use xlink:href="#DejaVuSans-46"/>
       <use xlink:href="#DejaVuSans-65" transform="translate(52.019531 0)"/>
       <use xlink:href="#DejaVuSans-61" transform="translate(113.542969 0)"/>
       <use xlink:href="#DejaVuSans-74" transform="translate(174.822266 0)"/>
       <use xlink:href="#DejaVuSans-75" transform="translate(214.03125 0)"/>
       <use xlink:href="#DejaVuSans-72" transform="translate(277.410156 0)"/>
       <use xlink:href="#DejaVuSans-65" transform="translate(316.273438 0)"/>
       <use xlink:href="#DejaVuSans-73" transform="translate(377.796875 0)"/>
      </g>
     </g>
    </g>
    <g id="matplotlib.axis_4">
     <g id="ytick_6">
      <g id="line2d_14"/>
      <g id="text_17">
       <!-- Embryonic Hindlimb -->
       <g transform="translate(124.305437 48.024778) scale(0.07 -0.07)">
        <defs>
         <path id="DejaVuSans-45" d="M 628 4666 
L 3578 4666 
L 3578 4134 
L 1259 4134 
L 1259 2753 
L 3481 2753 
L 3481 2222 
L 1259 2222 
L 1259 531 
L 3634 531 
L 3634 0 
L 628 0 
L 628 4666 
z
" transform="scale(0.015625)"/>
         <path id="DejaVuSans-6d" d="M 3328 2828 
Q 3544 3216 3844 3400 
Q 4144 3584 4550 3584 
Q 5097 3584 5394 3201 
Q 5691 2819 5691 2113 
L 5691 0 
L 5113 0 
L 5113 2094 
Q 5113 2597 4934 2840 
Q 4756 3084 4391 3084 
Q 3944 3084 3684 2787 
Q 3425 2491 3425 1978 
L 3425 0 
L 2847 0 
L 2847 2094 
Q 2847 2600 2669 2842 
Q 2491 3084 2119 3084 
Q 1678 3084 1418 2786 
Q 1159 2488 1159 1978 
L 1159 0 
L 581 0 
L 581 3500 
L 1159 3500 
L 1159 2956 
Q 1356 3278 1631 3431 
Q 1906 3584 2284 3584 
Q 2666 3584 2933 3390 
Q 3200 3197 3328 2828 
z
" transform="scale(0.015625)"/>
         <path id="DejaVuSans-79" d="M 2059 -325 
Q 1816 -950 1584 -1140 
Q 1353 -1331 966 -1331 
L 506 -1331 
L 506 -850 
L 844 -850 
Q 1081 -850 1212 -737 
Q 1344 -625 1503 -206 
L 1606 56 
L 191 3500 
L 800 3500 
L 1894 763 
L 2988 3500 
L 3597 3500 
L 2059 -325 
z
" transform="scale(0.015625)"/>
         <path id="DejaVuSans-48" d="M 628 4666 
L 1259 4666 
L 1259 2753 
L 3553 2753 
L 3553 4666 
L 4184 4666 
L 4184 0 
L 3553 0 
L 3553 2222 
L 1259 2222 
L 1259 0 
L 628 0 
L 628 4666 
z
" transform="scale(0.015625)"/>
         <path id="DejaVuSans-64" d="M 2906 2969 
L 2906 4863 
L 3481 4863 
L 3481 0 
L 2906 0 
L 2906 525 
Q 2725 213 2448 61 
Q 2172 -91 1784 -91 
Q 1150 -91 751 415 
Q 353 922 353 1747 
Q 353 2572 751 3078 
Q 1150 3584 1784 3584 
Q 2172 3584 2448 3432 
Q 2725 3281 2906 2969 
z
M 947 1747 
Q 947 1113 1208 752 
Q 1469 391 1925 391 
Q 2381 391 2643 752 
Q 2906 1113 2906 1747 
Q 2906 2381 2643 2742 
Q 2381 3103 1925 3103 
Q 1469 3103 1208 2742 
Q 947 2381 947 1747 
z
" transform="scale(0.015625)"/>
        </defs>
        <use xlink:href="#DejaVuSans-45"/>
        <use xlink:href="#DejaVuSans-6d" transform="translate(63.183594 0)"/>
        <use xlink:href="#DejaVuSans-62" transform="translate(160.595703 0)"/>
        <use xlink:href="#DejaVuSans-72" transform="translate(224.072266 0)"/>
        <use xlink:href="#DejaVuSans-79" transform="translate(265.185547 0)"/>
        <use xlink:href="#DejaVuSans-6f" transform="translate(324.365234 0)"/>
        <use xlink:href="#DejaVuSans-6e" transform="translate(385.546875 0)"/>
        <use xlink:href="#DejaVuSans-69" transform="translate(448.925781 0)"/>
        <use xlink:href="#DejaVuSans-63" transform="translate(476.708984 0)"/>
        <use xlink:href="#DejaVuSans-20" transform="translate(531.689453 0)"/>
        <use xlink:href="#DejaVuSans-48" transform="translate(563.476562 0)"/>
        <use xlink:href="#DejaVuSans-69" transform="translate(638.671875 0)"/>
        <use xlink:href="#DejaVuSans-6e" transform="translate(666.455078 0)"/>
        <use xlink:href="#DejaVuSans-64" transform="translate(729.833984 0)"/>
        <use xlink:href="#DejaVuSans-6c" transform="translate(793.310547 0)"/>
        <use xlink:href="#DejaVuSans-69" transform="translate(821.09375 0)"/>
        <use xlink:href="#DejaVuSans-6d" transform="translate(848.876953 0)"/>
        <use xlink:href="#DejaVuSans-62" transform="translate(946.289062 0)"/>
       </g>
      </g>
     </g>
     <g id="ytick_7">
      <g id="line2d_15"/>
      <g id="text_18">
       <!-- Cranial Neural Crest -->
       <g transform="translate(124.471688 57.528778) scale(0.07 -0.07)">
        <defs>
         <path id="DejaVuSans-4e" d="M 628 4666 
L 1478 4666 
L 3547 763 
L 3547 4666 
L 4159 4666 
L 4159 0 
L 3309 0 
L 1241 3903 
L 1241 0 
L 628 0 
L 628 4666 
z
" transform="scale(0.015625)"/>
        </defs>
        <use xlink:href="#DejaVuSans-43"/>
        <use xlink:href="#DejaVuSans-72" transform="translate(69.824219 0)"/>
        <use xlink:href="#DejaVuSans-61" transform="translate(110.9375 0)"/>
        <use xlink:href="#DejaVuSans-6e" transform="translate(172.216797 0)"/>
        <use xlink:href="#DejaVuSans-69" transform="translate(235.595703 0)"/>
        <use xlink:href="#DejaVuSans-61" transform="translate(263.378906 0)"/>
        <use xlink:href="#DejaVuSans-6c" transform="translate(324.658203 0)"/>
        <use xlink:href="#DejaVuSans-20" transform="translate(352.441406 0)"/>
        <use xlink:href="#DejaVuSans-4e" transform="translate(384.228516 0)"/>
        <use xlink:href="#DejaVuSans-65" transform="translate(459.033203 0)"/>
        <use xlink:href="#DejaVuSans-75" transform="translate(520.556641 0)"/>
        <use xlink:href="#DejaVuSans-72" transform="translate(583.935547 0)"/>
        <use xlink:href="#DejaVuSans-61" transform="translate(625.048828 0)"/>
        <use xlink:href="#DejaVuSans-6c" transform="translate(686.328125 0)"/>
        <use xlink:href="#DejaVuSans-20" transform="translate(714.111328 0)"/>
        <use xlink:href="#DejaVuSans-43" transform="translate(745.898438 0)"/>
        <use xlink:href="#DejaVuSans-72" transform="translate(815.722656 0)"/>
        <use xlink:href="#DejaVuSans-65" transform="translate(854.585938 0)"/>
        <use xlink:href="#DejaVuSans-73" transform="translate(916.109375 0)"/>
        <use xlink:href="#DejaVuSans-74" transform="translate(968.208984 0)"/>
       </g>
      </g>
     </g>
     <g id="ytick_8">
      <g id="line2d_16"/>
      <g id="text_19">
       <!-- Primitive Streak -->
       <g transform="translate(139.383875 67.032778) scale(0.07 -0.07)">
        <defs>
         <path id="DejaVuSans-50" d="M 1259 4147 
L 1259 2394 
L 2053 2394 
Q 2494 2394 2734 2622 
Q 2975 2850 2975 3272 
Q 2975 3691 2734 3919 
Q 2494 4147 2053 4147 
L 1259 4147 
z
M 628 4666 
L 2053 4666 
Q 2838 4666 3239 4311 
Q 3641 3956 3641 3272 
Q 3641 2581 3239 2228 
Q 2838 1875 2053 1875 
L 1259 1875 
L 1259 0 
L 628 0 
L 628 4666 
z
" transform="scale(0.015625)"/>
         <path id="DejaVuSans-76" d="M 191 3500 
L 800 3500 
L 1894 563 
L 2988 3500 
L 3597 3500 
L 2284 0 
L 1503 0 
L 191 3500 
z
" transform="scale(0.015625)"/>
        </defs>
        <use xlink:href="#DejaVuSans-50"/>
        <use xlink:href="#DejaVuSans-72" transform="translate(58.552734 0)"/>
        <use xlink:href="#DejaVuSans-69" transform="translate(99.666016 0)"/>
        <use xlink:href="#DejaVuSans-6d" transform="translate(127.449219 0)"/>
        <use xlink:href="#DejaVuSans-69" transform="translate(224.861328 0)"/>
        <use xlink:href="#DejaVuSans-74" transform="translate(252.644531 0)"/>
        <use xlink:href="#DejaVuSans-69" transform="translate(291.853516 0)"/>
        <use xlink:href="#DejaVuSans-76" transform="translate(319.636719 0)"/>
        <use xlink:href="#DejaVuSans-65" transform="translate(378.816406 0)"/>
        <use xlink:href="#DejaVuSans-20" transform="translate(440.339844 0)"/>
        <use xlink:href="#DejaVuSans-53" transform="translate(472.126953 0)"/>
        <use xlink:href="#DejaVuSans-74" transform="translate(535.603516 0)"/>
        <use xlink:href="#DejaVuSans-72" transform="translate(574.8125 0)"/>
        <use xlink:href="#DejaVuSans-65" transform="translate(613.675781 0)"/>
        <use xlink:href="#DejaVuSans-61" transform="translate(675.199219 0)"/>
        <use xlink:href="#DejaVuSans-6b" transform="translate(736.478516 0)"/>
       </g>
      </g>
     </g>
     <g id="ytick_9">
      <g id="line2d_17"/>
      <g id="text_20">
       <!-- Neuromesodermal Progenitor -->
       <g transform="translate(92.028875 76.536778) scale(0.07 -0.07)">
        <defs>
         <path id="DejaVuSans-67" d="M 2906 1791 
Q 2906 2416 2648 2759 
Q 2391 3103 1925 3103 
Q 1463 3103 1205 2759 
Q 947 2416 947 1791 
Q 947 1169 1205 825 
Q 1463 481 1925 481 
Q 2391 481 2648 825 
Q 2906 1169 2906 1791 
z
M 3481 434 
Q 3481 -459 3084 -895 
Q 2688 -1331 1869 -1331 
Q 1566 -1331 1297 -1286 
Q 1028 -1241 775 -1147 
L 775 -588 
Q 1028 -725 1275 -790 
Q 1522 -856 1778 -856 
Q 2344 -856 2625 -561 
Q 2906 -266 2906 331 
L 2906 616 
Q 2728 306 2450 153 
Q 2172 0 1784 0 
Q 1141 0 747 490 
Q 353 981 353 1791 
Q 353 2603 747 3093 
Q 1141 3584 1784 3584 
Q 2172 3584 2450 3431 
Q 2728 3278 2906 2969 
L 2906 3500 
L 3481 3500 
L 3481 434 
z
" transform="scale(0.015625)"/>
        </defs>
        <use xlink:href="#DejaVuSans-4e"/>
        <use xlink:href="#DejaVuSans-65" transform="translate(74.804688 0)"/>
        <use xlink:href="#DejaVuSans-75" transform="translate(136.328125 0)"/>
        <use xlink:href="#DejaVuSans-72" transform="translate(199.707031 0)"/>
        <use xlink:href="#DejaVuSans-6f" transform="translate(238.570312 0)"/>
        <use xlink:href="#DejaVuSans-6d" transform="translate(299.751953 0)"/>
        <use xlink:href="#DejaVuSans-65" transform="translate(397.164062 0)"/>
        <use xlink:href="#DejaVuSans-73" transform="translate(458.6875 0)"/>
        <use xlink:href="#DejaVuSans-6f" transform="translate(510.787109 0)"/>
        <use xlink:href="#DejaVuSans-64" transform="translate(571.96875 0)"/>
        <use xlink:href="#DejaVuSans-65" transform="translate(635.445312 0)"/>
        <use xlink:href="#DejaVuSans-72" transform="translate(696.96875 0)"/>
        <use xlink:href="#DejaVuSans-6d" transform="translate(736.332031 0)"/>
        <use xlink:href="#DejaVuSans-61" transform="translate(833.744141 0)"/>
        <use xlink:href="#DejaVuSans-6c" transform="translate(895.023438 0)"/>
        <use xlink:href="#DejaVuSans-20" transform="translate(922.806641 0)"/>
        <use xlink:href="#DejaVuSans-50" transform="translate(954.59375 0)"/>
        <use xlink:href="#DejaVuSans-72" transform="translate(1013.146484 0)"/>
        <use xlink:href="#DejaVuSans-6f" transform="translate(1052.009766 0)"/>
        <use xlink:href="#DejaVuSans-67" transform="translate(1113.191406 0)"/>
        <use xlink:href="#DejaVuSans-65" transform="translate(1176.667969 0)"/>
        <use xlink:href="#DejaVuSans-6e" transform="translate(1238.191406 0)"/>
        <use xlink:href="#DejaVuSans-69" transform="translate(1301.570312 0)"/>
        <use xlink:href="#DejaVuSans-74" transform="translate(1329.353516 0)"/>
        <use xlink:href="#DejaVuSans-6f" transform="translate(1368.5625 0)"/>
        <use xlink:href="#DejaVuSans-72" transform="translate(1429.744141 0)"/>
       </g>
      </g>
     </g>
     <g id="ytick_10">
      <g id="line2d_18"/>
      <g id="text_21">
       <!-- EMT Hallmark -->
       <g transform="translate(146.544656 86.040778) scale(0.07 -0.07)">
        <defs>
         <path id="DejaVuSans-4d" d="M 628 4666 
L 1569 4666 
L 2759 1491 
L 3956 4666 
L 4897 4666 
L 4897 0 
L 4281 0 
L 4281 4097 
L 3078 897 
L 2444 897 
L 1241 4097 
L 1241 0 
L 628 0 
L 628 4666 
z
" transform="scale(0.015625)"/>
         <path id="DejaVuSans-54" d="M -19 4666 
L 3928 4666 
L 3928 4134 
L 2272 4134 
L 2272 0 
L 1638 0 
L 1638 4134 
L -19 4134 
L -19 4666 
z
" transform="scale(0.015625)"/>
        </defs>
        <use xlink:href="#DejaVuSans-45"/>
        <use xlink:href="#DejaVuSans-4d" transform="translate(63.183594 0)"/>
        <use xlink:href="#DejaVuSans-54" transform="translate(149.462891 0)"/>
        <use xlink:href="#DejaVuSans-20" transform="translate(210.546875 0)"/>
        <use xlink:href="#DejaVuSans-48" transform="translate(242.333984 0)"/>
        <use xlink:href="#DejaVuSans-61" transform="translate(317.529297 0)"/>
        <use xlink:href="#DejaVuSans-6c" transform="translate(378.808594 0)"/>
        <use xlink:href="#DejaVuSans-6c" transform="translate(406.591797 0)"/>
        <use xlink:href="#DejaVuSans-6d" transform="translate(434.375 0)"/>
        <use xlink:href="#DejaVuSans-61" transform="translate(531.787109 0)"/>
        <use xlink:href="#DejaVuSans-72" transform="translate(593.066406 0)"/>
        <use xlink:href="#DejaVuSans-6b" transform="translate(634.179688 0)"/>
       </g>
      </g>
     </g>
     <g id="ytick_11">
      <g id="line2d_19"/>
      <g id="text_22">
       <!-- Schwann Cell Precursor -->
       <g transform="translate(112.7445 95.544778) scale(0.07 -0.07)">
        <defs>
         <path id="DejaVuSans-68" d="M 3513 2113 
L 3513 0 
L 2938 0 
L 2938 2094 
Q 2938 2591 2744 2837 
Q 2550 3084 2163 3084 
Q 1697 3084 1428 2787 
Q 1159 2491 1159 1978 
L 1159 0 
L 581 0 
L 581 4863 
L 1159 4863 
L 1159 2956 
Q 1366 3272 1645 3428 
Q 1925 3584 2291 3584 
Q 2894 3584 3203 3211 
Q 3513 2838 3513 2113 
z
" transform="scale(0.015625)"/>
         <path id="DejaVuSans-77" d="M 269 3500 
L 844 3500 
L 1563 769 
L 2278 3500 
L 2956 3500 
L 3675 769 
L 4391 3500 
L 4966 3500 
L 4050 0 
L 3372 0 
L 2619 2869 
L 1863 0 
L 1184 0 
L 269 3500 
z
" transform="scale(0.015625)"/>
        </defs>
        <use xlink:href="#DejaVuSans-53"/>
        <use xlink:href="#DejaVuSans-63" transform="translate(63.476562 0)"/>
        <use xlink:href="#DejaVuSans-68" transform="translate(118.457031 0)"/>
        <use xlink:href="#DejaVuSans-77" transform="translate(181.835938 0)"/>
        <use xlink:href="#DejaVuSans-61" transform="translate(263.623047 0)"/>
        <use xlink:href="#DejaVuSans-6e" transform="translate(324.902344 0)"/>
        <use xlink:href="#DejaVuSans-6e" transform="translate(388.28125 0)"/>
        <use xlink:href="#DejaVuSans-20" transform="translate(451.660156 0)"/>
        <use xlink:href="#DejaVuSans-43" transform="translate(483.447266 0)"/>
        <use xlink:href="#DejaVuSans-65" transform="translate(553.271484 0)"/>
        <use xlink:href="#DejaVuSans-6c" transform="translate(614.794922 0)"/>
        <use xlink:href="#DejaVuSans-6c" transform="translate(642.578125 0)"/>
        <use xlink:href="#DejaVuSans-20" transform="translate(670.361328 0)"/>
        <use xlink:href="#DejaVuSans-50" transform="translate(702.148438 0)"/>
        <use xlink:href="#DejaVuSans-72" transform="translate(760.701172 0)"/>
        <use xlink:href="#DejaVuSans-65" transform="translate(799.564453 0)"/>
        <use xlink:href="#DejaVuSans-63" transform="translate(861.087891 0)"/>
        <use xlink:href="#DejaVuSans-75" transform="translate(916.068359 0)"/>
        <use xlink:href="#DejaVuSans-72" transform="translate(979.447266 0)"/>
        <use xlink:href="#DejaVuSans-73" transform="translate(1020.560547 0)"/>
        <use xlink:href="#DejaVuSans-6f" transform="translate(1072.660156 0)"/>
        <use xlink:href="#DejaVuSans-72" transform="translate(1133.841797 0)"/>
       </g>
      </g>
     </g>
     <g id="ytick_12">
      <g id="line2d_20"/>
      <g id="text_23">
       <!-- Splanchnic Mesoderm -->
       <g transform="translate(118.09075 105.048778) scale(0.07 -0.07)">
        <defs>
         <path id="DejaVuSans-70" d="M 1159 525 
L 1159 -1331 
L 581 -1331 
L 581 3500 
L 1159 3500 
L 1159 2969 
Q 1341 3281 1617 3432 
Q 1894 3584 2278 3584 
Q 2916 3584 3314 3078 
Q 3713 2572 3713 1747 
Q 3713 922 3314 415 
Q 2916 -91 2278 -91 
Q 1894 -91 1617 61 
Q 1341 213 1159 525 
z
M 3116 1747 
Q 3116 2381 2855 2742 
Q 2594 3103 2138 3103 
Q 1681 3103 1420 2742 
Q 1159 2381 1159 1747 
Q 1159 1113 1420 752 
Q 1681 391 2138 391 
Q 2594 391 2855 752 
Q 3116 1113 3116 1747 
z
" transform="scale(0.015625)"/>
        </defs>
        <use xlink:href="#DejaVuSans-53"/>
        <use xlink:href="#DejaVuSans-70" transform="translate(63.476562 0)"/>
        <use xlink:href="#DejaVuSans-6c" transform="translate(126.953125 0)"/>
        <use xlink:href="#DejaVuSans-61" transform="translate(154.736328 0)"/>
        <use xlink:href="#DejaVuSans-6e" transform="translate(216.015625 0)"/>
        <use xlink:href="#DejaVuSans-63" transform="translate(279.394531 0)"/>
        <use xlink:href="#DejaVuSans-68" transform="translate(334.375 0)"/>
        <use xlink:href="#DejaVuSans-6e" transform="translate(397.753906 0)"/>
        <use xlink:href="#DejaVuSans-69" transform="translate(461.132812 0)"/>
        <use xlink:href="#DejaVuSans-63" transform="translate(488.916016 0)"/>
        <use xlink:href="#DejaVuSans-20" transform="translate(543.896484 0)"/>
        <use xlink:href="#DejaVuSans-4d" transform="translate(575.683594 0)"/>
        <use xlink:href="#DejaVuSans-65" transform="translate(661.962891 0)"/>
        <use xlink:href="#DejaVuSans-73" transform="translate(723.486328 0)"/>
        <use xlink:href="#DejaVuSans-6f" transform="translate(775.585938 0)"/>
        <use xlink:href="#DejaVuSans-64" transform="translate(836.767578 0)"/>
        <use xlink:href="#DejaVuSans-65" transform="translate(900.244141 0)"/>
        <use xlink:href="#DejaVuSans-72" transform="translate(961.767578 0)"/>
        <use xlink:href="#DejaVuSans-6d" transform="translate(1001.130859 0)"/>
       </g>
      </g>
     </g>
    </g>
    <g id="line2d_21">
     <path clip-path="url(#pd3cd3cff4b)" style="fill: none; stroke: #424242; stroke-width: 2.25; stroke-linecap: square"/>
    </g>
    <g id="line2d_22">
     <path clip-path="url(#pd3cd3cff4b)" style="fill: none; stroke: #424242; stroke-width: 2.25; stroke-linecap: square"/>
    </g>
    <g id="line2d_23">
     <path clip-path="url(#pd3cd3cff4b)" style="fill: none; stroke: #424242; stroke-width: 2.25; stroke-linecap: square"/>
    </g>
    <g id="line2d_24">
     <path clip-path="url(#pd3cd3cff4b)" style="fill: none; stroke: #424242; stroke-width: 2.25; stroke-linecap: square"/>
    </g>
    <g id="line2d_25">
     <path clip-path="url(#pd3cd3cff4b)" style="fill: none; stroke: #424242; stroke-width: 2.25; stroke-linecap: square"/>
    </g>
    <g id="line2d_26">
     <path clip-path="url(#pd3cd3cff4b)" style="fill: none; stroke: #424242; stroke-width: 2.25; stroke-linecap: square"/>
    </g>
    <g id="line2d_27">
     <path clip-path="url(#pd3cd3cff4b)" style="fill: none; stroke: #424242; stroke-width: 2.25; stroke-linecap: square"/>
    </g>
    <g id="patch_15">
     <path d="M 198.490125 107.141325 
L 198.490125 40.613325 
" style="fill: none; stroke: #000000; stroke-width: 0.8; stroke-linejoin: miter; stroke-linecap: square"/>
    </g>
    <g id="patch_16">
     <path d="M 227.785125 107.141325 
L 227.785125 40.613325 
" style="fill: none; stroke: #000000; stroke-width: 0.8; stroke-linejoin: miter; stroke-linecap: square"/>
    </g>
    <g id="patch_17">
     <path d="M 198.490125 107.141325 
L 227.785125 107.141325 
" style="fill: none; stroke: #000000; stroke-width: 0.8; stroke-linejoin: miter; stroke-linecap: square"/>
    </g>
    <g id="patch_18">
     <path d="M 198.490125 40.613325 
L 227.785125 40.613325 
" style="fill: none; stroke: #000000; stroke-width: 0.8; stroke-linejoin: miter; stroke-linecap: square"/>
    </g>
    <g id="text_24">
     <!-- Top 200 -->
     <g transform="translate(199.438406 36.613325) scale(0.07 -0.07)">
      <use xlink:href="#DejaVuSans-54"/>
      <use xlink:href="#DejaVuSans-6f" transform="translate(44.083984 0)"/>
      <use xlink:href="#DejaVuSans-70" transform="translate(105.265625 0)"/>
      <use xlink:href="#DejaVuSans-20" transform="translate(168.742188 0)"/>
      <use xlink:href="#DejaVuSans-32" transform="translate(200.529297 0)"/>
      <use xlink:href="#DejaVuSans-30" transform="translate(264.152344 0)"/>
      <use xlink:href="#DejaVuSans-30" transform="translate(327.775391 0)"/>
     </g>
    </g>
   </g>
  </g>
 </g>
 <defs>
  <clipPath id="p9edfb9340b">
   <rect x="44.203125" y="22.318125" width="195.3" height="166.32"/>
  </clipPath>
  <clipPath id="pd3cd3cff4b">
   <rect x="198.490125" y="40.613325" width="29.295" height="66.528"/>
  </clipPath>
 </defs>
</svg>
