<?xml version="1.0" encoding="utf-8" standalone="no"?>
<!DOCTYPE svg PUBLIC "-//W3C//DTD SVG 1.1//EN"
  "http://www.w3.org/Graphics/SVG/1.1/DTD/svg11.dtd">
<svg xmlns:xlink="http://www.w3.org/1999/xlink" width="341.35pt" height="240.054375pt" viewBox="0 0 341.35 240.054375" xmlns="http://www.w3.org/2000/svg" version="1.1">
 <metadata>
  <rdf:RDF xmlns:dc="http://purl.org/dc/elements/1.1/" xmlns:cc="http://creativecommons.org/ns#" xmlns:rdf="http://www.w3.org/1999/02/22-rdf-syntax-ns#">
   <cc:Work>
    <dc:type rdf:resource="http://purl.org/dc/dcmitype/StillImage"/>
    <dc:date>2025-10-10T18:41:53.831392</dc:date>
    <dc:format>image/svg+xml</dc:format>
    <dc:creator>
     <cc:Agent>
      <dc:title>Matplotlib v3.10.6, https://matplotlib.org/</dc:title>
     </cc:Agent>
    </dc:creator>
   </cc:Work>
  </rdf:RDF>
 </metadata>
 <defs>
  <style type="text/css">*{stroke-linejoin: round; stroke-linecap: butt}</style>
 </defs>
 <g id="figure_1">
  <g id="patch_1">
   <path d="M 0 240.054375 
L 341.35 240.054375 
L 341.35 0 
L 0 0 
z
" style="fill: #ffffff"/>
  </g>
  <g id="axes_1">
   <g id="patch_2">
    <path d="M 46.965625 202.498125 
L 270.165625 202.498125 
L 270.165625 22.318125 
L 46.965625 22.318125 
z
" style="fill: #ffffff"/>
   </g>
   <g id="FillBetweenPolyCollection_1">
    <defs>
     <path id="me75abe9e98" d="M 57.11108 -212.636816 
L 57.11108 -212.636816 
L 57.891499 -212.636816 
L 57.891499 -212.636816 
L 58.671919 -212.636816 
L 58.671919 -212.636816 
L 59.452338 -212.636816 
L 59.452338 -212.636816 
L 60.232758 -212.636816 
L 60.232758 -212.636816 
L 61.013177 -212.636816 
L 61.013177 -212.636816 
L 61.793597 -212.636816 
L 61.793597 -212.636816 
L 62.574017 -212.636816 
L 62.574017 -212.636816 
L 63.354436 -212.636816 
L 63.354436 -212.636816 
L 64.134856 -212.636816 
L 64.134856 -212.636816 
L 64.915275 -212.636816 
L 64.915275 -212.636816 
L 65.695695 -212.636816 
L 65.695695 -212.636816 
L 66.476115 -212.636816 
L 66.476115 -212.636816 
L 67.256534 -212.636816 
L 67.256534 -212.636816 
L 68.036954 -212.636816 
L 68.036954 -203.45419 
L 68.817373 -203.45419 
L 68.817373 -203.45419 
L 69.597793 -203.45419 
L 69.597793 -203.45419 
L 70.378212 -203.45419 
L 70.378212 -203.45419 
L 71.158632 -203.45419 
L 71.158632 -201.917526 
L 71.939052 -201.917526 
L 71.939052 -200.320127 
L 72.719471 -200.320127 
L 72.719471 -200.320127 
L 73.499891 -200.320127 
L 73.499891 -200.320127 
L 74.28031 -200.320127 
L 74.28031 -200.320127 
L 75.06073 -200.320127 
L 75.06073 -200.320127 
L 75.841149 -200.320127 
L 75.841149 -200.320127 
L 76.621569 -200.320127 
L 76.621569 -200.320127 
L 77.401989 -200.320127 
L 77.401989 -200.320127 
L 78.182408 -200.320127 
L 78.182408 -200.320127 
L 78.962828 -200.320127 
L 78.962828 -200.320127 
L 79.743247 -200.320127 
L 79.743247 -198.586081 
L 80.523667 -198.586081 
L 80.523667 -198.586081 
L 81.304087 -198.586081 
L 81.304087 -198.586081 
L 82.084506 -198.586081 
L 82.084506 -198.586081 
L 82.864926 -198.586081 
L 82.864926 -198.586081 
L 83.645345 -198.586081 
L 83.645345 -198.586081 
L 84.425765 -198.586081 
L 84.425765 -196.856426 
L 85.206184 -196.856426 
L 85.206184 -196.856426 
L 85.986604 -196.856426 
L 85.986604 -195.12742 
L 86.767024 -195.12742 
L 86.767024 -195.12742 
L 87.547443 -195.12742 
L 87.547443 -195.12742 
L 88.327863 -195.12742 
L 88.327863 -193.416692 
L 89.108282 -193.416692 
L 89.108282 -193.416692 
L 89.888702 -193.416692 
L 89.888702 -191.718974 
L 90.669122 -191.718974 
L 90.669122 -191.718974 
L 91.449541 -191.718974 
L 91.449541 -191.718974 
L 92.229961 -191.718974 
L 92.229961 -191.718974 
L 93.01038 -191.718974 
L 93.01038 -190.030352 
L 93.7908 -190.030352 
L 93.7908 -190.030352 
L 94.571219 -190.030352 
L 94.571219 -188.368143 
L 95.351639 -188.368143 
L 95.351639 -185.030458 
L 96.132059 -185.030458 
L 96.132059 -185.030458 
L 96.912478 -185.030458 
L 96.912478 -185.030458 
L 97.692898 -185.030458 
L 97.692898 -185.030458 
L 98.473317 -185.030458 
L 98.473317 -185.030458 
L 99.253737 -185.030458 
L 99.253737 -185.030458 
L 100.034156 -185.030458 
L 100.034156 -185.030458 
L 100.814576 -185.030458 
L 100.814576 -185.030458 
L 101.594996 -185.030458 
L 101.594996 -185.030458 
L 102.375415 -185.030458 
L 102.375415 -181.731505 
L 103.155835 -181.731505 
L 103.155835 -180.10736 
L 103.936254 -180.10736 
L 103.936254 -180.10736 
L 104.716674 -180.10736 
L 104.716674 -180.10736 
L 105.497094 -180.10736 
L 105.497094 -178.415647 
L 106.277513 -178.415647 
L 106.277513 -178.415647 
L 107.057933 -178.415647 
L 107.057933 -178.415647 
L 107.838352 -178.415647 
L 107.838352 -178.415647 
L 108.618772 -178.415647 
L 108.618772 -178.415647 
L 109.399191 -178.415647 
L 109.399191 -176.602788 
L 110.179611 -176.602788 
L 110.179611 -176.602788 
L 110.960031 -176.602788 
L 110.960031 -176.602788 
L 111.74045 -176.602788 
L 111.74045 -176.602788 
L 112.52087 -176.602788 
L 112.52087 -176.602788 
L 113.301289 -176.602788 
L 113.301289 -176.602788 
L 114.081709 -176.602788 
L 114.081709 -174.810677 
L 114.862128 -174.810677 
L 114.862128 -174.810677 
L 115.642548 -174.810677 
L 115.642548 -174.810677 
L 116.422968 -174.810677 
L 116.422968 -174.810677 
L 117.203387 -174.810677 
L 117.203387 -174.810677 
L 117.983807 -174.810677 
L 117.983807 -174.810677 
L 118.764226 -174.810677 
L 118.764226 -172.96141 
L 119.544646 -172.96141 
L 119.544646 -172.96141 
L 120.325066 -172.96141 
L 120.325066 -172.96141 
L 121.105485 -172.96141 
L 121.105485 -172.96141 
L 121.885905 -172.96141 
L 121.885905 -172.96141 
L 122.666324 -172.96141 
L 122.666324 -172.96141 
L 123.446744 -172.96141 
L 123.446744 -172.96141 
L 124.227163 -172.96141 
L 124.227163 -172.96141 
L 125.007583 -172.96141 
L 125.007583 -172.96141 
L 125.788003 -172.96141 
L 125.788003 -170.992345 
L 126.568422 -170.992345 
L 126.568422 -170.992345 
L 127.348842 -170.992345 
L 127.348842 -170.992345 
L 128.129261 -170.992345 
L 128.129261 -170.992345 
L 128.909681 -170.992345 
L 128.909681 -170.992345 
L 129.690101 -170.992345 
L 129.690101 -170.992345 
L 130.47052 -170.992345 
L 130.47052 -170.992345 
L 131.25094 -170.992345 
L 131.25094 -170.992345 
L 132.031359 -170.992345 
L 132.031359 -170.992345 
L 132.811779 -170.992345 
L 132.811779 -170.992345 
L 133.592198 -170.992345 
L 133.592198 -170.992345 
L 134.372618 -170.992345 
L 134.372618 -170.992345 
L 135.153038 -170.992345 
L 135.153038 -168.740858 
L 135.933457 -168.740858 
L 135.933457 -168.740858 
L 136.713877 -168.740858 
L 136.713877 -168.740858 
L 137.494296 -168.740858 
L 137.494296 -168.740858 
L 138.274716 -168.740858 
L 138.274716 -166.40298 
L 139.055135 -166.40298 
L 139.055135 -166.40298 
L 139.835555 -166.40298 
L 139.835555 -166.40298 
L 140.615975 -166.40298 
L 140.615975 -166.40298 
L 141.396394 -166.40298 
L 141.396394 -166.40298 
L 142.176814 -166.40298 
L 142.176814 -166.40298 
L 142.957233 -166.40298 
L 142.957233 -166.40298 
L 143.737653 -166.40298 
L 143.737653 -164.014832 
L 144.518073 -164.014832 
L 144.518073 -164.014832 
L 145.298492 -164.014832 
L 145.298492 -164.014832 
L 146.078912 -164.014832 
L 146.078912 -164.014832 
L 146.859331 -164.014832 
L 146.859331 -164.014832 
L 147.639751 -164.014832 
L 147.639751 -161.570812 
L 148.42017 -161.570812 
L 148.42017 -161.570812 
L 149.20059 -161.570812 
L 149.20059 -161.570812 
L 149.98101 -161.570812 
L 149.98101 -161.570812 
L 150.761429 -161.570812 
L 150.761429 -159.164275 
L 151.541849 -159.164275 
L 151.541849 -159.164275 
L 152.322268 -159.164275 
L 152.322268 -159.164275 
L 153.102688 -159.164275 
L 153.102688 -156.742684 
L 153.883108 -156.742684 
L 153.883108 -156.742684 
L 154.663527 -156.742684 
L 154.663527 -156.742684 
L 155.443947 -156.742684 
L 155.443947 -154.1964 
L 156.224366 -154.1964 
L 156.224366 -154.1964 
L 157.004786 -154.1964 
L 157.004786 -154.1964 
L 157.785205 -154.1964 
L 157.785205 -154.1964 
L 158.565625 -154.1964 
L 158.565625 -154.1964 
L 159.346045 -154.1964 
L 159.346045 -154.1964 
L 160.126464 -154.1964 
L 160.126464 -151.509327 
L 160.906884 -151.509327 
L 160.906884 -151.509327 
L 161.687303 -151.509327 
L 161.687303 -151.509327 
L 162.467723 -151.509327 
L 162.467723 -151.509327 
L 163.248142 -151.509327 
L 163.248142 -151.509327 
L 164.028562 -151.509327 
L 164.028562 -148.588185 
L 164.808982 -148.588185 
L 164.808982 -148.588185 
L 165.589401 -148.588185 
L 165.589401 -145.560002 
L 166.369821 -145.560002 
L 166.369821 -145.560002 
L 167.15024 -145.560002 
L 167.15024 -145.560002 
L 167.93066 -145.560002 
L 167.93066 -145.560002 
L 168.71108 -145.560002 
L 168.71108 -145.560002 
L 169.491499 -145.560002 
L 169.491499 -145.560002 
L 170.271919 -145.560002 
L 170.271919 -145.560002 
L 171.052338 -145.560002 
L 171.052338 -145.560002 
L 171.832758 -145.560002 
L 171.832758 -145.560002 
L 172.613177 -145.560002 
L 172.613177 -145.560002 
L 173.393597 -145.560002 
L 173.393597 -145.560002 
L 174.174017 -145.560002 
L 174.174017 -145.560002 
L 174.954436 -145.560002 
L 174.954436 -145.560002 
L 175.734856 -145.560002 
L 175.734856 -145.560002 
L 176.515275 -145.560002 
L 176.515275 -145.560002 
L 177.295695 -145.560002 
L 177.295695 -145.560002 
L 178.076115 -145.560002 
L 178.076115 -145.560002 
L 178.856534 -145.560002 
L 178.856534 -145.560002 
L 179.636954 -145.560002 
L 179.636954 -145.560002 
L 180.417373 -145.560002 
L 180.417373 -145.560002 
L 181.197793 -145.560002 
L 181.197793 -145.560002 
L 181.978212 -145.560002 
L 181.978212 -145.560002 
L 182.758632 -145.560002 
L 182.758632 -145.560002 
L 183.539052 -145.560002 
L 183.539052 -145.560002 
L 184.319471 -145.560002 
L 184.319471 -145.560002 
L 185.099891 -145.560002 
L 185.099891 -141.752208 
L 185.88031 -141.752208 
L 185.88031 -141.752208 
L 186.66073 -141.752208 
L 186.66073 -141.752208 
L 187.441149 -141.752208 
L 187.441149 -141.752208 
L 188.221569 -141.752208 
L 188.221569 -141.752208 
L 189.001989 -141.752208 
L 189.001989 -141.752208 
L 189.782408 -141.752208 
L 189.782408 -141.752208 
L 190.562828 -141.752208 
L 190.562828 -141.752208 
L 191.343247 -141.752208 
L 191.343247 -141.752208 
L 192.123667 -141.752208 
L 192.123667 -137.769741 
L 192.904087 -137.769741 
L 192.904087 -137.769741 
L 193.684506 -137.769741 
L 193.684506 -137.769741 
L 194.464926 -137.769741 
L 194.464926 -137.769741 
L 195.245345 -137.769741 
L 195.245345 -137.769741 
L 196.025765 -137.769741 
L 196.025765 -137.769741 
L 196.806184 -137.769741 
L 196.806184 -133.581136 
L 197.586604 -133.581136 
L 197.586604 -133.581136 
L 198.367024 -133.581136 
L 198.367024 -129.514392 
L 199.147443 -129.514392 
L 199.147443 -129.514392 
L 199.927863 -129.514392 
L 199.927863 -129.514392 
L 200.708282 -129.514392 
L 200.708282 -129.514392 
L 201.488702 -129.514392 
L 201.488702 -129.514392 
L 202.269122 -129.514392 
L 202.269122 -129.514392 
L 203.049541 -129.514392 
L 203.049541 -129.514392 
L 203.829961 -129.514392 
L 203.829961 -129.514392 
L 204.61038 -129.514392 
L 204.61038 -129.514392 
L 205.3908 -129.514392 
L 205.3908 -129.514392 
L 206.171219 -129.514392 
L 206.171219 -129.514392 
L 206.951639 -129.514392 
L 206.951639 -129.514392 
L 207.732059 -129.514392 
L 207.732059 -129.514392 
L 208.512478 -129.514392 
L 208.512478 -129.514392 
L 209.292898 -129.514392 
L 209.292898 -129.514392 
L 210.073317 -129.514392 
L 210.073317 -129.514392 
L 210.853737 -129.514392 
L 210.853737 -124.750545 
L 211.634156 -124.750545 
L 211.634156 -124.750545 
L 212.414576 -124.750545 
L 212.414576 -124.750545 
L 213.194996 -124.750545 
L 213.194996 -124.750545 
L 213.975415 -124.750545 
L 213.975415 -124.750545 
L 214.755835 -124.750545 
L 214.755835 -124.750545 
L 215.536254 -124.750545 
L 215.536254 -124.750545 
L 216.316674 -124.750545 
L 216.316674 -124.750545 
L 217.097094 -124.750545 
L 217.097094 -124.750545 
L 217.877513 -124.750545 
L 217.877513 -124.750545 
L 218.657933 -124.750545 
L 218.657933 -124.750545 
L 219.438352 -124.750545 
L 219.438352 -124.750545 
L 220.218772 -124.750545 
L 220.218772 -124.750545 
L 220.999191 -124.750545 
L 220.999191 -124.750545 
L 221.779611 -124.750545 
L 221.779611 -124.750545 
L 222.560031 -124.750545 
L 222.560031 -124.750545 
L 223.34045 -124.750545 
L 223.34045 -124.750545 
L 224.12087 -124.750545 
L 224.12087 -124.750545 
L 224.901289 -124.750545 
L 224.901289 -124.750545 
L 225.681709 -124.750545 
L 225.681709 -124.750545 
L 226.462128 -124.750545 
L 226.462128 -124.750545 
L 227.242548 -124.750545 
L 227.242548 -124.750545 
L 228.022968 -124.750545 
L 228.022968 -124.750545 
L 228.803387 -124.750545 
L 228.803387 -124.750545 
L 229.583807 -124.750545 
L 229.583807 -124.750545 
L 230.364226 -124.750545 
L 230.364226 -124.750545 
L 231.144646 -124.750545 
L 231.144646 -124.750545 
L 231.925066 -124.750545 
L 231.925066 -124.750545 
L 232.705485 -124.750545 
L 232.705485 -124.750545 
L 233.485905 -124.750545 
L 233.485905 -124.750545 
L 234.266324 -124.750545 
L 234.266324 -124.750545 
L 235.046744 -124.750545 
L 235.046744 -124.750545 
L 235.827163 -124.750545 
L 235.827163 -124.750545 
L 236.607583 -124.750545 
L 236.607583 -124.750545 
L 237.388003 -124.750545 
L 237.388003 -124.750545 
L 238.168422 -124.750545 
L 238.168422 -124.750545 
L 238.948842 -124.750545 
L 238.948842 -124.750545 
L 239.729261 -124.750545 
L 239.729261 -124.750545 
L 240.509681 -124.750545 
L 240.509681 -124.750545 
L 241.290101 -124.750545 
L 241.290101 -124.750545 
L 242.07052 -124.750545 
L 242.07052 -124.750545 
L 242.85094 -124.750545 
L 242.85094 -124.750545 
L 243.631359 -124.750545 
L 243.631359 -124.750545 
L 244.411779 -124.750545 
L 244.411779 -124.750545 
L 245.192198 -124.750545 
L 245.192198 -124.750545 
L 245.972618 -124.750545 
L 245.972618 -124.750545 
L 246.753038 -124.750545 
L 246.753038 -124.750545 
L 247.533457 -124.750545 
L 247.533457 -124.750545 
L 248.313877 -124.750545 
L 248.313877 -124.750545 
L 249.094296 -124.750545 
L 249.094296 -124.750545 
L 249.874716 -124.750545 
L 249.874716 -124.750545 
L 250.655135 -124.750545 
L 250.655135 -124.750545 
L 251.435555 -124.750545 
L 251.435555 -124.750545 
L 252.215975 -124.750545 
L 252.215975 -124.750545 
L 252.996394 -124.750545 
L 252.996394 -124.750545 
L 253.776814 -124.750545 
L 253.776814 -124.750545 
L 254.557233 -124.750545 
L 254.557233 -124.750545 
L 255.337653 -124.750545 
L 255.337653 -124.750545 
L 256.118073 -124.750545 
L 256.118073 -124.750545 
L 256.898492 -124.750545 
L 256.898492 -124.750545 
L 257.678912 -124.750545 
L 257.678912 -124.750545 
L 258.459331 -124.750545 
L 258.459331 -124.750545 
L 259.239751 -124.750545 
L 259.239751 -124.750545 
L 260.02017 -124.750545 
L 260.02017 -124.750545 
L 260.02017 -163.249378 
L 260.02017 -163.249378 
L 260.02017 -163.249378 
L 259.239751 -163.249378 
L 259.239751 -163.249378 
L 258.459331 -163.249378 
L 258.459331 -163.249378 
L 257.678912 -163.249378 
L 257.678912 -163.249378 
L 256.898492 -163.249378 
L 256.898492 -163.249378 
L 256.118073 -163.249378 
L 256.118073 -163.249378 
L 255.337653 -163.249378 
L 255.337653 -163.249378 
L 254.557233 -163.249378 
L 254.557233 -163.249378 
L 253.776814 -163.249378 
L 253.776814 -163.249378 
L 252.996394 -163.249378 
L 252.996394 -163.249378 
L 252.215975 -163.249378 
L 252.215975 -163.249378 
L 251.435555 -163.249378 
L 251.435555 -163.249378 
L 250.655135 -163.249378 
L 250.655135 -163.249378 
L 249.874716 -163.249378 
L 249.874716 -163.249378 
L 249.094296 -163.249378 
L 249.094296 -163.249378 
L 248.313877 -163.249378 
L 248.313877 -163.249378 
L 247.533457 -163.249378 
L 247.533457 -163.249378 
L 246.753038 -163.249378 
L 246.753038 -163.249378 
L 245.972618 -163.249378 
L 245.972618 -163.249378 
L 245.192198 -163.249378 
L 245.192198 -163.249378 
L 244.411779 -163.249378 
L 244.411779 -163.249378 
L 243.631359 -163.249378 
L 243.631359 -163.249378 
L 242.85094 -163.249378 
L 242.85094 -163.249378 
L 242.07052 -163.249378 
L 242.07052 -163.249378 
L 241.290101 -163.249378 
L 241.290101 -163.249378 
L 240.509681 -163.249378 
L 240.509681 -163.249378 
L 239.729261 -163.249378 
L 239.729261 -163.249378 
L 238.948842 -163.249378 
L 238.948842 -163.249378 
L 238.168422 -163.249378 
L 238.168422 -163.249378 
L 237.388003 -163.249378 
L 237.388003 -163.249378 
L 236.607583 -163.249378 
L 236.607583 -163.249378 
L 235.827163 -163.249378 
L 235.827163 -163.249378 
L 235.046744 -163.249378 
L 235.046744 -163.249378 
L 234.266324 -163.249378 
L 234.266324 -163.249378 
L 233.485905 -163.249378 
L 233.485905 -163.249378 
L 232.705485 -163.249378 
L 232.705485 -163.249378 
L 231.925066 -163.249378 
L 231.925066 -163.249378 
L 231.144646 -163.249378 
L 231.144646 -163.249378 
L 230.364226 -163.249378 
L 230.364226 -163.249378 
L 229.583807 -163.249378 
L 229.583807 -163.249378 
L 228.803387 -163.249378 
L 228.803387 -163.249378 
L 228.022968 -163.249378 
L 228.022968 -163.249378 
L 227.242548 -163.249378 
L 227.242548 -163.249378 
L 226.462128 -163.249378 
L 226.462128 -163.249378 
L 225.681709 -163.249378 
L 225.681709 -163.249378 
L 224.901289 -163.249378 
L 224.901289 -163.249378 
L 224.12087 -163.249378 
L 224.12087 -163.249378 
L 223.34045 -163.249378 
L 223.34045 -163.249378 
L 222.560031 -163.249378 
L 222.560031 -163.249378 
L 221.779611 -163.249378 
L 221.779611 -163.249378 
L 220.999191 -163.249378 
L 220.999191 -163.249378 
L 220.218772 -163.249378 
L 220.218772 -163.249378 
L 219.438352 -163.249378 
L 219.438352 -163.249378 
L 218.657933 -163.249378 
L 218.657933 -163.249378 
L 217.877513 -163.249378 
L 217.877513 -163.249378 
L 217.097094 -163.249378 
L 217.097094 -163.249378 
L 216.316674 -163.249378 
L 216.316674 -163.249378 
L 215.536254 -163.249378 
L 215.536254 -163.249378 
L 214.755835 -163.249378 
L 214.755835 -163.249378 
L 213.975415 -163.249378 
L 213.975415 -163.249378 
L 213.194996 -163.249378 
L 213.194996 -163.249378 
L 212.414576 -163.249378 
L 212.414576 -163.249378 
L 211.634156 -163.249378 
L 211.634156 -163.249378 
L 210.853737 -163.249378 
L 210.853737 -166.330875 
L 210.073317 -166.330875 
L 210.073317 -166.330875 
L 209.292898 -166.330875 
L 209.292898 -166.330875 
L 208.512478 -166.330875 
L 208.512478 -166.330875 
L 207.732059 -166.330875 
L 207.732059 -166.330875 
L 206.951639 -166.330875 
L 206.951639 -166.330875 
L 206.171219 -166.330875 
L 206.171219 -166.330875 
L 205.3908 -166.330875 
L 205.3908 -166.330875 
L 204.61038 -166.330875 
L 204.61038 -166.330875 
L 203.829961 -166.330875 
L 203.829961 -166.330875 
L 203.049541 -166.330875 
L 203.049541 -166.330875 
L 202.269122 -166.330875 
L 202.269122 -166.330875 
L 201.488702 -166.330875 
L 201.488702 -166.330875 
L 200.708282 -166.330875 
L 200.708282 -166.330875 
L 199.927863 -166.330875 
L 199.927863 -166.330875 
L 199.147443 -166.330875 
L 199.147443 -166.330875 
L 198.367024 -166.330875 
L 198.367024 -169.085334 
L 197.586604 -169.085334 
L 197.586604 -169.085334 
L 196.806184 -169.085334 
L 196.806184 -171.771516 
L 196.025765 -171.771516 
L 196.025765 -171.771516 
L 195.245345 -171.771516 
L 195.245345 -171.771516 
L 194.464926 -171.771516 
L 194.464926 -171.771516 
L 193.684506 -171.771516 
L 193.684506 -171.771516 
L 192.904087 -171.771516 
L 192.904087 -171.771516 
L 192.123667 -171.771516 
L 192.123667 -174.293929 
L 191.343247 -174.293929 
L 191.343247 -174.293929 
L 190.562828 -174.293929 
L 190.562828 -174.293929 
L 189.782408 -174.293929 
L 189.782408 -174.293929 
L 189.001989 -174.293929 
L 189.001989 -174.293929 
L 188.221569 -174.293929 
L 188.221569 -174.293929 
L 187.441149 -174.293929 
L 187.441149 -174.293929 
L 186.66073 -174.293929 
L 186.66073 -174.293929 
L 185.88031 -174.293929 
L 185.88031 -174.293929 
L 185.099891 -174.293929 
L 185.099891 -176.670764 
L 184.319471 -176.670764 
L 184.319471 -176.670764 
L 183.539052 -176.670764 
L 183.539052 -176.670764 
L 182.758632 -176.670764 
L 182.758632 -176.670764 
L 181.978212 -176.670764 
L 181.978212 -176.670764 
L 181.197793 -176.670764 
L 181.197793 -176.670764 
L 180.417373 -176.670764 
L 180.417373 -176.670764 
L 179.636954 -176.670764 
L 179.636954 -176.670764 
L 178.856534 -176.670764 
L 178.856534 -176.670764 
L 178.076115 -176.670764 
L 178.076115 -176.670764 
L 177.295695 -176.670764 
L 177.295695 -176.670764 
L 176.515275 -176.670764 
L 176.515275 -176.670764 
L 175.734856 -176.670764 
L 175.734856 -176.670764 
L 174.954436 -176.670764 
L 174.954436 -176.670764 
L 174.174017 -176.670764 
L 174.174017 -176.670764 
L 173.393597 -176.670764 
L 173.393597 -176.670764 
L 172.613177 -176.670764 
L 172.613177 -176.670764 
L 171.832758 -176.670764 
L 171.832758 -176.670764 
L 171.052338 -176.670764 
L 171.052338 -176.670764 
L 170.271919 -176.670764 
L 170.271919 -176.670764 
L 169.491499 -176.670764 
L 169.491499 -176.670764 
L 168.71108 -176.670764 
L 168.71108 -176.670764 
L 167.93066 -176.670764 
L 167.93066 -176.670764 
L 167.15024 -176.670764 
L 167.15024 -176.670764 
L 166.369821 -176.670764 
L 166.369821 -176.670764 
L 165.589401 -176.670764 
L 165.589401 -178.728707 
L 164.808982 -178.728707 
L 164.808982 -178.728707 
L 164.028562 -178.728707 
L 164.028562 -180.697489 
L 163.248142 -180.697489 
L 163.248142 -180.697489 
L 162.467723 -180.697489 
L 162.467723 -180.697489 
L 161.687303 -180.697489 
L 161.687303 -180.697489 
L 160.906884 -180.697489 
L 160.906884 -180.697489 
L 160.126464 -180.697489 
L 160.126464 -182.53653 
L 159.346045 -182.53653 
L 159.346045 -182.53653 
L 158.565625 -182.53653 
L 158.565625 -182.53653 
L 157.785205 -182.53653 
L 157.785205 -182.53653 
L 157.004786 -182.53653 
L 157.004786 -182.53653 
L 156.224366 -182.53653 
L 156.224366 -182.53653 
L 155.443947 -182.53653 
L 155.443947 -184.284075 
L 154.663527 -184.284075 
L 154.663527 -184.284075 
L 153.883108 -184.284075 
L 153.883108 -184.284075 
L 153.102688 -184.284075 
L 153.102688 -185.949266 
L 152.322268 -185.949266 
L 152.322268 -185.949266 
L 151.541849 -185.949266 
L 151.541849 -185.949266 
L 150.761429 -185.949266 
L 150.761429 -187.575013 
L 149.98101 -187.575013 
L 149.98101 -187.575013 
L 149.20059 -187.575013 
L 149.20059 -187.575013 
L 148.42017 -187.575013 
L 148.42017 -187.575013 
L 147.639751 -187.575013 
L 147.639751 -189.178924 
L 146.859331 -189.178924 
L 146.859331 -189.178924 
L 146.078912 -189.178924 
L 146.078912 -189.178924 
L 145.298492 -189.178924 
L 145.298492 -189.178924 
L 144.518073 -189.178924 
L 144.518073 -189.178924 
L 143.737653 -189.178924 
L 143.737653 -190.726922 
L 142.957233 -190.726922 
L 142.957233 -190.726922 
L 142.176814 -190.726922 
L 142.176814 -190.726922 
L 141.396394 -190.726922 
L 141.396394 -190.726922 
L 140.615975 -190.726922 
L 140.615975 -190.726922 
L 139.835555 -190.726922 
L 139.835555 -190.726922 
L 139.055135 -190.726922 
L 139.055135 -190.726922 
L 138.274716 -190.726922 
L 138.274716 -192.221853 
L 137.494296 -192.221853 
L 137.494296 -192.221853 
L 136.713877 -192.221853 
L 136.713877 -192.221853 
L 135.933457 -192.221853 
L 135.933457 -192.221853 
L 135.153038 -192.221853 
L 135.153038 -193.652745 
L 134.372618 -193.652745 
L 134.372618 -193.652745 
L 133.592198 -193.652745 
L 133.592198 -193.652745 
L 132.811779 -193.652745 
L 132.811779 -193.652745 
L 132.031359 -193.652745 
L 132.031359 -193.652745 
L 131.25094 -193.652745 
L 131.25094 -193.652745 
L 130.47052 -193.652745 
L 130.47052 -193.652745 
L 129.690101 -193.652745 
L 129.690101 -193.652745 
L 128.909681 -193.652745 
L 128.909681 -193.652745 
L 128.129261 -193.652745 
L 128.129261 -193.652745 
L 127.348842 -193.652745 
L 127.348842 -193.652745 
L 126.568422 -193.652745 
L 126.568422 -193.652745 
L 125.788003 -193.652745 
L 125.788003 -194.954254 
L 125.007583 -194.954254 
L 125.007583 -194.954254 
L 124.227163 -194.954254 
L 124.227163 -194.954254 
L 123.446744 -194.954254 
L 123.446744 -194.954254 
L 122.666324 -194.954254 
L 122.666324 -194.954254 
L 121.885905 -194.954254 
L 121.885905 -194.954254 
L 121.105485 -194.954254 
L 121.105485 -194.954254 
L 120.325066 -194.954254 
L 120.325066 -194.954254 
L 119.544646 -194.954254 
L 119.544646 -194.954254 
L 118.764226 -194.954254 
L 118.764226 -196.187323 
L 117.983807 -196.187323 
L 117.983807 -196.187323 
L 117.203387 -196.187323 
L 117.203387 -196.187323 
L 116.422968 -196.187323 
L 116.422968 -196.187323 
L 115.642548 -196.187323 
L 115.642548 -196.187323 
L 114.862128 -196.187323 
L 114.862128 -196.187323 
L 114.081709 -196.187323 
L 114.081709 -197.377038 
L 113.301289 -197.377038 
L 113.301289 -197.377038 
L 112.52087 -197.377038 
L 112.52087 -197.377038 
L 111.74045 -197.377038 
L 111.74045 -197.377038 
L 110.960031 -197.377038 
L 110.960031 -197.377038 
L 110.179611 -197.377038 
L 110.179611 -197.377038 
L 109.399191 -197.377038 
L 109.399191 -198.552253 
L 108.618772 -198.552253 
L 108.618772 -198.552253 
L 107.838352 -198.552253 
L 107.838352 -198.552253 
L 107.057933 -198.552253 
L 107.057933 -198.552253 
L 106.277513 -198.552253 
L 106.277513 -198.552253 
L 105.497094 -198.552253 
L 105.497094 -199.661491 
L 104.716674 -199.661491 
L 104.716674 -199.661491 
L 103.936254 -199.661491 
L 103.936254 -199.661491 
L 103.155835 -199.661491 
L 103.155835 -200.726 
L 102.375415 -200.726 
L 102.375415 -202.81185 
L 101.594996 -202.81185 
L 101.594996 -202.81185 
L 100.814576 -202.81185 
L 100.814576 -202.81185 
L 100.034156 -202.81185 
L 100.034156 -202.81185 
L 99.253737 -202.81185 
L 99.253737 -202.81185 
L 98.473317 -202.81185 
L 98.473317 -202.81185 
L 97.692898 -202.81185 
L 97.692898 -202.81185 
L 96.912478 -202.81185 
L 96.912478 -202.81185 
L 96.132059 -202.81185 
L 96.132059 -202.81185 
L 95.351639 -202.81185 
L 95.351639 -204.81715 
L 94.571219 -204.81715 
L 94.571219 -205.778121 
L 93.7908 -205.778121 
L 93.7908 -205.778121 
L 93.01038 -205.778121 
L 93.01038 -206.71682 
L 92.229961 -206.71682 
L 92.229961 -206.71682 
L 91.449541 -206.71682 
L 91.449541 -206.71682 
L 90.669122 -206.71682 
L 90.669122 -206.71682 
L 89.888702 -206.71682 
L 89.888702 -207.624579 
L 89.108282 -207.624579 
L 89.108282 -207.624579 
L 88.327863 -207.624579 
L 88.327863 -208.498058 
L 87.547443 -208.498058 
L 87.547443 -208.498058 
L 86.767024 -208.498058 
L 86.767024 -208.498058 
L 85.986604 -208.498058 
L 85.986604 -209.332673 
L 85.206184 -209.332673 
L 85.206184 -209.332673 
L 84.425765 -209.332673 
L 84.425765 -210.117956 
L 83.645345 -210.117956 
L 83.645345 -210.117956 
L 82.864926 -210.117956 
L 82.864926 -210.117956 
L 82.084506 -210.117956 
L 82.084506 -210.117956 
L 81.304087 -210.117956 
L 81.304087 -210.117956 
L 80.523667 -210.117956 
L 80.523667 -210.117956 
L 79.743247 -210.117956 
L 79.743247 -210.845788 
L 78.962828 -210.845788 
L 78.962828 -210.845788 
L 78.182408 -210.845788 
L 78.182408 -210.845788 
L 77.401989 -210.845788 
L 77.401989 -210.845788 
L 76.621569 -210.845788 
L 76.621569 -210.845788 
L 75.841149 -210.845788 
L 75.841149 -210.845788 
L 75.06073 -210.845788 
L 75.06073 -210.845788 
L 74.28031 -210.845788 
L 74.28031 -210.845788 
L 73.499891 -210.845788 
L 73.499891 -210.845788 
L 72.719471 -210.845788 
L 72.719471 -210.845788 
L 71.939052 -210.845788 
L 71.939052 -211.48917 
L 71.158632 -211.48917 
L 71.158632 -212.047395 
L 70.378212 -212.047395 
L 70.378212 -212.047395 
L 69.597793 -212.047395 
L 69.597793 -212.047395 
L 68.817373 -212.047395 
L 68.817373 -212.047395 
L 68.036954 -212.047395 
L 68.036954 -212.636816 
L 67.256534 -212.636816 
L 67.256534 -212.636816 
L 66.476115 -212.636816 
L 66.476115 -212.636816 
L 65.695695 -212.636816 
L 65.695695 -212.636816 
L 64.915275 -212.636816 
L 64.915275 -212.636816 
L 64.134856 -212.636816 
L 64.134856 -212.636816 
L 63.354436 -212.636816 
L 63.354436 -212.636816 
L 62.574017 -212.636816 
L 62.574017 -212.636816 
L 61.793597 -212.636816 
L 61.793597 -212.636816 
L 61.013177 -212.636816 
L 61.013177 -212.636816 
L 60.232758 -212.636816 
L 60.232758 -212.636816 
L 59.452338 -212.636816 
L 59.452338 -212.636816 
L 58.671919 -212.636816 
L 58.671919 -212.636816 
L 57.891499 -212.636816 
L 57.891499 -212.636816 
L 57.11108 -212.636816 
z
" style="stroke: #1f77b4; stroke-opacity: 0.25"/>
    </defs>
    <g clip-path="url(#p1f030a39b4)">
     <use xlink:href="#me75abe9e98" x="0" y="240.054375" style="fill: #1f77b4; fill-opacity: 0.25; stroke: #1f77b4; stroke-opacity: 0.25"/>
    </g>
   </g>
   <g id="FillBetweenPolyCollection_2">
    <defs>
     <path id="mb1c0ad2017" d="M 57.11108 -212.636816 
L 57.11108 -212.636816 
L 57.891499 -212.636816 
L 57.891499 -212.636816 
L 58.671919 -212.636816 
L 58.671919 -205.326734 
L 59.452338 -205.326734 
L 59.452338 -205.326734 
L 60.232758 -205.326734 
L 60.232758 -204.3745 
L 61.013177 -204.3745 
L 61.013177 -204.3745 
L 61.793597 -204.3745 
L 61.793597 -204.3745 
L 62.574017 -204.3745 
L 62.574017 -204.3745 
L 63.354436 -204.3745 
L 63.354436 -203.025953 
L 64.134856 -203.025953 
L 64.134856 -203.025953 
L 64.915275 -203.025953 
L 64.915275 -203.025953 
L 65.695695 -203.025953 
L 65.695695 -203.025953 
L 66.476115 -203.025953 
L 66.476115 -201.614497 
L 67.256534 -201.614497 
L 67.256534 -200.211834 
L 68.036954 -200.211834 
L 68.036954 -198.827018 
L 68.817373 -198.827018 
L 68.817373 -197.461112 
L 69.597793 -197.461112 
L 69.597793 -194.781446 
L 70.378212 -194.781446 
L 70.378212 -193.451932 
L 71.158632 -193.451932 
L 71.158632 -193.451932 
L 71.939052 -193.451932 
L 71.939052 -193.451932 
L 72.719471 -193.451932 
L 72.719471 -193.451932 
L 73.499891 -193.451932 
L 73.499891 -192.136698 
L 74.28031 -192.136698 
L 74.28031 -192.136698 
L 75.06073 -192.136698 
L 75.06073 -188.228298 
L 75.841149 -188.228298 
L 75.841149 -186.947299 
L 76.621569 -186.947299 
L 76.621569 -186.947299 
L 77.401989 -186.947299 
L 77.401989 -186.947299 
L 78.182408 -186.947299 
L 78.182408 -181.910866 
L 78.962828 -181.910866 
L 78.962828 -180.670746 
L 79.743247 -180.670746 
L 79.743247 -176.95509 
L 80.523667 -176.95509 
L 80.523667 -176.95509 
L 81.304087 -176.95509 
L 81.304087 -176.95509 
L 82.084506 -176.95509 
L 82.084506 -176.95509 
L 82.864926 -176.95509 
L 82.864926 -175.717106 
L 83.645345 -175.717106 
L 83.645345 -175.717106 
L 84.425765 -175.717106 
L 84.425765 -173.234931 
L 85.206184 -173.234931 
L 85.206184 -173.234931 
L 85.986604 -173.234931 
L 85.986604 -173.234931 
L 86.767024 -173.234931 
L 86.767024 -170.75102 
L 87.547443 -170.75102 
L 87.547443 -169.517071 
L 88.327863 -169.517071 
L 88.327863 -168.288148 
L 89.108282 -168.288148 
L 89.108282 -165.844572 
L 89.888702 -165.844572 
L 89.888702 -165.844572 
L 90.669122 -165.844572 
L 90.669122 -165.844572 
L 91.449541 -165.844572 
L 91.449541 -164.604653 
L 92.229961 -164.604653 
L 92.229961 -162.138721 
L 93.01038 -162.138721 
L 93.01038 -162.138721 
L 93.7908 -162.138721 
L 93.7908 -162.138721 
L 94.571219 -162.138721 
L 94.571219 -160.87285 
L 95.351639 -160.87285 
L 95.351639 -160.87285 
L 96.132059 -160.87285 
L 96.132059 -158.355381 
L 96.912478 -158.355381 
L 96.912478 -155.855865 
L 97.692898 -155.855865 
L 97.692898 -154.598534 
L 98.473317 -154.598534 
L 98.473317 -153.345478 
L 99.253737 -153.345478 
L 99.253737 -153.345478 
L 100.034156 -153.345478 
L 100.034156 -153.345478 
L 100.814576 -153.345478 
L 100.814576 -150.764097 
L 101.594996 -150.764097 
L 101.594996 -149.480227 
L 102.375415 -149.480227 
L 102.375415 -148.20073 
L 103.155835 -148.20073 
L 103.155835 -146.925488 
L 103.936254 -146.925488 
L 103.936254 -145.622485 
L 104.716674 -145.622485 
L 104.716674 -145.622485 
L 105.497094 -145.622485 
L 105.497094 -145.622485 
L 106.277513 -145.622485 
L 106.277513 -144.307309 
L 107.057933 -144.307309 
L 107.057933 -144.307309 
L 107.838352 -144.307309 
L 107.838352 -140.337963 
L 108.618772 -140.337963 
L 108.618772 -139.023913 
L 109.399191 -139.023913 
L 109.399191 -139.023913 
L 110.179611 -139.023913 
L 110.179611 -137.658578 
L 110.960031 -137.658578 
L 110.960031 -137.658578 
L 111.74045 -137.658578 
L 111.74045 -134.883216 
L 112.52087 -134.883216 
L 112.52087 -133.493227 
L 113.301289 -133.493227 
L 113.301289 -133.493227 
L 114.081709 -133.493227 
L 114.081709 -130.707228 
L 114.862128 -130.707228 
L 114.862128 -129.288935 
L 115.642548 -129.288935 
L 115.642548 -129.288935 
L 116.422968 -129.288935 
L 116.422968 -127.852864 
L 117.203387 -127.852864 
L 117.203387 -127.852864 
L 117.983807 -127.852864 
L 117.983807 -127.852864 
L 118.764226 -127.852864 
L 118.764226 -126.29282 
L 119.544646 -126.29282 
L 119.544646 -126.29282 
L 120.325066 -126.29282 
L 120.325066 -124.711472 
L 121.105485 -124.711472 
L 121.105485 -124.711472 
L 121.885905 -124.711472 
L 121.885905 -123.043648 
L 122.666324 -123.043648 
L 122.666324 -123.043648 
L 123.446744 -123.043648 
L 123.446744 -123.043648 
L 124.227163 -123.043648 
L 124.227163 -123.043648 
L 125.007583 -123.043648 
L 125.007583 -121.351078 
L 125.788003 -121.351078 
L 125.788003 -121.351078 
L 126.568422 -121.351078 
L 126.568422 -121.351078 
L 127.348842 -121.351078 
L 127.348842 -121.351078 
L 128.129261 -121.351078 
L 128.129261 -121.351078 
L 128.909681 -121.351078 
L 128.909681 -121.351078 
L 129.690101 -121.351078 
L 129.690101 -119.514797 
L 130.47052 -119.514797 
L 130.47052 -119.514797 
L 131.25094 -119.514797 
L 131.25094 -119.514797 
L 132.031359 -119.514797 
L 132.031359 -119.514797 
L 132.811779 -119.514797 
L 132.811779 -119.514797 
L 133.592198 -119.514797 
L 133.592198 -119.514797 
L 134.372618 -119.514797 
L 134.372618 -117.603252 
L 135.153038 -117.603252 
L 135.153038 -117.603252 
L 135.933457 -117.603252 
L 135.933457 -117.603252 
L 136.713877 -117.603252 
L 136.713877 -117.603252 
L 137.494296 -117.603252 
L 137.494296 -117.603252 
L 138.274716 -117.603252 
L 138.274716 -117.603252 
L 139.055135 -117.603252 
L 139.055135 -117.603252 
L 139.835555 -117.603252 
L 139.835555 -117.603252 
L 140.615975 -117.603252 
L 140.615975 -117.603252 
L 141.396394 -117.603252 
L 141.396394 -117.603252 
L 142.176814 -117.603252 
L 142.176814 -115.555787 
L 142.957233 -115.555787 
L 142.957233 -115.555787 
L 143.737653 -115.555787 
L 143.737653 -115.555787 
L 144.518073 -115.555787 
L 144.518073 -115.555787 
L 145.298492 -115.555787 
L 145.298492 -115.555787 
L 146.078912 -115.555787 
L 146.078912 -115.555787 
L 146.859331 -115.555787 
L 146.859331 -115.555787 
L 147.639751 -115.555787 
L 147.639751 -115.555787 
L 148.42017 -115.555787 
L 148.42017 -115.555787 
L 149.20059 -115.555787 
L 149.20059 -115.555787 
L 149.98101 -115.555787 
L 149.98101 -115.555787 
L 150.761429 -115.555787 
L 150.761429 -113.349173 
L 151.541849 -113.349173 
L 151.541849 -111.09914 
L 152.322268 -111.09914 
L 152.322268 -108.873707 
L 153.102688 -108.873707 
L 153.102688 -106.599273 
L 153.883108 -106.599273 
L 153.883108 -106.599273 
L 154.663527 -106.599273 
L 154.663527 -106.599273 
L 155.443947 -106.599273 
L 155.443947 -106.599273 
L 156.224366 -106.599273 
L 156.224366 -104.271642 
L 157.004786 -104.271642 
L 157.004786 -104.271642 
L 157.785205 -104.271642 
L 157.785205 -101.971228 
L 158.565625 -101.971228 
L 158.565625 -101.971228 
L 159.346045 -101.971228 
L 159.346045 -101.971228 
L 160.126464 -101.971228 
L 160.126464 -101.971228 
L 160.906884 -101.971228 
L 160.906884 -101.971228 
L 161.687303 -101.971228 
L 161.687303 -101.971228 
L 162.467723 -101.971228 
L 162.467723 -101.971228 
L 163.248142 -101.971228 
L 163.248142 -99.610432 
L 164.028562 -99.610432 
L 164.028562 -99.610432 
L 164.808982 -99.610432 
L 164.808982 -99.610432 
L 165.589401 -99.610432 
L 165.589401 -99.610432 
L 166.369821 -99.610432 
L 166.369821 -99.610432 
L 167.15024 -99.610432 
L 167.15024 -99.610432 
L 167.93066 -99.610432 
L 167.93066 -99.610432 
L 168.71108 -99.610432 
L 168.71108 -99.610432 
L 169.491499 -99.610432 
L 169.491499 -99.610432 
L 170.271919 -99.610432 
L 170.271919 -99.610432 
L 171.052338 -99.610432 
L 171.052338 -99.610432 
L 171.832758 -99.610432 
L 171.832758 -99.610432 
L 172.613177 -99.610432 
L 172.613177 -99.610432 
L 173.393597 -99.610432 
L 173.393597 -99.610432 
L 174.174017 -99.610432 
L 174.174017 -99.610432 
L 174.954436 -99.610432 
L 174.954436 -99.610432 
L 175.734856 -99.610432 
L 175.734856 -99.610432 
L 176.515275 -99.610432 
L 176.515275 -99.610432 
L 177.295695 -99.610432 
L 177.295695 -99.610432 
L 178.076115 -99.610432 
L 178.076115 -97.183508 
L 178.856534 -97.183508 
L 178.856534 -97.183508 
L 179.636954 -97.183508 
L 179.636954 -97.183508 
L 180.417373 -97.183508 
L 180.417373 -94.788299 
L 181.197793 -94.788299 
L 181.197793 -94.788299 
L 181.978212 -94.788299 
L 181.978212 -94.788299 
L 182.758632 -94.788299 
L 182.758632 -94.788299 
L 183.539052 -94.788299 
L 183.539052 -94.788299 
L 184.319471 -94.788299 
L 184.319471 -94.788299 
L 185.099891 -94.788299 
L 185.099891 -94.788299 
L 185.88031 -94.788299 
L 185.88031 -92.200842 
L 186.66073 -92.200842 
L 186.66073 -89.653458 
L 187.441149 -89.653458 
L 187.441149 -89.653458 
L 188.221569 -89.653458 
L 188.221569 -89.653458 
L 189.001989 -89.653458 
L 189.001989 -89.653458 
L 189.782408 -89.653458 
L 189.782408 -87.145043 
L 190.562828 -87.145043 
L 190.562828 -84.674761 
L 191.343247 -84.674761 
L 191.343247 -84.674761 
L 192.123667 -84.674761 
L 192.123667 -84.674761 
L 192.904087 -84.674761 
L 192.904087 -84.674761 
L 193.684506 -84.674761 
L 193.684506 -84.674761 
L 194.464926 -84.674761 
L 194.464926 -84.674761 
L 195.245345 -84.674761 
L 195.245345 -84.674761 
L 196.025765 -84.674761 
L 196.025765 -84.674761 
L 196.806184 -84.674761 
L 196.806184 -84.674761 
L 197.586604 -84.674761 
L 197.586604 -84.674761 
L 198.367024 -84.674761 
L 198.367024 -84.674761 
L 199.147443 -84.674761 
L 199.147443 -84.674761 
L 199.927863 -84.674761 
L 199.927863 -84.674761 
L 200.708282 -84.674761 
L 200.708282 -84.674761 
L 201.488702 -84.674761 
L 201.488702 -84.674761 
L 202.269122 -84.674761 
L 202.269122 -84.674761 
L 203.049541 -84.674761 
L 203.049541 -84.674761 
L 203.829961 -84.674761 
L 203.829961 -84.674761 
L 204.61038 -84.674761 
L 204.61038 -84.674761 
L 205.3908 -84.674761 
L 205.3908 -81.767853 
L 206.171219 -81.767853 
L 206.171219 -81.767853 
L 206.951639 -81.767853 
L 206.951639 -81.767853 
L 207.732059 -81.767853 
L 207.732059 -81.767853 
L 208.512478 -81.767853 
L 208.512478 -81.767853 
L 209.292898 -81.767853 
L 209.292898 -81.767853 
L 210.073317 -81.767853 
L 210.073317 -81.767853 
L 210.853737 -81.767853 
L 210.853737 -81.767853 
L 211.634156 -81.767853 
L 211.634156 -81.767853 
L 212.414576 -81.767853 
L 212.414576 -81.767853 
L 213.194996 -81.767853 
L 213.194996 -81.767853 
L 213.975415 -81.767853 
L 213.975415 -81.767853 
L 214.755835 -81.767853 
L 214.755835 -81.767853 
L 215.536254 -81.767853 
L 215.536254 -81.767853 
L 216.316674 -81.767853 
L 216.316674 -81.767853 
L 217.097094 -81.767853 
L 217.097094 -81.767853 
L 217.877513 -81.767853 
L 217.877513 -81.767853 
L 218.657933 -81.767853 
L 218.657933 -81.767853 
L 219.438352 -81.767853 
L 219.438352 -81.767853 
L 220.218772 -81.767853 
L 220.218772 -81.767853 
L 220.999191 -81.767853 
L 220.999191 -81.767853 
L 221.779611 -81.767853 
L 221.779611 -78.217704 
L 222.560031 -78.217704 
L 222.560031 -78.217704 
L 223.34045 -78.217704 
L 223.34045 -78.217704 
L 224.12087 -78.217704 
L 224.12087 -78.217704 
L 224.901289 -78.217704 
L 224.901289 -78.217704 
L 225.681709 -78.217704 
L 225.681709 -78.217704 
L 226.462128 -78.217704 
L 226.462128 -78.217704 
L 227.242548 -78.217704 
L 227.242548 -78.217704 
L 228.022968 -78.217704 
L 228.022968 -78.217704 
L 228.803387 -78.217704 
L 228.803387 -78.217704 
L 229.583807 -78.217704 
L 229.583807 -78.217704 
L 230.364226 -78.217704 
L 230.364226 -78.217704 
L 231.144646 -78.217704 
L 231.144646 -78.217704 
L 231.925066 -78.217704 
L 231.925066 -78.217704 
L 232.705485 -78.217704 
L 232.705485 -78.217704 
L 233.485905 -78.217704 
L 233.485905 -78.217704 
L 234.266324 -78.217704 
L 234.266324 -78.217704 
L 235.046744 -78.217704 
L 235.046744 -78.217704 
L 235.827163 -78.217704 
L 235.827163 -78.217704 
L 236.607583 -78.217704 
L 236.607583 -78.217704 
L 237.388003 -78.217704 
L 237.388003 -78.217704 
L 238.168422 -78.217704 
L 238.168422 -78.217704 
L 238.948842 -78.217704 
L 238.948842 -70.154039 
L 239.729261 -70.154039 
L 239.729261 -70.154039 
L 240.509681 -70.154039 
L 240.509681 -70.154039 
L 241.290101 -70.154039 
L 241.290101 -70.154039 
L 242.07052 -70.154039 
L 242.07052 -70.154039 
L 242.85094 -70.154039 
L 242.85094 -70.154039 
L 243.631359 -70.154039 
L 243.631359 -70.154039 
L 244.411779 -70.154039 
L 244.411779 -70.154039 
L 245.192198 -70.154039 
L 245.192198 -70.154039 
L 245.972618 -70.154039 
L 245.972618 -70.154039 
L 246.753038 -70.154039 
L 246.753038 -70.154039 
L 247.533457 -70.154039 
L 247.533457 -70.154039 
L 248.313877 -70.154039 
L 248.313877 -70.154039 
L 249.094296 -70.154039 
L 249.094296 -70.154039 
L 249.874716 -70.154039 
L 249.874716 -70.154039 
L 250.655135 -70.154039 
L 250.655135 -70.154039 
L 251.435555 -70.154039 
L 251.435555 -70.154039 
L 252.215975 -70.154039 
L 252.215975 -70.154039 
L 252.996394 -70.154039 
L 252.996394 -70.154039 
L 253.776814 -70.154039 
L 253.776814 -70.154039 
L 254.557233 -70.154039 
L 254.557233 -70.154039 
L 255.337653 -70.154039 
L 255.337653 -70.154039 
L 256.118073 -70.154039 
L 256.118073 -70.154039 
L 256.898492 -70.154039 
L 256.898492 -70.154039 
L 257.678912 -70.154039 
L 257.678912 -70.154039 
L 258.459331 -70.154039 
L 258.459331 -70.154039 
L 259.239751 -70.154039 
L 259.239751 -70.154039 
L 260.02017 -70.154039 
L 260.02017 -70.154039 
L 260.02017 -104.613232 
L 260.02017 -104.613232 
L 260.02017 -104.613232 
L 259.239751 -104.613232 
L 259.239751 -104.613232 
L 258.459331 -104.613232 
L 258.459331 -104.613232 
L 257.678912 -104.613232 
L 257.678912 -104.613232 
L 256.898492 -104.613232 
L 256.898492 -104.613232 
L 256.118073 -104.613232 
L 256.118073 -104.613232 
L 255.337653 -104.613232 
L 255.337653 -104.613232 
L 254.557233 -104.613232 
L 254.557233 -104.613232 
L 253.776814 -104.613232 
L 253.776814 -104.613232 
L 252.996394 -104.613232 
L 252.996394 -104.613232 
L 252.215975 -104.613232 
L 252.215975 -104.613232 
L 251.435555 -104.613232 
L 251.435555 -104.613232 
L 250.655135 -104.613232 
L 250.655135 -104.613232 
L 249.874716 -104.613232 
L 249.874716 -104.613232 
L 249.094296 -104.613232 
L 249.094296 -104.613232 
L 248.313877 -104.613232 
L 248.313877 -104.613232 
L 247.533457 -104.613232 
L 247.533457 -104.613232 
L 246.753038 -104.613232 
L 246.753038 -104.613232 
L 245.972618 -104.613232 
L 245.972618 -104.613232 
L 245.192198 -104.613232 
L 245.192198 -104.613232 
L 244.411779 -104.613232 
L 244.411779 -104.613232 
L 243.631359 -104.613232 
L 243.631359 -104.613232 
L 242.85094 -104.613232 
L 242.85094 -104.613232 
L 242.07052 -104.613232 
L 242.07052 -104.613232 
L 241.290101 -104.613232 
L 241.290101 -104.613232 
L 240.509681 -104.613232 
L 240.509681 -104.613232 
L 239.729261 -104.613232 
L 239.729261 -104.613232 
L 238.948842 -104.613232 
L 238.948842 -111.530253 
L 238.168422 -111.530253 
L 238.168422 -111.530253 
L 237.388003 -111.530253 
L 237.388003 -111.530253 
L 236.607583 -111.530253 
L 236.607583 -111.530253 
L 235.827163 -111.530253 
L 235.827163 -111.530253 
L 235.046744 -111.530253 
L 235.046744 -111.530253 
L 234.266324 -111.530253 
L 234.266324 -111.530253 
L 233.485905 -111.530253 
L 233.485905 -111.530253 
L 232.705485 -111.530253 
L 232.705485 -111.530253 
L 231.925066 -111.530253 
L 231.925066 -111.530253 
L 231.144646 -111.530253 
L 231.144646 -111.530253 
L 230.364226 -111.530253 
L 230.364226 -111.530253 
L 229.583807 -111.530253 
L 229.583807 -111.530253 
L 228.803387 -111.530253 
L 228.803387 -111.530253 
L 228.022968 -111.530253 
L 228.022968 -111.530253 
L 227.242548 -111.530253 
L 227.242548 -111.530253 
L 226.462128 -111.530253 
L 226.462128 -111.530253 
L 225.681709 -111.530253 
L 225.681709 -111.530253 
L 224.901289 -111.530253 
L 224.901289 -111.530253 
L 224.12087 -111.530253 
L 224.12087 -111.530253 
L 223.34045 -111.530253 
L 223.34045 -111.530253 
L 222.560031 -111.530253 
L 222.560031 -111.530253 
L 221.779611 -111.530253 
L 221.779611 -114.56343 
L 220.999191 -114.56343 
L 220.999191 -114.56343 
L 220.218772 -114.56343 
L 220.218772 -114.56343 
L 219.438352 -114.56343 
L 219.438352 -114.56343 
L 218.657933 -114.56343 
L 218.657933 -114.56343 
L 217.877513 -114.56343 
L 217.877513 -114.56343 
L 217.097094 -114.56343 
L 217.097094 -114.56343 
L 216.316674 -114.56343 
L 216.316674 -114.56343 
L 215.536254 -114.56343 
L 215.536254 -114.56343 
L 214.755835 -114.56343 
L 214.755835 -114.56343 
L 213.975415 -114.56343 
L 213.975415 -114.56343 
L 213.194996 -114.56343 
L 213.194996 -114.56343 
L 212.414576 -114.56343 
L 212.414576 -114.56343 
L 211.634156 -114.56343 
L 211.634156 -114.56343 
L 210.853737 -114.56343 
L 210.853737 -114.56343 
L 210.073317 -114.56343 
L 210.073317 -114.56343 
L 209.292898 -114.56343 
L 209.292898 -114.56343 
L 208.512478 -114.56343 
L 208.512478 -114.56343 
L 207.732059 -114.56343 
L 207.732059 -114.56343 
L 206.951639 -114.56343 
L 206.951639 -114.56343 
L 206.171219 -114.56343 
L 206.171219 -114.56343 
L 205.3908 -114.56343 
L 205.3908 -117.237548 
L 204.61038 -117.237548 
L 204.61038 -117.237548 
L 203.829961 -117.237548 
L 203.829961 -117.237548 
L 203.049541 -117.237548 
L 203.049541 -117.237548 
L 202.269122 -117.237548 
L 202.269122 -117.237548 
L 201.488702 -117.237548 
L 201.488702 -117.237548 
L 200.708282 -117.237548 
L 200.708282 -117.237548 
L 199.927863 -117.237548 
L 199.927863 -117.237548 
L 199.147443 -117.237548 
L 199.147443 -117.237548 
L 198.367024 -117.237548 
L 198.367024 -117.237548 
L 197.586604 -117.237548 
L 197.586604 -117.237548 
L 196.806184 -117.237548 
L 196.806184 -117.237548 
L 196.025765 -117.237548 
L 196.025765 -117.237548 
L 195.245345 -117.237548 
L 195.245345 -117.237548 
L 194.464926 -117.237548 
L 194.464926 -117.237548 
L 193.684506 -117.237548 
L 193.684506 -117.237548 
L 192.904087 -117.237548 
L 192.904087 -117.237548 
L 192.123667 -117.237548 
L 192.123667 -117.237548 
L 191.343247 -117.237548 
L 191.343247 -117.237548 
L 190.562828 -117.237548 
L 190.562828 -119.637854 
L 189.782408 -119.637854 
L 189.782408 -122.009866 
L 189.001989 -122.009866 
L 189.001989 -122.009866 
L 188.221569 -122.009866 
L 188.221569 -122.009866 
L 187.441149 -122.009866 
L 187.441149 -122.009866 
L 186.66073 -122.009866 
L 186.66073 -124.353255 
L 185.88031 -124.353255 
L 185.88031 -126.667501 
L 185.099891 -126.667501 
L 185.099891 -126.667501 
L 184.319471 -126.667501 
L 184.319471 -126.667501 
L 183.539052 -126.667501 
L 183.539052 -126.667501 
L 182.758632 -126.667501 
L 182.758632 -126.667501 
L 181.978212 -126.667501 
L 181.978212 -126.667501 
L 181.197793 -126.667501 
L 181.197793 -126.667501 
L 180.417373 -126.667501 
L 180.417373 -128.8435 
L 179.636954 -128.8435 
L 179.636954 -128.8435 
L 178.856534 -128.8435 
L 178.856534 -128.8435 
L 178.076115 -128.8435 
L 178.076115 -130.996429 
L 177.295695 -130.996429 
L 177.295695 -130.996429 
L 176.515275 -130.996429 
L 176.515275 -130.996429 
L 175.734856 -130.996429 
L 175.734856 -130.996429 
L 174.954436 -130.996429 
L 174.954436 -130.996429 
L 174.174017 -130.996429 
L 174.174017 -130.996429 
L 173.393597 -130.996429 
L 173.393597 -130.996429 
L 172.613177 -130.996429 
L 172.613177 -130.996429 
L 171.832758 -130.996429 
L 171.832758 -130.996429 
L 171.052338 -130.996429 
L 171.052338 -130.996429 
L 170.271919 -130.996429 
L 170.271919 -130.996429 
L 169.491499 -130.996429 
L 169.491499 -130.996429 
L 168.71108 -130.996429 
L 168.71108 -130.996429 
L 167.93066 -130.996429 
L 167.93066 -130.996429 
L 167.15024 -130.996429 
L 167.15024 -130.996429 
L 166.369821 -130.996429 
L 166.369821 -130.996429 
L 165.589401 -130.996429 
L 165.589401 -130.996429 
L 164.808982 -130.996429 
L 164.808982 -130.996429 
L 164.028562 -130.996429 
L 164.028562 -130.996429 
L 163.248142 -130.996429 
L 163.248142 -133.079251 
L 162.467723 -133.079251 
L 162.467723 -133.079251 
L 161.687303 -133.079251 
L 161.687303 -133.079251 
L 160.906884 -133.079251 
L 160.906884 -133.079251 
L 160.126464 -133.079251 
L 160.126464 -133.079251 
L 159.346045 -133.079251 
L 159.346045 -133.079251 
L 158.565625 -133.079251 
L 158.565625 -133.079251 
L 157.785205 -133.079251 
L 157.785205 -135.097794 
L 157.004786 -135.097794 
L 157.004786 -135.097794 
L 156.224366 -135.097794 
L 156.224366 -137.096753 
L 155.443947 -137.096753 
L 155.443947 -137.096753 
L 154.663527 -137.096753 
L 154.663527 -137.096753 
L 153.883108 -137.096753 
L 153.883108 -137.096753 
L 153.102688 -137.096753 
L 153.102688 -139.037606 
L 152.322268 -139.037606 
L 152.322268 -140.924508 
L 151.541849 -140.924508 
L 151.541849 -142.793936 
L 150.761429 -142.793936 
L 150.761429 -144.613762 
L 149.98101 -144.613762 
L 149.98101 -144.613762 
L 149.20059 -144.613762 
L 149.20059 -144.613762 
L 148.42017 -144.613762 
L 148.42017 -144.613762 
L 147.639751 -144.613762 
L 147.639751 -144.613762 
L 146.859331 -144.613762 
L 146.859331 -144.613762 
L 146.078912 -144.613762 
L 146.078912 -144.613762 
L 145.298492 -144.613762 
L 145.298492 -144.613762 
L 144.518073 -144.613762 
L 144.518073 -144.613762 
L 143.737653 -144.613762 
L 143.737653 -144.613762 
L 142.957233 -144.613762 
L 142.957233 -144.613762 
L 142.176814 -144.613762 
L 142.176814 -146.330564 
L 141.396394 -146.330564 
L 141.396394 -146.330564 
L 140.615975 -146.330564 
L 140.615975 -146.330564 
L 139.835555 -146.330564 
L 139.835555 -146.330564 
L 139.055135 -146.330564 
L 139.055135 -146.330564 
L 138.274716 -146.330564 
L 138.274716 -146.330564 
L 137.494296 -146.330564 
L 137.494296 -146.330564 
L 136.713877 -146.330564 
L 136.713877 -146.330564 
L 135.933457 -146.330564 
L 135.933457 -146.330564 
L 135.153038 -146.330564 
L 135.153038 -146.330564 
L 134.372618 -146.330564 
L 134.372618 -147.957219 
L 133.592198 -147.957219 
L 133.592198 -147.957219 
L 132.811779 -147.957219 
L 132.811779 -147.957219 
L 132.031359 -147.957219 
L 132.031359 -147.957219 
L 131.25094 -147.957219 
L 131.25094 -147.957219 
L 130.47052 -147.957219 
L 130.47052 -147.957219 
L 129.690101 -147.957219 
L 129.690101 -149.526505 
L 128.909681 -149.526505 
L 128.909681 -149.526505 
L 128.129261 -149.526505 
L 128.129261 -149.526505 
L 127.348842 -149.526505 
L 127.348842 -149.526505 
L 126.568422 -149.526505 
L 126.568422 -149.526505 
L 125.788003 -149.526505 
L 125.788003 -149.526505 
L 125.007583 -149.526505 
L 125.007583 -151.002469 
L 124.227163 -151.002469 
L 124.227163 -151.002469 
L 123.446744 -151.002469 
L 123.446744 -151.002469 
L 122.666324 -151.002469 
L 122.666324 -151.002469 
L 121.885905 -151.002469 
L 121.885905 -152.451654 
L 121.105485 -152.451654 
L 121.105485 -152.451654 
L 120.325066 -152.451654 
L 120.325066 -153.839989 
L 119.544646 -153.839989 
L 119.544646 -153.839989 
L 118.764226 -153.839989 
L 118.764226 -155.205421 
L 117.983807 -155.205421 
L 117.983807 -155.205421 
L 117.203387 -155.205421 
L 117.203387 -155.205421 
L 116.422968 -155.205421 
L 116.422968 -156.488397 
L 115.642548 -156.488397 
L 115.642548 -156.488397 
L 114.862128 -156.488397 
L 114.862128 -157.752609 
L 114.081709 -157.752609 
L 114.081709 -160.22747 
L 113.301289 -160.22747 
L 113.301289 -160.22747 
L 112.52087 -160.22747 
L 112.52087 -161.451925 
L 111.74045 -161.451925 
L 111.74045 -163.875638 
L 110.960031 -163.875638 
L 110.960031 -163.875638 
L 110.179611 -163.875638 
L 110.179611 -165.063234 
L 109.399191 -165.063234 
L 109.399191 -165.063234 
L 108.618772 -165.063234 
L 108.618772 -166.213358 
L 107.838352 -166.213358 
L 107.838352 -169.640725 
L 107.057933 -169.640725 
L 107.057933 -169.640725 
L 106.277513 -169.640725 
L 106.277513 -170.765221 
L 105.497094 -170.765221 
L 105.497094 -170.765221 
L 104.716674 -170.765221 
L 104.716674 -170.765221 
L 103.936254 -170.765221 
L 103.936254 -171.876047 
L 103.155835 -171.876047 
L 103.155835 -172.9643 
L 102.375415 -172.9643 
L 102.375415 -174.048849 
L 101.594996 -174.048849 
L 101.594996 -175.129612 
L 100.814576 -175.129612 
L 100.814576 -177.279425 
L 100.034156 -177.279425 
L 100.034156 -177.279425 
L 99.253737 -177.279425 
L 99.253737 -177.279425 
L 98.473317 -177.279425 
L 98.473317 -178.323283 
L 97.692898 -178.323283 
L 97.692898 -179.363346 
L 96.912478 -179.363346 
L 96.912478 -181.416092 
L 96.132059 -181.416092 
L 96.132059 -183.452856 
L 95.351639 -183.452856 
L 95.351639 -183.452856 
L 94.571219 -183.452856 
L 94.571219 -184.464942 
L 93.7908 -184.464942 
L 93.7908 -184.464942 
L 93.01038 -184.464942 
L 93.01038 -184.464942 
L 92.229961 -184.464942 
L 92.229961 -186.433689 
L 91.449541 -186.433689 
L 91.449541 -187.411679 
L 90.669122 -187.411679 
L 90.669122 -187.411679 
L 89.888702 -187.411679 
L 89.888702 -187.411679 
L 89.108282 -187.411679 
L 89.108282 -189.328153 
L 88.327863 -189.328153 
L 88.327863 -190.279641 
L 87.547443 -190.279641 
L 87.547443 -191.226393 
L 86.767024 -191.226393 
L 86.767024 -193.104874 
L 85.986604 -193.104874 
L 85.986604 -193.104874 
L 85.206184 -193.104874 
L 85.206184 -193.104874 
L 84.425765 -193.104874 
L 84.425765 -194.950222 
L 83.645345 -194.950222 
L 83.645345 -194.950222 
L 82.864926 -194.950222 
L 82.864926 -195.858763 
L 82.084506 -195.858763 
L 82.084506 -195.858763 
L 81.304087 -195.858763 
L 81.304087 -195.858763 
L 80.523667 -195.858763 
L 80.523667 -195.858763 
L 79.743247 -195.858763 
L 79.743247 -198.531375 
L 78.962828 -198.531375 
L 78.962828 -199.403854 
L 78.182408 -199.403854 
L 78.182408 -202.816023 
L 77.401989 -202.816023 
L 77.401989 -202.816023 
L 76.621569 -202.816023 
L 76.621569 -202.816023 
L 75.841149 -202.816023 
L 75.841149 -203.646504 
L 75.06073 -203.646504 
L 75.06073 -206.069656 
L 74.28031 -206.069656 
L 74.28031 -206.069656 
L 73.499891 -206.069656 
L 73.499891 -206.846387 
L 72.719471 -206.846387 
L 72.719471 -206.846387 
L 71.939052 -206.846387 
L 71.939052 -206.846387 
L 71.158632 -206.846387 
L 71.158632 -206.846387 
L 70.378212 -206.846387 
L 70.378212 -207.606972 
L 69.597793 -207.606972 
L 69.597793 -209.062846 
L 68.817373 -209.062846 
L 68.817373 -209.755012 
L 68.036954 -209.755012 
L 68.036954 -210.416503 
L 67.256534 -210.416503 
L 67.256534 -211.039307 
L 66.476115 -211.039307 
L 66.476115 -211.610901 
L 65.695695 -211.610901 
L 65.695695 -211.610901 
L 64.915275 -211.610901 
L 64.915275 -211.610901 
L 64.134856 -211.610901 
L 64.134856 -211.610901 
L 63.354436 -211.610901 
L 63.354436 -212.107891 
L 62.574017 -212.107891 
L 62.574017 -212.107891 
L 61.793597 -212.107891 
L 61.793597 -212.107891 
L 61.013177 -212.107891 
L 61.013177 -212.107891 
L 60.232758 -212.107891 
L 60.232758 -212.48862 
L 59.452338 -212.48862 
L 59.452338 -212.48862 
L 58.671919 -212.48862 
L 58.671919 -212.636816 
L 57.891499 -212.636816 
L 57.891499 -212.636816 
L 57.11108 -212.636816 
z
" style="stroke: #ff7f0e; stroke-opacity: 0.25"/>
    </defs>
    <g clip-path="url(#p1f030a39b4)">
     <use xlink:href="#mb1c0ad2017" x="0" y="240.054375" style="fill: #ff7f0e; fill-opacity: 0.25; stroke: #ff7f0e; stroke-opacity: 0.25"/>
    </g>
   </g>
   <g id="matplotlib.axis_1">
    <g id="xtick_1">
     <g id="line2d_1">
      <defs>
       <path id="mf0c7190d08" d="M 0 0 
L 0 3.5 
" style="stroke: #000000; stroke-width: 0.8"/>
      </defs>
      <g>
       <use xlink:href="#mf0c7190d08" x="57.11108" y="202.498125" style="stroke: #000000; stroke-width: 0.8"/>
      </g>
     </g>
     <g id="text_1">
      <!-- 0 -->
      <g transform="translate(53.92983 217.096562) scale(0.1 -0.1)">
       <defs>
        <path id="DejaVuSans-30" d="M 2034 4250 
Q 1547 4250 1301 3770 
Q 1056 3291 1056 2328 
Q 1056 1369 1301 889 
Q 1547 409 2034 409 
Q 2525 409 2770 889 
Q 3016 1369 3016 2328 
Q 3016 3291 2770 3770 
Q 2525 4250 2034 4250 
z
M 2034 4750 
Q 2819 4750 3233 4129 
Q 3647 3509 3647 2328 
Q 3647 1150 3233 529 
Q 2819 -91 2034 -91 
Q 1250 -91 836 529 
Q 422 1150 422 2328 
Q 422 3509 836 4129 
Q 1250 4750 2034 4750 
z
" transform="scale(0.015625)"/>
       </defs>
       <use xlink:href="#DejaVuSans-30"/>
      </g>
     </g>
    </g>
    <g id="xtick_2">
     <g id="line2d_2">
      <g>
       <use xlink:href="#mf0c7190d08" x="97.804386" y="202.498125" style="stroke: #000000; stroke-width: 0.8"/>
      </g>
     </g>
     <g id="text_2">
      <!-- 1 -->
      <g transform="translate(94.623136 217.096562) scale(0.1 -0.1)">
       <defs>
        <path id="DejaVuSans-31" d="M 794 531 
L 1825 531 
L 1825 4091 
L 703 3866 
L 703 4441 
L 1819 4666 
L 2450 4666 
L 2450 531 
L 3481 531 
L 3481 0 
L 794 0 
L 794 531 
z
" transform="scale(0.015625)"/>
       </defs>
       <use xlink:href="#DejaVuSans-31"/>
      </g>
     </g>
    </g>
    <g id="xtick_3">
     <g id="line2d_3">
      <g>
       <use xlink:href="#mf0c7190d08" x="138.497693" y="202.498125" style="stroke: #000000; stroke-width: 0.8"/>
      </g>
     </g>
     <g id="text_3">
      <!-- 2 -->
      <g transform="translate(135.316443 217.096562) scale(0.1 -0.1)">
       <defs>
        <path id="DejaVuSans-32" d="M 1228 531 
L 3431 531 
L 3431 0 
L 469 0 
L 469 531 
Q 828 903 1448 1529 
Q 2069 2156 2228 2338 
Q 2531 2678 2651 2914 
Q 2772 3150 2772 3378 
Q 2772 3750 2511 3984 
Q 2250 4219 1831 4219 
Q 1534 4219 1204 4116 
Q 875 4013 500 3803 
L 500 4441 
Q 881 4594 1212 4672 
Q 1544 4750 1819 4750 
Q 2544 4750 2975 4387 
Q 3406 4025 3406 3419 
Q 3406 3131 3298 2873 
Q 3191 2616 2906 2266 
Q 2828 2175 2409 1742 
Q 1991 1309 1228 531 
z
" transform="scale(0.015625)"/>
       </defs>
       <use xlink:href="#DejaVuSans-32"/>
      </g>
     </g>
    </g>
    <g id="xtick_4">
     <g id="line2d_4">
      <g>
       <use xlink:href="#mf0c7190d08" x="179.191" y="202.498125" style="stroke: #000000; stroke-width: 0.8"/>
      </g>
     </g>
     <g id="text_4">
      <!-- 3 -->
      <g transform="translate(176.00975 217.096562) scale(0.1 -0.1)">
       <defs>
        <path id="DejaVuSans-33" d="M 2597 2516 
Q 3050 2419 3304 2112 
Q 3559 1806 3559 1356 
Q 3559 666 3084 287 
Q 2609 -91 1734 -91 
Q 1441 -91 1130 -33 
Q 819 25 488 141 
L 488 750 
Q 750 597 1062 519 
Q 1375 441 1716 441 
Q 2309 441 2620 675 
Q 2931 909 2931 1356 
Q 2931 1769 2642 2001 
Q 2353 2234 1838 2234 
L 1294 2234 
L 1294 2753 
L 1863 2753 
Q 2328 2753 2575 2939 
Q 2822 3125 2822 3475 
Q 2822 3834 2567 4026 
Q 2313 4219 1838 4219 
Q 1578 4219 1281 4162 
Q 984 4106 628 3988 
L 628 4550 
Q 988 4650 1302 4700 
Q 1616 4750 1894 4750 
Q 2613 4750 3031 4423 
Q 3450 4097 3450 3541 
Q 3450 3153 3228 2886 
Q 3006 2619 2597 2516 
z
" transform="scale(0.015625)"/>
       </defs>
       <use xlink:href="#DejaVuSans-33"/>
      </g>
     </g>
    </g>
    <g id="xtick_5">
     <g id="line2d_5">
      <g>
       <use xlink:href="#mf0c7190d08" x="219.884306" y="202.498125" style="stroke: #000000; stroke-width: 0.8"/>
      </g>
     </g>
     <g id="text_5">
      <!-- 4 -->
      <g transform="translate(216.703056 217.096562) scale(0.1 -0.1)">
       <defs>
        <path id="DejaVuSans-34" d="M 2419 4116 
L 825 1625 
L 2419 1625 
L 2419 4116 
z
M 2253 4666 
L 3047 4666 
L 3047 1625 
L 3713 1625 
L 3713 1100 
L 3047 1100 
L 3047 0 
L 2419 0 
L 2419 1100 
L 313 1100 
L 313 1709 
L 2253 4666 
z
" transform="scale(0.015625)"/>
       </defs>
       <use xlink:href="#DejaVuSans-34"/>
      </g>
     </g>
    </g>
    <g id="xtick_6">
     <g id="line2d_6">
      <g>
       <use xlink:href="#mf0c7190d08" x="260.577613" y="202.498125" style="stroke: #000000; stroke-width: 0.8"/>
      </g>
     </g>
     <g id="text_6">
      <!-- 5 -->
      <g transform="translate(257.396363 217.096562) scale(0.1 -0.1)">
       <defs>
        <path id="DejaVuSans-35" d="M 691 4666 
L 3169 4666 
L 3169 4134 
L 1269 4134 
L 1269 2991 
Q 1406 3038 1543 3061 
Q 1681 3084 1819 3084 
Q 2600 3084 3056 2656 
Q 3513 2228 3513 1497 
Q 3513 744 3044 326 
Q 2575 -91 1722 -91 
Q 1428 -91 1123 -41 
Q 819 9 494 109 
L 494 744 
Q 775 591 1075 516 
Q 1375 441 1709 441 
Q 2250 441 2565 725 
Q 2881 1009 2881 1497 
Q 2881 1984 2565 2268 
Q 2250 2553 1709 2553 
Q 1456 2553 1204 2497 
Q 953 2441 691 2322 
L 691 4666 
z
" transform="scale(0.015625)"/>
       </defs>
       <use xlink:href="#DejaVuSans-35"/>
      </g>
     </g>
    </g>
    <g id="text_7">
     <!-- Years -->
     <g transform="translate(145.373437 230.774687) scale(0.1 -0.1)">
      <defs>
       <path id="DejaVuSans-59" d="M -13 4666 
L 666 4666 
L 1959 2747 
L 3244 4666 
L 3922 4666 
L 2272 2222 
L 2272 0 
L 1638 0 
L 1638 2222 
L -13 4666 
z
" transform="scale(0.015625)"/>
       <path id="DejaVuSans-65" d="M 3597 1894 
L 3597 1613 
L 953 1613 
Q 991 1019 1311 708 
Q 1631 397 2203 397 
Q 2534 397 2845 478 
Q 3156 559 3463 722 
L 3463 178 
Q 3153 47 2828 -22 
Q 2503 -91 2169 -91 
Q 1331 -91 842 396 
Q 353 884 353 1716 
Q 353 2575 817 3079 
Q 1281 3584 2069 3584 
Q 2775 3584 3186 3129 
Q 3597 2675 3597 1894 
z
M 3022 2063 
Q 3016 2534 2758 2815 
Q 2500 3097 2075 3097 
Q 1594 3097 1305 2825 
Q 1016 2553 972 2059 
L 3022 2063 
z
" transform="scale(0.015625)"/>
       <path id="DejaVuSans-61" d="M 2194 1759 
Q 1497 1759 1228 1600 
Q 959 1441 959 1056 
Q 959 750 1161 570 
Q 1363 391 1709 391 
Q 2188 391 2477 730 
Q 2766 1069 2766 1631 
L 2766 1759 
L 2194 1759 
z
M 3341 1997 
L 3341 0 
L 2766 0 
L 2766 531 
Q 2569 213 2275 61 
Q 1981 -91 1556 -91 
Q 1019 -91 701 211 
Q 384 513 384 1019 
Q 384 1609 779 1909 
Q 1175 2209 1959 2209 
L 2766 2209 
L 2766 2266 
Q 2766 2663 2505 2880 
Q 2244 3097 1772 3097 
Q 1472 3097 1187 3025 
Q 903 2953 641 2809 
L 641 3341 
Q 956 3463 1253 3523 
Q 1550 3584 1831 3584 
Q 2591 3584 2966 3190 
Q 3341 2797 3341 1997 
z
" transform="scale(0.015625)"/>
       <path id="DejaVuSans-72" d="M 2631 2963 
Q 2534 3019 2420 3045 
Q 2306 3072 2169 3072 
Q 1681 3072 1420 2755 
Q 1159 2438 1159 1844 
L 1159 0 
L 581 0 
L 581 3500 
L 1159 3500 
L 1159 2956 
Q 1341 3275 1631 3429 
Q 1922 3584 2338 3584 
Q 2397 3584 2469 3576 
Q 2541 3569 2628 3553 
L 2631 2963 
z
" transform="scale(0.015625)"/>
       <path id="DejaVuSans-73" d="M 2834 3397 
L 2834 2853 
Q 2591 2978 2328 3040 
Q 2066 3103 1784 3103 
Q 1356 3103 1142 2972 
Q 928 2841 928 2578 
Q 928 2378 1081 2264 
Q 1234 2150 1697 2047 
L 1894 2003 
Q 2506 1872 2764 1633 
Q 3022 1394 3022 966 
Q 3022 478 2636 193 
Q 2250 -91 1575 -91 
Q 1294 -91 989 -36 
Q 684 19 347 128 
L 347 722 
Q 666 556 975 473 
Q 1284 391 1588 391 
Q 1994 391 2212 530 
Q 2431 669 2431 922 
Q 2431 1156 2273 1281 
Q 2116 1406 1581 1522 
L 1381 1569 
Q 847 1681 609 1914 
Q 372 2147 372 2553 
Q 372 3047 722 3315 
Q 1072 3584 1716 3584 
Q 2034 3584 2315 3537 
Q 2597 3491 2834 3397 
z
" transform="scale(0.015625)"/>
      </defs>
      <use xlink:href="#DejaVuSans-59"/>
      <use xlink:href="#DejaVuSans-65" transform="translate(47.833984 0)"/>
      <use xlink:href="#DejaVuSans-61" transform="translate(109.357422 0)"/>
      <use xlink:href="#DejaVuSans-72" transform="translate(170.636719 0)"/>
      <use xlink:href="#DejaVuSans-73" transform="translate(211.75 0)"/>
     </g>
    </g>
   </g>
   <g id="matplotlib.axis_2">
    <g id="ytick_1">
     <g id="line2d_7">
      <defs>
       <path id="m9fa189e4d0" d="M 0 0 
L -3.5 0 
" style="stroke: #000000; stroke-width: 0.8"/>
      </defs>
      <g>
       <use xlink:href="#m9fa189e4d0" x="46.965625" y="197.398691" style="stroke: #000000; stroke-width: 0.8"/>
      </g>
     </g>
     <g id="text_8">
      <!-- 0 -->
      <g transform="translate(33.603125 201.19791) scale(0.1 -0.1)">
       <use xlink:href="#DejaVuSans-30"/>
      </g>
     </g>
    </g>
    <g id="ytick_2">
     <g id="line2d_8">
      <g>
       <use xlink:href="#m9fa189e4d0" x="46.965625" y="163.402465" style="stroke: #000000; stroke-width: 0.8"/>
      </g>
     </g>
     <g id="text_9">
      <!-- 20 -->
      <g transform="translate(27.240625 167.201683) scale(0.1 -0.1)">
       <use xlink:href="#DejaVuSans-32"/>
       <use xlink:href="#DejaVuSans-30" transform="translate(63.623047 0)"/>
      </g>
     </g>
    </g>
    <g id="ytick_3">
     <g id="line2d_9">
      <g>
       <use xlink:href="#m9fa189e4d0" x="46.965625" y="129.406238" style="stroke: #000000; stroke-width: 0.8"/>
      </g>
     </g>
     <g id="text_10">
      <!-- 40 -->
      <g transform="translate(27.240625 133.205457) scale(0.1 -0.1)">
       <use xlink:href="#DejaVuSans-34"/>
       <use xlink:href="#DejaVuSans-30" transform="translate(63.623047 0)"/>
      </g>
     </g>
    </g>
    <g id="ytick_4">
     <g id="line2d_10">
      <g>
       <use xlink:href="#m9fa189e4d0" x="46.965625" y="95.410012" style="stroke: #000000; stroke-width: 0.8"/>
      </g>
     </g>
     <g id="text_11">
      <!-- 60 -->
      <g transform="translate(27.240625 99.209231) scale(0.1 -0.1)">
       <defs>
        <path id="DejaVuSans-36" d="M 2113 2584 
Q 1688 2584 1439 2293 
Q 1191 2003 1191 1497 
Q 1191 994 1439 701 
Q 1688 409 2113 409 
Q 2538 409 2786 701 
Q 3034 994 3034 1497 
Q 3034 2003 2786 2293 
Q 2538 2584 2113 2584 
z
M 3366 4563 
L 3366 3988 
Q 3128 4100 2886 4159 
Q 2644 4219 2406 4219 
Q 1781 4219 1451 3797 
Q 1122 3375 1075 2522 
Q 1259 2794 1537 2939 
Q 1816 3084 2150 3084 
Q 2853 3084 3261 2657 
Q 3669 2231 3669 1497 
Q 3669 778 3244 343 
Q 2819 -91 2113 -91 
Q 1303 -91 875 529 
Q 447 1150 447 2328 
Q 447 3434 972 4092 
Q 1497 4750 2381 4750 
Q 2619 4750 2861 4703 
Q 3103 4656 3366 4563 
z
" transform="scale(0.015625)"/>
       </defs>
       <use xlink:href="#DejaVuSans-36"/>
       <use xlink:href="#DejaVuSans-30" transform="translate(63.623047 0)"/>
      </g>
     </g>
    </g>
    <g id="ytick_5">
     <g id="line2d_11">
      <g>
       <use xlink:href="#m9fa189e4d0" x="46.965625" y="61.413785" style="stroke: #000000; stroke-width: 0.8"/>
      </g>
     </g>
     <g id="text_12">
      <!-- 80 -->
      <g transform="translate(27.240625 65.213004) scale(0.1 -0.1)">
       <defs>
        <path id="DejaVuSans-38" d="M 2034 2216 
Q 1584 2216 1326 1975 
Q 1069 1734 1069 1313 
Q 1069 891 1326 650 
Q 1584 409 2034 409 
Q 2484 409 2743 651 
Q 3003 894 3003 1313 
Q 3003 1734 2745 1975 
Q 2488 2216 2034 2216 
z
M 1403 2484 
Q 997 2584 770 2862 
Q 544 3141 544 3541 
Q 544 4100 942 4425 
Q 1341 4750 2034 4750 
Q 2731 4750 3128 4425 
Q 3525 4100 3525 3541 
Q 3525 3141 3298 2862 
Q 3072 2584 2669 2484 
Q 3125 2378 3379 2068 
Q 3634 1759 3634 1313 
Q 3634 634 3220 271 
Q 2806 -91 2034 -91 
Q 1263 -91 848 271 
Q 434 634 434 1313 
Q 434 1759 690 2068 
Q 947 2378 1403 2484 
z
M 1172 3481 
Q 1172 3119 1398 2916 
Q 1625 2713 2034 2713 
Q 2441 2713 2670 2916 
Q 2900 3119 2900 3481 
Q 2900 3844 2670 4047 
Q 2441 4250 2034 4250 
Q 1625 4250 1398 4047 
Q 1172 3844 1172 3481 
z
" transform="scale(0.015625)"/>
       </defs>
       <use xlink:href="#DejaVuSans-38"/>
       <use xlink:href="#DejaVuSans-30" transform="translate(63.623047 0)"/>
      </g>
     </g>
    </g>
    <g id="ytick_6">
     <g id="line2d_12">
      <g>
       <use xlink:href="#m9fa189e4d0" x="46.965625" y="27.417559" style="stroke: #000000; stroke-width: 0.8"/>
      </g>
     </g>
     <g id="text_13">
      <!-- 100 -->
      <g transform="translate(20.878125 31.216778) scale(0.1 -0.1)">
       <use xlink:href="#DejaVuSans-31"/>
       <use xlink:href="#DejaVuSans-30" transform="translate(63.623047 0)"/>
       <use xlink:href="#DejaVuSans-30" transform="translate(127.246094 0)"/>
      </g>
     </g>
    </g>
    <g id="text_14">
     <!-- Progresssion-Free Interval (%) -->
     <g transform="translate(14.798438 187.355) rotate(-90) scale(0.1 -0.1)">
      <defs>
       <path id="DejaVuSans-50" d="M 1259 4147 
L 1259 2394 
L 2053 2394 
Q 2494 2394 2734 2622 
Q 2975 2850 2975 3272 
Q 2975 3691 2734 3919 
Q 2494 4147 2053 4147 
L 1259 4147 
z
M 628 4666 
L 2053 4666 
Q 2838 4666 3239 4311 
Q 3641 3956 3641 3272 
Q 3641 2581 3239 2228 
Q 2838 1875 2053 1875 
L 1259 1875 
L 1259 0 
L 628 0 
L 628 4666 
z
" transform="scale(0.015625)"/>
       <path id="DejaVuSans-6f" d="M 1959 3097 
Q 1497 3097 1228 2736 
Q 959 2375 959 1747 
Q 959 1119 1226 758 
Q 1494 397 1959 397 
Q 2419 397 2687 759 
Q 2956 1122 2956 1747 
Q 2956 2369 2687 2733 
Q 2419 3097 1959 3097 
z
M 1959 3584 
Q 2709 3584 3137 3096 
Q 3566 2609 3566 1747 
Q 3566 888 3137 398 
Q 2709 -91 1959 -91 
Q 1206 -91 779 398 
Q 353 888 353 1747 
Q 353 2609 779 3096 
Q 1206 3584 1959 3584 
z
" transform="scale(0.015625)"/>
       <path id="DejaVuSans-67" d="M 2906 1791 
Q 2906 2416 2648 2759 
Q 2391 3103 1925 3103 
Q 1463 3103 1205 2759 
Q 947 2416 947 1791 
Q 947 1169 1205 825 
Q 1463 481 1925 481 
Q 2391 481 2648 825 
Q 2906 1169 2906 1791 
z
M 3481 434 
Q 3481 -459 3084 -895 
Q 2688 -1331 1869 -1331 
Q 1566 -1331 1297 -1286 
Q 1028 -1241 775 -1147 
L 775 -588 
Q 1028 -725 1275 -790 
Q 1522 -856 1778 -856 
Q 2344 -856 2625 -561 
Q 2906 -266 2906 331 
L 2906 616 
Q 2728 306 2450 153 
Q 2172 0 1784 0 
Q 1141 0 747 490 
Q 353 981 353 1791 
Q 353 2603 747 3093 
Q 1141 3584 1784 3584 
Q 2172 3584 2450 3431 
Q 2728 3278 2906 2969 
L 2906 3500 
L 3481 3500 
L 3481 434 
z
" transform="scale(0.015625)"/>
       <path id="DejaVuSans-69" d="M 603 3500 
L 1178 3500 
L 1178 0 
L 603 0 
L 603 3500 
z
M 603 4863 
L 1178 4863 
L 1178 4134 
L 603 4134 
L 603 4863 
z
" transform="scale(0.015625)"/>
       <path id="DejaVuSans-6e" d="M 3513 2113 
L 3513 0 
L 2938 0 
L 2938 2094 
Q 2938 2591 2744 2837 
Q 2550 3084 2163 3084 
Q 1697 3084 1428 2787 
Q 1159 2491 1159 1978 
L 1159 0 
L 581 0 
L 581 3500 
L 1159 3500 
L 1159 2956 
Q 1366 3272 1645 3428 
Q 1925 3584 2291 3584 
Q 2894 3584 3203 3211 
Q 3513 2838 3513 2113 
z
" transform="scale(0.015625)"/>
       <path id="DejaVuSans-2d" d="M 313 2009 
L 1997 2009 
L 1997 1497 
L 313 1497 
L 313 2009 
z
" transform="scale(0.015625)"/>
       <path id="DejaVuSans-46" d="M 628 4666 
L 3309 4666 
L 3309 4134 
L 1259 4134 
L 1259 2759 
L 3109 2759 
L 3109 2228 
L 1259 2228 
L 1259 0 
L 628 0 
L 628 4666 
z
" transform="scale(0.015625)"/>
       <path id="DejaVuSans-20" transform="scale(0.015625)"/>
       <path id="DejaVuSans-49" d="M 628 4666 
L 1259 4666 
L 1259 0 
L 628 0 
L 628 4666 
z
" transform="scale(0.015625)"/>
       <path id="DejaVuSans-74" d="M 1172 4494 
L 1172 3500 
L 2356 3500 
L 2356 3053 
L 1172 3053 
L 1172 1153 
Q 1172 725 1289 603 
Q 1406 481 1766 481 
L 2356 481 
L 2356 0 
L 1766 0 
Q 1100 0 847 248 
Q 594 497 594 1153 
L 594 3053 
L 172 3053 
L 172 3500 
L 594 3500 
L 594 4494 
L 1172 4494 
z
" transform="scale(0.015625)"/>
       <path id="DejaVuSans-76" d="M 191 3500 
L 800 3500 
L 1894 563 
L 2988 3500 
L 3597 3500 
L 2284 0 
L 1503 0 
L 191 3500 
z
" transform="scale(0.015625)"/>
       <path id="DejaVuSans-6c" d="M 603 4863 
L 1178 4863 
L 1178 0 
L 603 0 
L 603 4863 
z
" transform="scale(0.015625)"/>
       <path id="DejaVuSans-28" d="M 1984 4856 
Q 1566 4138 1362 3434 
Q 1159 2731 1159 2009 
Q 1159 1288 1364 580 
Q 1569 -128 1984 -844 
L 1484 -844 
Q 1016 -109 783 600 
Q 550 1309 550 2009 
Q 550 2706 781 3412 
Q 1013 4119 1484 4856 
L 1984 4856 
z
" transform="scale(0.015625)"/>
       <path id="DejaVuSans-25" d="M 4653 2053 
Q 4381 2053 4226 1822 
Q 4072 1591 4072 1178 
Q 4072 772 4226 539 
Q 4381 306 4653 306 
Q 4919 306 5073 539 
Q 5228 772 5228 1178 
Q 5228 1588 5073 1820 
Q 4919 2053 4653 2053 
z
M 4653 2450 
Q 5147 2450 5437 2106 
Q 5728 1763 5728 1178 
Q 5728 594 5436 251 
Q 5144 -91 4653 -91 
Q 4153 -91 3862 251 
Q 3572 594 3572 1178 
Q 3572 1766 3864 2108 
Q 4156 2450 4653 2450 
z
M 1428 4353 
Q 1159 4353 1004 4120 
Q 850 3888 850 3481 
Q 850 3069 1003 2837 
Q 1156 2606 1428 2606 
Q 1700 2606 1854 2837 
Q 2009 3069 2009 3481 
Q 2009 3884 1853 4118 
Q 1697 4353 1428 4353 
z
M 4250 4750 
L 4750 4750 
L 1831 -91 
L 1331 -91 
L 4250 4750 
z
M 1428 4750 
Q 1922 4750 2215 4408 
Q 2509 4066 2509 3481 
Q 2509 2891 2217 2550 
Q 1925 2209 1428 2209 
Q 931 2209 642 2551 
Q 353 2894 353 3481 
Q 353 4063 643 4406 
Q 934 4750 1428 4750 
z
" transform="scale(0.015625)"/>
       <path id="DejaVuSans-29" d="M 513 4856 
L 1013 4856 
Q 1481 4119 1714 3412 
Q 1947 2706 1947 2009 
Q 1947 1309 1714 600 
Q 1481 -109 1013 -844 
L 513 -844 
Q 928 -128 1133 580 
Q 1338 1288 1338 2009 
Q 1338 2731 1133 3434 
Q 928 4138 513 4856 
z
" transform="scale(0.015625)"/>
      </defs>
      <use xlink:href="#DejaVuSans-50"/>
      <use xlink:href="#DejaVuSans-72" transform="translate(58.552734 0)"/>
      <use xlink:href="#DejaVuSans-6f" transform="translate(97.416016 0)"/>
      <use xlink:href="#DejaVuSans-67" transform="translate(158.597656 0)"/>
      <use xlink:href="#DejaVuSans-72" transform="translate(222.074219 0)"/>
      <use xlink:href="#DejaVuSans-65" transform="translate(260.9375 0)"/>
      <use xlink:href="#DejaVuSans-73" transform="translate(322.460938 0)"/>
      <use xlink:href="#DejaVuSans-73" transform="translate(374.560547 0)"/>
      <use xlink:href="#DejaVuSans-73" transform="translate(426.660156 0)"/>
      <use xlink:href="#DejaVuSans-69" transform="translate(478.759766 0)"/>
      <use xlink:href="#DejaVuSans-6f" transform="translate(506.542969 0)"/>
      <use xlink:href="#DejaVuSans-6e" transform="translate(567.724609 0)"/>
      <use xlink:href="#DejaVuSans-2d" transform="translate(631.103516 0)"/>
      <use xlink:href="#DejaVuSans-46" transform="translate(667.1875 0)"/>
      <use xlink:href="#DejaVuSans-72" transform="translate(717.457031 0)"/>
      <use xlink:href="#DejaVuSans-65" transform="translate(756.320312 0)"/>
      <use xlink:href="#DejaVuSans-65" transform="translate(817.84375 0)"/>
      <use xlink:href="#DejaVuSans-20" transform="translate(879.367188 0)"/>
      <use xlink:href="#DejaVuSans-49" transform="translate(911.154297 0)"/>
      <use xlink:href="#DejaVuSans-6e" transform="translate(940.646484 0)"/>
      <use xlink:href="#DejaVuSans-74" transform="translate(1004.025391 0)"/>
      <use xlink:href="#DejaVuSans-65" transform="translate(1043.234375 0)"/>
      <use xlink:href="#DejaVuSans-72" transform="translate(1104.757812 0)"/>
      <use xlink:href="#DejaVuSans-76" transform="translate(1145.871094 0)"/>
      <use xlink:href="#DejaVuSans-61" transform="translate(1205.050781 0)"/>
      <use xlink:href="#DejaVuSans-6c" transform="translate(1266.330078 0)"/>
      <use xlink:href="#DejaVuSans-20" transform="translate(1294.113281 0)"/>
      <use xlink:href="#DejaVuSans-28" transform="translate(1325.900391 0)"/>
      <use xlink:href="#DejaVuSans-25" transform="translate(1364.914062 0)"/>
      <use xlink:href="#DejaVuSans-29" transform="translate(1459.933594 0)"/>
     </g>
    </g>
   </g>
   <g id="line2d_13">
    <path d="M 57.11108 27.417559 
L 68.036954 27.417559 
L 68.036954 29.762126 
L 71.158632 29.762126 
L 71.158632 30.951038 
L 71.939052 30.951038 
L 71.939052 32.148503 
L 79.743247 32.148503 
L 79.743247 33.409955 
L 84.425765 33.409955 
L 84.425765 34.691117 
L 85.986604 34.691117 
L 85.986604 35.992778 
L 88.327863 35.992778 
L 88.327863 37.305021 
L 89.888702 37.305021 
L 89.888702 38.628109 
L 93.01038 38.628109 
L 93.01038 39.962316 
L 94.571219 39.962316 
L 94.571219 41.296522 
L 95.351639 41.296522 
L 95.351639 44.011342 
L 102.375415 44.011342 
L 102.375415 46.750402 
L 103.155835 46.750402 
L 103.155835 48.119932 
L 105.497094 48.119932 
L 105.497094 49.541635 
L 109.399191 49.541635 
L 109.399191 51.05038 
L 114.081709 51.05038 
L 114.081709 52.559126 
L 118.764226 52.559126 
L 118.764226 54.11654 
L 125.788003 54.11654 
L 125.788003 55.763462 
L 135.153038 55.763462 
L 135.153038 57.60288 
L 138.274716 57.60288 
L 138.274716 59.517891 
L 143.737653 59.517891 
L 143.737653 61.487617 
L 147.639751 61.487617 
L 147.639751 63.51614 
L 150.761429 63.51614 
L 150.761429 65.544664 
L 153.102688 65.544664 
L 153.102688 67.604883 
L 155.443947 67.604883 
L 155.443947 69.768113 
L 160.126464 69.768113 
L 160.126464 72.047231 
L 164.028562 72.047231 
L 164.028562 74.505102 
L 165.589401 74.505102 
L 165.589401 77.065386 
L 185.099891 77.065386 
L 185.099891 80.150855 
L 192.123667 80.150855 
L 192.123667 83.407739 
L 196.806184 83.407739 
L 196.806184 86.862011 
L 198.367024 86.862011 
L 198.367024 90.316282 
L 210.853737 90.316282 
L 210.853737 94.282297 
L 260.02017 94.282297 
L 260.02017 94.282297 
" clip-path="url(#p1f030a39b4)" style="fill: none; stroke: #1f77b4; stroke-width: 1.5; stroke-linecap: square"/>
   </g>
   <g id="line2d_14">
    <path d="M 57.11108 27.417559 
L 58.671919 27.417559 
L 58.671919 28.466825 
L 60.232758 28.466825 
L 60.232758 29.522649 
L 63.354436 29.522649 
L 63.354436 30.578474 
L 66.476115 30.578474 
L 66.476115 31.641023 
L 67.256534 31.641023 
L 67.256534 32.703572 
L 68.036954 32.703572 
L 68.036954 33.766121 
L 68.817373 33.766121 
L 68.817373 34.82867 
L 69.597793 34.82867 
L 69.597793 36.953768 
L 70.378212 36.953768 
L 70.378212 38.023401 
L 73.499891 38.023401 
L 73.499891 39.093034 
L 75.06073 39.093034 
L 75.06073 42.323762 
L 75.841149 42.323762 
L 75.841149 43.400671 
L 78.182408 43.400671 
L 78.182408 47.708308 
L 78.962828 47.708308 
L 78.962828 48.785217 
L 79.743247 48.785217 
L 79.743247 52.039527 
L 82.864926 52.039527 
L 82.864926 53.132453 
L 84.425765 53.132453 
L 84.425765 55.334991 
L 86.767024 55.334991 
L 86.767024 57.554736 
L 87.547443 57.554736 
L 87.547443 58.664609 
L 88.327863 58.664609 
L 88.327863 59.774481 
L 89.108282 59.774481 
L 89.108282 61.994227 
L 91.449541 61.994227 
L 91.449541 63.122597 
L 92.229961 63.122597 
L 92.229961 65.379338 
L 94.571219 65.379338 
L 94.571219 66.537403 
L 96.132059 66.537403 
L 96.132059 68.853532 
L 96.912478 68.853532 
L 96.912478 71.169661 
L 97.692898 71.169661 
L 97.692898 72.338448 
L 98.473317 72.338448 
L 98.473317 73.507236 
L 100.814576 73.507236 
L 100.814576 75.912895 
L 101.594996 75.912895 
L 101.594996 77.115725 
L 102.375415 77.115725 
L 102.375415 78.318554 
L 103.155835 78.318554 
L 103.155835 79.521384 
L 103.936254 79.521384 
L 103.936254 80.749272 
L 106.277513 80.749272 
L 106.277513 81.990224 
L 107.838352 81.990224 
L 107.838352 85.753543 
L 108.618772 85.753543 
L 108.618772 87.007983 
L 110.179611 87.007983 
L 110.179611 88.306697 
L 111.74045 88.306697 
L 111.74045 90.951647 
L 112.52087 90.951647 
L 112.52087 92.282235 
L 114.081709 92.282235 
L 114.081709 94.960691 
L 114.862128 94.960691 
L 114.862128 96.326531 
L 116.422968 96.326531 
L 116.422968 97.711081 
L 118.764226 97.711081 
L 118.764226 99.198956 
L 120.325066 99.198956 
L 120.325066 100.709721 
L 121.885905 100.709721 
L 121.885905 102.294786 
L 125.007583 102.294786 
L 125.007583 103.906717 
L 129.690101 103.906717 
L 129.690101 105.63805 
L 134.372618 105.63805 
L 134.372618 107.437278 
L 142.176814 107.437278 
L 142.176814 109.351351 
L 150.761429 109.351351 
L 150.761429 111.398963 
L 151.541849 111.398963 
L 151.541849 113.496518 
L 152.322268 113.496518 
L 152.322268 115.594072 
L 153.102688 115.594072 
L 153.102688 117.746825 
L 156.224366 117.746825 
L 156.224366 119.959377 
L 157.785205 119.959377 
L 157.785205 122.171929 
L 163.248142 122.171929 
L 163.248142 124.451528 
L 178.076115 124.451528 
L 178.076115 126.804662 
L 180.417373 126.804662 
L 180.417373 129.157796 
L 185.88031 129.157796 
L 185.88031 131.685237 
L 186.66073 131.685237 
L 186.66073 134.212677 
L 189.782408 134.212677 
L 189.782408 136.740118 
L 190.562828 136.740118 
L 190.562828 139.267558 
L 205.3908 139.267558 
L 205.3908 142.174115 
L 221.779611 142.174115 
L 221.779611 145.625651 
L 238.948842 145.625651 
L 238.948842 153.590734 
L 260.02017 153.590734 
L 260.02017 153.590734 
" clip-path="url(#p1f030a39b4)" style="fill: none; stroke: #ff7f0e; stroke-width: 1.5; stroke-linecap: square"/>
   </g>
   <g id="patch_3">
    <path d="M 46.965625 202.498125 
L 46.965625 22.318125 
" style="fill: none; stroke: #000000; stroke-width: 0.8; stroke-linejoin: miter; stroke-linecap: square"/>
   </g>
   <g id="patch_4">
    <path d="M 270.165625 202.498125 
L 270.165625 22.318125 
" style="fill: none; stroke: #000000; stroke-width: 0.8; stroke-linejoin: miter; stroke-linecap: square"/>
   </g>
   <g id="patch_5">
    <path d="M 46.965625 202.498125 
L 270.165625 202.498125 
" style="fill: none; stroke: #000000; stroke-width: 0.8; stroke-linejoin: miter; stroke-linecap: square"/>
   </g>
   <g id="patch_6">
    <path d="M 46.965625 22.318125 
L 270.165625 22.318125 
" style="fill: none; stroke: #000000; stroke-width: 0.8; stroke-linejoin: miter; stroke-linecap: square"/>
   </g>
   <g id="text_15">
    <g id="patch_7">
     <path d="M 128.465625 192.319187 
L 188.665625 192.319187 
Q 191.665625 192.319187 191.665625 189.319187 
L 191.665625 179.641062 
Q 191.665625 176.641062 188.665625 176.641062 
L 128.465625 176.641062 
Q 125.465625 176.641062 125.465625 179.641062 
L 125.465625 189.319187 
Q 125.465625 192.319187 128.465625 192.319187 
z
" style="fill: #ffffff; stroke: #808080; stroke-linejoin: miter"/>
    </g>
    <!-- $p =$ 5.5e-07 -->
    <g transform="translate(128.465625 187.219187) scale(0.1 -0.1)">
     <defs>
      <path id="DejaVuSans-Oblique-70" d="M 3175 2156 
Q 3175 2616 2975 2859 
Q 2775 3103 2400 3103 
Q 2144 3103 1911 2972 
Q 1678 2841 1497 2591 
Q 1319 2344 1212 1994 
Q 1106 1644 1106 1300 
Q 1106 863 1306 627 
Q 1506 391 1875 391 
Q 2147 391 2380 519 
Q 2613 647 2778 891 
Q 2956 1147 3065 1494 
Q 3175 1841 3175 2156 
z
M 1394 2969 
Q 1625 3272 1939 3428 
Q 2253 3584 2638 3584 
Q 3175 3584 3472 3232 
Q 3769 2881 3769 2247 
Q 3769 1728 3584 1258 
Q 3400 788 3053 416 
Q 2822 169 2531 39 
Q 2241 -91 1919 -91 
Q 1547 -91 1294 64 
Q 1041 219 916 525 
L 556 -1331 
L -19 -1331 
L 922 3500 
L 1497 3500 
L 1394 2969 
z
" transform="scale(0.015625)"/>
      <path id="DejaVuSans-3d" d="M 678 2906 
L 4684 2906 
L 4684 2381 
L 678 2381 
L 678 2906 
z
M 678 1631 
L 4684 1631 
L 4684 1100 
L 678 1100 
L 678 1631 
z
" transform="scale(0.015625)"/>
      <path id="DejaVuSans-2e" d="M 684 794 
L 1344 794 
L 1344 0 
L 684 0 
L 684 794 
z
" transform="scale(0.015625)"/>
      <path id="DejaVuSans-37" d="M 525 4666 
L 3525 4666 
L 3525 4397 
L 1831 0 
L 1172 0 
L 2766 4134 
L 525 4134 
L 525 4666 
z
" transform="scale(0.015625)"/>
     </defs>
     <use xlink:href="#DejaVuSans-Oblique-70" transform="translate(0 0.78125)"/>
     <use xlink:href="#DejaVuSans-3d" transform="translate(82.958984 0.78125)"/>
     <use xlink:href="#DejaVuSans-20" transform="translate(186.230469 0.78125)"/>
     <use xlink:href="#DejaVuSans-35" transform="translate(218.017578 0.78125)"/>
     <use xlink:href="#DejaVuSans-2e" transform="translate(281.640625 0.78125)"/>
     <use xlink:href="#DejaVuSans-35" transform="translate(313.427734 0.78125)"/>
     <use xlink:href="#DejaVuSans-65" transform="translate(377.050781 0.78125)"/>
     <use xlink:href="#DejaVuSans-2d" transform="translate(438.574219 0.78125)"/>
     <use xlink:href="#DejaVuSans-30" transform="translate(474.658203 0.78125)"/>
     <use xlink:href="#DejaVuSans-37" transform="translate(538.28125 0.78125)"/>
    </g>
   </g>
   <g id="text_16">
    <!-- Lower Grade Glioma -->
    <g transform="translate(97.308437 16.318125) scale(0.12 -0.12)">
     <defs>
      <path id="DejaVuSans-4c" d="M 628 4666 
L 1259 4666 
L 1259 531 
L 3531 531 
L 3531 0 
L 628 0 
L 628 4666 
z
" transform="scale(0.015625)"/>
      <path id="DejaVuSans-77" d="M 269 3500 
L 844 3500 
L 1563 769 
L 2278 3500 
L 2956 3500 
L 3675 769 
L 4391 3500 
L 4966 3500 
L 4050 0 
L 3372 0 
L 2619 2869 
L 1863 0 
L 1184 0 
L 269 3500 
z
" transform="scale(0.015625)"/>
      <path id="DejaVuSans-47" d="M 3809 666 
L 3809 1919 
L 2778 1919 
L 2778 2438 
L 4434 2438 
L 4434 434 
Q 4069 175 3628 42 
Q 3188 -91 2688 -91 
Q 1594 -91 976 548 
Q 359 1188 359 2328 
Q 359 3472 976 4111 
Q 1594 4750 2688 4750 
Q 3144 4750 3555 4637 
Q 3966 4525 4313 4306 
L 4313 3634 
Q 3963 3931 3569 4081 
Q 3175 4231 2741 4231 
Q 1884 4231 1454 3753 
Q 1025 3275 1025 2328 
Q 1025 1384 1454 906 
Q 1884 428 2741 428 
Q 3075 428 3337 486 
Q 3600 544 3809 666 
z
" transform="scale(0.015625)"/>
      <path id="DejaVuSans-64" d="M 2906 2969 
L 2906 4863 
L 3481 4863 
L 3481 0 
L 2906 0 
L 2906 525 
Q 2725 213 2448 61 
Q 2172 -91 1784 -91 
Q 1150 -91 751 415 
Q 353 922 353 1747 
Q 353 2572 751 3078 
Q 1150 3584 1784 3584 
Q 2172 3584 2448 3432 
Q 2725 3281 2906 2969 
z
M 947 1747 
Q 947 1113 1208 752 
Q 1469 391 1925 391 
Q 2381 391 2643 752 
Q 2906 1113 2906 1747 
Q 2906 2381 2643 2742 
Q 2381 3103 1925 3103 
Q 1469 3103 1208 2742 
Q 947 2381 947 1747 
z
" transform="scale(0.015625)"/>
      <path id="DejaVuSans-6d" d="M 3328 2828 
Q 3544 3216 3844 3400 
Q 4144 3584 4550 3584 
Q 5097 3584 5394 3201 
Q 5691 2819 5691 2113 
L 5691 0 
L 5113 0 
L 5113 2094 
Q 5113 2597 4934 2840 
Q 4756 3084 4391 3084 
Q 3944 3084 3684 2787 
Q 3425 2491 3425 1978 
L 3425 0 
L 2847 0 
L 2847 2094 
Q 2847 2600 2669 2842 
Q 2491 3084 2119 3084 
Q 1678 3084 1418 2786 
Q 1159 2488 1159 1978 
L 1159 0 
L 581 0 
L 581 3500 
L 1159 3500 
L 1159 2956 
Q 1356 3278 1631 3431 
Q 1906 3584 2284 3584 
Q 2666 3584 2933 3390 
Q 3200 3197 3328 2828 
z
" transform="scale(0.015625)"/>
     </defs>
     <use xlink:href="#DejaVuSans-4c"/>
     <use xlink:href="#DejaVuSans-6f" transform="translate(53.962891 0)"/>
     <use xlink:href="#DejaVuSans-77" transform="translate(115.144531 0)"/>
     <use xlink:href="#DejaVuSans-65" transform="translate(196.931641 0)"/>
     <use xlink:href="#DejaVuSans-72" transform="translate(258.455078 0)"/>
     <use xlink:href="#DejaVuSans-20" transform="translate(299.568359 0)"/>
     <use xlink:href="#DejaVuSans-47" transform="translate(331.355469 0)"/>
     <use xlink:href="#DejaVuSans-72" transform="translate(408.845703 0)"/>
     <use xlink:href="#DejaVuSans-61" transform="translate(449.958984 0)"/>
     <use xlink:href="#DejaVuSans-64" transform="translate(511.238281 0)"/>
     <use xlink:href="#DejaVuSans-65" transform="translate(574.714844 0)"/>
     <use xlink:href="#DejaVuSans-20" transform="translate(636.238281 0)"/>
     <use xlink:href="#DejaVuSans-47" transform="translate(668.025391 0)"/>
     <use xlink:href="#DejaVuSans-6c" transform="translate(745.515625 0)"/>
     <use xlink:href="#DejaVuSans-69" transform="translate(773.298828 0)"/>
     <use xlink:href="#DejaVuSans-6f" transform="translate(801.082031 0)"/>
     <use xlink:href="#DejaVuSans-6d" transform="translate(862.263672 0)"/>
     <use xlink:href="#DejaVuSans-61" transform="translate(959.675781 0)"/>
    </g>
   </g>
   <g id="legend_1">
    <g id="text_17">
     <!-- Pfn1 -->
     <g transform="translate(293.532812 92.970562) scale(0.1 -0.1)">
      <defs>
       <path id="DejaVuSans-Oblique-50" d="M 1081 4666 
L 2541 4666 
Q 3178 4666 3512 4369 
Q 3847 4072 3847 3500 
Q 3847 2731 3353 2303 
Q 2859 1875 1966 1875 
L 1172 1875 
L 806 0 
L 172 0 
L 1081 4666 
z
M 1613 4147 
L 1275 2394 
L 2069 2394 
Q 2606 2394 2893 2669 
Q 3181 2944 3181 3456 
Q 3181 3784 2986 3965 
Q 2791 4147 2438 4147 
L 1613 4147 
z
" transform="scale(0.015625)"/>
       <path id="DejaVuSans-Oblique-66" d="M 3059 4863 
L 2969 4384 
L 2419 4384 
Q 2106 4384 1964 4261 
Q 1822 4138 1753 3809 
L 1691 3500 
L 2638 3500 
L 2553 3053 
L 1606 3053 
L 1013 0 
L 434 0 
L 1031 3053 
L 481 3053 
L 563 3500 
L 1113 3500 
L 1159 3744 
Q 1278 4363 1576 4613 
Q 1875 4863 2516 4863 
L 3059 4863 
z
" transform="scale(0.015625)"/>
       <path id="DejaVuSans-Oblique-6e" d="M 3566 2113 
L 3156 0 
L 2578 0 
L 2988 2091 
Q 3016 2238 3031 2350 
Q 3047 2463 3047 2528 
Q 3047 2791 2881 2937 
Q 2716 3084 2419 3084 
Q 1956 3084 1622 2776 
Q 1288 2469 1184 1941 
L 800 0 
L 225 0 
L 903 3500 
L 1478 3500 
L 1363 2950 
Q 1603 3253 1940 3418 
Q 2278 3584 2650 3584 
Q 3113 3584 3367 3334 
Q 3622 3084 3622 2631 
Q 3622 2519 3608 2391 
Q 3594 2263 3566 2113 
z
" transform="scale(0.015625)"/>
       <path id="DejaVuSans-Oblique-31" d="M 416 531 
L 1447 531 
L 2144 4122 
L 978 3897 
L 1088 4441 
L 2247 4666 
L 2881 4666 
L 2075 531 
L 3103 531 
L 3003 0 
L 313 0 
L 416 531 
z
" transform="scale(0.015625)"/>
      </defs>
      <use xlink:href="#DejaVuSans-Oblique-50"/>
      <use xlink:href="#DejaVuSans-Oblique-66" transform="translate(60.302734 0)"/>
      <use xlink:href="#DejaVuSans-Oblique-6e" transform="translate(95.507812 0)"/>
      <use xlink:href="#DejaVuSans-Oblique-31" transform="translate(158.886719 0)"/>
     </g>
    </g>
    <g id="line2d_15">
     <path d="M 279.165625 104.148687 
L 289.165625 104.148687 
L 289.165625 104.148687 
L 299.165625 104.148687 
L 299.165625 104.148687 
" style="fill: none; stroke: #1f77b4; stroke-width: 1.5; stroke-linecap: square"/>
    </g>
    <g id="text_18">
     <!-- Low -->
     <g transform="translate(307.165625 107.648687) scale(0.1 -0.1)">
      <use xlink:href="#DejaVuSans-4c"/>
      <use xlink:href="#DejaVuSans-6f" transform="translate(53.962891 0)"/>
      <use xlink:href="#DejaVuSans-77" transform="translate(115.144531 0)"/>
     </g>
    </g>
    <g id="line2d_16">
     <path d="M 279.165625 118.826812 
L 289.165625 118.826812 
L 289.165625 118.826812 
L 299.165625 118.826812 
L 299.165625 118.826812 
" style="fill: none; stroke: #ff7f0e; stroke-width: 1.5; stroke-linecap: square"/>
    </g>
    <g id="text_19">
     <!-- High -->
     <g transform="translate(307.165625 122.326812) scale(0.1 -0.1)">
      <defs>
       <path id="DejaVuSans-48" d="M 628 4666 
L 1259 4666 
L 1259 2753 
L 3553 2753 
L 3553 4666 
L 4184 4666 
L 4184 0 
L 3553 0 
L 3553 2222 
L 1259 2222 
L 1259 0 
L 628 0 
L 628 4666 
z
" transform="scale(0.015625)"/>
       <path id="DejaVuSans-68" d="M 3513 2113 
L 3513 0 
L 2938 0 
L 2938 2094 
Q 2938 2591 2744 2837 
Q 2550 3084 2163 3084 
Q 1697 3084 1428 2787 
Q 1159 2491 1159 1978 
L 1159 0 
L 581 0 
L 581 4863 
L 1159 4863 
L 1159 2956 
Q 1366 3272 1645 3428 
Q 1925 3584 2291 3584 
Q 2894 3584 3203 3211 
Q 3513 2838 3513 2113 
z
" transform="scale(0.015625)"/>
      </defs>
      <use xlink:href="#DejaVuSans-48"/>
      <use xlink:href="#DejaVuSans-69" transform="translate(75.195312 0)"/>
      <use xlink:href="#DejaVuSans-67" transform="translate(102.978516 0)"/>
      <use xlink:href="#DejaVuSans-68" transform="translate(166.455078 0)"/>
     </g>
    </g>
   </g>
  </g>
 </g>
 <defs>
  <clipPath id="p1f030a39b4">
   <rect x="46.965625" y="22.318125" width="223.2" height="180.18"/>
  </clipPath>
 </defs>
</svg>
