<?xml version="1.0" encoding="utf-8" standalone="no"?>
<!DOCTYPE svg PUBLIC "-//W3C//DTD SVG 1.1//EN"
  "http://www.w3.org/Graphics/SVG/1.1/DTD/svg11.dtd">
<svg xmlns:xlink="http://www.w3.org/1999/xlink" width="341.35pt" height="240.054375pt" viewBox="0 0 341.35 240.054375" xmlns="http://www.w3.org/2000/svg" version="1.1">
 <metadata>
  <rdf:RDF xmlns:dc="http://purl.org/dc/elements/1.1/" xmlns:cc="http://creativecommons.org/ns#" xmlns:rdf="http://www.w3.org/1999/02/22-rdf-syntax-ns#">
   <cc:Work>
    <dc:type rdf:resource="http://purl.org/dc/dcmitype/StillImage"/>
    <dc:date>2025-10-10T18:41:53.434451</dc:date>
    <dc:format>image/svg+xml</dc:format>
    <dc:creator>
     <cc:Agent>
      <dc:title>Matplotlib v3.10.6, https://matplotlib.org/</dc:title>
     </cc:Agent>
    </dc:creator>
   </cc:Work>
  </rdf:RDF>
 </metadata>
 <defs>
  <style type="text/css">*{stroke-linejoin: round; stroke-linecap: butt}</style>
 </defs>
 <g id="figure_1">
  <g id="patch_1">
   <path d="M 0 240.054375 
L 341.35 240.054375 
L 341.35 0 
L 0 0 
z
" style="fill: #ffffff"/>
  </g>
  <g id="axes_1">
   <g id="patch_2">
    <path d="M 46.965625 202.498125 
L 270.165625 202.498125 
L 270.165625 22.318125 
L 46.965625 22.318125 
z
" style="fill: #ffffff"/>
   </g>
   <g id="FillBetweenPolyCollection_1">
    <defs>
     <path id="m6cc56b6008" d="M 57.11108 -212.636816 
L 57.11108 -212.636816 
L 57.891499 -212.636816 
L 57.891499 -212.636816 
L 58.671919 -212.636816 
L 58.671919 -212.636816 
L 59.452338 -212.636816 
L 59.452338 -212.636816 
L 60.232758 -212.636816 
L 60.232758 -212.636816 
L 61.013177 -212.636816 
L 61.013177 -212.636816 
L 61.793597 -212.636816 
L 61.793597 -212.636816 
L 62.574017 -212.636816 
L 62.574017 -212.636816 
L 63.354436 -212.636816 
L 63.354436 -212.636816 
L 64.134856 -212.636816 
L 64.134856 -212.636816 
L 64.915275 -212.636816 
L 64.915275 -212.636816 
L 65.695695 -212.636816 
L 65.695695 -212.636816 
L 66.476115 -212.636816 
L 66.476115 -212.636816 
L 67.256534 -212.636816 
L 67.256534 -212.636816 
L 68.036954 -212.636816 
L 68.036954 -204.319168 
L 68.817373 -204.319168 
L 68.817373 -204.319168 
L 69.597793 -204.319168 
L 69.597793 -204.319168 
L 70.378212 -204.319168 
L 70.378212 -204.319168 
L 71.158632 -204.319168 
L 71.158632 -204.319168 
L 71.939052 -204.319168 
L 71.939052 -204.319168 
L 72.719471 -204.319168 
L 72.719471 -204.319168 
L 73.499891 -204.319168 
L 73.499891 -204.319168 
L 74.28031 -204.319168 
L 74.28031 -204.319168 
L 75.06073 -204.319168 
L 75.06073 -204.319168 
L 75.841149 -204.319168 
L 75.841149 -204.319168 
L 76.621569 -204.319168 
L 76.621569 -204.319168 
L 77.401989 -204.319168 
L 77.401989 -204.319168 
L 78.182408 -204.319168 
L 78.182408 -204.319168 
L 78.962828 -204.319168 
L 78.962828 -204.319168 
L 79.743247 -204.319168 
L 79.743247 -204.319168 
L 80.523667 -204.319168 
L 80.523667 -204.319168 
L 81.304087 -204.319168 
L 81.304087 -204.319168 
L 82.084506 -204.319168 
L 82.084506 -204.319168 
L 82.864926 -204.319168 
L 82.864926 -204.319168 
L 83.645345 -204.319168 
L 83.645345 -204.319168 
L 84.425765 -204.319168 
L 84.425765 -204.319168 
L 85.206184 -204.319168 
L 85.206184 -204.319168 
L 85.986604 -204.319168 
L 85.986604 -204.319168 
L 86.767024 -204.319168 
L 86.767024 -204.319168 
L 87.547443 -204.319168 
L 87.547443 -204.319168 
L 88.327863 -204.319168 
L 88.327863 -204.319168 
L 89.108282 -204.319168 
L 89.108282 -204.319168 
L 89.888702 -204.319168 
L 89.888702 -204.319168 
L 90.669122 -204.319168 
L 90.669122 -204.319168 
L 91.449541 -204.319168 
L 91.449541 -204.319168 
L 92.229961 -204.319168 
L 92.229961 -204.319168 
L 93.01038 -204.319168 
L 93.01038 -204.319168 
L 93.7908 -204.319168 
L 93.7908 -204.319168 
L 94.571219 -204.319168 
L 94.571219 -204.319168 
L 95.351639 -204.319168 
L 95.351639 -204.319168 
L 96.132059 -204.319168 
L 96.132059 -202.414549 
L 96.912478 -202.414549 
L 96.912478 -202.414549 
L 97.692898 -202.414549 
L 97.692898 -202.414549 
L 98.473317 -202.414549 
L 98.473317 -202.414549 
L 99.253737 -202.414549 
L 99.253737 -202.414549 
L 100.034156 -202.414549 
L 100.034156 -202.414549 
L 100.814576 -202.414549 
L 100.814576 -202.414549 
L 101.594996 -202.414549 
L 101.594996 -202.414549 
L 102.375415 -202.414549 
L 102.375415 -202.414549 
L 103.155835 -202.414549 
L 103.155835 -202.414549 
L 103.936254 -202.414549 
L 103.936254 -202.414549 
L 104.716674 -202.414549 
L 104.716674 -202.414549 
L 105.497094 -202.414549 
L 105.497094 -202.414549 
L 106.277513 -202.414549 
L 106.277513 -202.414549 
L 107.057933 -202.414549 
L 107.057933 -200.095833 
L 107.838352 -200.095833 
L 107.838352 -200.095833 
L 108.618772 -200.095833 
L 108.618772 -200.095833 
L 109.399191 -200.095833 
L 109.399191 -200.095833 
L 110.179611 -200.095833 
L 110.179611 -200.095833 
L 110.960031 -200.095833 
L 110.960031 -200.095833 
L 111.74045 -200.095833 
L 111.74045 -200.095833 
L 112.52087 -200.095833 
L 112.52087 -200.095833 
L 113.301289 -200.095833 
L 113.301289 -200.095833 
L 114.081709 -200.095833 
L 114.081709 -200.095833 
L 114.862128 -200.095833 
L 114.862128 -200.095833 
L 115.642548 -200.095833 
L 115.642548 -200.095833 
L 116.422968 -200.095833 
L 116.422968 -200.095833 
L 117.203387 -200.095833 
L 117.203387 -200.095833 
L 117.983807 -200.095833 
L 117.983807 -200.095833 
L 118.764226 -200.095833 
L 118.764226 -200.095833 
L 119.544646 -200.095833 
L 119.544646 -200.095833 
L 120.325066 -200.095833 
L 120.325066 -200.095833 
L 121.105485 -200.095833 
L 121.105485 -200.095833 
L 121.885905 -200.095833 
L 121.885905 -200.095833 
L 122.666324 -200.095833 
L 122.666324 -200.095833 
L 123.446744 -200.095833 
L 123.446744 -200.095833 
L 124.227163 -200.095833 
L 124.227163 -200.095833 
L 125.007583 -200.095833 
L 125.007583 -200.095833 
L 125.788003 -200.095833 
L 125.788003 -200.095833 
L 126.568422 -200.095833 
L 126.568422 -200.095833 
L 127.348842 -200.095833 
L 127.348842 -200.095833 
L 128.129261 -200.095833 
L 128.129261 -200.095833 
L 128.909681 -200.095833 
L 128.909681 -200.095833 
L 129.690101 -200.095833 
L 129.690101 -197.119479 
L 130.47052 -197.119479 
L 130.47052 -197.119479 
L 131.25094 -197.119479 
L 131.25094 -197.119479 
L 132.031359 -197.119479 
L 132.031359 -197.119479 
L 132.811779 -197.119479 
L 132.811779 -197.119479 
L 133.592198 -197.119479 
L 133.592198 -197.119479 
L 134.372618 -197.119479 
L 134.372618 -197.119479 
L 135.153038 -197.119479 
L 135.153038 -197.119479 
L 135.933457 -197.119479 
L 135.933457 -197.119479 
L 136.713877 -197.119479 
L 136.713877 -197.119479 
L 137.494296 -197.119479 
L 137.494296 -197.119479 
L 138.274716 -197.119479 
L 138.274716 -197.119479 
L 139.055135 -197.119479 
L 139.055135 -197.119479 
L 139.835555 -197.119479 
L 139.835555 -197.119479 
L 140.615975 -197.119479 
L 140.615975 -197.119479 
L 141.396394 -197.119479 
L 141.396394 -197.119479 
L 142.176814 -197.119479 
L 142.176814 -197.119479 
L 142.957233 -197.119479 
L 142.957233 -197.119479 
L 143.737653 -197.119479 
L 143.737653 -193.710754 
L 144.518073 -193.710754 
L 144.518073 -193.710754 
L 145.298492 -193.710754 
L 145.298492 -193.710754 
L 146.078912 -193.710754 
L 146.078912 -193.710754 
L 146.859331 -193.710754 
L 146.859331 -193.710754 
L 147.639751 -193.710754 
L 147.639751 -193.710754 
L 148.42017 -193.710754 
L 148.42017 -193.710754 
L 149.20059 -193.710754 
L 149.20059 -193.710754 
L 149.98101 -193.710754 
L 149.98101 -193.710754 
L 150.761429 -193.710754 
L 150.761429 -193.710754 
L 151.541849 -193.710754 
L 151.541849 -193.710754 
L 152.322268 -193.710754 
L 152.322268 -193.710754 
L 153.102688 -193.710754 
L 153.102688 -193.710754 
L 153.883108 -193.710754 
L 153.883108 -193.710754 
L 154.663527 -193.710754 
L 154.663527 -193.710754 
L 155.443947 -193.710754 
L 155.443947 -193.710754 
L 156.224366 -193.710754 
L 156.224366 -193.710754 
L 157.004786 -193.710754 
L 157.004786 -193.710754 
L 157.785205 -193.710754 
L 157.785205 -193.710754 
L 158.565625 -193.710754 
L 158.565625 -193.710754 
L 159.346045 -193.710754 
L 159.346045 -193.710754 
L 160.126464 -193.710754 
L 160.126464 -193.710754 
L 160.906884 -193.710754 
L 160.906884 -193.710754 
L 161.687303 -193.710754 
L 161.687303 -189.760389 
L 162.467723 -189.760389 
L 162.467723 -189.760389 
L 163.248142 -189.760389 
L 163.248142 -189.760389 
L 164.028562 -189.760389 
L 164.028562 -189.760389 
L 164.808982 -189.760389 
L 164.808982 -185.814838 
L 165.589401 -185.814838 
L 165.589401 -185.814838 
L 166.369821 -185.814838 
L 166.369821 -185.814838 
L 167.15024 -185.814838 
L 167.15024 -178.343642 
L 167.93066 -178.343642 
L 167.93066 -178.343642 
L 168.71108 -178.343642 
L 168.71108 -178.343642 
L 169.491499 -178.343642 
L 169.491499 -178.343642 
L 170.271919 -178.343642 
L 170.271919 -178.343642 
L 171.052338 -178.343642 
L 171.052338 -178.343642 
L 171.832758 -178.343642 
L 171.832758 -178.343642 
L 172.613177 -178.343642 
L 172.613177 -178.343642 
L 173.393597 -178.343642 
L 173.393597 -178.343642 
L 174.174017 -178.343642 
L 174.174017 -178.343642 
L 174.954436 -178.343642 
L 174.954436 -178.343642 
L 175.734856 -178.343642 
L 175.734856 -178.343642 
L 176.515275 -178.343642 
L 176.515275 -178.343642 
L 177.295695 -178.343642 
L 177.295695 -178.343642 
L 178.076115 -178.343642 
L 178.076115 -178.343642 
L 178.856534 -178.343642 
L 178.856534 -178.343642 
L 179.636954 -178.343642 
L 179.636954 -178.343642 
L 180.417373 -178.343642 
L 180.417373 -178.343642 
L 181.197793 -178.343642 
L 181.197793 -178.343642 
L 181.978212 -178.343642 
L 181.978212 -178.343642 
L 182.758632 -178.343642 
L 182.758632 -178.343642 
L 183.539052 -178.343642 
L 183.539052 -178.343642 
L 184.319471 -178.343642 
L 184.319471 -178.343642 
L 185.099891 -178.343642 
L 185.099891 -178.343642 
L 185.88031 -178.343642 
L 185.88031 -178.343642 
L 186.66073 -178.343642 
L 186.66073 -178.343642 
L 187.441149 -178.343642 
L 187.441149 -178.343642 
L 188.221569 -178.343642 
L 188.221569 -178.343642 
L 189.001989 -178.343642 
L 189.001989 -178.343642 
L 189.782408 -178.343642 
L 189.782408 -178.343642 
L 190.562828 -178.343642 
L 190.562828 -178.343642 
L 191.343247 -178.343642 
L 191.343247 -178.343642 
L 192.123667 -178.343642 
L 192.123667 -178.343642 
L 192.904087 -178.343642 
L 192.904087 -178.343642 
L 193.684506 -178.343642 
L 193.684506 -178.343642 
L 194.464926 -178.343642 
L 194.464926 -178.343642 
L 195.245345 -178.343642 
L 195.245345 -178.343642 
L 196.025765 -178.343642 
L 196.025765 -178.343642 
L 196.806184 -178.343642 
L 196.806184 -178.343642 
L 197.586604 -178.343642 
L 197.586604 -178.343642 
L 198.367024 -178.343642 
L 198.367024 -172.635196 
L 199.147443 -172.635196 
L 199.147443 -172.635196 
L 199.927863 -172.635196 
L 199.927863 -172.635196 
L 200.708282 -172.635196 
L 200.708282 -172.635196 
L 201.488702 -172.635196 
L 201.488702 -172.635196 
L 202.269122 -172.635196 
L 202.269122 -172.635196 
L 203.049541 -172.635196 
L 203.049541 -172.635196 
L 203.829961 -172.635196 
L 203.829961 -172.635196 
L 204.61038 -172.635196 
L 204.61038 -172.635196 
L 205.3908 -172.635196 
L 205.3908 -172.635196 
L 206.171219 -172.635196 
L 206.171219 -172.635196 
L 206.951639 -172.635196 
L 206.951639 -172.635196 
L 207.732059 -172.635196 
L 207.732059 -172.635196 
L 208.512478 -172.635196 
L 208.512478 -172.635196 
L 209.292898 -172.635196 
L 209.292898 -172.635196 
L 210.073317 -172.635196 
L 210.073317 -172.635196 
L 210.853737 -172.635196 
L 210.853737 -172.635196 
L 211.634156 -172.635196 
L 211.634156 -172.635196 
L 212.414576 -172.635196 
L 212.414576 -172.635196 
L 213.194996 -172.635196 
L 213.194996 -172.635196 
L 213.975415 -172.635196 
L 213.975415 -172.635196 
L 214.755835 -172.635196 
L 214.755835 -172.635196 
L 215.536254 -172.635196 
L 215.536254 -172.635196 
L 216.316674 -172.635196 
L 216.316674 -172.635196 
L 217.097094 -172.635196 
L 217.097094 -172.635196 
L 217.877513 -172.635196 
L 217.877513 -172.635196 
L 218.657933 -172.635196 
L 218.657933 -172.635196 
L 219.438352 -172.635196 
L 219.438352 -172.635196 
L 220.218772 -172.635196 
L 220.218772 -172.635196 
L 220.999191 -172.635196 
L 220.999191 -172.635196 
L 221.779611 -172.635196 
L 221.779611 -172.635196 
L 222.560031 -172.635196 
L 222.560031 -172.635196 
L 223.34045 -172.635196 
L 223.34045 -172.635196 
L 224.12087 -172.635196 
L 224.12087 -172.635196 
L 224.901289 -172.635196 
L 224.901289 -172.635196 
L 225.681709 -172.635196 
L 225.681709 -172.635196 
L 226.462128 -172.635196 
L 226.462128 -172.635196 
L 227.242548 -172.635196 
L 227.242548 -172.635196 
L 228.022968 -172.635196 
L 228.022968 -172.635196 
L 228.803387 -172.635196 
L 228.803387 -172.635196 
L 229.583807 -172.635196 
L 229.583807 -172.635196 
L 230.364226 -172.635196 
L 230.364226 -172.635196 
L 231.144646 -172.635196 
L 231.144646 -172.635196 
L 231.925066 -172.635196 
L 231.925066 -172.635196 
L 232.705485 -172.635196 
L 232.705485 -172.635196 
L 233.485905 -172.635196 
L 233.485905 -172.635196 
L 234.266324 -172.635196 
L 234.266324 -172.635196 
L 235.046744 -172.635196 
L 235.046744 -172.635196 
L 235.827163 -172.635196 
L 235.827163 -172.635196 
L 236.607583 -172.635196 
L 236.607583 -172.635196 
L 237.388003 -172.635196 
L 237.388003 -172.635196 
L 238.168422 -172.635196 
L 238.168422 -172.635196 
L 238.948842 -172.635196 
L 238.948842 -172.635196 
L 239.729261 -172.635196 
L 239.729261 -172.635196 
L 240.509681 -172.635196 
L 240.509681 -172.635196 
L 241.290101 -172.635196 
L 241.290101 -172.635196 
L 242.07052 -172.635196 
L 242.07052 -172.635196 
L 242.85094 -172.635196 
L 242.85094 -172.635196 
L 243.631359 -172.635196 
L 243.631359 -172.635196 
L 244.411779 -172.635196 
L 244.411779 -172.635196 
L 245.192198 -172.635196 
L 245.192198 -172.635196 
L 245.972618 -172.635196 
L 245.972618 -172.635196 
L 246.753038 -172.635196 
L 246.753038 -172.635196 
L 247.533457 -172.635196 
L 247.533457 -172.635196 
L 248.313877 -172.635196 
L 248.313877 -172.635196 
L 249.094296 -172.635196 
L 249.094296 -172.635196 
L 249.874716 -172.635196 
L 249.874716 -172.635196 
L 250.655135 -172.635196 
L 250.655135 -172.635196 
L 251.435555 -172.635196 
L 251.435555 -172.635196 
L 252.215975 -172.635196 
L 252.215975 -172.635196 
L 252.996394 -172.635196 
L 252.996394 -172.635196 
L 253.776814 -172.635196 
L 253.776814 -172.635196 
L 254.557233 -172.635196 
L 254.557233 -172.635196 
L 255.337653 -172.635196 
L 255.337653 -172.635196 
L 256.118073 -172.635196 
L 256.118073 -172.635196 
L 256.898492 -172.635196 
L 256.898492 -172.635196 
L 257.678912 -172.635196 
L 257.678912 -172.635196 
L 258.459331 -172.635196 
L 258.459331 -172.635196 
L 259.239751 -172.635196 
L 259.239751 -172.635196 
L 260.02017 -172.635196 
L 260.02017 -172.635196 
L 260.02017 -200.873788 
L 260.02017 -200.873788 
L 260.02017 -200.873788 
L 259.239751 -200.873788 
L 259.239751 -200.873788 
L 258.459331 -200.873788 
L 258.459331 -200.873788 
L 257.678912 -200.873788 
L 257.678912 -200.873788 
L 256.898492 -200.873788 
L 256.898492 -200.873788 
L 256.118073 -200.873788 
L 256.118073 -200.873788 
L 255.337653 -200.873788 
L 255.337653 -200.873788 
L 254.557233 -200.873788 
L 254.557233 -200.873788 
L 253.776814 -200.873788 
L 253.776814 -200.873788 
L 252.996394 -200.873788 
L 252.996394 -200.873788 
L 252.215975 -200.873788 
L 252.215975 -200.873788 
L 251.435555 -200.873788 
L 251.435555 -200.873788 
L 250.655135 -200.873788 
L 250.655135 -200.873788 
L 249.874716 -200.873788 
L 249.874716 -200.873788 
L 249.094296 -200.873788 
L 249.094296 -200.873788 
L 248.313877 -200.873788 
L 248.313877 -200.873788 
L 247.533457 -200.873788 
L 247.533457 -200.873788 
L 246.753038 -200.873788 
L 246.753038 -200.873788 
L 245.972618 -200.873788 
L 245.972618 -200.873788 
L 245.192198 -200.873788 
L 245.192198 -200.873788 
L 244.411779 -200.873788 
L 244.411779 -200.873788 
L 243.631359 -200.873788 
L 243.631359 -200.873788 
L 242.85094 -200.873788 
L 242.85094 -200.873788 
L 242.07052 -200.873788 
L 242.07052 -200.873788 
L 241.290101 -200.873788 
L 241.290101 -200.873788 
L 240.509681 -200.873788 
L 240.509681 -200.873788 
L 239.729261 -200.873788 
L 239.729261 -200.873788 
L 238.948842 -200.873788 
L 238.948842 -200.873788 
L 238.168422 -200.873788 
L 238.168422 -200.873788 
L 237.388003 -200.873788 
L 237.388003 -200.873788 
L 236.607583 -200.873788 
L 236.607583 -200.873788 
L 235.827163 -200.873788 
L 235.827163 -200.873788 
L 235.046744 -200.873788 
L 235.046744 -200.873788 
L 234.266324 -200.873788 
L 234.266324 -200.873788 
L 233.485905 -200.873788 
L 233.485905 -200.873788 
L 232.705485 -200.873788 
L 232.705485 -200.873788 
L 231.925066 -200.873788 
L 231.925066 -200.873788 
L 231.144646 -200.873788 
L 231.144646 -200.873788 
L 230.364226 -200.873788 
L 230.364226 -200.873788 
L 229.583807 -200.873788 
L 229.583807 -200.873788 
L 228.803387 -200.873788 
L 228.803387 -200.873788 
L 228.022968 -200.873788 
L 228.022968 -200.873788 
L 227.242548 -200.873788 
L 227.242548 -200.873788 
L 226.462128 -200.873788 
L 226.462128 -200.873788 
L 225.681709 -200.873788 
L 225.681709 -200.873788 
L 224.901289 -200.873788 
L 224.901289 -200.873788 
L 224.12087 -200.873788 
L 224.12087 -200.873788 
L 223.34045 -200.873788 
L 223.34045 -200.873788 
L 222.560031 -200.873788 
L 222.560031 -200.873788 
L 221.779611 -200.873788 
L 221.779611 -200.873788 
L 220.999191 -200.873788 
L 220.999191 -200.873788 
L 220.218772 -200.873788 
L 220.218772 -200.873788 
L 219.438352 -200.873788 
L 219.438352 -200.873788 
L 218.657933 -200.873788 
L 218.657933 -200.873788 
L 217.877513 -200.873788 
L 217.877513 -200.873788 
L 217.097094 -200.873788 
L 217.097094 -200.873788 
L 216.316674 -200.873788 
L 216.316674 -200.873788 
L 215.536254 -200.873788 
L 215.536254 -200.873788 
L 214.755835 -200.873788 
L 214.755835 -200.873788 
L 213.975415 -200.873788 
L 213.975415 -200.873788 
L 213.194996 -200.873788 
L 213.194996 -200.873788 
L 212.414576 -200.873788 
L 212.414576 -200.873788 
L 211.634156 -200.873788 
L 211.634156 -200.873788 
L 210.853737 -200.873788 
L 210.853737 -200.873788 
L 210.073317 -200.873788 
L 210.073317 -200.873788 
L 209.292898 -200.873788 
L 209.292898 -200.873788 
L 208.512478 -200.873788 
L 208.512478 -200.873788 
L 207.732059 -200.873788 
L 207.732059 -200.873788 
L 206.951639 -200.873788 
L 206.951639 -200.873788 
L 206.171219 -200.873788 
L 206.171219 -200.873788 
L 205.3908 -200.873788 
L 205.3908 -200.873788 
L 204.61038 -200.873788 
L 204.61038 -200.873788 
L 203.829961 -200.873788 
L 203.829961 -200.873788 
L 203.049541 -200.873788 
L 203.049541 -200.873788 
L 202.269122 -200.873788 
L 202.269122 -200.873788 
L 201.488702 -200.873788 
L 201.488702 -200.873788 
L 200.708282 -200.873788 
L 200.708282 -200.873788 
L 199.927863 -200.873788 
L 199.927863 -200.873788 
L 199.147443 -200.873788 
L 199.147443 -200.873788 
L 198.367024 -200.873788 
L 198.367024 -203.107088 
L 197.586604 -203.107088 
L 197.586604 -203.107088 
L 196.806184 -203.107088 
L 196.806184 -203.107088 
L 196.025765 -203.107088 
L 196.025765 -203.107088 
L 195.245345 -203.107088 
L 195.245345 -203.107088 
L 194.464926 -203.107088 
L 194.464926 -203.107088 
L 193.684506 -203.107088 
L 193.684506 -203.107088 
L 192.904087 -203.107088 
L 192.904087 -203.107088 
L 192.123667 -203.107088 
L 192.123667 -203.107088 
L 191.343247 -203.107088 
L 191.343247 -203.107088 
L 190.562828 -203.107088 
L 190.562828 -203.107088 
L 189.782408 -203.107088 
L 189.782408 -203.107088 
L 189.001989 -203.107088 
L 189.001989 -203.107088 
L 188.221569 -203.107088 
L 188.221569 -203.107088 
L 187.441149 -203.107088 
L 187.441149 -203.107088 
L 186.66073 -203.107088 
L 186.66073 -203.107088 
L 185.88031 -203.107088 
L 185.88031 -203.107088 
L 185.099891 -203.107088 
L 185.099891 -203.107088 
L 184.319471 -203.107088 
L 184.319471 -203.107088 
L 183.539052 -203.107088 
L 183.539052 -203.107088 
L 182.758632 -203.107088 
L 182.758632 -203.107088 
L 181.978212 -203.107088 
L 181.978212 -203.107088 
L 181.197793 -203.107088 
L 181.197793 -203.107088 
L 180.417373 -203.107088 
L 180.417373 -203.107088 
L 179.636954 -203.107088 
L 179.636954 -203.107088 
L 178.856534 -203.107088 
L 178.856534 -203.107088 
L 178.076115 -203.107088 
L 178.076115 -203.107088 
L 177.295695 -203.107088 
L 177.295695 -203.107088 
L 176.515275 -203.107088 
L 176.515275 -203.107088 
L 175.734856 -203.107088 
L 175.734856 -203.107088 
L 174.954436 -203.107088 
L 174.954436 -203.107088 
L 174.174017 -203.107088 
L 174.174017 -203.107088 
L 173.393597 -203.107088 
L 173.393597 -203.107088 
L 172.613177 -203.107088 
L 172.613177 -203.107088 
L 171.832758 -203.107088 
L 171.832758 -203.107088 
L 171.052338 -203.107088 
L 171.052338 -203.107088 
L 170.271919 -203.107088 
L 170.271919 -203.107088 
L 169.491499 -203.107088 
L 169.491499 -203.107088 
L 168.71108 -203.107088 
L 168.71108 -203.107088 
L 167.93066 -203.107088 
L 167.93066 -203.107088 
L 167.15024 -203.107088 
L 167.15024 -206.489448 
L 166.369821 -206.489448 
L 166.369821 -206.489448 
L 165.589401 -206.489448 
L 165.589401 -206.489448 
L 164.808982 -206.489448 
L 164.808982 -207.993243 
L 164.028562 -207.993243 
L 164.028562 -207.993243 
L 163.248142 -207.993243 
L 163.248142 -207.993243 
L 162.467723 -207.993243 
L 162.467723 -207.993243 
L 161.687303 -207.993243 
L 161.687303 -209.31917 
L 160.906884 -209.31917 
L 160.906884 -209.31917 
L 160.126464 -209.31917 
L 160.126464 -209.31917 
L 159.346045 -209.31917 
L 159.346045 -209.31917 
L 158.565625 -209.31917 
L 158.565625 -209.31917 
L 157.785205 -209.31917 
L 157.785205 -209.31917 
L 157.004786 -209.31917 
L 157.004786 -209.31917 
L 156.224366 -209.31917 
L 156.224366 -209.31917 
L 155.443947 -209.31917 
L 155.443947 -209.31917 
L 154.663527 -209.31917 
L 154.663527 -209.31917 
L 153.883108 -209.31917 
L 153.883108 -209.31917 
L 153.102688 -209.31917 
L 153.102688 -209.31917 
L 152.322268 -209.31917 
L 152.322268 -209.31917 
L 151.541849 -209.31917 
L 151.541849 -209.31917 
L 150.761429 -209.31917 
L 150.761429 -209.31917 
L 149.98101 -209.31917 
L 149.98101 -209.31917 
L 149.20059 -209.31917 
L 149.20059 -209.31917 
L 148.42017 -209.31917 
L 148.42017 -209.31917 
L 147.639751 -209.31917 
L 147.639751 -209.31917 
L 146.859331 -209.31917 
L 146.859331 -209.31917 
L 146.078912 -209.31917 
L 146.078912 -209.31917 
L 145.298492 -209.31917 
L 145.298492 -209.31917 
L 144.518073 -209.31917 
L 144.518073 -209.31917 
L 143.737653 -209.31917 
L 143.737653 -210.414067 
L 142.957233 -210.414067 
L 142.957233 -210.414067 
L 142.176814 -210.414067 
L 142.176814 -210.414067 
L 141.396394 -210.414067 
L 141.396394 -210.414067 
L 140.615975 -210.414067 
L 140.615975 -210.414067 
L 139.835555 -210.414067 
L 139.835555 -210.414067 
L 139.055135 -210.414067 
L 139.055135 -210.414067 
L 138.274716 -210.414067 
L 138.274716 -210.414067 
L 137.494296 -210.414067 
L 137.494296 -210.414067 
L 136.713877 -210.414067 
L 136.713877 -210.414067 
L 135.933457 -210.414067 
L 135.933457 -210.414067 
L 135.153038 -210.414067 
L 135.153038 -210.414067 
L 134.372618 -210.414067 
L 134.372618 -210.414067 
L 133.592198 -210.414067 
L 133.592198 -210.414067 
L 132.811779 -210.414067 
L 132.811779 -210.414067 
L 132.031359 -210.414067 
L 132.031359 -210.414067 
L 131.25094 -210.414067 
L 131.25094 -210.414067 
L 130.47052 -210.414067 
L 130.47052 -210.414067 
L 129.690101 -210.414067 
L 129.690101 -211.303416 
L 128.909681 -211.303416 
L 128.909681 -211.303416 
L 128.129261 -211.303416 
L 128.129261 -211.303416 
L 127.348842 -211.303416 
L 127.348842 -211.303416 
L 126.568422 -211.303416 
L 126.568422 -211.303416 
L 125.788003 -211.303416 
L 125.788003 -211.303416 
L 125.007583 -211.303416 
L 125.007583 -211.303416 
L 124.227163 -211.303416 
L 124.227163 -211.303416 
L 123.446744 -211.303416 
L 123.446744 -211.303416 
L 122.666324 -211.303416 
L 122.666324 -211.303416 
L 121.885905 -211.303416 
L 121.885905 -211.303416 
L 121.105485 -211.303416 
L 121.105485 -211.303416 
L 120.325066 -211.303416 
L 120.325066 -211.303416 
L 119.544646 -211.303416 
L 119.544646 -211.303416 
L 118.764226 -211.303416 
L 118.764226 -211.303416 
L 117.983807 -211.303416 
L 117.983807 -211.303416 
L 117.203387 -211.303416 
L 117.203387 -211.303416 
L 116.422968 -211.303416 
L 116.422968 -211.303416 
L 115.642548 -211.303416 
L 115.642548 -211.303416 
L 114.862128 -211.303416 
L 114.862128 -211.303416 
L 114.081709 -211.303416 
L 114.081709 -211.303416 
L 113.301289 -211.303416 
L 113.301289 -211.303416 
L 112.52087 -211.303416 
L 112.52087 -211.303416 
L 111.74045 -211.303416 
L 111.74045 -211.303416 
L 110.960031 -211.303416 
L 110.960031 -211.303416 
L 110.179611 -211.303416 
L 110.179611 -211.303416 
L 109.399191 -211.303416 
L 109.399191 -211.303416 
L 108.618772 -211.303416 
L 108.618772 -211.303416 
L 107.838352 -211.303416 
L 107.838352 -211.303416 
L 107.057933 -211.303416 
L 107.057933 -211.985099 
L 106.277513 -211.985099 
L 106.277513 -211.985099 
L 105.497094 -211.985099 
L 105.497094 -211.985099 
L 104.716674 -211.985099 
L 104.716674 -211.985099 
L 103.936254 -211.985099 
L 103.936254 -211.985099 
L 103.155835 -211.985099 
L 103.155835 -211.985099 
L 102.375415 -211.985099 
L 102.375415 -211.985099 
L 101.594996 -211.985099 
L 101.594996 -211.985099 
L 100.814576 -211.985099 
L 100.814576 -211.985099 
L 100.034156 -211.985099 
L 100.034156 -211.985099 
L 99.253737 -211.985099 
L 99.253737 -211.985099 
L 98.473317 -211.985099 
L 98.473317 -211.985099 
L 97.692898 -211.985099 
L 97.692898 -211.985099 
L 96.912478 -211.985099 
L 96.912478 -211.985099 
L 96.132059 -211.985099 
L 96.132059 -212.467684 
L 95.351639 -212.467684 
L 95.351639 -212.467684 
L 94.571219 -212.467684 
L 94.571219 -212.467684 
L 93.7908 -212.467684 
L 93.7908 -212.467684 
L 93.01038 -212.467684 
L 93.01038 -212.467684 
L 92.229961 -212.467684 
L 92.229961 -212.467684 
L 91.449541 -212.467684 
L 91.449541 -212.467684 
L 90.669122 -212.467684 
L 90.669122 -212.467684 
L 89.888702 -212.467684 
L 89.888702 -212.467684 
L 89.108282 -212.467684 
L 89.108282 -212.467684 
L 88.327863 -212.467684 
L 88.327863 -212.467684 
L 87.547443 -212.467684 
L 87.547443 -212.467684 
L 86.767024 -212.467684 
L 86.767024 -212.467684 
L 85.986604 -212.467684 
L 85.986604 -212.467684 
L 85.206184 -212.467684 
L 85.206184 -212.467684 
L 84.425765 -212.467684 
L 84.425765 -212.467684 
L 83.645345 -212.467684 
L 83.645345 -212.467684 
L 82.864926 -212.467684 
L 82.864926 -212.467684 
L 82.084506 -212.467684 
L 82.084506 -212.467684 
L 81.304087 -212.467684 
L 81.304087 -212.467684 
L 80.523667 -212.467684 
L 80.523667 -212.467684 
L 79.743247 -212.467684 
L 79.743247 -212.467684 
L 78.962828 -212.467684 
L 78.962828 -212.467684 
L 78.182408 -212.467684 
L 78.182408 -212.467684 
L 77.401989 -212.467684 
L 77.401989 -212.467684 
L 76.621569 -212.467684 
L 76.621569 -212.467684 
L 75.841149 -212.467684 
L 75.841149 -212.467684 
L 75.06073 -212.467684 
L 75.06073 -212.467684 
L 74.28031 -212.467684 
L 74.28031 -212.467684 
L 73.499891 -212.467684 
L 73.499891 -212.467684 
L 72.719471 -212.467684 
L 72.719471 -212.467684 
L 71.939052 -212.467684 
L 71.939052 -212.467684 
L 71.158632 -212.467684 
L 71.158632 -212.467684 
L 70.378212 -212.467684 
L 70.378212 -212.467684 
L 69.597793 -212.467684 
L 69.597793 -212.467684 
L 68.817373 -212.467684 
L 68.817373 -212.467684 
L 68.036954 -212.467684 
L 68.036954 -212.636816 
L 67.256534 -212.636816 
L 67.256534 -212.636816 
L 66.476115 -212.636816 
L 66.476115 -212.636816 
L 65.695695 -212.636816 
L 65.695695 -212.636816 
L 64.915275 -212.636816 
L 64.915275 -212.636816 
L 64.134856 -212.636816 
L 64.134856 -212.636816 
L 63.354436 -212.636816 
L 63.354436 -212.636816 
L 62.574017 -212.636816 
L 62.574017 -212.636816 
L 61.793597 -212.636816 
L 61.793597 -212.636816 
L 61.013177 -212.636816 
L 61.013177 -212.636816 
L 60.232758 -212.636816 
L 60.232758 -212.636816 
L 59.452338 -212.636816 
L 59.452338 -212.636816 
L 58.671919 -212.636816 
L 58.671919 -212.636816 
L 57.891499 -212.636816 
L 57.891499 -212.636816 
L 57.11108 -212.636816 
z
" style="stroke: #1f77b4; stroke-opacity: 0.25"/>
    </defs>
    <g clip-path="url(#p16282c07fb)">
     <use xlink:href="#m6cc56b6008" x="0" y="240.054375" style="fill: #1f77b4; fill-opacity: 0.25; stroke: #1f77b4; stroke-opacity: 0.25"/>
    </g>
   </g>
   <g id="FillBetweenPolyCollection_2">
    <defs>
     <path id="m1f61ba47be" d="M 57.11108 -212.636816 
L 57.11108 -212.636816 
L 57.891499 -212.636816 
L 57.891499 -212.636816 
L 58.671919 -212.636816 
L 58.671919 -212.636816 
L 59.452338 -212.636816 
L 59.452338 -212.636816 
L 60.232758 -212.636816 
L 60.232758 -212.636816 
L 61.013177 -212.636816 
L 61.013177 -212.636816 
L 61.793597 -212.636816 
L 61.793597 -212.636816 
L 62.574017 -212.636816 
L 62.574017 -212.636816 
L 63.354436 -212.636816 
L 63.354436 -212.636816 
L 64.134856 -212.636816 
L 64.134856 -212.636816 
L 64.915275 -212.636816 
L 64.915275 -212.636816 
L 65.695695 -212.636816 
L 65.695695 -212.636816 
L 66.476115 -212.636816 
L 66.476115 -212.636816 
L 67.256534 -212.636816 
L 67.256534 -212.636816 
L 68.036954 -212.636816 
L 68.036954 -212.636816 
L 68.817373 -212.636816 
L 68.817373 -212.636816 
L 69.597793 -212.636816 
L 69.597793 -205.098438 
L 70.378212 -205.098438 
L 70.378212 -204.115563 
L 71.158632 -204.115563 
L 71.158632 -204.115563 
L 71.939052 -204.115563 
L 71.939052 -204.115563 
L 72.719471 -204.115563 
L 72.719471 -204.115563 
L 73.499891 -204.115563 
L 73.499891 -204.115563 
L 74.28031 -204.115563 
L 74.28031 -204.115563 
L 75.06073 -204.115563 
L 75.06073 -202.703297 
L 75.841149 -202.703297 
L 75.841149 -201.250575 
L 76.621569 -201.250575 
L 76.621569 -201.250575 
L 77.401989 -201.250575 
L 77.401989 -199.80589 
L 78.182408 -199.80589 
L 78.182408 -199.80589 
L 78.962828 -199.80589 
L 78.962828 -199.80589 
L 79.743247 -199.80589 
L 79.743247 -198.36326 
L 80.523667 -198.36326 
L 80.523667 -196.941865 
L 81.304087 -196.941865 
L 81.304087 -195.525401 
L 82.084506 -195.525401 
L 82.084506 -195.525401 
L 82.864926 -195.525401 
L 82.864926 -194.127911 
L 83.645345 -194.127911 
L 83.645345 -192.733272 
L 84.425765 -192.733272 
L 84.425765 -189.990267 
L 85.206184 -189.990267 
L 85.206184 -189.990267 
L 85.986604 -189.990267 
L 85.986604 -189.990267 
L 86.767024 -189.990267 
L 86.767024 -189.990267 
L 87.547443 -189.990267 
L 87.547443 -189.990267 
L 88.327863 -189.990267 
L 88.327863 -189.990267 
L 89.108282 -189.990267 
L 89.108282 -189.990267 
L 89.888702 -189.990267 
L 89.888702 -189.990267 
L 90.669122 -189.990267 
L 90.669122 -189.990267 
L 91.449541 -189.990267 
L 91.449541 -189.990267 
L 92.229961 -189.990267 
L 92.229961 -188.58362 
L 93.01038 -188.58362 
L 93.01038 -188.58362 
L 93.7908 -188.58362 
L 93.7908 -188.58362 
L 94.571219 -188.58362 
L 94.571219 -188.58362 
L 95.351639 -188.58362 
L 95.351639 -188.58362 
L 96.132059 -188.58362 
L 96.132059 -187.147877 
L 96.912478 -187.147877 
L 96.912478 -184.319452 
L 97.692898 -184.319452 
L 97.692898 -184.319452 
L 98.473317 -184.319452 
L 98.473317 -184.319452 
L 99.253737 -184.319452 
L 99.253737 -182.894669 
L 100.034156 -182.894669 
L 100.034156 -182.894669 
L 100.814576 -182.894669 
L 100.814576 -181.467018 
L 101.594996 -181.467018 
L 101.594996 -181.467018 
L 102.375415 -181.467018 
L 102.375415 -181.467018 
L 103.155835 -181.467018 
L 103.155835 -181.467018 
L 103.936254 -181.467018 
L 103.936254 -181.467018 
L 104.716674 -181.467018 
L 104.716674 -181.467018 
L 105.497094 -181.467018 
L 105.497094 -181.467018 
L 106.277513 -181.467018 
L 106.277513 -180.004659 
L 107.057933 -180.004659 
L 107.057933 -180.004659 
L 107.838352 -180.004659 
L 107.838352 -180.004659 
L 108.618772 -180.004659 
L 108.618772 -178.522254 
L 109.399191 -178.522254 
L 109.399191 -178.522254 
L 110.179611 -178.522254 
L 110.179611 -178.522254 
L 110.960031 -178.522254 
L 110.960031 -178.522254 
L 111.74045 -178.522254 
L 111.74045 -178.522254 
L 112.52087 -178.522254 
L 112.52087 -175.423711 
L 113.301289 -175.423711 
L 113.301289 -175.423711 
L 114.081709 -175.423711 
L 114.081709 -175.423711 
L 114.862128 -175.423711 
L 114.862128 -175.423711 
L 115.642548 -175.423711 
L 115.642548 -175.423711 
L 116.422968 -175.423711 
L 116.422968 -175.423711 
L 117.203387 -175.423711 
L 117.203387 -172.02443 
L 117.983807 -172.02443 
L 117.983807 -172.02443 
L 118.764226 -172.02443 
L 118.764226 -170.305211 
L 119.544646 -170.305211 
L 119.544646 -168.579191 
L 120.325066 -168.579191 
L 120.325066 -166.868858 
L 121.105485 -166.868858 
L 121.105485 -166.868858 
L 121.885905 -166.868858 
L 121.885905 -166.868858 
L 122.666324 -166.868858 
L 122.666324 -166.868858 
L 123.446744 -166.868858 
L 123.446744 -165.048646 
L 124.227163 -165.048646 
L 124.227163 -165.048646 
L 125.007583 -165.048646 
L 125.007583 -161.405698 
L 125.788003 -161.405698 
L 125.788003 -161.405698 
L 126.568422 -161.405698 
L 126.568422 -161.405698 
L 127.348842 -161.405698 
L 127.348842 -161.405698 
L 128.129261 -161.405698 
L 128.129261 -161.405698 
L 128.909681 -161.405698 
L 128.909681 -161.405698 
L 129.690101 -161.405698 
L 129.690101 -161.405698 
L 130.47052 -161.405698 
L 130.47052 -161.405698 
L 131.25094 -161.405698 
L 131.25094 -161.405698 
L 132.031359 -161.405698 
L 132.031359 -161.405698 
L 132.811779 -161.405698 
L 132.811779 -161.405698 
L 133.592198 -161.405698 
L 133.592198 -159.3628 
L 134.372618 -159.3628 
L 134.372618 -159.3628 
L 135.153038 -159.3628 
L 135.153038 -159.3628 
L 135.933457 -159.3628 
L 135.933457 -159.3628 
L 136.713877 -159.3628 
L 136.713877 -157.307248 
L 137.494296 -157.307248 
L 137.494296 -157.307248 
L 138.274716 -157.307248 
L 138.274716 -153.18871 
L 139.055135 -153.18871 
L 139.055135 -153.18871 
L 139.835555 -153.18871 
L 139.835555 -151.083641 
L 140.615975 -151.083641 
L 140.615975 -151.083641 
L 141.396394 -151.083641 
L 141.396394 -151.083641 
L 142.176814 -151.083641 
L 142.176814 -148.999398 
L 142.957233 -148.999398 
L 142.957233 -148.999398 
L 143.737653 -148.999398 
L 143.737653 -146.852405 
L 144.518073 -146.852405 
L 144.518073 -146.852405 
L 145.298492 -146.852405 
L 145.298492 -146.852405 
L 146.078912 -146.852405 
L 146.078912 -146.852405 
L 146.859331 -146.852405 
L 146.859331 -146.852405 
L 147.639751 -146.852405 
L 147.639751 -146.852405 
L 148.42017 -146.852405 
L 148.42017 -140.136046 
L 149.20059 -140.136046 
L 149.20059 -137.941044 
L 149.98101 -137.941044 
L 149.98101 -137.941044 
L 150.761429 -137.941044 
L 150.761429 -137.941044 
L 151.541849 -137.941044 
L 151.541849 -137.941044 
L 152.322268 -137.941044 
L 152.322268 -137.941044 
L 153.102688 -137.941044 
L 153.102688 -137.941044 
L 153.883108 -137.941044 
L 153.883108 -137.941044 
L 154.663527 -137.941044 
L 154.663527 -137.941044 
L 155.443947 -137.941044 
L 155.443947 -137.941044 
L 156.224366 -137.941044 
L 156.224366 -135.429809 
L 157.004786 -135.429809 
L 157.004786 -135.429809 
L 157.785205 -135.429809 
L 157.785205 -135.429809 
L 158.565625 -135.429809 
L 158.565625 -135.429809 
L 159.346045 -135.429809 
L 159.346045 -135.429809 
L 160.126464 -135.429809 
L 160.126464 -135.429809 
L 160.906884 -135.429809 
L 160.906884 -135.429809 
L 161.687303 -135.429809 
L 161.687303 -135.429809 
L 162.467723 -135.429809 
L 162.467723 -135.429809 
L 163.248142 -135.429809 
L 163.248142 -135.429809 
L 164.028562 -135.429809 
L 164.028562 -132.740196 
L 164.808982 -132.740196 
L 164.808982 -132.740196 
L 165.589401 -132.740196 
L 165.589401 -132.740196 
L 166.369821 -132.740196 
L 166.369821 -132.740196 
L 167.15024 -132.740196 
L 167.15024 -132.740196 
L 167.93066 -132.740196 
L 167.93066 -132.740196 
L 168.71108 -132.740196 
L 168.71108 -132.740196 
L 169.491499 -132.740196 
L 169.491499 -132.740196 
L 170.271919 -132.740196 
L 170.271919 -132.740196 
L 171.052338 -132.740196 
L 171.052338 -132.740196 
L 171.832758 -132.740196 
L 171.832758 -132.740196 
L 172.613177 -132.740196 
L 172.613177 -129.927957 
L 173.393597 -129.927957 
L 173.393597 -129.927957 
L 174.174017 -129.927957 
L 174.174017 -129.927957 
L 174.954436 -129.927957 
L 174.954436 -129.927957 
L 175.734856 -129.927957 
L 175.734856 -129.927957 
L 176.515275 -129.927957 
L 176.515275 -129.927957 
L 177.295695 -129.927957 
L 177.295695 -129.927957 
L 178.076115 -129.927957 
L 178.076115 -129.927957 
L 178.856534 -129.927957 
L 178.856534 -129.927957 
L 179.636954 -129.927957 
L 179.636954 -129.927957 
L 180.417373 -129.927957 
L 180.417373 -127.156767 
L 181.197793 -127.156767 
L 181.197793 -127.156767 
L 181.978212 -127.156767 
L 181.978212 -127.156767 
L 182.758632 -127.156767 
L 182.758632 -127.156767 
L 183.539052 -127.156767 
L 183.539052 -127.156767 
L 184.319471 -127.156767 
L 184.319471 -127.156767 
L 185.099891 -127.156767 
L 185.099891 -127.156767 
L 185.88031 -127.156767 
L 185.88031 -127.156767 
L 186.66073 -127.156767 
L 186.66073 -127.156767 
L 187.441149 -127.156767 
L 187.441149 -127.156767 
L 188.221569 -127.156767 
L 188.221569 -127.156767 
L 189.001989 -127.156767 
L 189.001989 -127.156767 
L 189.782408 -127.156767 
L 189.782408 -127.156767 
L 190.562828 -127.156767 
L 190.562828 -127.156767 
L 191.343247 -127.156767 
L 191.343247 -127.156767 
L 192.123667 -127.156767 
L 192.123667 -127.156767 
L 192.904087 -127.156767 
L 192.904087 -127.156767 
L 193.684506 -127.156767 
L 193.684506 -127.156767 
L 194.464926 -127.156767 
L 194.464926 -127.156767 
L 195.245345 -127.156767 
L 195.245345 -127.156767 
L 196.025765 -127.156767 
L 196.025765 -127.156767 
L 196.806184 -127.156767 
L 196.806184 -124.14363 
L 197.586604 -124.14363 
L 197.586604 -124.14363 
L 198.367024 -124.14363 
L 198.367024 -124.14363 
L 199.147443 -124.14363 
L 199.147443 -124.14363 
L 199.927863 -124.14363 
L 199.927863 -124.14363 
L 200.708282 -124.14363 
L 200.708282 -124.14363 
L 201.488702 -124.14363 
L 201.488702 -124.14363 
L 202.269122 -124.14363 
L 202.269122 -124.14363 
L 203.049541 -124.14363 
L 203.049541 -124.14363 
L 203.829961 -124.14363 
L 203.829961 -124.14363 
L 204.61038 -124.14363 
L 204.61038 -124.14363 
L 205.3908 -124.14363 
L 205.3908 -124.14363 
L 206.171219 -124.14363 
L 206.171219 -120.836707 
L 206.951639 -120.836707 
L 206.951639 -120.836707 
L 207.732059 -120.836707 
L 207.732059 -120.836707 
L 208.512478 -120.836707 
L 208.512478 -120.836707 
L 209.292898 -120.836707 
L 209.292898 -120.836707 
L 210.073317 -120.836707 
L 210.073317 -120.836707 
L 210.853737 -120.836707 
L 210.853737 -120.836707 
L 211.634156 -120.836707 
L 211.634156 -120.836707 
L 212.414576 -120.836707 
L 212.414576 -120.836707 
L 213.194996 -120.836707 
L 213.194996 -120.836707 
L 213.975415 -120.836707 
L 213.975415 -117.164558 
L 214.755835 -117.164558 
L 214.755835 -117.164558 
L 215.536254 -117.164558 
L 215.536254 -117.164558 
L 216.316674 -117.164558 
L 216.316674 -117.164558 
L 217.097094 -117.164558 
L 217.097094 -117.164558 
L 217.877513 -117.164558 
L 217.877513 -117.164558 
L 218.657933 -117.164558 
L 218.657933 -117.164558 
L 219.438352 -117.164558 
L 219.438352 -117.164558 
L 220.218772 -117.164558 
L 220.218772 -117.164558 
L 220.999191 -117.164558 
L 220.999191 -117.164558 
L 221.779611 -117.164558 
L 221.779611 -117.164558 
L 222.560031 -117.164558 
L 222.560031 -117.164558 
L 223.34045 -117.164558 
L 223.34045 -113.225593 
L 224.12087 -113.225593 
L 224.12087 -113.225593 
L 224.901289 -113.225593 
L 224.901289 -113.225593 
L 225.681709 -113.225593 
L 225.681709 -113.225593 
L 226.462128 -113.225593 
L 226.462128 -113.225593 
L 227.242548 -113.225593 
L 227.242548 -113.225593 
L 228.022968 -113.225593 
L 228.022968 -113.225593 
L 228.803387 -113.225593 
L 228.803387 -113.225593 
L 229.583807 -113.225593 
L 229.583807 -109.186929 
L 230.364226 -109.186929 
L 230.364226 -109.186929 
L 231.144646 -109.186929 
L 231.144646 -109.186929 
L 231.925066 -109.186929 
L 231.925066 -109.186929 
L 232.705485 -109.186929 
L 232.705485 -109.186929 
L 233.485905 -109.186929 
L 233.485905 -105.258024 
L 234.266324 -105.258024 
L 234.266324 -105.258024 
L 235.046744 -105.258024 
L 235.046744 -105.258024 
L 235.827163 -105.258024 
L 235.827163 -105.258024 
L 236.607583 -105.258024 
L 236.607583 -105.258024 
L 237.388003 -105.258024 
L 237.388003 -105.258024 
L 238.168422 -105.258024 
L 238.168422 -105.258024 
L 238.948842 -105.258024 
L 238.948842 -105.258024 
L 239.729261 -105.258024 
L 239.729261 -105.258024 
L 240.509681 -105.258024 
L 240.509681 -105.258024 
L 241.290101 -105.258024 
L 241.290101 -105.258024 
L 242.07052 -105.258024 
L 242.07052 -105.258024 
L 242.85094 -105.258024 
L 242.85094 -105.258024 
L 243.631359 -105.258024 
L 243.631359 -105.258024 
L 244.411779 -105.258024 
L 244.411779 -105.258024 
L 245.192198 -105.258024 
L 245.192198 -105.258024 
L 245.972618 -105.258024 
L 245.972618 -105.258024 
L 246.753038 -105.258024 
L 246.753038 -105.258024 
L 247.533457 -105.258024 
L 247.533457 -105.258024 
L 248.313877 -105.258024 
L 248.313877 -105.258024 
L 249.094296 -105.258024 
L 249.094296 -105.258024 
L 249.874716 -105.258024 
L 249.874716 -105.258024 
L 250.655135 -105.258024 
L 250.655135 -105.258024 
L 251.435555 -105.258024 
L 251.435555 -105.258024 
L 252.215975 -105.258024 
L 252.215975 -105.258024 
L 252.996394 -105.258024 
L 252.996394 -105.258024 
L 253.776814 -105.258024 
L 253.776814 -105.258024 
L 254.557233 -105.258024 
L 254.557233 -105.258024 
L 255.337653 -105.258024 
L 255.337653 -105.258024 
L 256.118073 -105.258024 
L 256.118073 -105.258024 
L 256.898492 -105.258024 
L 256.898492 -105.258024 
L 257.678912 -105.258024 
L 257.678912 -105.258024 
L 258.459331 -105.258024 
L 258.459331 -105.258024 
L 259.239751 -105.258024 
L 259.239751 -105.258024 
L 260.02017 -105.258024 
L 260.02017 -105.258024 
L 260.02017 -143.833785 
L 260.02017 -143.833785 
L 260.02017 -143.833785 
L 259.239751 -143.833785 
L 259.239751 -143.833785 
L 258.459331 -143.833785 
L 258.459331 -143.833785 
L 257.678912 -143.833785 
L 257.678912 -143.833785 
L 256.898492 -143.833785 
L 256.898492 -143.833785 
L 256.118073 -143.833785 
L 256.118073 -143.833785 
L 255.337653 -143.833785 
L 255.337653 -143.833785 
L 254.557233 -143.833785 
L 254.557233 -143.833785 
L 253.776814 -143.833785 
L 253.776814 -143.833785 
L 252.996394 -143.833785 
L 252.996394 -143.833785 
L 252.215975 -143.833785 
L 252.215975 -143.833785 
L 251.435555 -143.833785 
L 251.435555 -143.833785 
L 250.655135 -143.833785 
L 250.655135 -143.833785 
L 249.874716 -143.833785 
L 249.874716 -143.833785 
L 249.094296 -143.833785 
L 249.094296 -143.833785 
L 248.313877 -143.833785 
L 248.313877 -143.833785 
L 247.533457 -143.833785 
L 247.533457 -143.833785 
L 246.753038 -143.833785 
L 246.753038 -143.833785 
L 245.972618 -143.833785 
L 245.972618 -143.833785 
L 245.192198 -143.833785 
L 245.192198 -143.833785 
L 244.411779 -143.833785 
L 244.411779 -143.833785 
L 243.631359 -143.833785 
L 243.631359 -143.833785 
L 242.85094 -143.833785 
L 242.85094 -143.833785 
L 242.07052 -143.833785 
L 242.07052 -143.833785 
L 241.290101 -143.833785 
L 241.290101 -143.833785 
L 240.509681 -143.833785 
L 240.509681 -143.833785 
L 239.729261 -143.833785 
L 239.729261 -143.833785 
L 238.948842 -143.833785 
L 238.948842 -143.833785 
L 238.168422 -143.833785 
L 238.168422 -143.833785 
L 237.388003 -143.833785 
L 237.388003 -143.833785 
L 236.607583 -143.833785 
L 236.607583 -143.833785 
L 235.827163 -143.833785 
L 235.827163 -143.833785 
L 235.046744 -143.833785 
L 235.046744 -143.833785 
L 234.266324 -143.833785 
L 234.266324 -143.833785 
L 233.485905 -143.833785 
L 233.485905 -146.886737 
L 232.705485 -146.886737 
L 232.705485 -146.886737 
L 231.925066 -146.886737 
L 231.925066 -146.886737 
L 231.144646 -146.886737 
L 231.144646 -146.886737 
L 230.364226 -146.886737 
L 230.364226 -146.886737 
L 229.583807 -146.886737 
L 229.583807 -149.870344 
L 228.803387 -149.870344 
L 228.803387 -149.870344 
L 228.022968 -149.870344 
L 228.022968 -149.870344 
L 227.242548 -149.870344 
L 227.242548 -149.870344 
L 226.462128 -149.870344 
L 226.462128 -149.870344 
L 225.681709 -149.870344 
L 225.681709 -149.870344 
L 224.901289 -149.870344 
L 224.901289 -149.870344 
L 224.12087 -149.870344 
L 224.12087 -149.870344 
L 223.34045 -149.870344 
L 223.34045 -152.713683 
L 222.560031 -152.713683 
L 222.560031 -152.713683 
L 221.779611 -152.713683 
L 221.779611 -152.713683 
L 220.999191 -152.713683 
L 220.999191 -152.713683 
L 220.218772 -152.713683 
L 220.218772 -152.713683 
L 219.438352 -152.713683 
L 219.438352 -152.713683 
L 218.657933 -152.713683 
L 218.657933 -152.713683 
L 217.877513 -152.713683 
L 217.877513 -152.713683 
L 217.097094 -152.713683 
L 217.097094 -152.713683 
L 216.316674 -152.713683 
L 216.316674 -152.713683 
L 215.536254 -152.713683 
L 215.536254 -152.713683 
L 214.755835 -152.713683 
L 214.755835 -152.713683 
L 213.975415 -152.713683 
L 213.975415 -155.372014 
L 213.194996 -155.372014 
L 213.194996 -155.372014 
L 212.414576 -155.372014 
L 212.414576 -155.372014 
L 211.634156 -155.372014 
L 211.634156 -155.372014 
L 210.853737 -155.372014 
L 210.853737 -155.372014 
L 210.073317 -155.372014 
L 210.073317 -155.372014 
L 209.292898 -155.372014 
L 209.292898 -155.372014 
L 208.512478 -155.372014 
L 208.512478 -155.372014 
L 207.732059 -155.372014 
L 207.732059 -155.372014 
L 206.951639 -155.372014 
L 206.951639 -155.372014 
L 206.171219 -155.372014 
L 206.171219 -157.822802 
L 205.3908 -157.822802 
L 205.3908 -157.822802 
L 204.61038 -157.822802 
L 204.61038 -157.822802 
L 203.829961 -157.822802 
L 203.829961 -157.822802 
L 203.049541 -157.822802 
L 203.049541 -157.822802 
L 202.269122 -157.822802 
L 202.269122 -157.822802 
L 201.488702 -157.822802 
L 201.488702 -157.822802 
L 200.708282 -157.822802 
L 200.708282 -157.822802 
L 199.927863 -157.822802 
L 199.927863 -157.822802 
L 199.147443 -157.822802 
L 199.147443 -157.822802 
L 198.367024 -157.822802 
L 198.367024 -157.822802 
L 197.586604 -157.822802 
L 197.586604 -157.822802 
L 196.806184 -157.822802 
L 196.806184 -160.100629 
L 196.025765 -160.100629 
L 196.025765 -160.100629 
L 195.245345 -160.100629 
L 195.245345 -160.100629 
L 194.464926 -160.100629 
L 194.464926 -160.100629 
L 193.684506 -160.100629 
L 193.684506 -160.100629 
L 192.904087 -160.100629 
L 192.904087 -160.100629 
L 192.123667 -160.100629 
L 192.123667 -160.100629 
L 191.343247 -160.100629 
L 191.343247 -160.100629 
L 190.562828 -160.100629 
L 190.562828 -160.100629 
L 189.782408 -160.100629 
L 189.782408 -160.100629 
L 189.001989 -160.100629 
L 189.001989 -160.100629 
L 188.221569 -160.100629 
L 188.221569 -160.100629 
L 187.441149 -160.100629 
L 187.441149 -160.100629 
L 186.66073 -160.100629 
L 186.66073 -160.100629 
L 185.88031 -160.100629 
L 185.88031 -160.100629 
L 185.099891 -160.100629 
L 185.099891 -160.100629 
L 184.319471 -160.100629 
L 184.319471 -160.100629 
L 183.539052 -160.100629 
L 183.539052 -160.100629 
L 182.758632 -160.100629 
L 182.758632 -160.100629 
L 181.978212 -160.100629 
L 181.978212 -160.100629 
L 181.197793 -160.100629 
L 181.197793 -160.100629 
L 180.417373 -160.100629 
L 180.417373 -162.231725 
L 179.636954 -162.231725 
L 179.636954 -162.231725 
L 178.856534 -162.231725 
L 178.856534 -162.231725 
L 178.076115 -162.231725 
L 178.076115 -162.231725 
L 177.295695 -162.231725 
L 177.295695 -162.231725 
L 176.515275 -162.231725 
L 176.515275 -162.231725 
L 175.734856 -162.231725 
L 175.734856 -162.231725 
L 174.954436 -162.231725 
L 174.954436 -162.231725 
L 174.174017 -162.231725 
L 174.174017 -162.231725 
L 173.393597 -162.231725 
L 173.393597 -162.231725 
L 172.613177 -162.231725 
L 172.613177 -164.336617 
L 171.832758 -164.336617 
L 171.832758 -164.336617 
L 171.052338 -164.336617 
L 171.052338 -164.336617 
L 170.271919 -164.336617 
L 170.271919 -164.336617 
L 169.491499 -164.336617 
L 169.491499 -164.336617 
L 168.71108 -164.336617 
L 168.71108 -164.336617 
L 167.93066 -164.336617 
L 167.93066 -164.336617 
L 167.15024 -164.336617 
L 167.15024 -164.336617 
L 166.369821 -164.336617 
L 166.369821 -164.336617 
L 165.589401 -164.336617 
L 165.589401 -164.336617 
L 164.808982 -164.336617 
L 164.808982 -164.336617 
L 164.028562 -164.336617 
L 164.028562 -166.349365 
L 163.248142 -166.349365 
L 163.248142 -166.349365 
L 162.467723 -166.349365 
L 162.467723 -166.349365 
L 161.687303 -166.349365 
L 161.687303 -166.349365 
L 160.906884 -166.349365 
L 160.906884 -166.349365 
L 160.126464 -166.349365 
L 160.126464 -166.349365 
L 159.346045 -166.349365 
L 159.346045 -166.349365 
L 158.565625 -166.349365 
L 158.565625 -166.349365 
L 157.785205 -166.349365 
L 157.785205 -166.349365 
L 157.004786 -166.349365 
L 157.004786 -166.349365 
L 156.224366 -166.349365 
L 156.224366 -168.250565 
L 155.443947 -168.250565 
L 155.443947 -168.250565 
L 154.663527 -168.250565 
L 154.663527 -168.250565 
L 153.883108 -168.250565 
L 153.883108 -168.250565 
L 153.102688 -168.250565 
L 153.102688 -168.250565 
L 152.322268 -168.250565 
L 152.322268 -168.250565 
L 151.541849 -168.250565 
L 151.541849 -168.250565 
L 150.761429 -168.250565 
L 150.761429 -168.250565 
L 149.98101 -168.250565 
L 149.98101 -168.250565 
L 149.20059 -168.250565 
L 149.20059 -169.981276 
L 148.42017 -169.981276 
L 148.42017 -175.085517 
L 147.639751 -175.085517 
L 147.639751 -175.085517 
L 146.859331 -175.085517 
L 146.859331 -175.085517 
L 146.078912 -175.085517 
L 146.078912 -175.085517 
L 145.298492 -175.085517 
L 145.298492 -175.085517 
L 144.518073 -175.085517 
L 144.518073 -175.085517 
L 143.737653 -175.085517 
L 143.737653 -176.696104 
L 142.957233 -176.696104 
L 142.957233 -176.696104 
L 142.176814 -176.696104 
L 142.176814 -178.255994 
L 141.396394 -178.255994 
L 141.396394 -178.255994 
L 140.615975 -178.255994 
L 140.615975 -178.255994 
L 139.835555 -178.255994 
L 139.835555 -179.802273 
L 139.055135 -179.802273 
L 139.055135 -179.802273 
L 138.274716 -179.802273 
L 138.274716 -182.787047 
L 137.494296 -182.787047 
L 137.494296 -182.787047 
L 136.713877 -182.787047 
L 136.713877 -184.2432 
L 135.933457 -184.2432 
L 135.933457 -184.2432 
L 135.153038 -184.2432 
L 135.153038 -184.2432 
L 134.372618 -184.2432 
L 134.372618 -184.2432 
L 133.592198 -184.2432 
L 133.592198 -185.670515 
L 132.811779 -185.670515 
L 132.811779 -185.670515 
L 132.031359 -185.670515 
L 132.031359 -185.670515 
L 131.25094 -185.670515 
L 131.25094 -185.670515 
L 130.47052 -185.670515 
L 130.47052 -185.670515 
L 129.690101 -185.670515 
L 129.690101 -185.670515 
L 128.909681 -185.670515 
L 128.909681 -185.670515 
L 128.129261 -185.670515 
L 128.129261 -185.670515 
L 127.348842 -185.670515 
L 127.348842 -185.670515 
L 126.568422 -185.670515 
L 126.568422 -185.670515 
L 125.788003 -185.670515 
L 125.788003 -185.670515 
L 125.007583 -185.670515 
L 125.007583 -188.280763 
L 124.227163 -188.280763 
L 124.227163 -188.280763 
L 123.446744 -188.280763 
L 123.446744 -189.557366 
L 122.666324 -189.557366 
L 122.666324 -189.557366 
L 121.885905 -189.557366 
L 121.885905 -189.557366 
L 121.105485 -189.557366 
L 121.105485 -189.557366 
L 120.325066 -189.557366 
L 120.325066 -190.770098 
L 119.544646 -190.770098 
L 119.544646 -191.972226 
L 118.764226 -191.972226 
L 118.764226 -193.153692 
L 117.983807 -193.153692 
L 117.983807 -193.153692 
L 117.203387 -193.153692 
L 117.203387 -195.44604 
L 116.422968 -195.44604 
L 116.422968 -195.44604 
L 115.642548 -195.44604 
L 115.642548 -195.44604 
L 114.862128 -195.44604 
L 114.862128 -195.44604 
L 114.081709 -195.44604 
L 114.081709 -195.44604 
L 113.301289 -195.44604 
L 113.301289 -195.44604 
L 112.52087 -195.44604 
L 112.52087 -197.550736 
L 111.74045 -197.550736 
L 111.74045 -197.550736 
L 110.960031 -197.550736 
L 110.960031 -197.550736 
L 110.179611 -197.550736 
L 110.179611 -197.550736 
L 109.399191 -197.550736 
L 109.399191 -197.550736 
L 108.618772 -197.550736 
L 108.618772 -198.553146 
L 107.838352 -198.553146 
L 107.838352 -198.553146 
L 107.057933 -198.553146 
L 107.057933 -198.553146 
L 106.277513 -198.553146 
L 106.277513 -199.532644 
L 105.497094 -199.532644 
L 105.497094 -199.532644 
L 104.716674 -199.532644 
L 104.716674 -199.532644 
L 103.936254 -199.532644 
L 103.936254 -199.532644 
L 103.155835 -199.532644 
L 103.155835 -199.532644 
L 102.375415 -199.532644 
L 102.375415 -199.532644 
L 101.594996 -199.532644 
L 101.594996 -199.532644 
L 100.814576 -199.532644 
L 100.814576 -200.483673 
L 100.034156 -200.483673 
L 100.034156 -200.483673 
L 99.253737 -200.483673 
L 99.253737 -201.418497 
L 98.473317 -201.418497 
L 98.473317 -201.418497 
L 97.692898 -201.418497 
L 97.692898 -201.418497 
L 96.912478 -201.418497 
L 96.912478 -203.232491 
L 96.132059 -203.232491 
L 96.132059 -204.121024 
L 95.351639 -204.121024 
L 95.351639 -204.121024 
L 94.571219 -204.121024 
L 94.571219 -204.121024 
L 93.7908 -204.121024 
L 93.7908 -204.121024 
L 93.01038 -204.121024 
L 93.01038 -204.121024 
L 92.229961 -204.121024 
L 92.229961 -204.981054 
L 91.449541 -204.981054 
L 91.449541 -204.981054 
L 90.669122 -204.981054 
L 90.669122 -204.981054 
L 89.888702 -204.981054 
L 89.888702 -204.981054 
L 89.108282 -204.981054 
L 89.108282 -204.981054 
L 88.327863 -204.981054 
L 88.327863 -204.981054 
L 87.547443 -204.981054 
L 87.547443 -204.981054 
L 86.767024 -204.981054 
L 86.767024 -204.981054 
L 85.986604 -204.981054 
L 85.986604 -204.981054 
L 85.206184 -204.981054 
L 85.206184 -204.981054 
L 84.425765 -204.981054 
L 84.425765 -206.62062 
L 83.645345 -206.62062 
L 83.645345 -207.415653 
L 82.864926 -207.415653 
L 82.864926 -208.187142 
L 82.084506 -208.187142 
L 82.084506 -208.187142 
L 81.304087 -208.187142 
L 81.304087 -208.936098 
L 80.523667 -208.936098 
L 80.523667 -209.654901 
L 79.743247 -209.654901 
L 79.743247 -210.341582 
L 78.962828 -210.341582 
L 78.962828 -210.341582 
L 78.182408 -210.341582 
L 78.182408 -210.341582 
L 77.401989 -210.341582 
L 77.401989 -210.985001 
L 76.621569 -210.985001 
L 76.621569 -210.985001 
L 75.841149 -210.985001 
L 75.841149 -211.575574 
L 75.06073 -211.575574 
L 75.06073 -212.09091 
L 74.28031 -212.09091 
L 74.28031 -212.09091 
L 73.499891 -212.09091 
L 73.499891 -212.09091 
L 72.719471 -212.09091 
L 72.719471 -212.09091 
L 71.939052 -212.09091 
L 71.939052 -212.09091 
L 71.158632 -212.09091 
L 71.158632 -212.09091 
L 70.378212 -212.09091 
L 70.378212 -212.483887 
L 69.597793 -212.483887 
L 69.597793 -212.636816 
L 68.817373 -212.636816 
L 68.817373 -212.636816 
L 68.036954 -212.636816 
L 68.036954 -212.636816 
L 67.256534 -212.636816 
L 67.256534 -212.636816 
L 66.476115 -212.636816 
L 66.476115 -212.636816 
L 65.695695 -212.636816 
L 65.695695 -212.636816 
L 64.915275 -212.636816 
L 64.915275 -212.636816 
L 64.134856 -212.636816 
L 64.134856 -212.636816 
L 63.354436 -212.636816 
L 63.354436 -212.636816 
L 62.574017 -212.636816 
L 62.574017 -212.636816 
L 61.793597 -212.636816 
L 61.793597 -212.636816 
L 61.013177 -212.636816 
L 61.013177 -212.636816 
L 60.232758 -212.636816 
L 60.232758 -212.636816 
L 59.452338 -212.636816 
L 59.452338 -212.636816 
L 58.671919 -212.636816 
L 58.671919 -212.636816 
L 57.891499 -212.636816 
L 57.891499 -212.636816 
L 57.11108 -212.636816 
z
" style="stroke: #ff7f0e; stroke-opacity: 0.25"/>
    </defs>
    <g clip-path="url(#p16282c07fb)">
     <use xlink:href="#m1f61ba47be" x="0" y="240.054375" style="fill: #ff7f0e; fill-opacity: 0.25; stroke: #ff7f0e; stroke-opacity: 0.25"/>
    </g>
   </g>
   <g id="matplotlib.axis_1">
    <g id="xtick_1">
     <g id="line2d_1">
      <defs>
       <path id="m17fefe8d9c" d="M 0 0 
L 0 3.5 
" style="stroke: #000000; stroke-width: 0.8"/>
      </defs>
      <g>
       <use xlink:href="#m17fefe8d9c" x="57.11108" y="202.498125" style="stroke: #000000; stroke-width: 0.8"/>
      </g>
     </g>
     <g id="text_1">
      <!-- 0 -->
      <g transform="translate(53.92983 217.096562) scale(0.1 -0.1)">
       <defs>
        <path id="DejaVuSans-30" d="M 2034 4250 
Q 1547 4250 1301 3770 
Q 1056 3291 1056 2328 
Q 1056 1369 1301 889 
Q 1547 409 2034 409 
Q 2525 409 2770 889 
Q 3016 1369 3016 2328 
Q 3016 3291 2770 3770 
Q 2525 4250 2034 4250 
z
M 2034 4750 
Q 2819 4750 3233 4129 
Q 3647 3509 3647 2328 
Q 3647 1150 3233 529 
Q 2819 -91 2034 -91 
Q 1250 -91 836 529 
Q 422 1150 422 2328 
Q 422 3509 836 4129 
Q 1250 4750 2034 4750 
z
" transform="scale(0.015625)"/>
       </defs>
       <use xlink:href="#DejaVuSans-30"/>
      </g>
     </g>
    </g>
    <g id="xtick_2">
     <g id="line2d_2">
      <g>
       <use xlink:href="#m17fefe8d9c" x="97.804386" y="202.498125" style="stroke: #000000; stroke-width: 0.8"/>
      </g>
     </g>
     <g id="text_2">
      <!-- 1 -->
      <g transform="translate(94.623136 217.096562) scale(0.1 -0.1)">
       <defs>
        <path id="DejaVuSans-31" d="M 794 531 
L 1825 531 
L 1825 4091 
L 703 3866 
L 703 4441 
L 1819 4666 
L 2450 4666 
L 2450 531 
L 3481 531 
L 3481 0 
L 794 0 
L 794 531 
z
" transform="scale(0.015625)"/>
       </defs>
       <use xlink:href="#DejaVuSans-31"/>
      </g>
     </g>
    </g>
    <g id="xtick_3">
     <g id="line2d_3">
      <g>
       <use xlink:href="#m17fefe8d9c" x="138.497693" y="202.498125" style="stroke: #000000; stroke-width: 0.8"/>
      </g>
     </g>
     <g id="text_3">
      <!-- 2 -->
      <g transform="translate(135.316443 217.096562) scale(0.1 -0.1)">
       <defs>
        <path id="DejaVuSans-32" d="M 1228 531 
L 3431 531 
L 3431 0 
L 469 0 
L 469 531 
Q 828 903 1448 1529 
Q 2069 2156 2228 2338 
Q 2531 2678 2651 2914 
Q 2772 3150 2772 3378 
Q 2772 3750 2511 3984 
Q 2250 4219 1831 4219 
Q 1534 4219 1204 4116 
Q 875 4013 500 3803 
L 500 4441 
Q 881 4594 1212 4672 
Q 1544 4750 1819 4750 
Q 2544 4750 2975 4387 
Q 3406 4025 3406 3419 
Q 3406 3131 3298 2873 
Q 3191 2616 2906 2266 
Q 2828 2175 2409 1742 
Q 1991 1309 1228 531 
z
" transform="scale(0.015625)"/>
       </defs>
       <use xlink:href="#DejaVuSans-32"/>
      </g>
     </g>
    </g>
    <g id="xtick_4">
     <g id="line2d_4">
      <g>
       <use xlink:href="#m17fefe8d9c" x="179.191" y="202.498125" style="stroke: #000000; stroke-width: 0.8"/>
      </g>
     </g>
     <g id="text_4">
      <!-- 3 -->
      <g transform="translate(176.00975 217.096562) scale(0.1 -0.1)">
       <defs>
        <path id="DejaVuSans-33" d="M 2597 2516 
Q 3050 2419 3304 2112 
Q 3559 1806 3559 1356 
Q 3559 666 3084 287 
Q 2609 -91 1734 -91 
Q 1441 -91 1130 -33 
Q 819 25 488 141 
L 488 750 
Q 750 597 1062 519 
Q 1375 441 1716 441 
Q 2309 441 2620 675 
Q 2931 909 2931 1356 
Q 2931 1769 2642 2001 
Q 2353 2234 1838 2234 
L 1294 2234 
L 1294 2753 
L 1863 2753 
Q 2328 2753 2575 2939 
Q 2822 3125 2822 3475 
Q 2822 3834 2567 4026 
Q 2313 4219 1838 4219 
Q 1578 4219 1281 4162 
Q 984 4106 628 3988 
L 628 4550 
Q 988 4650 1302 4700 
Q 1616 4750 1894 4750 
Q 2613 4750 3031 4423 
Q 3450 4097 3450 3541 
Q 3450 3153 3228 2886 
Q 3006 2619 2597 2516 
z
" transform="scale(0.015625)"/>
       </defs>
       <use xlink:href="#DejaVuSans-33"/>
      </g>
     </g>
    </g>
    <g id="xtick_5">
     <g id="line2d_5">
      <g>
       <use xlink:href="#m17fefe8d9c" x="219.884306" y="202.498125" style="stroke: #000000; stroke-width: 0.8"/>
      </g>
     </g>
     <g id="text_5">
      <!-- 4 -->
      <g transform="translate(216.703056 217.096562) scale(0.1 -0.1)">
       <defs>
        <path id="DejaVuSans-34" d="M 2419 4116 
L 825 1625 
L 2419 1625 
L 2419 4116 
z
M 2253 4666 
L 3047 4666 
L 3047 1625 
L 3713 1625 
L 3713 1100 
L 3047 1100 
L 3047 0 
L 2419 0 
L 2419 1100 
L 313 1100 
L 313 1709 
L 2253 4666 
z
" transform="scale(0.015625)"/>
       </defs>
       <use xlink:href="#DejaVuSans-34"/>
      </g>
     </g>
    </g>
    <g id="xtick_6">
     <g id="line2d_6">
      <g>
       <use xlink:href="#m17fefe8d9c" x="260.577613" y="202.498125" style="stroke: #000000; stroke-width: 0.8"/>
      </g>
     </g>
     <g id="text_6">
      <!-- 5 -->
      <g transform="translate(257.396363 217.096562) scale(0.1 -0.1)">
       <defs>
        <path id="DejaVuSans-35" d="M 691 4666 
L 3169 4666 
L 3169 4134 
L 1269 4134 
L 1269 2991 
Q 1406 3038 1543 3061 
Q 1681 3084 1819 3084 
Q 2600 3084 3056 2656 
Q 3513 2228 3513 1497 
Q 3513 744 3044 326 
Q 2575 -91 1722 -91 
Q 1428 -91 1123 -41 
Q 819 9 494 109 
L 494 744 
Q 775 591 1075 516 
Q 1375 441 1709 441 
Q 2250 441 2565 725 
Q 2881 1009 2881 1497 
Q 2881 1984 2565 2268 
Q 2250 2553 1709 2553 
Q 1456 2553 1204 2497 
Q 953 2441 691 2322 
L 691 4666 
z
" transform="scale(0.015625)"/>
       </defs>
       <use xlink:href="#DejaVuSans-35"/>
      </g>
     </g>
    </g>
    <g id="text_7">
     <!-- Years -->
     <g transform="translate(145.373437 230.774687) scale(0.1 -0.1)">
      <defs>
       <path id="DejaVuSans-59" d="M -13 4666 
L 666 4666 
L 1959 2747 
L 3244 4666 
L 3922 4666 
L 2272 2222 
L 2272 0 
L 1638 0 
L 1638 2222 
L -13 4666 
z
" transform="scale(0.015625)"/>
       <path id="DejaVuSans-65" d="M 3597 1894 
L 3597 1613 
L 953 1613 
Q 991 1019 1311 708 
Q 1631 397 2203 397 
Q 2534 397 2845 478 
Q 3156 559 3463 722 
L 3463 178 
Q 3153 47 2828 -22 
Q 2503 -91 2169 -91 
Q 1331 -91 842 396 
Q 353 884 353 1716 
Q 353 2575 817 3079 
Q 1281 3584 2069 3584 
Q 2775 3584 3186 3129 
Q 3597 2675 3597 1894 
z
M 3022 2063 
Q 3016 2534 2758 2815 
Q 2500 3097 2075 3097 
Q 1594 3097 1305 2825 
Q 1016 2553 972 2059 
L 3022 2063 
z
" transform="scale(0.015625)"/>
       <path id="DejaVuSans-61" d="M 2194 1759 
Q 1497 1759 1228 1600 
Q 959 1441 959 1056 
Q 959 750 1161 570 
Q 1363 391 1709 391 
Q 2188 391 2477 730 
Q 2766 1069 2766 1631 
L 2766 1759 
L 2194 1759 
z
M 3341 1997 
L 3341 0 
L 2766 0 
L 2766 531 
Q 2569 213 2275 61 
Q 1981 -91 1556 -91 
Q 1019 -91 701 211 
Q 384 513 384 1019 
Q 384 1609 779 1909 
Q 1175 2209 1959 2209 
L 2766 2209 
L 2766 2266 
Q 2766 2663 2505 2880 
Q 2244 3097 1772 3097 
Q 1472 3097 1187 3025 
Q 903 2953 641 2809 
L 641 3341 
Q 956 3463 1253 3523 
Q 1550 3584 1831 3584 
Q 2591 3584 2966 3190 
Q 3341 2797 3341 1997 
z
" transform="scale(0.015625)"/>
       <path id="DejaVuSans-72" d="M 2631 2963 
Q 2534 3019 2420 3045 
Q 2306 3072 2169 3072 
Q 1681 3072 1420 2755 
Q 1159 2438 1159 1844 
L 1159 0 
L 581 0 
L 581 3500 
L 1159 3500 
L 1159 2956 
Q 1341 3275 1631 3429 
Q 1922 3584 2338 3584 
Q 2397 3584 2469 3576 
Q 2541 3569 2628 3553 
L 2631 2963 
z
" transform="scale(0.015625)"/>
       <path id="DejaVuSans-73" d="M 2834 3397 
L 2834 2853 
Q 2591 2978 2328 3040 
Q 2066 3103 1784 3103 
Q 1356 3103 1142 2972 
Q 928 2841 928 2578 
Q 928 2378 1081 2264 
Q 1234 2150 1697 2047 
L 1894 2003 
Q 2506 1872 2764 1633 
Q 3022 1394 3022 966 
Q 3022 478 2636 193 
Q 2250 -91 1575 -91 
Q 1294 -91 989 -36 
Q 684 19 347 128 
L 347 722 
Q 666 556 975 473 
Q 1284 391 1588 391 
Q 1994 391 2212 530 
Q 2431 669 2431 922 
Q 2431 1156 2273 1281 
Q 2116 1406 1581 1522 
L 1381 1569 
Q 847 1681 609 1914 
Q 372 2147 372 2553 
Q 372 3047 722 3315 
Q 1072 3584 1716 3584 
Q 2034 3584 2315 3537 
Q 2597 3491 2834 3397 
z
" transform="scale(0.015625)"/>
      </defs>
      <use xlink:href="#DejaVuSans-59"/>
      <use xlink:href="#DejaVuSans-65" transform="translate(47.833984 0)"/>
      <use xlink:href="#DejaVuSans-61" transform="translate(109.357422 0)"/>
      <use xlink:href="#DejaVuSans-72" transform="translate(170.636719 0)"/>
      <use xlink:href="#DejaVuSans-73" transform="translate(211.75 0)"/>
     </g>
    </g>
   </g>
   <g id="matplotlib.axis_2">
    <g id="ytick_1">
     <g id="line2d_7">
      <defs>
       <path id="m2e902beb8a" d="M 0 0 
L -3.5 0 
" style="stroke: #000000; stroke-width: 0.8"/>
      </defs>
      <g>
       <use xlink:href="#m2e902beb8a" x="46.965625" y="197.398691" style="stroke: #000000; stroke-width: 0.8"/>
      </g>
     </g>
     <g id="text_8">
      <!-- 0 -->
      <g transform="translate(33.603125 201.19791) scale(0.1 -0.1)">
       <use xlink:href="#DejaVuSans-30"/>
      </g>
     </g>
    </g>
    <g id="ytick_2">
     <g id="line2d_8">
      <g>
       <use xlink:href="#m2e902beb8a" x="46.965625" y="163.402465" style="stroke: #000000; stroke-width: 0.8"/>
      </g>
     </g>
     <g id="text_9">
      <!-- 20 -->
      <g transform="translate(27.240625 167.201683) scale(0.1 -0.1)">
       <use xlink:href="#DejaVuSans-32"/>
       <use xlink:href="#DejaVuSans-30" transform="translate(63.623047 0)"/>
      </g>
     </g>
    </g>
    <g id="ytick_3">
     <g id="line2d_9">
      <g>
       <use xlink:href="#m2e902beb8a" x="46.965625" y="129.406238" style="stroke: #000000; stroke-width: 0.8"/>
      </g>
     </g>
     <g id="text_10">
      <!-- 40 -->
      <g transform="translate(27.240625 133.205457) scale(0.1 -0.1)">
       <use xlink:href="#DejaVuSans-34"/>
       <use xlink:href="#DejaVuSans-30" transform="translate(63.623047 0)"/>
      </g>
     </g>
    </g>
    <g id="ytick_4">
     <g id="line2d_10">
      <g>
       <use xlink:href="#m2e902beb8a" x="46.965625" y="95.410012" style="stroke: #000000; stroke-width: 0.8"/>
      </g>
     </g>
     <g id="text_11">
      <!-- 60 -->
      <g transform="translate(27.240625 99.209231) scale(0.1 -0.1)">
       <defs>
        <path id="DejaVuSans-36" d="M 2113 2584 
Q 1688 2584 1439 2293 
Q 1191 2003 1191 1497 
Q 1191 994 1439 701 
Q 1688 409 2113 409 
Q 2538 409 2786 701 
Q 3034 994 3034 1497 
Q 3034 2003 2786 2293 
Q 2538 2584 2113 2584 
z
M 3366 4563 
L 3366 3988 
Q 3128 4100 2886 4159 
Q 2644 4219 2406 4219 
Q 1781 4219 1451 3797 
Q 1122 3375 1075 2522 
Q 1259 2794 1537 2939 
Q 1816 3084 2150 3084 
Q 2853 3084 3261 2657 
Q 3669 2231 3669 1497 
Q 3669 778 3244 343 
Q 2819 -91 2113 -91 
Q 1303 -91 875 529 
Q 447 1150 447 2328 
Q 447 3434 972 4092 
Q 1497 4750 2381 4750 
Q 2619 4750 2861 4703 
Q 3103 4656 3366 4563 
z
" transform="scale(0.015625)"/>
       </defs>
       <use xlink:href="#DejaVuSans-36"/>
       <use xlink:href="#DejaVuSans-30" transform="translate(63.623047 0)"/>
      </g>
     </g>
    </g>
    <g id="ytick_5">
     <g id="line2d_11">
      <g>
       <use xlink:href="#m2e902beb8a" x="46.965625" y="61.413785" style="stroke: #000000; stroke-width: 0.8"/>
      </g>
     </g>
     <g id="text_12">
      <!-- 80 -->
      <g transform="translate(27.240625 65.213004) scale(0.1 -0.1)">
       <defs>
        <path id="DejaVuSans-38" d="M 2034 2216 
Q 1584 2216 1326 1975 
Q 1069 1734 1069 1313 
Q 1069 891 1326 650 
Q 1584 409 2034 409 
Q 2484 409 2743 651 
Q 3003 894 3003 1313 
Q 3003 1734 2745 1975 
Q 2488 2216 2034 2216 
z
M 1403 2484 
Q 997 2584 770 2862 
Q 544 3141 544 3541 
Q 544 4100 942 4425 
Q 1341 4750 2034 4750 
Q 2731 4750 3128 4425 
Q 3525 4100 3525 3541 
Q 3525 3141 3298 2862 
Q 3072 2584 2669 2484 
Q 3125 2378 3379 2068 
Q 3634 1759 3634 1313 
Q 3634 634 3220 271 
Q 2806 -91 2034 -91 
Q 1263 -91 848 271 
Q 434 634 434 1313 
Q 434 1759 690 2068 
Q 947 2378 1403 2484 
z
M 1172 3481 
Q 1172 3119 1398 2916 
Q 1625 2713 2034 2713 
Q 2441 2713 2670 2916 
Q 2900 3119 2900 3481 
Q 2900 3844 2670 4047 
Q 2441 4250 2034 4250 
Q 1625 4250 1398 4047 
Q 1172 3844 1172 3481 
z
" transform="scale(0.015625)"/>
       </defs>
       <use xlink:href="#DejaVuSans-38"/>
       <use xlink:href="#DejaVuSans-30" transform="translate(63.623047 0)"/>
      </g>
     </g>
    </g>
    <g id="ytick_6">
     <g id="line2d_12">
      <g>
       <use xlink:href="#m2e902beb8a" x="46.965625" y="27.417559" style="stroke: #000000; stroke-width: 0.8"/>
      </g>
     </g>
     <g id="text_13">
      <!-- 100 -->
      <g transform="translate(20.878125 31.216778) scale(0.1 -0.1)">
       <use xlink:href="#DejaVuSans-31"/>
       <use xlink:href="#DejaVuSans-30" transform="translate(63.623047 0)"/>
       <use xlink:href="#DejaVuSans-30" transform="translate(127.246094 0)"/>
      </g>
     </g>
    </g>
    <g id="text_14">
     <!-- Disease-Specific Survival (%) -->
     <g transform="translate(14.798438 185.329219) rotate(-90) scale(0.1 -0.1)">
      <defs>
       <path id="DejaVuSans-44" d="M 1259 4147 
L 1259 519 
L 2022 519 
Q 2988 519 3436 956 
Q 3884 1394 3884 2338 
Q 3884 3275 3436 3711 
Q 2988 4147 2022 4147 
L 1259 4147 
z
M 628 4666 
L 1925 4666 
Q 3281 4666 3915 4102 
Q 4550 3538 4550 2338 
Q 4550 1131 3912 565 
Q 3275 0 1925 0 
L 628 0 
L 628 4666 
z
" transform="scale(0.015625)"/>
       <path id="DejaVuSans-69" d="M 603 3500 
L 1178 3500 
L 1178 0 
L 603 0 
L 603 3500 
z
M 603 4863 
L 1178 4863 
L 1178 4134 
L 603 4134 
L 603 4863 
z
" transform="scale(0.015625)"/>
       <path id="DejaVuSans-2d" d="M 313 2009 
L 1997 2009 
L 1997 1497 
L 313 1497 
L 313 2009 
z
" transform="scale(0.015625)"/>
       <path id="DejaVuSans-53" d="M 3425 4513 
L 3425 3897 
Q 3066 4069 2747 4153 
Q 2428 4238 2131 4238 
Q 1616 4238 1336 4038 
Q 1056 3838 1056 3469 
Q 1056 3159 1242 3001 
Q 1428 2844 1947 2747 
L 2328 2669 
Q 3034 2534 3370 2195 
Q 3706 1856 3706 1288 
Q 3706 609 3251 259 
Q 2797 -91 1919 -91 
Q 1588 -91 1214 -16 
Q 841 59 441 206 
L 441 856 
Q 825 641 1194 531 
Q 1563 422 1919 422 
Q 2459 422 2753 634 
Q 3047 847 3047 1241 
Q 3047 1584 2836 1778 
Q 2625 1972 2144 2069 
L 1759 2144 
Q 1053 2284 737 2584 
Q 422 2884 422 3419 
Q 422 4038 858 4394 
Q 1294 4750 2059 4750 
Q 2388 4750 2728 4690 
Q 3069 4631 3425 4513 
z
" transform="scale(0.015625)"/>
       <path id="DejaVuSans-70" d="M 1159 525 
L 1159 -1331 
L 581 -1331 
L 581 3500 
L 1159 3500 
L 1159 2969 
Q 1341 3281 1617 3432 
Q 1894 3584 2278 3584 
Q 2916 3584 3314 3078 
Q 3713 2572 3713 1747 
Q 3713 922 3314 415 
Q 2916 -91 2278 -91 
Q 1894 -91 1617 61 
Q 1341 213 1159 525 
z
M 3116 1747 
Q 3116 2381 2855 2742 
Q 2594 3103 2138 3103 
Q 1681 3103 1420 2742 
Q 1159 2381 1159 1747 
Q 1159 1113 1420 752 
Q 1681 391 2138 391 
Q 2594 391 2855 752 
Q 3116 1113 3116 1747 
z
" transform="scale(0.015625)"/>
       <path id="DejaVuSans-63" d="M 3122 3366 
L 3122 2828 
Q 2878 2963 2633 3030 
Q 2388 3097 2138 3097 
Q 1578 3097 1268 2742 
Q 959 2388 959 1747 
Q 959 1106 1268 751 
Q 1578 397 2138 397 
Q 2388 397 2633 464 
Q 2878 531 3122 666 
L 3122 134 
Q 2881 22 2623 -34 
Q 2366 -91 2075 -91 
Q 1284 -91 818 406 
Q 353 903 353 1747 
Q 353 2603 823 3093 
Q 1294 3584 2113 3584 
Q 2378 3584 2631 3529 
Q 2884 3475 3122 3366 
z
" transform="scale(0.015625)"/>
       <path id="DejaVuSans-66" d="M 2375 4863 
L 2375 4384 
L 1825 4384 
Q 1516 4384 1395 4259 
Q 1275 4134 1275 3809 
L 1275 3500 
L 2222 3500 
L 2222 3053 
L 1275 3053 
L 1275 0 
L 697 0 
L 697 3053 
L 147 3053 
L 147 3500 
L 697 3500 
L 697 3744 
Q 697 4328 969 4595 
Q 1241 4863 1831 4863 
L 2375 4863 
z
" transform="scale(0.015625)"/>
       <path id="DejaVuSans-20" transform="scale(0.015625)"/>
       <path id="DejaVuSans-75" d="M 544 1381 
L 544 3500 
L 1119 3500 
L 1119 1403 
Q 1119 906 1312 657 
Q 1506 409 1894 409 
Q 2359 409 2629 706 
Q 2900 1003 2900 1516 
L 2900 3500 
L 3475 3500 
L 3475 0 
L 2900 0 
L 2900 538 
Q 2691 219 2414 64 
Q 2138 -91 1772 -91 
Q 1169 -91 856 284 
Q 544 659 544 1381 
z
M 1991 3584 
L 1991 3584 
z
" transform="scale(0.015625)"/>
       <path id="DejaVuSans-76" d="M 191 3500 
L 800 3500 
L 1894 563 
L 2988 3500 
L 3597 3500 
L 2284 0 
L 1503 0 
L 191 3500 
z
" transform="scale(0.015625)"/>
       <path id="DejaVuSans-6c" d="M 603 4863 
L 1178 4863 
L 1178 0 
L 603 0 
L 603 4863 
z
" transform="scale(0.015625)"/>
       <path id="DejaVuSans-28" d="M 1984 4856 
Q 1566 4138 1362 3434 
Q 1159 2731 1159 2009 
Q 1159 1288 1364 580 
Q 1569 -128 1984 -844 
L 1484 -844 
Q 1016 -109 783 600 
Q 550 1309 550 2009 
Q 550 2706 781 3412 
Q 1013 4119 1484 4856 
L 1984 4856 
z
" transform="scale(0.015625)"/>
       <path id="DejaVuSans-25" d="M 4653 2053 
Q 4381 2053 4226 1822 
Q 4072 1591 4072 1178 
Q 4072 772 4226 539 
Q 4381 306 4653 306 
Q 4919 306 5073 539 
Q 5228 772 5228 1178 
Q 5228 1588 5073 1820 
Q 4919 2053 4653 2053 
z
M 4653 2450 
Q 5147 2450 5437 2106 
Q 5728 1763 5728 1178 
Q 5728 594 5436 251 
Q 5144 -91 4653 -91 
Q 4153 -91 3862 251 
Q 3572 594 3572 1178 
Q 3572 1766 3864 2108 
Q 4156 2450 4653 2450 
z
M 1428 4353 
Q 1159 4353 1004 4120 
Q 850 3888 850 3481 
Q 850 3069 1003 2837 
Q 1156 2606 1428 2606 
Q 1700 2606 1854 2837 
Q 2009 3069 2009 3481 
Q 2009 3884 1853 4118 
Q 1697 4353 1428 4353 
z
M 4250 4750 
L 4750 4750 
L 1831 -91 
L 1331 -91 
L 4250 4750 
z
M 1428 4750 
Q 1922 4750 2215 4408 
Q 2509 4066 2509 3481 
Q 2509 2891 2217 2550 
Q 1925 2209 1428 2209 
Q 931 2209 642 2551 
Q 353 2894 353 3481 
Q 353 4063 643 4406 
Q 934 4750 1428 4750 
z
" transform="scale(0.015625)"/>
       <path id="DejaVuSans-29" d="M 513 4856 
L 1013 4856 
Q 1481 4119 1714 3412 
Q 1947 2706 1947 2009 
Q 1947 1309 1714 600 
Q 1481 -109 1013 -844 
L 513 -844 
Q 928 -128 1133 580 
Q 1338 1288 1338 2009 
Q 1338 2731 1133 3434 
Q 928 4138 513 4856 
z
" transform="scale(0.015625)"/>
      </defs>
      <use xlink:href="#DejaVuSans-44"/>
      <use xlink:href="#DejaVuSans-69" transform="translate(77.001953 0)"/>
      <use xlink:href="#DejaVuSans-73" transform="translate(104.785156 0)"/>
      <use xlink:href="#DejaVuSans-65" transform="translate(156.884766 0)"/>
      <use xlink:href="#DejaVuSans-61" transform="translate(218.408203 0)"/>
      <use xlink:href="#DejaVuSans-73" transform="translate(279.6875 0)"/>
      <use xlink:href="#DejaVuSans-65" transform="translate(331.787109 0)"/>
      <use xlink:href="#DejaVuSans-2d" transform="translate(393.310547 0)"/>
      <use xlink:href="#DejaVuSans-53" transform="translate(429.394531 0)"/>
      <use xlink:href="#DejaVuSans-70" transform="translate(492.871094 0)"/>
      <use xlink:href="#DejaVuSans-65" transform="translate(556.347656 0)"/>
      <use xlink:href="#DejaVuSans-63" transform="translate(617.871094 0)"/>
      <use xlink:href="#DejaVuSans-69" transform="translate(672.851562 0)"/>
      <use xlink:href="#DejaVuSans-66" transform="translate(700.634766 0)"/>
      <use xlink:href="#DejaVuSans-69" transform="translate(735.839844 0)"/>
      <use xlink:href="#DejaVuSans-63" transform="translate(763.623047 0)"/>
      <use xlink:href="#DejaVuSans-20" transform="translate(818.603516 0)"/>
      <use xlink:href="#DejaVuSans-53" transform="translate(850.390625 0)"/>
      <use xlink:href="#DejaVuSans-75" transform="translate(913.867188 0)"/>
      <use xlink:href="#DejaVuSans-72" transform="translate(977.246094 0)"/>
      <use xlink:href="#DejaVuSans-76" transform="translate(1018.359375 0)"/>
      <use xlink:href="#DejaVuSans-69" transform="translate(1077.539062 0)"/>
      <use xlink:href="#DejaVuSans-76" transform="translate(1105.322266 0)"/>
      <use xlink:href="#DejaVuSans-61" transform="translate(1164.501953 0)"/>
      <use xlink:href="#DejaVuSans-6c" transform="translate(1225.78125 0)"/>
      <use xlink:href="#DejaVuSans-20" transform="translate(1253.564453 0)"/>
      <use xlink:href="#DejaVuSans-28" transform="translate(1285.351562 0)"/>
      <use xlink:href="#DejaVuSans-25" transform="translate(1324.365234 0)"/>
      <use xlink:href="#DejaVuSans-29" transform="translate(1419.384766 0)"/>
     </g>
    </g>
   </g>
   <g id="line2d_13">
    <path d="M 57.11108 27.417559 
L 68.036954 27.417559 
L 68.036954 28.614609 
L 96.132059 28.614609 
L 96.132059 30.021143 
L 107.057933 30.021143 
L 107.057933 31.542757 
L 129.690101 31.542757 
L 129.690101 33.345539 
L 143.737653 33.345539 
L 143.737653 35.422161 
L 161.687303 35.422161 
L 161.687303 37.839721 
L 164.808982 37.839721 
L 164.808982 40.413253 
L 167.15024 40.413253 
L 167.15024 45.734794 
L 198.367024 45.734794 
L 198.367024 49.433913 
L 260.02017 49.433913 
L 260.02017 49.433913 
" clip-path="url(#p16282c07fb)" style="fill: none; stroke: #1f77b4; stroke-width: 1.5; stroke-linecap: square"/>
   </g>
   <g id="line2d_14">
    <path d="M 57.11108 27.417559 
L 69.597793 27.417559 
L 69.597793 28.500241 
L 70.378212 28.500241 
L 70.378212 29.589909 
L 75.06073 29.589909 
L 75.06073 30.686698 
L 75.841149 30.686698 
L 75.841149 31.783488 
L 77.401989 31.783488 
L 77.401989 32.880277 
L 79.743247 32.880277 
L 79.743247 33.984427 
L 80.523667 33.984427 
L 80.523667 35.088578 
L 81.304087 35.088578 
L 81.304087 36.200291 
L 82.864926 36.200291 
L 82.864926 37.312004 
L 83.645345 37.312004 
L 83.645345 38.431491 
L 84.425765 38.431491 
L 84.425765 40.670466 
L 92.229961 40.670466 
L 92.229961 41.822879 
L 96.132059 41.822879 
L 96.132059 43.001484 
L 96.912478 43.001484 
L 96.912478 45.358693 
L 99.253737 45.358693 
L 99.253737 46.555859 
L 100.814576 46.555859 
L 100.814576 47.762601 
L 106.277513 47.762601 
L 106.277513 48.999263 
L 108.618772 48.999263 
L 108.618772 50.256886 
L 112.52087 50.256886 
L 112.52087 52.884418 
L 117.203387 52.884418 
L 117.203387 55.746087 
L 118.764226 55.746087 
L 118.764226 57.206423 
L 119.544646 57.206423 
L 119.544646 58.682131 
L 120.325066 58.682131 
L 120.325066 60.157839 
L 123.446744 60.157839 
L 123.446744 61.717394 
L 125.007583 61.717394 
L 125.007583 64.872773 
L 133.592198 64.872773 
L 133.592198 66.616535 
L 136.713877 66.616535 
L 136.713877 68.383862 
L 138.274716 68.383862 
L 138.274716 71.967607 
L 139.835555 71.967607 
L 139.835555 73.812182 
L 142.176814 73.812182 
L 142.176814 75.656756 
L 143.737653 75.656756 
L 143.737653 77.558974 
L 148.42017 77.558974 
L 148.42017 83.55096 
L 149.20059 83.55096 
L 149.20059 85.548289 
L 156.224366 85.548289 
L 156.224366 87.785297 
L 164.028562 87.785297 
L 164.028562 90.168196 
L 172.613177 90.168196 
L 172.613177 92.661929 
L 180.417373 92.661929 
L 180.417373 95.155661 
L 196.806184 95.155661 
L 196.806184 97.846267 
L 206.171219 97.846267 
L 206.171219 100.77428 
L 213.975415 100.77428 
L 213.975415 103.995094 
L 223.34045 103.995094 
L 223.34045 107.454486 
L 229.583807 107.454486 
L 229.583807 111.052254 
L 233.485905 111.052254 
L 233.485905 114.650022 
L 260.02017 114.650022 
L 260.02017 114.650022 
" clip-path="url(#p16282c07fb)" style="fill: none; stroke: #ff7f0e; stroke-width: 1.5; stroke-linecap: square"/>
   </g>
   <g id="patch_3">
    <path d="M 46.965625 202.498125 
L 46.965625 22.318125 
" style="fill: none; stroke: #000000; stroke-width: 0.8; stroke-linejoin: miter; stroke-linecap: square"/>
   </g>
   <g id="patch_4">
    <path d="M 270.165625 202.498125 
L 270.165625 22.318125 
" style="fill: none; stroke: #000000; stroke-width: 0.8; stroke-linejoin: miter; stroke-linecap: square"/>
   </g>
   <g id="patch_5">
    <path d="M 46.965625 202.498125 
L 270.165625 202.498125 
" style="fill: none; stroke: #000000; stroke-width: 0.8; stroke-linejoin: miter; stroke-linecap: square"/>
   </g>
   <g id="patch_6">
    <path d="M 46.965625 22.318125 
L 270.165625 22.318125 
" style="fill: none; stroke: #000000; stroke-width: 0.8; stroke-linejoin: miter; stroke-linecap: square"/>
   </g>
   <g id="text_15">
    <g id="patch_7">
     <path d="M 128.565625 192.319187 
L 188.565625 192.319187 
Q 191.565625 192.319187 191.565625 189.319187 
L 191.565625 179.641062 
Q 191.565625 176.641062 188.565625 176.641062 
L 128.565625 176.641062 
Q 125.565625 176.641062 125.565625 179.641062 
L 125.565625 189.319187 
Q 125.565625 192.319187 128.565625 192.319187 
z
" style="fill: #ffffff; stroke: #808080; stroke-linejoin: miter"/>
    </g>
    <!-- $p =$ 4.8e-07 -->
    <g transform="translate(128.565625 187.219187) scale(0.1 -0.1)">
     <defs>
      <path id="DejaVuSans-Oblique-70" d="M 3175 2156 
Q 3175 2616 2975 2859 
Q 2775 3103 2400 3103 
Q 2144 3103 1911 2972 
Q 1678 2841 1497 2591 
Q 1319 2344 1212 1994 
Q 1106 1644 1106 1300 
Q 1106 863 1306 627 
Q 1506 391 1875 391 
Q 2147 391 2380 519 
Q 2613 647 2778 891 
Q 2956 1147 3065 1494 
Q 3175 1841 3175 2156 
z
M 1394 2969 
Q 1625 3272 1939 3428 
Q 2253 3584 2638 3584 
Q 3175 3584 3472 3232 
Q 3769 2881 3769 2247 
Q 3769 1728 3584 1258 
Q 3400 788 3053 416 
Q 2822 169 2531 39 
Q 2241 -91 1919 -91 
Q 1547 -91 1294 64 
Q 1041 219 916 525 
L 556 -1331 
L -19 -1331 
L 922 3500 
L 1497 3500 
L 1394 2969 
z
" transform="scale(0.015625)"/>
      <path id="DejaVuSans-3d" d="M 678 2906 
L 4684 2906 
L 4684 2381 
L 678 2381 
L 678 2906 
z
M 678 1631 
L 4684 1631 
L 4684 1100 
L 678 1100 
L 678 1631 
z
" transform="scale(0.015625)"/>
      <path id="DejaVuSans-2e" d="M 684 794 
L 1344 794 
L 1344 0 
L 684 0 
L 684 794 
z
" transform="scale(0.015625)"/>
      <path id="DejaVuSans-37" d="M 525 4666 
L 3525 4666 
L 3525 4397 
L 1831 0 
L 1172 0 
L 2766 4134 
L 525 4134 
L 525 4666 
z
" transform="scale(0.015625)"/>
     </defs>
     <use xlink:href="#DejaVuSans-Oblique-70" transform="translate(0 0.78125)"/>
     <use xlink:href="#DejaVuSans-3d" transform="translate(82.958984 0.78125)"/>
     <use xlink:href="#DejaVuSans-20" transform="translate(186.230469 0.78125)"/>
     <use xlink:href="#DejaVuSans-34" transform="translate(218.017578 0.78125)"/>
     <use xlink:href="#DejaVuSans-2e" transform="translate(281.640625 0.78125)"/>
     <use xlink:href="#DejaVuSans-38" transform="translate(310.802734 0.78125)"/>
     <use xlink:href="#DejaVuSans-65" transform="translate(374.425781 0.78125)"/>
     <use xlink:href="#DejaVuSans-2d" transform="translate(435.949219 0.78125)"/>
     <use xlink:href="#DejaVuSans-30" transform="translate(472.033203 0.78125)"/>
     <use xlink:href="#DejaVuSans-37" transform="translate(535.65625 0.78125)"/>
    </g>
   </g>
   <g id="text_16">
    <!-- Lower Grade Glioma -->
    <g transform="translate(97.308437 16.318125) scale(0.12 -0.12)">
     <defs>
      <path id="DejaVuSans-4c" d="M 628 4666 
L 1259 4666 
L 1259 531 
L 3531 531 
L 3531 0 
L 628 0 
L 628 4666 
z
" transform="scale(0.015625)"/>
      <path id="DejaVuSans-6f" d="M 1959 3097 
Q 1497 3097 1228 2736 
Q 959 2375 959 1747 
Q 959 1119 1226 758 
Q 1494 397 1959 397 
Q 2419 397 2687 759 
Q 2956 1122 2956 1747 
Q 2956 2369 2687 2733 
Q 2419 3097 1959 3097 
z
M 1959 3584 
Q 2709 3584 3137 3096 
Q 3566 2609 3566 1747 
Q 3566 888 3137 398 
Q 2709 -91 1959 -91 
Q 1206 -91 779 398 
Q 353 888 353 1747 
Q 353 2609 779 3096 
Q 1206 3584 1959 3584 
z
" transform="scale(0.015625)"/>
      <path id="DejaVuSans-77" d="M 269 3500 
L 844 3500 
L 1563 769 
L 2278 3500 
L 2956 3500 
L 3675 769 
L 4391 3500 
L 4966 3500 
L 4050 0 
L 3372 0 
L 2619 2869 
L 1863 0 
L 1184 0 
L 269 3500 
z
" transform="scale(0.015625)"/>
      <path id="DejaVuSans-47" d="M 3809 666 
L 3809 1919 
L 2778 1919 
L 2778 2438 
L 4434 2438 
L 4434 434 
Q 4069 175 3628 42 
Q 3188 -91 2688 -91 
Q 1594 -91 976 548 
Q 359 1188 359 2328 
Q 359 3472 976 4111 
Q 1594 4750 2688 4750 
Q 3144 4750 3555 4637 
Q 3966 4525 4313 4306 
L 4313 3634 
Q 3963 3931 3569 4081 
Q 3175 4231 2741 4231 
Q 1884 4231 1454 3753 
Q 1025 3275 1025 2328 
Q 1025 1384 1454 906 
Q 1884 428 2741 428 
Q 3075 428 3337 486 
Q 3600 544 3809 666 
z
" transform="scale(0.015625)"/>
      <path id="DejaVuSans-64" d="M 2906 2969 
L 2906 4863 
L 3481 4863 
L 3481 0 
L 2906 0 
L 2906 525 
Q 2725 213 2448 61 
Q 2172 -91 1784 -91 
Q 1150 -91 751 415 
Q 353 922 353 1747 
Q 353 2572 751 3078 
Q 1150 3584 1784 3584 
Q 2172 3584 2448 3432 
Q 2725 3281 2906 2969 
z
M 947 1747 
Q 947 1113 1208 752 
Q 1469 391 1925 391 
Q 2381 391 2643 752 
Q 2906 1113 2906 1747 
Q 2906 2381 2643 2742 
Q 2381 3103 1925 3103 
Q 1469 3103 1208 2742 
Q 947 2381 947 1747 
z
" transform="scale(0.015625)"/>
      <path id="DejaVuSans-6d" d="M 3328 2828 
Q 3544 3216 3844 3400 
Q 4144 3584 4550 3584 
Q 5097 3584 5394 3201 
Q 5691 2819 5691 2113 
L 5691 0 
L 5113 0 
L 5113 2094 
Q 5113 2597 4934 2840 
Q 4756 3084 4391 3084 
Q 3944 3084 3684 2787 
Q 3425 2491 3425 1978 
L 3425 0 
L 2847 0 
L 2847 2094 
Q 2847 2600 2669 2842 
Q 2491 3084 2119 3084 
Q 1678 3084 1418 2786 
Q 1159 2488 1159 1978 
L 1159 0 
L 581 0 
L 581 3500 
L 1159 3500 
L 1159 2956 
Q 1356 3278 1631 3431 
Q 1906 3584 2284 3584 
Q 2666 3584 2933 3390 
Q 3200 3197 3328 2828 
z
" transform="scale(0.015625)"/>
     </defs>
     <use xlink:href="#DejaVuSans-4c"/>
     <use xlink:href="#DejaVuSans-6f" transform="translate(53.962891 0)"/>
     <use xlink:href="#DejaVuSans-77" transform="translate(115.144531 0)"/>
     <use xlink:href="#DejaVuSans-65" transform="translate(196.931641 0)"/>
     <use xlink:href="#DejaVuSans-72" transform="translate(258.455078 0)"/>
     <use xlink:href="#DejaVuSans-20" transform="translate(299.568359 0)"/>
     <use xlink:href="#DejaVuSans-47" transform="translate(331.355469 0)"/>
     <use xlink:href="#DejaVuSans-72" transform="translate(408.845703 0)"/>
     <use xlink:href="#DejaVuSans-61" transform="translate(449.958984 0)"/>
     <use xlink:href="#DejaVuSans-64" transform="translate(511.238281 0)"/>
     <use xlink:href="#DejaVuSans-65" transform="translate(574.714844 0)"/>
     <use xlink:href="#DejaVuSans-20" transform="translate(636.238281 0)"/>
     <use xlink:href="#DejaVuSans-47" transform="translate(668.025391 0)"/>
     <use xlink:href="#DejaVuSans-6c" transform="translate(745.515625 0)"/>
     <use xlink:href="#DejaVuSans-69" transform="translate(773.298828 0)"/>
     <use xlink:href="#DejaVuSans-6f" transform="translate(801.082031 0)"/>
     <use xlink:href="#DejaVuSans-6d" transform="translate(862.263672 0)"/>
     <use xlink:href="#DejaVuSans-61" transform="translate(959.675781 0)"/>
    </g>
   </g>
   <g id="legend_1">
    <g id="text_17">
     <!-- Pfn1 -->
     <g transform="translate(293.532812 92.970562) scale(0.1 -0.1)">
      <defs>
       <path id="DejaVuSans-Oblique-50" d="M 1081 4666 
L 2541 4666 
Q 3178 4666 3512 4369 
Q 3847 4072 3847 3500 
Q 3847 2731 3353 2303 
Q 2859 1875 1966 1875 
L 1172 1875 
L 806 0 
L 172 0 
L 1081 4666 
z
M 1613 4147 
L 1275 2394 
L 2069 2394 
Q 2606 2394 2893 2669 
Q 3181 2944 3181 3456 
Q 3181 3784 2986 3965 
Q 2791 4147 2438 4147 
L 1613 4147 
z
" transform="scale(0.015625)"/>
       <path id="DejaVuSans-Oblique-66" d="M 3059 4863 
L 2969 4384 
L 2419 4384 
Q 2106 4384 1964 4261 
Q 1822 4138 1753 3809 
L 1691 3500 
L 2638 3500 
L 2553 3053 
L 1606 3053 
L 1013 0 
L 434 0 
L 1031 3053 
L 481 3053 
L 563 3500 
L 1113 3500 
L 1159 3744 
Q 1278 4363 1576 4613 
Q 1875 4863 2516 4863 
L 3059 4863 
z
" transform="scale(0.015625)"/>
       <path id="DejaVuSans-Oblique-6e" d="M 3566 2113 
L 3156 0 
L 2578 0 
L 2988 2091 
Q 3016 2238 3031 2350 
Q 3047 2463 3047 2528 
Q 3047 2791 2881 2937 
Q 2716 3084 2419 3084 
Q 1956 3084 1622 2776 
Q 1288 2469 1184 1941 
L 800 0 
L 225 0 
L 903 3500 
L 1478 3500 
L 1363 2950 
Q 1603 3253 1940 3418 
Q 2278 3584 2650 3584 
Q 3113 3584 3367 3334 
Q 3622 3084 3622 2631 
Q 3622 2519 3608 2391 
Q 3594 2263 3566 2113 
z
" transform="scale(0.015625)"/>
       <path id="DejaVuSans-Oblique-31" d="M 416 531 
L 1447 531 
L 2144 4122 
L 978 3897 
L 1088 4441 
L 2247 4666 
L 2881 4666 
L 2075 531 
L 3103 531 
L 3003 0 
L 313 0 
L 416 531 
z
" transform="scale(0.015625)"/>
      </defs>
      <use xlink:href="#DejaVuSans-Oblique-50"/>
      <use xlink:href="#DejaVuSans-Oblique-66" transform="translate(60.302734 0)"/>
      <use xlink:href="#DejaVuSans-Oblique-6e" transform="translate(95.507812 0)"/>
      <use xlink:href="#DejaVuSans-Oblique-31" transform="translate(158.886719 0)"/>
     </g>
    </g>
    <g id="line2d_15">
     <path d="M 279.165625 104.148687 
L 289.165625 104.148687 
L 289.165625 104.148687 
L 299.165625 104.148687 
L 299.165625 104.148687 
" style="fill: none; stroke: #1f77b4; stroke-width: 1.5; stroke-linecap: square"/>
    </g>
    <g id="text_18">
     <!-- Low -->
     <g transform="translate(307.165625 107.648687) scale(0.1 -0.1)">
      <use xlink:href="#DejaVuSans-4c"/>
      <use xlink:href="#DejaVuSans-6f" transform="translate(53.962891 0)"/>
      <use xlink:href="#DejaVuSans-77" transform="translate(115.144531 0)"/>
     </g>
    </g>
    <g id="line2d_16">
     <path d="M 279.165625 118.826812 
L 289.165625 118.826812 
L 289.165625 118.826812 
L 299.165625 118.826812 
L 299.165625 118.826812 
" style="fill: none; stroke: #ff7f0e; stroke-width: 1.5; stroke-linecap: square"/>
    </g>
    <g id="text_19">
     <!-- High -->
     <g transform="translate(307.165625 122.326812) scale(0.1 -0.1)">
      <defs>
       <path id="DejaVuSans-48" d="M 628 4666 
L 1259 4666 
L 1259 2753 
L 3553 2753 
L 3553 4666 
L 4184 4666 
L 4184 0 
L 3553 0 
L 3553 2222 
L 1259 2222 
L 1259 0 
L 628 0 
L 628 4666 
z
" transform="scale(0.015625)"/>
       <path id="DejaVuSans-67" d="M 2906 1791 
Q 2906 2416 2648 2759 
Q 2391 3103 1925 3103 
Q 1463 3103 1205 2759 
Q 947 2416 947 1791 
Q 947 1169 1205 825 
Q 1463 481 1925 481 
Q 2391 481 2648 825 
Q 2906 1169 2906 1791 
z
M 3481 434 
Q 3481 -459 3084 -895 
Q 2688 -1331 1869 -1331 
Q 1566 -1331 1297 -1286 
Q 1028 -1241 775 -1147 
L 775 -588 
Q 1028 -725 1275 -790 
Q 1522 -856 1778 -856 
Q 2344 -856 2625 -561 
Q 2906 -266 2906 331 
L 2906 616 
Q 2728 306 2450 153 
Q 2172 0 1784 0 
Q 1141 0 747 490 
Q 353 981 353 1791 
Q 353 2603 747 3093 
Q 1141 3584 1784 3584 
Q 2172 3584 2450 3431 
Q 2728 3278 2906 2969 
L 2906 3500 
L 3481 3500 
L 3481 434 
z
" transform="scale(0.015625)"/>
       <path id="DejaVuSans-68" d="M 3513 2113 
L 3513 0 
L 2938 0 
L 2938 2094 
Q 2938 2591 2744 2837 
Q 2550 3084 2163 3084 
Q 1697 3084 1428 2787 
Q 1159 2491 1159 1978 
L 1159 0 
L 581 0 
L 581 4863 
L 1159 4863 
L 1159 2956 
Q 1366 3272 1645 3428 
Q 1925 3584 2291 3584 
Q 2894 3584 3203 3211 
Q 3513 2838 3513 2113 
z
" transform="scale(0.015625)"/>
      </defs>
      <use xlink:href="#DejaVuSans-48"/>
      <use xlink:href="#DejaVuSans-69" transform="translate(75.195312 0)"/>
      <use xlink:href="#DejaVuSans-67" transform="translate(102.978516 0)"/>
      <use xlink:href="#DejaVuSans-68" transform="translate(166.455078 0)"/>
     </g>
    </g>
   </g>
  </g>
 </g>
 <defs>
  <clipPath id="p16282c07fb">
   <rect x="46.965625" y="22.318125" width="223.2" height="180.18"/>
  </clipPath>
 </defs>
</svg>
