<?xml version="1.0" encoding="utf-8" standalone="no"?>
<!DOCTYPE svg PUBLIC "-//W3C//DTD SVG 1.1//EN"
  "http://www.w3.org/Graphics/SVG/1.1/DTD/svg11.dtd">
<svg xmlns:xlink="http://www.w3.org/1999/xlink" width="341.35pt" height="240.054375pt" viewBox="0 0 341.35 240.054375" xmlns="http://www.w3.org/2000/svg" version="1.1">
 <metadata>
  <rdf:RDF xmlns:dc="http://purl.org/dc/elements/1.1/" xmlns:cc="http://creativecommons.org/ns#" xmlns:rdf="http://www.w3.org/1999/02/22-rdf-syntax-ns#">
   <cc:Work>
    <dc:type rdf:resource="http://purl.org/dc/dcmitype/StillImage"/>
    <dc:date>2025-10-10T18:41:53.180377</dc:date>
    <dc:format>image/svg+xml</dc:format>
    <dc:creator>
     <cc:Agent>
      <dc:title>Matplotlib v3.10.6, https://matplotlib.org/</dc:title>
     </cc:Agent>
    </dc:creator>
   </cc:Work>
  </rdf:RDF>
 </metadata>
 <defs>
  <style type="text/css">*{stroke-linejoin: round; stroke-linecap: butt}</style>
 </defs>
 <g id="figure_1">
  <g id="patch_1">
   <path d="M 0 240.054375 
L 341.35 240.054375 
L 341.35 0 
L 0 0 
z
" style="fill: #ffffff"/>
  </g>
  <g id="axes_1">
   <g id="patch_2">
    <path d="M 46.965625 202.498125 
L 270.165625 202.498125 
L 270.165625 22.318125 
L 46.965625 22.318125 
z
" style="fill: #ffffff"/>
   </g>
   <g id="FillBetweenPolyCollection_1">
    <defs>
     <path id="m949420ef96" d="M 57.11108 -212.636816 
L 57.11108 -212.636816 
L 57.891499 -212.636816 
L 57.891499 -212.636816 
L 58.671919 -212.636816 
L 58.671919 -212.636816 
L 59.452338 -212.636816 
L 59.452338 -212.636816 
L 60.232758 -212.636816 
L 60.232758 -212.636816 
L 61.013177 -212.636816 
L 61.013177 -212.636816 
L 61.793597 -212.636816 
L 61.793597 -212.636816 
L 62.574017 -212.636816 
L 62.574017 -212.636816 
L 63.354436 -212.636816 
L 63.354436 -212.636816 
L 64.134856 -212.636816 
L 64.134856 -212.636816 
L 64.915275 -212.636816 
L 64.915275 -212.636816 
L 65.695695 -212.636816 
L 65.695695 -212.636816 
L 66.476115 -212.636816 
L 66.476115 -212.636816 
L 67.256534 -212.636816 
L 67.256534 -212.636816 
L 68.036954 -212.636816 
L 68.036954 -204.487647 
L 68.817373 -204.487647 
L 68.817373 -204.487647 
L 69.597793 -204.487647 
L 69.597793 -204.487647 
L 70.378212 -204.487647 
L 70.378212 -204.487647 
L 71.158632 -204.487647 
L 71.158632 -204.487647 
L 71.939052 -204.487647 
L 71.939052 -204.487647 
L 72.719471 -204.487647 
L 72.719471 -204.487647 
L 73.499891 -204.487647 
L 73.499891 -204.487647 
L 74.28031 -204.487647 
L 74.28031 -204.487647 
L 75.06073 -204.487647 
L 75.06073 -204.487647 
L 75.841149 -204.487647 
L 75.841149 -204.487647 
L 76.621569 -204.487647 
L 76.621569 -204.487647 
L 77.401989 -204.487647 
L 77.401989 -204.487647 
L 78.182408 -204.487647 
L 78.182408 -204.487647 
L 78.962828 -204.487647 
L 78.962828 -204.487647 
L 79.743247 -204.487647 
L 79.743247 -204.487647 
L 80.523667 -204.487647 
L 80.523667 -204.487647 
L 81.304087 -204.487647 
L 81.304087 -204.487647 
L 82.084506 -204.487647 
L 82.084506 -204.487647 
L 82.864926 -204.487647 
L 82.864926 -204.487647 
L 83.645345 -204.487647 
L 83.645345 -204.487647 
L 84.425765 -204.487647 
L 84.425765 -204.487647 
L 85.206184 -204.487647 
L 85.206184 -204.487647 
L 85.986604 -204.487647 
L 85.986604 -204.487647 
L 86.767024 -204.487647 
L 86.767024 -204.487647 
L 87.547443 -204.487647 
L 87.547443 -204.487647 
L 88.327863 -204.487647 
L 88.327863 -204.487647 
L 89.108282 -204.487647 
L 89.108282 -204.487647 
L 89.888702 -204.487647 
L 89.888702 -204.487647 
L 90.669122 -204.487647 
L 90.669122 -204.487647 
L 91.449541 -204.487647 
L 91.449541 -204.487647 
L 92.229961 -204.487647 
L 92.229961 -204.487647 
L 93.01038 -204.487647 
L 93.01038 -204.487647 
L 93.7908 -204.487647 
L 93.7908 -204.487647 
L 94.571219 -204.487647 
L 94.571219 -204.487647 
L 95.351639 -204.487647 
L 95.351639 -204.487647 
L 96.132059 -204.487647 
L 96.132059 -202.642569 
L 96.912478 -202.642569 
L 96.912478 -202.642569 
L 97.692898 -202.642569 
L 97.692898 -202.642569 
L 98.473317 -202.642569 
L 98.473317 -202.642569 
L 99.253737 -202.642569 
L 99.253737 -202.642569 
L 100.034156 -202.642569 
L 100.034156 -202.642569 
L 100.814576 -202.642569 
L 100.814576 -202.642569 
L 101.594996 -202.642569 
L 101.594996 -202.642569 
L 102.375415 -202.642569 
L 102.375415 -202.642569 
L 103.155835 -202.642569 
L 103.155835 -202.642569 
L 103.936254 -202.642569 
L 103.936254 -202.642569 
L 104.716674 -202.642569 
L 104.716674 -202.642569 
L 105.497094 -202.642569 
L 105.497094 -202.642569 
L 106.277513 -202.642569 
L 106.277513 -202.642569 
L 107.057933 -202.642569 
L 107.057933 -200.391707 
L 107.838352 -200.391707 
L 107.838352 -200.391707 
L 108.618772 -200.391707 
L 108.618772 -200.391707 
L 109.399191 -200.391707 
L 109.399191 -200.391707 
L 110.179611 -200.391707 
L 110.179611 -200.391707 
L 110.960031 -200.391707 
L 110.960031 -200.391707 
L 111.74045 -200.391707 
L 111.74045 -200.391707 
L 112.52087 -200.391707 
L 112.52087 -200.391707 
L 113.301289 -200.391707 
L 113.301289 -200.391707 
L 114.081709 -200.391707 
L 114.081709 -200.391707 
L 114.862128 -200.391707 
L 114.862128 -200.391707 
L 115.642548 -200.391707 
L 115.642548 -200.391707 
L 116.422968 -200.391707 
L 116.422968 -198.053795 
L 117.203387 -198.053795 
L 117.203387 -198.053795 
L 117.983807 -198.053795 
L 117.983807 -198.053795 
L 118.764226 -198.053795 
L 118.764226 -198.053795 
L 119.544646 -198.053795 
L 119.544646 -198.053795 
L 120.325066 -198.053795 
L 120.325066 -198.053795 
L 121.105485 -198.053795 
L 121.105485 -198.053795 
L 121.885905 -198.053795 
L 121.885905 -198.053795 
L 122.666324 -198.053795 
L 122.666324 -198.053795 
L 123.446744 -198.053795 
L 123.446744 -198.053795 
L 124.227163 -198.053795 
L 124.227163 -198.053795 
L 125.007583 -198.053795 
L 125.007583 -198.053795 
L 125.788003 -198.053795 
L 125.788003 -198.053795 
L 126.568422 -198.053795 
L 126.568422 -198.053795 
L 127.348842 -198.053795 
L 127.348842 -198.053795 
L 128.129261 -198.053795 
L 128.129261 -198.053795 
L 128.909681 -198.053795 
L 128.909681 -198.053795 
L 129.690101 -198.053795 
L 129.690101 -195.385497 
L 130.47052 -195.385497 
L 130.47052 -195.385497 
L 131.25094 -195.385497 
L 131.25094 -195.385497 
L 132.031359 -195.385497 
L 132.031359 -195.385497 
L 132.811779 -195.385497 
L 132.811779 -195.385497 
L 133.592198 -195.385497 
L 133.592198 -195.385497 
L 134.372618 -195.385497 
L 134.372618 -195.385497 
L 135.153038 -195.385497 
L 135.153038 -195.385497 
L 135.933457 -195.385497 
L 135.933457 -195.385497 
L 136.713877 -195.385497 
L 136.713877 -195.385497 
L 137.494296 -195.385497 
L 137.494296 -195.385497 
L 138.274716 -195.385497 
L 138.274716 -195.385497 
L 139.055135 -195.385497 
L 139.055135 -195.385497 
L 139.835555 -195.385497 
L 139.835555 -195.385497 
L 140.615975 -195.385497 
L 140.615975 -195.385497 
L 141.396394 -195.385497 
L 141.396394 -195.385497 
L 142.176814 -195.385497 
L 142.176814 -195.385497 
L 142.957233 -195.385497 
L 142.957233 -195.385497 
L 143.737653 -195.385497 
L 143.737653 -192.26126 
L 144.518073 -192.26126 
L 144.518073 -192.26126 
L 145.298492 -192.26126 
L 145.298492 -192.26126 
L 146.078912 -192.26126 
L 146.078912 -192.26126 
L 146.859331 -192.26126 
L 146.859331 -192.26126 
L 147.639751 -192.26126 
L 147.639751 -192.26126 
L 148.42017 -192.26126 
L 148.42017 -192.26126 
L 149.20059 -192.26126 
L 149.20059 -192.26126 
L 149.98101 -192.26126 
L 149.98101 -192.26126 
L 150.761429 -192.26126 
L 150.761429 -192.26126 
L 151.541849 -192.26126 
L 151.541849 -192.26126 
L 152.322268 -192.26126 
L 152.322268 -192.26126 
L 153.102688 -192.26126 
L 153.102688 -192.26126 
L 153.883108 -192.26126 
L 153.883108 -192.26126 
L 154.663527 -192.26126 
L 154.663527 -192.26126 
L 155.443947 -192.26126 
L 155.443947 -192.26126 
L 156.224366 -192.26126 
L 156.224366 -192.26126 
L 157.004786 -192.26126 
L 157.004786 -192.26126 
L 157.785205 -192.26126 
L 157.785205 -192.26126 
L 158.565625 -192.26126 
L 158.565625 -192.26126 
L 159.346045 -192.26126 
L 159.346045 -192.26126 
L 160.126464 -192.26126 
L 160.126464 -192.26126 
L 160.906884 -192.26126 
L 160.906884 -192.26126 
L 161.687303 -192.26126 
L 161.687303 -188.600883 
L 162.467723 -188.600883 
L 162.467723 -188.600883 
L 163.248142 -188.600883 
L 163.248142 -188.600883 
L 164.028562 -188.600883 
L 164.028562 -188.600883 
L 164.808982 -188.600883 
L 164.808982 -184.895654 
L 165.589401 -184.895654 
L 165.589401 -184.895654 
L 166.369821 -184.895654 
L 166.369821 -184.895654 
L 167.15024 -184.895654 
L 167.15024 -177.801079 
L 167.93066 -177.801079 
L 167.93066 -177.801079 
L 168.71108 -177.801079 
L 168.71108 -177.801079 
L 169.491499 -177.801079 
L 169.491499 -177.801079 
L 170.271919 -177.801079 
L 170.271919 -177.801079 
L 171.052338 -177.801079 
L 171.052338 -177.801079 
L 171.832758 -177.801079 
L 171.832758 -177.801079 
L 172.613177 -177.801079 
L 172.613177 -177.801079 
L 173.393597 -177.801079 
L 173.393597 -177.801079 
L 174.174017 -177.801079 
L 174.174017 -177.801079 
L 174.954436 -177.801079 
L 174.954436 -177.801079 
L 175.734856 -177.801079 
L 175.734856 -177.801079 
L 176.515275 -177.801079 
L 176.515275 -177.801079 
L 177.295695 -177.801079 
L 177.295695 -177.801079 
L 178.076115 -177.801079 
L 178.076115 -177.801079 
L 178.856534 -177.801079 
L 178.856534 -177.801079 
L 179.636954 -177.801079 
L 179.636954 -177.801079 
L 180.417373 -177.801079 
L 180.417373 -177.801079 
L 181.197793 -177.801079 
L 181.197793 -177.801079 
L 181.978212 -177.801079 
L 181.978212 -177.801079 
L 182.758632 -177.801079 
L 182.758632 -177.801079 
L 183.539052 -177.801079 
L 183.539052 -177.801079 
L 184.319471 -177.801079 
L 184.319471 -177.801079 
L 185.099891 -177.801079 
L 185.099891 -177.801079 
L 185.88031 -177.801079 
L 185.88031 -177.801079 
L 186.66073 -177.801079 
L 186.66073 -177.801079 
L 187.441149 -177.801079 
L 187.441149 -177.801079 
L 188.221569 -177.801079 
L 188.221569 -177.801079 
L 189.001989 -177.801079 
L 189.001989 -177.801079 
L 189.782408 -177.801079 
L 189.782408 -177.801079 
L 190.562828 -177.801079 
L 190.562828 -177.801079 
L 191.343247 -177.801079 
L 191.343247 -177.801079 
L 192.123667 -177.801079 
L 192.123667 -177.801079 
L 192.904087 -177.801079 
L 192.904087 -177.801079 
L 193.684506 -177.801079 
L 193.684506 -172.838087 
L 194.464926 -172.838087 
L 194.464926 -172.838087 
L 195.245345 -172.838087 
L 195.245345 -172.838087 
L 196.025765 -172.838087 
L 196.025765 -172.838087 
L 196.806184 -172.838087 
L 196.806184 -172.838087 
L 197.586604 -172.838087 
L 197.586604 -172.838087 
L 198.367024 -172.838087 
L 198.367024 -168.047131 
L 199.147443 -168.047131 
L 199.147443 -168.047131 
L 199.927863 -168.047131 
L 199.927863 -168.047131 
L 200.708282 -168.047131 
L 200.708282 -168.047131 
L 201.488702 -168.047131 
L 201.488702 -168.047131 
L 202.269122 -168.047131 
L 202.269122 -168.047131 
L 203.049541 -168.047131 
L 203.049541 -168.047131 
L 203.829961 -168.047131 
L 203.829961 -168.047131 
L 204.61038 -168.047131 
L 204.61038 -168.047131 
L 205.3908 -168.047131 
L 205.3908 -168.047131 
L 206.171219 -168.047131 
L 206.171219 -168.047131 
L 206.951639 -168.047131 
L 206.951639 -168.047131 
L 207.732059 -168.047131 
L 207.732059 -162.994751 
L 208.512478 -162.994751 
L 208.512478 -162.994751 
L 209.292898 -162.994751 
L 209.292898 -162.994751 
L 210.073317 -162.994751 
L 210.073317 -162.994751 
L 210.853737 -162.994751 
L 210.853737 -162.994751 
L 211.634156 -162.994751 
L 211.634156 -162.994751 
L 212.414576 -162.994751 
L 212.414576 -162.994751 
L 213.194996 -162.994751 
L 213.194996 -162.994751 
L 213.975415 -162.994751 
L 213.975415 -162.994751 
L 214.755835 -162.994751 
L 214.755835 -162.994751 
L 215.536254 -162.994751 
L 215.536254 -162.994751 
L 216.316674 -162.994751 
L 216.316674 -162.994751 
L 217.097094 -162.994751 
L 217.097094 -162.994751 
L 217.877513 -162.994751 
L 217.877513 -162.994751 
L 218.657933 -162.994751 
L 218.657933 -162.994751 
L 219.438352 -162.994751 
L 219.438352 -162.994751 
L 220.218772 -162.994751 
L 220.218772 -162.994751 
L 220.999191 -162.994751 
L 220.999191 -162.994751 
L 221.779611 -162.994751 
L 221.779611 -162.994751 
L 222.560031 -162.994751 
L 222.560031 -162.994751 
L 223.34045 -162.994751 
L 223.34045 -162.994751 
L 224.12087 -162.994751 
L 224.12087 -162.994751 
L 224.901289 -162.994751 
L 224.901289 -162.994751 
L 225.681709 -162.994751 
L 225.681709 -162.994751 
L 226.462128 -162.994751 
L 226.462128 -162.994751 
L 227.242548 -162.994751 
L 227.242548 -162.994751 
L 228.022968 -162.994751 
L 228.022968 -162.994751 
L 228.803387 -162.994751 
L 228.803387 -162.994751 
L 229.583807 -162.994751 
L 229.583807 -162.994751 
L 230.364226 -162.994751 
L 230.364226 -162.994751 
L 231.144646 -162.994751 
L 231.144646 -162.994751 
L 231.925066 -162.994751 
L 231.925066 -162.994751 
L 232.705485 -162.994751 
L 232.705485 -162.994751 
L 233.485905 -162.994751 
L 233.485905 -162.994751 
L 234.266324 -162.994751 
L 234.266324 -162.994751 
L 235.046744 -162.994751 
L 235.046744 -162.994751 
L 235.827163 -162.994751 
L 235.827163 -162.994751 
L 236.607583 -162.994751 
L 236.607583 -162.994751 
L 237.388003 -162.994751 
L 237.388003 -162.994751 
L 238.168422 -162.994751 
L 238.168422 -162.994751 
L 238.948842 -162.994751 
L 238.948842 -162.994751 
L 239.729261 -162.994751 
L 239.729261 -162.994751 
L 240.509681 -162.994751 
L 240.509681 -162.994751 
L 241.290101 -162.994751 
L 241.290101 -162.994751 
L 242.07052 -162.994751 
L 242.07052 -162.994751 
L 242.85094 -162.994751 
L 242.85094 -162.994751 
L 243.631359 -162.994751 
L 243.631359 -162.994751 
L 244.411779 -162.994751 
L 244.411779 -162.994751 
L 245.192198 -162.994751 
L 245.192198 -162.994751 
L 245.972618 -162.994751 
L 245.972618 -162.994751 
L 246.753038 -162.994751 
L 246.753038 -162.994751 
L 247.533457 -162.994751 
L 247.533457 -162.994751 
L 248.313877 -162.994751 
L 248.313877 -162.994751 
L 249.094296 -162.994751 
L 249.094296 -162.994751 
L 249.874716 -162.994751 
L 249.874716 -162.994751 
L 250.655135 -162.994751 
L 250.655135 -162.994751 
L 251.435555 -162.994751 
L 251.435555 -162.994751 
L 252.215975 -162.994751 
L 252.215975 -162.994751 
L 252.996394 -162.994751 
L 252.996394 -162.994751 
L 253.776814 -162.994751 
L 253.776814 -162.994751 
L 254.557233 -162.994751 
L 254.557233 -162.994751 
L 255.337653 -162.994751 
L 255.337653 -162.994751 
L 256.118073 -162.994751 
L 256.118073 -162.994751 
L 256.898492 -162.994751 
L 256.898492 -162.994751 
L 257.678912 -162.994751 
L 257.678912 -162.994751 
L 258.459331 -162.994751 
L 258.459331 -162.994751 
L 259.239751 -162.994751 
L 259.239751 -162.994751 
L 260.02017 -162.994751 
L 260.02017 -162.994751 
L 260.02017 -195.388987 
L 260.02017 -195.388987 
L 260.02017 -195.388987 
L 259.239751 -195.388987 
L 259.239751 -195.388987 
L 258.459331 -195.388987 
L 258.459331 -195.388987 
L 257.678912 -195.388987 
L 257.678912 -195.388987 
L 256.898492 -195.388987 
L 256.898492 -195.388987 
L 256.118073 -195.388987 
L 256.118073 -195.388987 
L 255.337653 -195.388987 
L 255.337653 -195.388987 
L 254.557233 -195.388987 
L 254.557233 -195.388987 
L 253.776814 -195.388987 
L 253.776814 -195.388987 
L 252.996394 -195.388987 
L 252.996394 -195.388987 
L 252.215975 -195.388987 
L 252.215975 -195.388987 
L 251.435555 -195.388987 
L 251.435555 -195.388987 
L 250.655135 -195.388987 
L 250.655135 -195.388987 
L 249.874716 -195.388987 
L 249.874716 -195.388987 
L 249.094296 -195.388987 
L 249.094296 -195.388987 
L 248.313877 -195.388987 
L 248.313877 -195.388987 
L 247.533457 -195.388987 
L 247.533457 -195.388987 
L 246.753038 -195.388987 
L 246.753038 -195.388987 
L 245.972618 -195.388987 
L 245.972618 -195.388987 
L 245.192198 -195.388987 
L 245.192198 -195.388987 
L 244.411779 -195.388987 
L 244.411779 -195.388987 
L 243.631359 -195.388987 
L 243.631359 -195.388987 
L 242.85094 -195.388987 
L 242.85094 -195.388987 
L 242.07052 -195.388987 
L 242.07052 -195.388987 
L 241.290101 -195.388987 
L 241.290101 -195.388987 
L 240.509681 -195.388987 
L 240.509681 -195.388987 
L 239.729261 -195.388987 
L 239.729261 -195.388987 
L 238.948842 -195.388987 
L 238.948842 -195.388987 
L 238.168422 -195.388987 
L 238.168422 -195.388987 
L 237.388003 -195.388987 
L 237.388003 -195.388987 
L 236.607583 -195.388987 
L 236.607583 -195.388987 
L 235.827163 -195.388987 
L 235.827163 -195.388987 
L 235.046744 -195.388987 
L 235.046744 -195.388987 
L 234.266324 -195.388987 
L 234.266324 -195.388987 
L 233.485905 -195.388987 
L 233.485905 -195.388987 
L 232.705485 -195.388987 
L 232.705485 -195.388987 
L 231.925066 -195.388987 
L 231.925066 -195.388987 
L 231.144646 -195.388987 
L 231.144646 -195.388987 
L 230.364226 -195.388987 
L 230.364226 -195.388987 
L 229.583807 -195.388987 
L 229.583807 -195.388987 
L 228.803387 -195.388987 
L 228.803387 -195.388987 
L 228.022968 -195.388987 
L 228.022968 -195.388987 
L 227.242548 -195.388987 
L 227.242548 -195.388987 
L 226.462128 -195.388987 
L 226.462128 -195.388987 
L 225.681709 -195.388987 
L 225.681709 -195.388987 
L 224.901289 -195.388987 
L 224.901289 -195.388987 
L 224.12087 -195.388987 
L 224.12087 -195.388987 
L 223.34045 -195.388987 
L 223.34045 -195.388987 
L 222.560031 -195.388987 
L 222.560031 -195.388987 
L 221.779611 -195.388987 
L 221.779611 -195.388987 
L 220.999191 -195.388987 
L 220.999191 -195.388987 
L 220.218772 -195.388987 
L 220.218772 -195.388987 
L 219.438352 -195.388987 
L 219.438352 -195.388987 
L 218.657933 -195.388987 
L 218.657933 -195.388987 
L 217.877513 -195.388987 
L 217.877513 -195.388987 
L 217.097094 -195.388987 
L 217.097094 -195.388987 
L 216.316674 -195.388987 
L 216.316674 -195.388987 
L 215.536254 -195.388987 
L 215.536254 -195.388987 
L 214.755835 -195.388987 
L 214.755835 -195.388987 
L 213.975415 -195.388987 
L 213.975415 -195.388987 
L 213.194996 -195.388987 
L 213.194996 -195.388987 
L 212.414576 -195.388987 
L 212.414576 -195.388987 
L 211.634156 -195.388987 
L 211.634156 -195.388987 
L 210.853737 -195.388987 
L 210.853737 -195.388987 
L 210.073317 -195.388987 
L 210.073317 -195.388987 
L 209.292898 -195.388987 
L 209.292898 -195.388987 
L 208.512478 -195.388987 
L 208.512478 -195.388987 
L 207.732059 -195.388987 
L 207.732059 -197.874608 
L 206.951639 -197.874608 
L 206.951639 -197.874608 
L 206.171219 -197.874608 
L 206.171219 -197.874608 
L 205.3908 -197.874608 
L 205.3908 -197.874608 
L 204.61038 -197.874608 
L 204.61038 -197.874608 
L 203.829961 -197.874608 
L 203.829961 -197.874608 
L 203.049541 -197.874608 
L 203.049541 -197.874608 
L 202.269122 -197.874608 
L 202.269122 -197.874608 
L 201.488702 -197.874608 
L 201.488702 -197.874608 
L 200.708282 -197.874608 
L 200.708282 -197.874608 
L 199.927863 -197.874608 
L 199.927863 -197.874608 
L 199.147443 -197.874608 
L 199.147443 -197.874608 
L 198.367024 -197.874608 
L 198.367024 -200.139347 
L 197.586604 -200.139347 
L 197.586604 -200.139347 
L 196.806184 -200.139347 
L 196.806184 -200.139347 
L 196.025765 -200.139347 
L 196.025765 -200.139347 
L 195.245345 -200.139347 
L 195.245345 -200.139347 
L 194.464926 -200.139347 
L 194.464926 -200.139347 
L 193.684506 -200.139347 
L 193.684506 -202.249618 
L 192.904087 -202.249618 
L 192.904087 -202.249618 
L 192.123667 -202.249618 
L 192.123667 -202.249618 
L 191.343247 -202.249618 
L 191.343247 -202.249618 
L 190.562828 -202.249618 
L 190.562828 -202.249618 
L 189.782408 -202.249618 
L 189.782408 -202.249618 
L 189.001989 -202.249618 
L 189.001989 -202.249618 
L 188.221569 -202.249618 
L 188.221569 -202.249618 
L 187.441149 -202.249618 
L 187.441149 -202.249618 
L 186.66073 -202.249618 
L 186.66073 -202.249618 
L 185.88031 -202.249618 
L 185.88031 -202.249618 
L 185.099891 -202.249618 
L 185.099891 -202.249618 
L 184.319471 -202.249618 
L 184.319471 -202.249618 
L 183.539052 -202.249618 
L 183.539052 -202.249618 
L 182.758632 -202.249618 
L 182.758632 -202.249618 
L 181.978212 -202.249618 
L 181.978212 -202.249618 
L 181.197793 -202.249618 
L 181.197793 -202.249618 
L 180.417373 -202.249618 
L 180.417373 -202.249618 
L 179.636954 -202.249618 
L 179.636954 -202.249618 
L 178.856534 -202.249618 
L 178.856534 -202.249618 
L 178.076115 -202.249618 
L 178.076115 -202.249618 
L 177.295695 -202.249618 
L 177.295695 -202.249618 
L 176.515275 -202.249618 
L 176.515275 -202.249618 
L 175.734856 -202.249618 
L 175.734856 -202.249618 
L 174.954436 -202.249618 
L 174.954436 -202.249618 
L 174.174017 -202.249618 
L 174.174017 -202.249618 
L 173.393597 -202.249618 
L 173.393597 -202.249618 
L 172.613177 -202.249618 
L 172.613177 -202.249618 
L 171.832758 -202.249618 
L 171.832758 -202.249618 
L 171.052338 -202.249618 
L 171.052338 -202.249618 
L 170.271919 -202.249618 
L 170.271919 -202.249618 
L 169.491499 -202.249618 
L 169.491499 -202.249618 
L 168.71108 -202.249618 
L 168.71108 -202.249618 
L 167.93066 -202.249618 
L 167.93066 -202.249618 
L 167.15024 -202.249618 
L 167.15024 -205.580295 
L 166.369821 -205.580295 
L 166.369821 -205.580295 
L 165.589401 -205.580295 
L 165.589401 -205.580295 
L 164.808982 -205.580295 
L 164.808982 -207.082487 
L 164.028562 -207.082487 
L 164.028562 -207.082487 
L 163.248142 -207.082487 
L 163.248142 -207.082487 
L 162.467723 -207.082487 
L 162.467723 -207.082487 
L 161.687303 -207.082487 
L 161.687303 -208.429641 
L 160.906884 -208.429641 
L 160.906884 -208.429641 
L 160.126464 -208.429641 
L 160.126464 -208.429641 
L 159.346045 -208.429641 
L 159.346045 -208.429641 
L 158.565625 -208.429641 
L 158.565625 -208.429641 
L 157.785205 -208.429641 
L 157.785205 -208.429641 
L 157.004786 -208.429641 
L 157.004786 -208.429641 
L 156.224366 -208.429641 
L 156.224366 -208.429641 
L 155.443947 -208.429641 
L 155.443947 -208.429641 
L 154.663527 -208.429641 
L 154.663527 -208.429641 
L 153.883108 -208.429641 
L 153.883108 -208.429641 
L 153.102688 -208.429641 
L 153.102688 -208.429641 
L 152.322268 -208.429641 
L 152.322268 -208.429641 
L 151.541849 -208.429641 
L 151.541849 -208.429641 
L 150.761429 -208.429641 
L 150.761429 -208.429641 
L 149.98101 -208.429641 
L 149.98101 -208.429641 
L 149.20059 -208.429641 
L 149.20059 -208.429641 
L 148.42017 -208.429641 
L 148.42017 -208.429641 
L 147.639751 -208.429641 
L 147.639751 -208.429641 
L 146.859331 -208.429641 
L 146.859331 -208.429641 
L 146.078912 -208.429641 
L 146.078912 -208.429641 
L 145.298492 -208.429641 
L 145.298492 -208.429641 
L 144.518073 -208.429641 
L 144.518073 -208.429641 
L 143.737653 -208.429641 
L 143.737653 -209.569232 
L 142.957233 -209.569232 
L 142.957233 -209.569232 
L 142.176814 -209.569232 
L 142.176814 -209.569232 
L 141.396394 -209.569232 
L 141.396394 -209.569232 
L 140.615975 -209.569232 
L 140.615975 -209.569232 
L 139.835555 -209.569232 
L 139.835555 -209.569232 
L 139.055135 -209.569232 
L 139.055135 -209.569232 
L 138.274716 -209.569232 
L 138.274716 -209.569232 
L 137.494296 -209.569232 
L 137.494296 -209.569232 
L 136.713877 -209.569232 
L 136.713877 -209.569232 
L 135.933457 -209.569232 
L 135.933457 -209.569232 
L 135.153038 -209.569232 
L 135.153038 -209.569232 
L 134.372618 -209.569232 
L 134.372618 -209.569232 
L 133.592198 -209.569232 
L 133.592198 -209.569232 
L 132.811779 -209.569232 
L 132.811779 -209.569232 
L 132.031359 -209.569232 
L 132.031359 -209.569232 
L 131.25094 -209.569232 
L 131.25094 -209.569232 
L 130.47052 -209.569232 
L 130.47052 -209.569232 
L 129.690101 -209.569232 
L 129.690101 -210.529423 
L 128.909681 -210.529423 
L 128.909681 -210.529423 
L 128.129261 -210.529423 
L 128.129261 -210.529423 
L 127.348842 -210.529423 
L 127.348842 -210.529423 
L 126.568422 -210.529423 
L 126.568422 -210.529423 
L 125.788003 -210.529423 
L 125.788003 -210.529423 
L 125.007583 -210.529423 
L 125.007583 -210.529423 
L 124.227163 -210.529423 
L 124.227163 -210.529423 
L 123.446744 -210.529423 
L 123.446744 -210.529423 
L 122.666324 -210.529423 
L 122.666324 -210.529423 
L 121.885905 -210.529423 
L 121.885905 -210.529423 
L 121.105485 -210.529423 
L 121.105485 -210.529423 
L 120.325066 -210.529423 
L 120.325066 -210.529423 
L 119.544646 -210.529423 
L 119.544646 -210.529423 
L 118.764226 -210.529423 
L 118.764226 -210.529423 
L 117.983807 -210.529423 
L 117.983807 -210.529423 
L 117.203387 -210.529423 
L 117.203387 -210.529423 
L 116.422968 -210.529423 
L 116.422968 -211.335236 
L 115.642548 -211.335236 
L 115.642548 -211.335236 
L 114.862128 -211.335236 
L 114.862128 -211.335236 
L 114.081709 -211.335236 
L 114.081709 -211.335236 
L 113.301289 -211.335236 
L 113.301289 -211.335236 
L 112.52087 -211.335236 
L 112.52087 -211.335236 
L 111.74045 -211.335236 
L 111.74045 -211.335236 
L 110.960031 -211.335236 
L 110.960031 -211.335236 
L 110.179611 -211.335236 
L 110.179611 -211.335236 
L 109.399191 -211.335236 
L 109.399191 -211.335236 
L 108.618772 -211.335236 
L 108.618772 -211.335236 
L 107.838352 -211.335236 
L 107.838352 -211.335236 
L 107.057933 -211.335236 
L 107.057933 -211.999781 
L 106.277513 -211.999781 
L 106.277513 -211.999781 
L 105.497094 -211.999781 
L 105.497094 -211.999781 
L 104.716674 -211.999781 
L 104.716674 -211.999781 
L 103.936254 -211.999781 
L 103.936254 -211.999781 
L 103.155835 -211.999781 
L 103.155835 -211.999781 
L 102.375415 -211.999781 
L 102.375415 -211.999781 
L 101.594996 -211.999781 
L 101.594996 -211.999781 
L 100.814576 -211.999781 
L 100.814576 -211.999781 
L 100.034156 -211.999781 
L 100.034156 -211.999781 
L 99.253737 -211.999781 
L 99.253737 -211.999781 
L 98.473317 -211.999781 
L 98.473317 -211.999781 
L 97.692898 -211.999781 
L 97.692898 -211.999781 
L 96.912478 -211.999781 
L 96.912478 -211.999781 
L 96.132059 -211.999781 
L 96.132059 -212.471193 
L 95.351639 -212.471193 
L 95.351639 -212.471193 
L 94.571219 -212.471193 
L 94.571219 -212.471193 
L 93.7908 -212.471193 
L 93.7908 -212.471193 
L 93.01038 -212.471193 
L 93.01038 -212.471193 
L 92.229961 -212.471193 
L 92.229961 -212.471193 
L 91.449541 -212.471193 
L 91.449541 -212.471193 
L 90.669122 -212.471193 
L 90.669122 -212.471193 
L 89.888702 -212.471193 
L 89.888702 -212.471193 
L 89.108282 -212.471193 
L 89.108282 -212.471193 
L 88.327863 -212.471193 
L 88.327863 -212.471193 
L 87.547443 -212.471193 
L 87.547443 -212.471193 
L 86.767024 -212.471193 
L 86.767024 -212.471193 
L 85.986604 -212.471193 
L 85.986604 -212.471193 
L 85.206184 -212.471193 
L 85.206184 -212.471193 
L 84.425765 -212.471193 
L 84.425765 -212.471193 
L 83.645345 -212.471193 
L 83.645345 -212.471193 
L 82.864926 -212.471193 
L 82.864926 -212.471193 
L 82.084506 -212.471193 
L 82.084506 -212.471193 
L 81.304087 -212.471193 
L 81.304087 -212.471193 
L 80.523667 -212.471193 
L 80.523667 -212.471193 
L 79.743247 -212.471193 
L 79.743247 -212.471193 
L 78.962828 -212.471193 
L 78.962828 -212.471193 
L 78.182408 -212.471193 
L 78.182408 -212.471193 
L 77.401989 -212.471193 
L 77.401989 -212.471193 
L 76.621569 -212.471193 
L 76.621569 -212.471193 
L 75.841149 -212.471193 
L 75.841149 -212.471193 
L 75.06073 -212.471193 
L 75.06073 -212.471193 
L 74.28031 -212.471193 
L 74.28031 -212.471193 
L 73.499891 -212.471193 
L 73.499891 -212.471193 
L 72.719471 -212.471193 
L 72.719471 -212.471193 
L 71.939052 -212.471193 
L 71.939052 -212.471193 
L 71.158632 -212.471193 
L 71.158632 -212.471193 
L 70.378212 -212.471193 
L 70.378212 -212.471193 
L 69.597793 -212.471193 
L 69.597793 -212.471193 
L 68.817373 -212.471193 
L 68.817373 -212.471193 
L 68.036954 -212.471193 
L 68.036954 -212.636816 
L 67.256534 -212.636816 
L 67.256534 -212.636816 
L 66.476115 -212.636816 
L 66.476115 -212.636816 
L 65.695695 -212.636816 
L 65.695695 -212.636816 
L 64.915275 -212.636816 
L 64.915275 -212.636816 
L 64.134856 -212.636816 
L 64.134856 -212.636816 
L 63.354436 -212.636816 
L 63.354436 -212.636816 
L 62.574017 -212.636816 
L 62.574017 -212.636816 
L 61.793597 -212.636816 
L 61.793597 -212.636816 
L 61.013177 -212.636816 
L 61.013177 -212.636816 
L 60.232758 -212.636816 
L 60.232758 -212.636816 
L 59.452338 -212.636816 
L 59.452338 -212.636816 
L 58.671919 -212.636816 
L 58.671919 -212.636816 
L 57.891499 -212.636816 
L 57.891499 -212.636816 
L 57.11108 -212.636816 
z
" style="stroke: #1f77b4; stroke-opacity: 0.25"/>
    </defs>
    <g clip-path="url(#p01db361d70)">
     <use xlink:href="#m949420ef96" x="0" y="240.054375" style="fill: #1f77b4; fill-opacity: 0.25; stroke: #1f77b4; stroke-opacity: 0.25"/>
    </g>
   </g>
   <g id="FillBetweenPolyCollection_2">
    <defs>
     <path id="mb3f21b3fb8" d="M 57.11108 -212.636816 
L 57.11108 -212.636816 
L 57.891499 -212.636816 
L 57.891499 -212.636816 
L 58.671919 -212.636816 
L 58.671919 -212.636816 
L 59.452338 -212.636816 
L 59.452338 -212.636816 
L 60.232758 -212.636816 
L 60.232758 -212.636816 
L 61.013177 -212.636816 
L 61.013177 -212.636816 
L 61.793597 -212.636816 
L 61.793597 -212.636816 
L 62.574017 -212.636816 
L 62.574017 -212.636816 
L 63.354436 -212.636816 
L 63.354436 -212.636816 
L 64.134856 -212.636816 
L 64.134856 -212.636816 
L 64.915275 -212.636816 
L 64.915275 -212.636816 
L 65.695695 -212.636816 
L 65.695695 -212.636816 
L 66.476115 -212.636816 
L 66.476115 -212.636816 
L 67.256534 -212.636816 
L 67.256534 -212.636816 
L 68.036954 -212.636816 
L 68.036954 -212.636816 
L 68.817373 -212.636816 
L 68.817373 -212.636816 
L 69.597793 -212.636816 
L 69.597793 -205.237095 
L 70.378212 -205.237095 
L 70.378212 -204.272836 
L 71.158632 -204.272836 
L 71.158632 -204.272836 
L 71.939052 -204.272836 
L 71.939052 -204.272836 
L 72.719471 -204.272836 
L 72.719471 -204.272836 
L 73.499891 -204.272836 
L 73.499891 -204.272836 
L 74.28031 -204.272836 
L 74.28031 -204.272836 
L 75.06073 -204.272836 
L 75.06073 -202.887037 
L 75.841149 -202.887037 
L 75.841149 -201.461263 
L 76.621569 -201.461263 
L 76.621569 -201.461263 
L 77.401989 -201.461263 
L 77.401989 -200.043241 
L 78.182408 -200.043241 
L 78.182408 -200.043241 
L 78.962828 -200.043241 
L 78.962828 -200.043241 
L 79.743247 -200.043241 
L 79.743247 -198.627453 
L 80.523667 -198.627453 
L 80.523667 -197.232396 
L 81.304087 -197.232396 
L 81.304087 -195.842382 
L 82.084506 -195.842382 
L 82.084506 -195.842382 
L 82.864926 -195.842382 
L 82.864926 -194.470895 
L 83.645345 -194.470895 
L 83.645345 -193.102409 
L 84.425765 -193.102409 
L 84.425765 -190.410593 
L 85.206184 -190.410593 
L 85.206184 -190.410593 
L 85.986604 -190.410593 
L 85.986604 -190.410593 
L 86.767024 -190.410593 
L 86.767024 -190.410593 
L 87.547443 -190.410593 
L 87.547443 -190.410593 
L 88.327863 -190.410593 
L 88.327863 -190.410593 
L 89.108282 -190.410593 
L 89.108282 -190.410593 
L 89.888702 -190.410593 
L 89.888702 -190.410593 
L 90.669122 -190.410593 
L 90.669122 -190.410593 
L 91.449541 -190.410593 
L 91.449541 -190.410593 
L 92.229961 -190.410593 
L 92.229961 -189.031271 
L 93.01038 -189.031271 
L 93.01038 -189.031271 
L 93.7908 -189.031271 
L 93.7908 -189.031271 
L 94.571219 -189.031271 
L 94.571219 -189.031271 
L 95.351639 -189.031271 
L 95.351639 -189.031271 
L 96.132059 -189.031271 
L 96.132059 -187.624258 
L 96.912478 -187.624258 
L 96.912478 -184.852014 
L 97.692898 -184.852014 
L 97.692898 -184.852014 
L 98.473317 -184.852014 
L 98.473317 -184.852014 
L 99.253737 -184.852014 
L 99.253737 -182.057445 
L 100.034156 -182.057445 
L 100.034156 -182.057445 
L 100.814576 -182.057445 
L 100.814576 -180.670039 
L 101.594996 -180.670039 
L 101.594996 -180.670039 
L 102.375415 -180.670039 
L 102.375415 -180.670039 
L 103.155835 -180.670039 
L 103.155835 -180.670039 
L 103.936254 -180.670039 
L 103.936254 -180.670039 
L 104.716674 -180.670039 
L 104.716674 -180.670039 
L 105.497094 -180.670039 
L 105.497094 -180.670039 
L 106.277513 -180.670039 
L 106.277513 -179.248981 
L 107.057933 -179.248981 
L 107.057933 -179.248981 
L 107.838352 -179.248981 
L 107.838352 -179.248981 
L 108.618772 -179.248981 
L 108.618772 -177.808196 
L 109.399191 -177.808196 
L 109.399191 -177.808196 
L 110.179611 -177.808196 
L 110.179611 -177.808196 
L 110.960031 -177.808196 
L 110.960031 -177.808196 
L 111.74045 -177.808196 
L 111.74045 -177.808196 
L 112.52087 -177.808196 
L 112.52087 -174.797717 
L 113.301289 -174.797717 
L 113.301289 -174.797717 
L 114.081709 -174.797717 
L 114.081709 -174.797717 
L 114.862128 -174.797717 
L 114.862128 -173.257543 
L 115.642548 -173.257543 
L 115.642548 -173.257543 
L 116.422968 -173.257543 
L 116.422968 -173.257543 
L 117.203387 -173.257543 
L 117.203387 -170.024077 
L 117.983807 -170.024077 
L 117.983807 -170.024077 
L 118.764226 -170.024077 
L 118.764226 -168.386254 
L 119.544646 -168.386254 
L 119.544646 -166.740391 
L 120.325066 -166.740391 
L 120.325066 -165.107484 
L 121.105485 -165.107484 
L 121.105485 -165.107484 
L 121.885905 -165.107484 
L 121.885905 -165.107484 
L 122.666324 -165.107484 
L 122.666324 -165.107484 
L 123.446744 -165.107484 
L 123.446744 -163.371557 
L 124.227163 -163.371557 
L 124.227163 -163.371557 
L 125.007583 -163.371557 
L 125.007583 -159.893035 
L 125.788003 -159.893035 
L 125.788003 -159.893035 
L 126.568422 -159.893035 
L 126.568422 -159.893035 
L 127.348842 -159.893035 
L 127.348842 -159.893035 
L 128.129261 -159.893035 
L 128.129261 -159.893035 
L 128.909681 -159.893035 
L 128.909681 -159.893035 
L 129.690101 -159.893035 
L 129.690101 -159.893035 
L 130.47052 -159.893035 
L 130.47052 -159.893035 
L 131.25094 -159.893035 
L 131.25094 -159.893035 
L 132.031359 -159.893035 
L 132.031359 -159.893035 
L 132.811779 -159.893035 
L 132.811779 -159.893035 
L 133.592198 -159.893035 
L 133.592198 -157.94749 
L 134.372618 -157.94749 
L 134.372618 -157.94749 
L 135.153038 -157.94749 
L 135.153038 -157.94749 
L 135.933457 -157.94749 
L 135.933457 -157.94749 
L 136.713877 -157.94749 
L 136.713877 -155.988693 
L 137.494296 -155.988693 
L 137.494296 -155.988693 
L 138.274716 -155.988693 
L 138.274716 -152.06011 
L 139.055135 -152.06011 
L 139.055135 -152.06011 
L 139.835555 -152.06011 
L 139.835555 -150.051883 
L 140.615975 -150.051883 
L 140.615975 -150.051883 
L 141.396394 -150.051883 
L 141.396394 -150.051883 
L 142.176814 -150.051883 
L 142.176814 -148.061759 
L 142.957233 -148.061759 
L 142.957233 -148.061759 
L 143.737653 -148.061759 
L 143.737653 -146.012952 
L 144.518073 -146.012952 
L 144.518073 -146.012952 
L 145.298492 -146.012952 
L 145.298492 -146.012952 
L 146.078912 -146.012952 
L 146.078912 -146.012952 
L 146.859331 -146.012952 
L 146.859331 -146.012952 
L 147.639751 -146.012952 
L 147.639751 -146.012952 
L 148.42017 -146.012952 
L 148.42017 -139.607937 
L 149.20059 -139.607937 
L 149.20059 -137.511454 
L 149.98101 -137.511454 
L 149.98101 -137.511454 
L 150.761429 -137.511454 
L 150.761429 -137.511454 
L 151.541849 -137.511454 
L 151.541849 -137.511454 
L 152.322268 -137.511454 
L 152.322268 -137.511454 
L 153.102688 -137.511454 
L 153.102688 -137.511454 
L 153.883108 -137.511454 
L 153.883108 -137.511454 
L 154.663527 -137.511454 
L 154.663527 -137.511454 
L 155.443947 -137.511454 
L 155.443947 -137.511454 
L 156.224366 -137.511454 
L 156.224366 -135.182565 
L 157.004786 -135.182565 
L 157.004786 -135.182565 
L 157.785205 -135.182565 
L 157.785205 -135.182565 
L 158.565625 -135.182565 
L 158.565625 -135.182565 
L 159.346045 -135.182565 
L 159.346045 -135.182565 
L 160.126464 -135.182565 
L 160.126464 -132.82079 
L 160.906884 -132.82079 
L 160.906884 -132.82079 
L 161.687303 -132.82079 
L 161.687303 -132.82079 
L 162.467723 -132.82079 
L 162.467723 -132.82079 
L 163.248142 -132.82079 
L 163.248142 -132.82079 
L 164.028562 -132.82079 
L 164.028562 -130.42349 
L 164.808982 -130.42349 
L 164.808982 -130.42349 
L 165.589401 -130.42349 
L 165.589401 -130.42349 
L 166.369821 -130.42349 
L 166.369821 -130.42349 
L 167.15024 -130.42349 
L 167.15024 -130.42349 
L 167.93066 -130.42349 
L 167.93066 -130.42349 
L 168.71108 -130.42349 
L 168.71108 -130.42349 
L 169.491499 -130.42349 
L 169.491499 -130.42349 
L 170.271919 -130.42349 
L 170.271919 -130.42349 
L 171.052338 -130.42349 
L 171.052338 -130.42349 
L 171.832758 -130.42349 
L 171.832758 -130.42349 
L 172.613177 -130.42349 
L 172.613177 -127.920507 
L 173.393597 -127.920507 
L 173.393597 -127.920507 
L 174.174017 -127.920507 
L 174.174017 -127.920507 
L 174.954436 -127.920507 
L 174.954436 -127.920507 
L 175.734856 -127.920507 
L 175.734856 -127.920507 
L 176.515275 -127.920507 
L 176.515275 -127.920507 
L 177.295695 -127.920507 
L 177.295695 -127.920507 
L 178.076115 -127.920507 
L 178.076115 -127.920507 
L 178.856534 -127.920507 
L 178.856534 -127.920507 
L 179.636954 -127.920507 
L 179.636954 -127.920507 
L 180.417373 -127.920507 
L 180.417373 -125.446426 
L 181.197793 -125.446426 
L 181.197793 -125.446426 
L 181.978212 -125.446426 
L 181.978212 -125.446426 
L 182.758632 -125.446426 
L 182.758632 -125.446426 
L 183.539052 -125.446426 
L 183.539052 -125.446426 
L 184.319471 -125.446426 
L 184.319471 -125.446426 
L 185.099891 -125.446426 
L 185.099891 -125.446426 
L 185.88031 -125.446426 
L 185.88031 -125.446426 
L 186.66073 -125.446426 
L 186.66073 -125.446426 
L 187.441149 -125.446426 
L 187.441149 -125.446426 
L 188.221569 -125.446426 
L 188.221569 -125.446426 
L 189.001989 -125.446426 
L 189.001989 -125.446426 
L 189.782408 -125.446426 
L 189.782408 -125.446426 
L 190.562828 -125.446426 
L 190.562828 -125.446426 
L 191.343247 -125.446426 
L 191.343247 -125.446426 
L 192.123667 -125.446426 
L 192.123667 -125.446426 
L 192.904087 -125.446426 
L 192.904087 -125.446426 
L 193.684506 -125.446426 
L 193.684506 -125.446426 
L 194.464926 -125.446426 
L 194.464926 -125.446426 
L 195.245345 -125.446426 
L 195.245345 -125.446426 
L 196.025765 -125.446426 
L 196.025765 -125.446426 
L 196.806184 -125.446426 
L 196.806184 -122.770312 
L 197.586604 -122.770312 
L 197.586604 -122.770312 
L 198.367024 -122.770312 
L 198.367024 -122.770312 
L 199.147443 -122.770312 
L 199.147443 -122.770312 
L 199.927863 -122.770312 
L 199.927863 -122.770312 
L 200.708282 -122.770312 
L 200.708282 -122.770312 
L 201.488702 -122.770312 
L 201.488702 -122.770312 
L 202.269122 -122.770312 
L 202.269122 -122.770312 
L 203.049541 -122.770312 
L 203.049541 -122.770312 
L 203.829961 -122.770312 
L 203.829961 -122.770312 
L 204.61038 -122.770312 
L 204.61038 -122.770312 
L 205.3908 -122.770312 
L 205.3908 -122.770312 
L 206.171219 -122.770312 
L 206.171219 -119.852299 
L 206.951639 -119.852299 
L 206.951639 -119.852299 
L 207.732059 -119.852299 
L 207.732059 -119.852299 
L 208.512478 -119.852299 
L 208.512478 -119.852299 
L 209.292898 -119.852299 
L 209.292898 -119.852299 
L 210.073317 -119.852299 
L 210.073317 -119.852299 
L 210.853737 -119.852299 
L 210.853737 -119.852299 
L 211.634156 -119.852299 
L 211.634156 -119.852299 
L 212.414576 -119.852299 
L 212.414576 -119.852299 
L 213.194996 -119.852299 
L 213.194996 -119.852299 
L 213.975415 -119.852299 
L 213.975415 -116.638792 
L 214.755835 -116.638792 
L 214.755835 -116.638792 
L 215.536254 -116.638792 
L 215.536254 -116.638792 
L 216.316674 -116.638792 
L 216.316674 -116.638792 
L 217.097094 -116.638792 
L 217.097094 -116.638792 
L 217.877513 -116.638792 
L 217.877513 -116.638792 
L 218.657933 -116.638792 
L 218.657933 -116.638792 
L 219.438352 -116.638792 
L 219.438352 -116.638792 
L 220.218772 -116.638792 
L 220.218772 -116.638792 
L 220.999191 -116.638792 
L 220.999191 -116.638792 
L 221.779611 -116.638792 
L 221.779611 -116.638792 
L 222.560031 -116.638792 
L 222.560031 -116.638792 
L 223.34045 -116.638792 
L 223.34045 -113.209999 
L 224.12087 -113.209999 
L 224.12087 -113.209999 
L 224.901289 -113.209999 
L 224.901289 -113.209999 
L 225.681709 -113.209999 
L 225.681709 -113.209999 
L 226.462128 -113.209999 
L 226.462128 -113.209999 
L 227.242548 -113.209999 
L 227.242548 -113.209999 
L 228.022968 -113.209999 
L 228.022968 -113.209999 
L 228.803387 -113.209999 
L 228.803387 -113.209999 
L 229.583807 -113.209999 
L 229.583807 -109.696246 
L 230.364226 -109.696246 
L 230.364226 -109.696246 
L 231.144646 -109.696246 
L 231.144646 -109.696246 
L 231.925066 -109.696246 
L 231.925066 -109.696246 
L 232.705485 -109.696246 
L 232.705485 -109.696246 
L 233.485905 -109.696246 
L 233.485905 -106.258772 
L 234.266324 -106.258772 
L 234.266324 -106.258772 
L 235.046744 -106.258772 
L 235.046744 -106.258772 
L 235.827163 -106.258772 
L 235.827163 -106.258772 
L 236.607583 -106.258772 
L 236.607583 -106.258772 
L 237.388003 -106.258772 
L 237.388003 -106.258772 
L 238.168422 -106.258772 
L 238.168422 -106.258772 
L 238.948842 -106.258772 
L 238.948842 -106.258772 
L 239.729261 -106.258772 
L 239.729261 -106.258772 
L 240.509681 -106.258772 
L 240.509681 -106.258772 
L 241.290101 -106.258772 
L 241.290101 -106.258772 
L 242.07052 -106.258772 
L 242.07052 -106.258772 
L 242.85094 -106.258772 
L 242.85094 -106.258772 
L 243.631359 -106.258772 
L 243.631359 -106.258772 
L 244.411779 -106.258772 
L 244.411779 -106.258772 
L 245.192198 -106.258772 
L 245.192198 -106.258772 
L 245.972618 -106.258772 
L 245.972618 -106.258772 
L 246.753038 -106.258772 
L 246.753038 -106.258772 
L 247.533457 -106.258772 
L 247.533457 -106.258772 
L 248.313877 -106.258772 
L 248.313877 -106.258772 
L 249.094296 -106.258772 
L 249.094296 -106.258772 
L 249.874716 -106.258772 
L 249.874716 -106.258772 
L 250.655135 -106.258772 
L 250.655135 -106.258772 
L 251.435555 -106.258772 
L 251.435555 -106.258772 
L 252.215975 -106.258772 
L 252.215975 -106.258772 
L 252.996394 -106.258772 
L 252.996394 -106.258772 
L 253.776814 -106.258772 
L 253.776814 -106.258772 
L 254.557233 -106.258772 
L 254.557233 -106.258772 
L 255.337653 -106.258772 
L 255.337653 -106.258772 
L 256.118073 -106.258772 
L 256.118073 -106.258772 
L 256.898492 -106.258772 
L 256.898492 -106.258772 
L 257.678912 -106.258772 
L 257.678912 -106.258772 
L 258.459331 -106.258772 
L 258.459331 -106.258772 
L 259.239751 -106.258772 
L 259.239751 -106.258772 
L 260.02017 -106.258772 
L 260.02017 -106.258772 
L 260.02017 -142.941081 
L 260.02017 -142.941081 
L 260.02017 -142.941081 
L 259.239751 -142.941081 
L 259.239751 -142.941081 
L 258.459331 -142.941081 
L 258.459331 -142.941081 
L 257.678912 -142.941081 
L 257.678912 -142.941081 
L 256.898492 -142.941081 
L 256.898492 -142.941081 
L 256.118073 -142.941081 
L 256.118073 -142.941081 
L 255.337653 -142.941081 
L 255.337653 -142.941081 
L 254.557233 -142.941081 
L 254.557233 -142.941081 
L 253.776814 -142.941081 
L 253.776814 -142.941081 
L 252.996394 -142.941081 
L 252.996394 -142.941081 
L 252.215975 -142.941081 
L 252.215975 -142.941081 
L 251.435555 -142.941081 
L 251.435555 -142.941081 
L 250.655135 -142.941081 
L 250.655135 -142.941081 
L 249.874716 -142.941081 
L 249.874716 -142.941081 
L 249.094296 -142.941081 
L 249.094296 -142.941081 
L 248.313877 -142.941081 
L 248.313877 -142.941081 
L 247.533457 -142.941081 
L 247.533457 -142.941081 
L 246.753038 -142.941081 
L 246.753038 -142.941081 
L 245.972618 -142.941081 
L 245.972618 -142.941081 
L 245.192198 -142.941081 
L 245.192198 -142.941081 
L 244.411779 -142.941081 
L 244.411779 -142.941081 
L 243.631359 -142.941081 
L 243.631359 -142.941081 
L 242.85094 -142.941081 
L 242.85094 -142.941081 
L 242.07052 -142.941081 
L 242.07052 -142.941081 
L 241.290101 -142.941081 
L 241.290101 -142.941081 
L 240.509681 -142.941081 
L 240.509681 -142.941081 
L 239.729261 -142.941081 
L 239.729261 -142.941081 
L 238.948842 -142.941081 
L 238.948842 -142.941081 
L 238.168422 -142.941081 
L 238.168422 -142.941081 
L 237.388003 -142.941081 
L 237.388003 -142.941081 
L 236.607583 -142.941081 
L 236.607583 -142.941081 
L 235.827163 -142.941081 
L 235.827163 -142.941081 
L 235.046744 -142.941081 
L 235.046744 -142.941081 
L 234.266324 -142.941081 
L 234.266324 -142.941081 
L 233.485905 -142.941081 
L 233.485905 -145.690465 
L 232.705485 -145.690465 
L 232.705485 -145.690465 
L 231.925066 -145.690465 
L 231.925066 -145.690465 
L 231.144646 -145.690465 
L 231.144646 -145.690465 
L 230.364226 -145.690465 
L 230.364226 -145.690465 
L 229.583807 -145.690465 
L 229.583807 -148.390223 
L 228.803387 -148.390223 
L 228.803387 -148.390223 
L 228.022968 -148.390223 
L 228.022968 -148.390223 
L 227.242548 -148.390223 
L 227.242548 -148.390223 
L 226.462128 -148.390223 
L 226.462128 -148.390223 
L 225.681709 -148.390223 
L 225.681709 -148.390223 
L 224.901289 -148.390223 
L 224.901289 -148.390223 
L 224.12087 -148.390223 
L 224.12087 -148.390223 
L 223.34045 -148.390223 
L 223.34045 -150.980076 
L 222.560031 -150.980076 
L 222.560031 -150.980076 
L 221.779611 -150.980076 
L 221.779611 -150.980076 
L 220.999191 -150.980076 
L 220.999191 -150.980076 
L 220.218772 -150.980076 
L 220.218772 -150.980076 
L 219.438352 -150.980076 
L 219.438352 -150.980076 
L 218.657933 -150.980076 
L 218.657933 -150.980076 
L 217.877513 -150.980076 
L 217.877513 -150.980076 
L 217.097094 -150.980076 
L 217.097094 -150.980076 
L 216.316674 -150.980076 
L 216.316674 -150.980076 
L 215.536254 -150.980076 
L 215.536254 -150.980076 
L 214.755835 -150.980076 
L 214.755835 -150.980076 
L 213.975415 -150.980076 
L 213.975415 -153.418781 
L 213.194996 -153.418781 
L 213.194996 -153.418781 
L 212.414576 -153.418781 
L 212.414576 -153.418781 
L 211.634156 -153.418781 
L 211.634156 -153.418781 
L 210.853737 -153.418781 
L 210.853737 -153.418781 
L 210.073317 -153.418781 
L 210.073317 -153.418781 
L 209.292898 -153.418781 
L 209.292898 -153.418781 
L 208.512478 -153.418781 
L 208.512478 -153.418781 
L 207.732059 -153.418781 
L 207.732059 -153.418781 
L 206.951639 -153.418781 
L 206.951639 -153.418781 
L 206.171219 -153.418781 
L 206.171219 -155.682667 
L 205.3908 -155.682667 
L 205.3908 -155.682667 
L 204.61038 -155.682667 
L 204.61038 -155.682667 
L 203.829961 -155.682667 
L 203.829961 -155.682667 
L 203.049541 -155.682667 
L 203.049541 -155.682667 
L 202.269122 -155.682667 
L 202.269122 -155.682667 
L 201.488702 -155.682667 
L 201.488702 -155.682667 
L 200.708282 -155.682667 
L 200.708282 -155.682667 
L 199.927863 -155.682667 
L 199.927863 -155.682667 
L 199.147443 -155.682667 
L 199.147443 -155.682667 
L 198.367024 -155.682667 
L 198.367024 -155.682667 
L 197.586604 -155.682667 
L 197.586604 -155.682667 
L 196.806184 -155.682667 
L 196.806184 -157.798745 
L 196.025765 -157.798745 
L 196.025765 -157.798745 
L 195.245345 -157.798745 
L 195.245345 -157.798745 
L 194.464926 -157.798745 
L 194.464926 -157.798745 
L 193.684506 -157.798745 
L 193.684506 -157.798745 
L 192.904087 -157.798745 
L 192.904087 -157.798745 
L 192.123667 -157.798745 
L 192.123667 -157.798745 
L 191.343247 -157.798745 
L 191.343247 -157.798745 
L 190.562828 -157.798745 
L 190.562828 -157.798745 
L 189.782408 -157.798745 
L 189.782408 -157.798745 
L 189.001989 -157.798745 
L 189.001989 -157.798745 
L 188.221569 -157.798745 
L 188.221569 -157.798745 
L 187.441149 -157.798745 
L 187.441149 -157.798745 
L 186.66073 -157.798745 
L 186.66073 -157.798745 
L 185.88031 -157.798745 
L 185.88031 -157.798745 
L 185.099891 -157.798745 
L 185.099891 -157.798745 
L 184.319471 -157.798745 
L 184.319471 -157.798745 
L 183.539052 -157.798745 
L 183.539052 -157.798745 
L 182.758632 -157.798745 
L 182.758632 -157.798745 
L 181.978212 -157.798745 
L 181.978212 -157.798745 
L 181.197793 -157.798745 
L 181.197793 -157.798745 
L 180.417373 -157.798745 
L 180.417373 -159.787927 
L 179.636954 -159.787927 
L 179.636954 -159.787927 
L 178.856534 -159.787927 
L 178.856534 -159.787927 
L 178.076115 -159.787927 
L 178.076115 -159.787927 
L 177.295695 -159.787927 
L 177.295695 -159.787927 
L 176.515275 -159.787927 
L 176.515275 -159.787927 
L 175.734856 -159.787927 
L 175.734856 -159.787927 
L 174.954436 -159.787927 
L 174.954436 -159.787927 
L 174.174017 -159.787927 
L 174.174017 -159.787927 
L 173.393597 -159.787927 
L 173.393597 -159.787927 
L 172.613177 -159.787927 
L 172.613177 -161.757782 
L 171.832758 -161.757782 
L 171.832758 -161.757782 
L 171.052338 -161.757782 
L 171.052338 -161.757782 
L 170.271919 -161.757782 
L 170.271919 -161.757782 
L 169.491499 -161.757782 
L 169.491499 -161.757782 
L 168.71108 -161.757782 
L 168.71108 -161.757782 
L 167.93066 -161.757782 
L 167.93066 -161.757782 
L 167.15024 -161.757782 
L 167.15024 -161.757782 
L 166.369821 -161.757782 
L 166.369821 -161.757782 
L 165.589401 -161.757782 
L 165.589401 -161.757782 
L 164.808982 -161.757782 
L 164.808982 -161.757782 
L 164.028562 -161.757782 
L 164.028562 -163.64837 
L 163.248142 -163.64837 
L 163.248142 -163.64837 
L 162.467723 -163.64837 
L 162.467723 -163.64837 
L 161.687303 -163.64837 
L 161.687303 -163.64837 
L 160.906884 -163.64837 
L 160.906884 -163.64837 
L 160.126464 -163.64837 
L 160.126464 -165.493593 
L 159.346045 -165.493593 
L 159.346045 -165.493593 
L 158.565625 -165.493593 
L 158.565625 -165.493593 
L 157.785205 -165.493593 
L 157.785205 -165.493593 
L 157.004786 -165.493593 
L 157.004786 -165.493593 
L 156.224366 -165.493593 
L 156.224366 -167.29563 
L 155.443947 -167.29563 
L 155.443947 -167.29563 
L 154.663527 -167.29563 
L 154.663527 -167.29563 
L 153.883108 -167.29563 
L 153.883108 -167.29563 
L 153.102688 -167.29563 
L 153.102688 -167.29563 
L 152.322268 -167.29563 
L 152.322268 -167.29563 
L 151.541849 -167.29563 
L 151.541849 -167.29563 
L 150.761429 -167.29563 
L 150.761429 -167.29563 
L 149.98101 -167.29563 
L 149.98101 -167.29563 
L 149.20059 -167.29563 
L 149.20059 -168.964936 
L 148.42017 -168.964936 
L 148.42017 -173.894436 
L 147.639751 -173.894436 
L 147.639751 -173.894436 
L 146.859331 -173.894436 
L 146.859331 -173.894436 
L 146.078912 -173.894436 
L 146.078912 -173.894436 
L 145.298492 -173.894436 
L 145.298492 -173.894436 
L 144.518073 -173.894436 
L 144.518073 -173.894436 
L 143.737653 -173.894436 
L 143.737653 -175.453483 
L 142.957233 -175.453483 
L 142.957233 -175.453483 
L 142.176814 -175.453483 
L 142.176814 -176.965304 
L 141.396394 -176.965304 
L 141.396394 -176.965304 
L 140.615975 -176.965304 
L 140.615975 -176.965304 
L 139.835555 -176.965304 
L 139.835555 -178.465067 
L 139.055135 -178.465067 
L 139.055135 -178.465067 
L 138.274716 -178.465067 
L 138.274716 -181.364837 
L 137.494296 -181.364837 
L 137.494296 -181.364837 
L 136.713877 -181.364837 
L 136.713877 -182.781714 
L 135.933457 -182.781714 
L 135.933457 -182.781714 
L 135.153038 -182.781714 
L 135.153038 -182.781714 
L 134.372618 -182.781714 
L 134.372618 -182.781714 
L 133.592198 -182.781714 
L 133.592198 -184.172173 
L 132.811779 -184.172173 
L 132.811779 -184.172173 
L 132.031359 -184.172173 
L 132.031359 -184.172173 
L 131.25094 -184.172173 
L 131.25094 -184.172173 
L 130.47052 -184.172173 
L 130.47052 -184.172173 
L 129.690101 -184.172173 
L 129.690101 -184.172173 
L 128.909681 -184.172173 
L 128.909681 -184.172173 
L 128.129261 -184.172173 
L 128.129261 -184.172173 
L 127.348842 -184.172173 
L 127.348842 -184.172173 
L 126.568422 -184.172173 
L 126.568422 -184.172173 
L 125.788003 -184.172173 
L 125.788003 -184.172173 
L 125.007583 -184.172173 
L 125.007583 -186.721277 
L 124.227163 -186.721277 
L 124.227163 -186.721277 
L 123.446744 -186.721277 
L 123.446744 -187.969962 
L 122.666324 -187.969962 
L 122.666324 -187.969962 
L 121.885905 -187.969962 
L 121.885905 -187.969962 
L 121.105485 -187.969962 
L 121.105485 -187.969962 
L 120.325066 -187.969962 
L 120.325066 -189.157909 
L 119.544646 -189.157909 
L 119.544646 -190.336754 
L 118.764226 -190.336754 
L 118.764226 -191.496813 
L 117.983807 -191.496813 
L 117.983807 -191.496813 
L 117.203387 -191.496813 
L 117.203387 -193.752466 
L 116.422968 -193.752466 
L 116.422968 -193.752466 
L 115.642548 -193.752466 
L 115.642548 -193.752466 
L 114.862128 -193.752466 
L 114.862128 -194.825381 
L 114.081709 -194.825381 
L 114.081709 -194.825381 
L 113.301289 -194.825381 
L 113.301289 -194.825381 
L 112.52087 -194.825381 
L 112.52087 -196.898909 
L 111.74045 -196.898909 
L 111.74045 -196.898909 
L 110.960031 -196.898909 
L 110.960031 -196.898909 
L 110.179611 -196.898909 
L 110.179611 -196.898909 
L 109.399191 -196.898909 
L 109.399191 -196.898909 
L 108.618772 -196.898909 
L 108.618772 -197.887913 
L 107.838352 -197.887913 
L 107.838352 -197.887913 
L 107.057933 -197.887913 
L 107.057933 -197.887913 
L 106.277513 -197.887913 
L 106.277513 -198.855204 
L 105.497094 -198.855204 
L 105.497094 -198.855204 
L 104.716674 -198.855204 
L 104.716674 -198.855204 
L 103.936254 -198.855204 
L 103.936254 -198.855204 
L 103.155835 -198.855204 
L 103.155835 -198.855204 
L 102.375415 -198.855204 
L 102.375415 -198.855204 
L 101.594996 -198.855204 
L 101.594996 -198.855204 
L 100.814576 -198.855204 
L 100.814576 -199.79536 
L 100.034156 -199.79536 
L 100.034156 -199.79536 
L 99.253737 -199.79536 
L 99.253737 -201.641087 
L 98.473317 -201.641087 
L 98.473317 -201.641087 
L 97.692898 -201.641087 
L 97.692898 -201.641087 
L 96.912478 -201.641087 
L 96.912478 -203.417305 
L 96.132059 -203.417305 
L 96.132059 -204.28742 
L 95.351639 -204.28742 
L 95.351639 -204.28742 
L 94.571219 -204.28742 
L 94.571219 -204.28742 
L 93.7908 -204.28742 
L 93.7908 -204.28742 
L 93.01038 -204.28742 
L 93.01038 -204.28742 
L 92.229961 -204.28742 
L 92.229961 -205.129983 
L 91.449541 -205.129983 
L 91.449541 -205.129983 
L 90.669122 -205.129983 
L 90.669122 -205.129983 
L 89.888702 -205.129983 
L 89.888702 -205.129983 
L 89.108282 -205.129983 
L 89.108282 -205.129983 
L 88.327863 -205.129983 
L 88.327863 -205.129983 
L 87.547443 -205.129983 
L 87.547443 -205.129983 
L 86.767024 -205.129983 
L 86.767024 -205.129983 
L 85.986604 -205.129983 
L 85.986604 -205.129983 
L 85.206184 -205.129983 
L 85.206184 -205.129983 
L 84.425765 -205.129983 
L 84.425765 -206.737098 
L 83.645345 -206.737098 
L 83.645345 -207.516446 
L 82.864926 -207.516446 
L 82.864926 -208.272828 
L 82.084506 -208.272828 
L 82.084506 -208.272828 
L 81.304087 -208.272828 
L 81.304087 -209.007151 
L 80.523667 -209.007151 
L 80.523667 -209.712013 
L 79.743247 -209.712013 
L 79.743247 -210.385409 
L 78.962828 -210.385409 
L 78.962828 -210.385409 
L 78.182408 -210.385409 
L 78.182408 -210.385409 
L 77.401989 -210.385409 
L 77.401989 -211.016469 
L 76.621569 -211.016469 
L 76.621569 -211.016469 
L 75.841149 -211.016469 
L 75.841149 -211.595728 
L 75.06073 -211.595728 
L 75.06073 -212.101227 
L 74.28031 -212.101227 
L 74.28031 -212.101227 
L 73.499891 -212.101227 
L 73.499891 -212.101227 
L 72.719471 -212.101227 
L 72.719471 -212.101227 
L 71.939052 -212.101227 
L 71.939052 -212.101227 
L 71.158632 -212.101227 
L 71.158632 -212.101227 
L 70.378212 -212.101227 
L 70.378212 -212.486762 
L 69.597793 -212.486762 
L 69.597793 -212.636816 
L 68.817373 -212.636816 
L 68.817373 -212.636816 
L 68.036954 -212.636816 
L 68.036954 -212.636816 
L 67.256534 -212.636816 
L 67.256534 -212.636816 
L 66.476115 -212.636816 
L 66.476115 -212.636816 
L 65.695695 -212.636816 
L 65.695695 -212.636816 
L 64.915275 -212.636816 
L 64.915275 -212.636816 
L 64.134856 -212.636816 
L 64.134856 -212.636816 
L 63.354436 -212.636816 
L 63.354436 -212.636816 
L 62.574017 -212.636816 
L 62.574017 -212.636816 
L 61.793597 -212.636816 
L 61.793597 -212.636816 
L 61.013177 -212.636816 
L 61.013177 -212.636816 
L 60.232758 -212.636816 
L 60.232758 -212.636816 
L 59.452338 -212.636816 
L 59.452338 -212.636816 
L 58.671919 -212.636816 
L 58.671919 -212.636816 
L 57.891499 -212.636816 
L 57.891499 -212.636816 
L 57.11108 -212.636816 
z
" style="stroke: #ff7f0e; stroke-opacity: 0.25"/>
    </defs>
    <g clip-path="url(#p01db361d70)">
     <use xlink:href="#mb3f21b3fb8" x="0" y="240.054375" style="fill: #ff7f0e; fill-opacity: 0.25; stroke: #ff7f0e; stroke-opacity: 0.25"/>
    </g>
   </g>
   <g id="matplotlib.axis_1">
    <g id="xtick_1">
     <g id="line2d_1">
      <defs>
       <path id="mdb5a070c0b" d="M 0 0 
L 0 3.5 
" style="stroke: #000000; stroke-width: 0.8"/>
      </defs>
      <g>
       <use xlink:href="#mdb5a070c0b" x="57.11108" y="202.498125" style="stroke: #000000; stroke-width: 0.8"/>
      </g>
     </g>
     <g id="text_1">
      <!-- 0 -->
      <g transform="translate(53.92983 217.096562) scale(0.1 -0.1)">
       <defs>
        <path id="DejaVuSans-30" d="M 2034 4250 
Q 1547 4250 1301 3770 
Q 1056 3291 1056 2328 
Q 1056 1369 1301 889 
Q 1547 409 2034 409 
Q 2525 409 2770 889 
Q 3016 1369 3016 2328 
Q 3016 3291 2770 3770 
Q 2525 4250 2034 4250 
z
M 2034 4750 
Q 2819 4750 3233 4129 
Q 3647 3509 3647 2328 
Q 3647 1150 3233 529 
Q 2819 -91 2034 -91 
Q 1250 -91 836 529 
Q 422 1150 422 2328 
Q 422 3509 836 4129 
Q 1250 4750 2034 4750 
z
" transform="scale(0.015625)"/>
       </defs>
       <use xlink:href="#DejaVuSans-30"/>
      </g>
     </g>
    </g>
    <g id="xtick_2">
     <g id="line2d_2">
      <g>
       <use xlink:href="#mdb5a070c0b" x="97.804386" y="202.498125" style="stroke: #000000; stroke-width: 0.8"/>
      </g>
     </g>
     <g id="text_2">
      <!-- 1 -->
      <g transform="translate(94.623136 217.096562) scale(0.1 -0.1)">
       <defs>
        <path id="DejaVuSans-31" d="M 794 531 
L 1825 531 
L 1825 4091 
L 703 3866 
L 703 4441 
L 1819 4666 
L 2450 4666 
L 2450 531 
L 3481 531 
L 3481 0 
L 794 0 
L 794 531 
z
" transform="scale(0.015625)"/>
       </defs>
       <use xlink:href="#DejaVuSans-31"/>
      </g>
     </g>
    </g>
    <g id="xtick_3">
     <g id="line2d_3">
      <g>
       <use xlink:href="#mdb5a070c0b" x="138.497693" y="202.498125" style="stroke: #000000; stroke-width: 0.8"/>
      </g>
     </g>
     <g id="text_3">
      <!-- 2 -->
      <g transform="translate(135.316443 217.096562) scale(0.1 -0.1)">
       <defs>
        <path id="DejaVuSans-32" d="M 1228 531 
L 3431 531 
L 3431 0 
L 469 0 
L 469 531 
Q 828 903 1448 1529 
Q 2069 2156 2228 2338 
Q 2531 2678 2651 2914 
Q 2772 3150 2772 3378 
Q 2772 3750 2511 3984 
Q 2250 4219 1831 4219 
Q 1534 4219 1204 4116 
Q 875 4013 500 3803 
L 500 4441 
Q 881 4594 1212 4672 
Q 1544 4750 1819 4750 
Q 2544 4750 2975 4387 
Q 3406 4025 3406 3419 
Q 3406 3131 3298 2873 
Q 3191 2616 2906 2266 
Q 2828 2175 2409 1742 
Q 1991 1309 1228 531 
z
" transform="scale(0.015625)"/>
       </defs>
       <use xlink:href="#DejaVuSans-32"/>
      </g>
     </g>
    </g>
    <g id="xtick_4">
     <g id="line2d_4">
      <g>
       <use xlink:href="#mdb5a070c0b" x="179.191" y="202.498125" style="stroke: #000000; stroke-width: 0.8"/>
      </g>
     </g>
     <g id="text_4">
      <!-- 3 -->
      <g transform="translate(176.00975 217.096562) scale(0.1 -0.1)">
       <defs>
        <path id="DejaVuSans-33" d="M 2597 2516 
Q 3050 2419 3304 2112 
Q 3559 1806 3559 1356 
Q 3559 666 3084 287 
Q 2609 -91 1734 -91 
Q 1441 -91 1130 -33 
Q 819 25 488 141 
L 488 750 
Q 750 597 1062 519 
Q 1375 441 1716 441 
Q 2309 441 2620 675 
Q 2931 909 2931 1356 
Q 2931 1769 2642 2001 
Q 2353 2234 1838 2234 
L 1294 2234 
L 1294 2753 
L 1863 2753 
Q 2328 2753 2575 2939 
Q 2822 3125 2822 3475 
Q 2822 3834 2567 4026 
Q 2313 4219 1838 4219 
Q 1578 4219 1281 4162 
Q 984 4106 628 3988 
L 628 4550 
Q 988 4650 1302 4700 
Q 1616 4750 1894 4750 
Q 2613 4750 3031 4423 
Q 3450 4097 3450 3541 
Q 3450 3153 3228 2886 
Q 3006 2619 2597 2516 
z
" transform="scale(0.015625)"/>
       </defs>
       <use xlink:href="#DejaVuSans-33"/>
      </g>
     </g>
    </g>
    <g id="xtick_5">
     <g id="line2d_5">
      <g>
       <use xlink:href="#mdb5a070c0b" x="219.884306" y="202.498125" style="stroke: #000000; stroke-width: 0.8"/>
      </g>
     </g>
     <g id="text_5">
      <!-- 4 -->
      <g transform="translate(216.703056 217.096562) scale(0.1 -0.1)">
       <defs>
        <path id="DejaVuSans-34" d="M 2419 4116 
L 825 1625 
L 2419 1625 
L 2419 4116 
z
M 2253 4666 
L 3047 4666 
L 3047 1625 
L 3713 1625 
L 3713 1100 
L 3047 1100 
L 3047 0 
L 2419 0 
L 2419 1100 
L 313 1100 
L 313 1709 
L 2253 4666 
z
" transform="scale(0.015625)"/>
       </defs>
       <use xlink:href="#DejaVuSans-34"/>
      </g>
     </g>
    </g>
    <g id="xtick_6">
     <g id="line2d_6">
      <g>
       <use xlink:href="#mdb5a070c0b" x="260.577613" y="202.498125" style="stroke: #000000; stroke-width: 0.8"/>
      </g>
     </g>
     <g id="text_6">
      <!-- 5 -->
      <g transform="translate(257.396363 217.096562) scale(0.1 -0.1)">
       <defs>
        <path id="DejaVuSans-35" d="M 691 4666 
L 3169 4666 
L 3169 4134 
L 1269 4134 
L 1269 2991 
Q 1406 3038 1543 3061 
Q 1681 3084 1819 3084 
Q 2600 3084 3056 2656 
Q 3513 2228 3513 1497 
Q 3513 744 3044 326 
Q 2575 -91 1722 -91 
Q 1428 -91 1123 -41 
Q 819 9 494 109 
L 494 744 
Q 775 591 1075 516 
Q 1375 441 1709 441 
Q 2250 441 2565 725 
Q 2881 1009 2881 1497 
Q 2881 1984 2565 2268 
Q 2250 2553 1709 2553 
Q 1456 2553 1204 2497 
Q 953 2441 691 2322 
L 691 4666 
z
" transform="scale(0.015625)"/>
       </defs>
       <use xlink:href="#DejaVuSans-35"/>
      </g>
     </g>
    </g>
    <g id="text_7">
     <!-- Years -->
     <g transform="translate(145.373437 230.774687) scale(0.1 -0.1)">
      <defs>
       <path id="DejaVuSans-59" d="M -13 4666 
L 666 4666 
L 1959 2747 
L 3244 4666 
L 3922 4666 
L 2272 2222 
L 2272 0 
L 1638 0 
L 1638 2222 
L -13 4666 
z
" transform="scale(0.015625)"/>
       <path id="DejaVuSans-65" d="M 3597 1894 
L 3597 1613 
L 953 1613 
Q 991 1019 1311 708 
Q 1631 397 2203 397 
Q 2534 397 2845 478 
Q 3156 559 3463 722 
L 3463 178 
Q 3153 47 2828 -22 
Q 2503 -91 2169 -91 
Q 1331 -91 842 396 
Q 353 884 353 1716 
Q 353 2575 817 3079 
Q 1281 3584 2069 3584 
Q 2775 3584 3186 3129 
Q 3597 2675 3597 1894 
z
M 3022 2063 
Q 3016 2534 2758 2815 
Q 2500 3097 2075 3097 
Q 1594 3097 1305 2825 
Q 1016 2553 972 2059 
L 3022 2063 
z
" transform="scale(0.015625)"/>
       <path id="DejaVuSans-61" d="M 2194 1759 
Q 1497 1759 1228 1600 
Q 959 1441 959 1056 
Q 959 750 1161 570 
Q 1363 391 1709 391 
Q 2188 391 2477 730 
Q 2766 1069 2766 1631 
L 2766 1759 
L 2194 1759 
z
M 3341 1997 
L 3341 0 
L 2766 0 
L 2766 531 
Q 2569 213 2275 61 
Q 1981 -91 1556 -91 
Q 1019 -91 701 211 
Q 384 513 384 1019 
Q 384 1609 779 1909 
Q 1175 2209 1959 2209 
L 2766 2209 
L 2766 2266 
Q 2766 2663 2505 2880 
Q 2244 3097 1772 3097 
Q 1472 3097 1187 3025 
Q 903 2953 641 2809 
L 641 3341 
Q 956 3463 1253 3523 
Q 1550 3584 1831 3584 
Q 2591 3584 2966 3190 
Q 3341 2797 3341 1997 
z
" transform="scale(0.015625)"/>
       <path id="DejaVuSans-72" d="M 2631 2963 
Q 2534 3019 2420 3045 
Q 2306 3072 2169 3072 
Q 1681 3072 1420 2755 
Q 1159 2438 1159 1844 
L 1159 0 
L 581 0 
L 581 3500 
L 1159 3500 
L 1159 2956 
Q 1341 3275 1631 3429 
Q 1922 3584 2338 3584 
Q 2397 3584 2469 3576 
Q 2541 3569 2628 3553 
L 2631 2963 
z
" transform="scale(0.015625)"/>
       <path id="DejaVuSans-73" d="M 2834 3397 
L 2834 2853 
Q 2591 2978 2328 3040 
Q 2066 3103 1784 3103 
Q 1356 3103 1142 2972 
Q 928 2841 928 2578 
Q 928 2378 1081 2264 
Q 1234 2150 1697 2047 
L 1894 2003 
Q 2506 1872 2764 1633 
Q 3022 1394 3022 966 
Q 3022 478 2636 193 
Q 2250 -91 1575 -91 
Q 1294 -91 989 -36 
Q 684 19 347 128 
L 347 722 
Q 666 556 975 473 
Q 1284 391 1588 391 
Q 1994 391 2212 530 
Q 2431 669 2431 922 
Q 2431 1156 2273 1281 
Q 2116 1406 1581 1522 
L 1381 1569 
Q 847 1681 609 1914 
Q 372 2147 372 2553 
Q 372 3047 722 3315 
Q 1072 3584 1716 3584 
Q 2034 3584 2315 3537 
Q 2597 3491 2834 3397 
z
" transform="scale(0.015625)"/>
      </defs>
      <use xlink:href="#DejaVuSans-59"/>
      <use xlink:href="#DejaVuSans-65" transform="translate(47.833984 0)"/>
      <use xlink:href="#DejaVuSans-61" transform="translate(109.357422 0)"/>
      <use xlink:href="#DejaVuSans-72" transform="translate(170.636719 0)"/>
      <use xlink:href="#DejaVuSans-73" transform="translate(211.75 0)"/>
     </g>
    </g>
   </g>
   <g id="matplotlib.axis_2">
    <g id="ytick_1">
     <g id="line2d_7">
      <defs>
       <path id="m8d7be8ceb3" d="M 0 0 
L -3.5 0 
" style="stroke: #000000; stroke-width: 0.8"/>
      </defs>
      <g>
       <use xlink:href="#m8d7be8ceb3" x="46.965625" y="197.398691" style="stroke: #000000; stroke-width: 0.8"/>
      </g>
     </g>
     <g id="text_8">
      <!-- 0 -->
      <g transform="translate(33.603125 201.19791) scale(0.1 -0.1)">
       <use xlink:href="#DejaVuSans-30"/>
      </g>
     </g>
    </g>
    <g id="ytick_2">
     <g id="line2d_8">
      <g>
       <use xlink:href="#m8d7be8ceb3" x="46.965625" y="163.402465" style="stroke: #000000; stroke-width: 0.8"/>
      </g>
     </g>
     <g id="text_9">
      <!-- 20 -->
      <g transform="translate(27.240625 167.201683) scale(0.1 -0.1)">
       <use xlink:href="#DejaVuSans-32"/>
       <use xlink:href="#DejaVuSans-30" transform="translate(63.623047 0)"/>
      </g>
     </g>
    </g>
    <g id="ytick_3">
     <g id="line2d_9">
      <g>
       <use xlink:href="#m8d7be8ceb3" x="46.965625" y="129.406238" style="stroke: #000000; stroke-width: 0.8"/>
      </g>
     </g>
     <g id="text_10">
      <!-- 40 -->
      <g transform="translate(27.240625 133.205457) scale(0.1 -0.1)">
       <use xlink:href="#DejaVuSans-34"/>
       <use xlink:href="#DejaVuSans-30" transform="translate(63.623047 0)"/>
      </g>
     </g>
    </g>
    <g id="ytick_4">
     <g id="line2d_10">
      <g>
       <use xlink:href="#m8d7be8ceb3" x="46.965625" y="95.410012" style="stroke: #000000; stroke-width: 0.8"/>
      </g>
     </g>
     <g id="text_11">
      <!-- 60 -->
      <g transform="translate(27.240625 99.209231) scale(0.1 -0.1)">
       <defs>
        <path id="DejaVuSans-36" d="M 2113 2584 
Q 1688 2584 1439 2293 
Q 1191 2003 1191 1497 
Q 1191 994 1439 701 
Q 1688 409 2113 409 
Q 2538 409 2786 701 
Q 3034 994 3034 1497 
Q 3034 2003 2786 2293 
Q 2538 2584 2113 2584 
z
M 3366 4563 
L 3366 3988 
Q 3128 4100 2886 4159 
Q 2644 4219 2406 4219 
Q 1781 4219 1451 3797 
Q 1122 3375 1075 2522 
Q 1259 2794 1537 2939 
Q 1816 3084 2150 3084 
Q 2853 3084 3261 2657 
Q 3669 2231 3669 1497 
Q 3669 778 3244 343 
Q 2819 -91 2113 -91 
Q 1303 -91 875 529 
Q 447 1150 447 2328 
Q 447 3434 972 4092 
Q 1497 4750 2381 4750 
Q 2619 4750 2861 4703 
Q 3103 4656 3366 4563 
z
" transform="scale(0.015625)"/>
       </defs>
       <use xlink:href="#DejaVuSans-36"/>
       <use xlink:href="#DejaVuSans-30" transform="translate(63.623047 0)"/>
      </g>
     </g>
    </g>
    <g id="ytick_5">
     <g id="line2d_11">
      <g>
       <use xlink:href="#m8d7be8ceb3" x="46.965625" y="61.413785" style="stroke: #000000; stroke-width: 0.8"/>
      </g>
     </g>
     <g id="text_12">
      <!-- 80 -->
      <g transform="translate(27.240625 65.213004) scale(0.1 -0.1)">
       <defs>
        <path id="DejaVuSans-38" d="M 2034 2216 
Q 1584 2216 1326 1975 
Q 1069 1734 1069 1313 
Q 1069 891 1326 650 
Q 1584 409 2034 409 
Q 2484 409 2743 651 
Q 3003 894 3003 1313 
Q 3003 1734 2745 1975 
Q 2488 2216 2034 2216 
z
M 1403 2484 
Q 997 2584 770 2862 
Q 544 3141 544 3541 
Q 544 4100 942 4425 
Q 1341 4750 2034 4750 
Q 2731 4750 3128 4425 
Q 3525 4100 3525 3541 
Q 3525 3141 3298 2862 
Q 3072 2584 2669 2484 
Q 3125 2378 3379 2068 
Q 3634 1759 3634 1313 
Q 3634 634 3220 271 
Q 2806 -91 2034 -91 
Q 1263 -91 848 271 
Q 434 634 434 1313 
Q 434 1759 690 2068 
Q 947 2378 1403 2484 
z
M 1172 3481 
Q 1172 3119 1398 2916 
Q 1625 2713 2034 2713 
Q 2441 2713 2670 2916 
Q 2900 3119 2900 3481 
Q 2900 3844 2670 4047 
Q 2441 4250 2034 4250 
Q 1625 4250 1398 4047 
Q 1172 3844 1172 3481 
z
" transform="scale(0.015625)"/>
       </defs>
       <use xlink:href="#DejaVuSans-38"/>
       <use xlink:href="#DejaVuSans-30" transform="translate(63.623047 0)"/>
      </g>
     </g>
    </g>
    <g id="ytick_6">
     <g id="line2d_12">
      <g>
       <use xlink:href="#m8d7be8ceb3" x="46.965625" y="27.417559" style="stroke: #000000; stroke-width: 0.8"/>
      </g>
     </g>
     <g id="text_13">
      <!-- 100 -->
      <g transform="translate(20.878125 31.216778) scale(0.1 -0.1)">
       <use xlink:href="#DejaVuSans-31"/>
       <use xlink:href="#DejaVuSans-30" transform="translate(63.623047 0)"/>
       <use xlink:href="#DejaVuSans-30" transform="translate(127.246094 0)"/>
      </g>
     </g>
    </g>
    <g id="text_14">
     <!-- Overall Survival (%) -->
     <g transform="translate(14.798438 162.2675) rotate(-90) scale(0.1 -0.1)">
      <defs>
       <path id="DejaVuSans-4f" d="M 2522 4238 
Q 1834 4238 1429 3725 
Q 1025 3213 1025 2328 
Q 1025 1447 1429 934 
Q 1834 422 2522 422 
Q 3209 422 3611 934 
Q 4013 1447 4013 2328 
Q 4013 3213 3611 3725 
Q 3209 4238 2522 4238 
z
M 2522 4750 
Q 3503 4750 4090 4092 
Q 4678 3434 4678 2328 
Q 4678 1225 4090 567 
Q 3503 -91 2522 -91 
Q 1538 -91 948 565 
Q 359 1222 359 2328 
Q 359 3434 948 4092 
Q 1538 4750 2522 4750 
z
" transform="scale(0.015625)"/>
       <path id="DejaVuSans-76" d="M 191 3500 
L 800 3500 
L 1894 563 
L 2988 3500 
L 3597 3500 
L 2284 0 
L 1503 0 
L 191 3500 
z
" transform="scale(0.015625)"/>
       <path id="DejaVuSans-6c" d="M 603 4863 
L 1178 4863 
L 1178 0 
L 603 0 
L 603 4863 
z
" transform="scale(0.015625)"/>
       <path id="DejaVuSans-20" transform="scale(0.015625)"/>
       <path id="DejaVuSans-53" d="M 3425 4513 
L 3425 3897 
Q 3066 4069 2747 4153 
Q 2428 4238 2131 4238 
Q 1616 4238 1336 4038 
Q 1056 3838 1056 3469 
Q 1056 3159 1242 3001 
Q 1428 2844 1947 2747 
L 2328 2669 
Q 3034 2534 3370 2195 
Q 3706 1856 3706 1288 
Q 3706 609 3251 259 
Q 2797 -91 1919 -91 
Q 1588 -91 1214 -16 
Q 841 59 441 206 
L 441 856 
Q 825 641 1194 531 
Q 1563 422 1919 422 
Q 2459 422 2753 634 
Q 3047 847 3047 1241 
Q 3047 1584 2836 1778 
Q 2625 1972 2144 2069 
L 1759 2144 
Q 1053 2284 737 2584 
Q 422 2884 422 3419 
Q 422 4038 858 4394 
Q 1294 4750 2059 4750 
Q 2388 4750 2728 4690 
Q 3069 4631 3425 4513 
z
" transform="scale(0.015625)"/>
       <path id="DejaVuSans-75" d="M 544 1381 
L 544 3500 
L 1119 3500 
L 1119 1403 
Q 1119 906 1312 657 
Q 1506 409 1894 409 
Q 2359 409 2629 706 
Q 2900 1003 2900 1516 
L 2900 3500 
L 3475 3500 
L 3475 0 
L 2900 0 
L 2900 538 
Q 2691 219 2414 64 
Q 2138 -91 1772 -91 
Q 1169 -91 856 284 
Q 544 659 544 1381 
z
M 1991 3584 
L 1991 3584 
z
" transform="scale(0.015625)"/>
       <path id="DejaVuSans-69" d="M 603 3500 
L 1178 3500 
L 1178 0 
L 603 0 
L 603 3500 
z
M 603 4863 
L 1178 4863 
L 1178 4134 
L 603 4134 
L 603 4863 
z
" transform="scale(0.015625)"/>
       <path id="DejaVuSans-28" d="M 1984 4856 
Q 1566 4138 1362 3434 
Q 1159 2731 1159 2009 
Q 1159 1288 1364 580 
Q 1569 -128 1984 -844 
L 1484 -844 
Q 1016 -109 783 600 
Q 550 1309 550 2009 
Q 550 2706 781 3412 
Q 1013 4119 1484 4856 
L 1984 4856 
z
" transform="scale(0.015625)"/>
       <path id="DejaVuSans-25" d="M 4653 2053 
Q 4381 2053 4226 1822 
Q 4072 1591 4072 1178 
Q 4072 772 4226 539 
Q 4381 306 4653 306 
Q 4919 306 5073 539 
Q 5228 772 5228 1178 
Q 5228 1588 5073 1820 
Q 4919 2053 4653 2053 
z
M 4653 2450 
Q 5147 2450 5437 2106 
Q 5728 1763 5728 1178 
Q 5728 594 5436 251 
Q 5144 -91 4653 -91 
Q 4153 -91 3862 251 
Q 3572 594 3572 1178 
Q 3572 1766 3864 2108 
Q 4156 2450 4653 2450 
z
M 1428 4353 
Q 1159 4353 1004 4120 
Q 850 3888 850 3481 
Q 850 3069 1003 2837 
Q 1156 2606 1428 2606 
Q 1700 2606 1854 2837 
Q 2009 3069 2009 3481 
Q 2009 3884 1853 4118 
Q 1697 4353 1428 4353 
z
M 4250 4750 
L 4750 4750 
L 1831 -91 
L 1331 -91 
L 4250 4750 
z
M 1428 4750 
Q 1922 4750 2215 4408 
Q 2509 4066 2509 3481 
Q 2509 2891 2217 2550 
Q 1925 2209 1428 2209 
Q 931 2209 642 2551 
Q 353 2894 353 3481 
Q 353 4063 643 4406 
Q 934 4750 1428 4750 
z
" transform="scale(0.015625)"/>
       <path id="DejaVuSans-29" d="M 513 4856 
L 1013 4856 
Q 1481 4119 1714 3412 
Q 1947 2706 1947 2009 
Q 1947 1309 1714 600 
Q 1481 -109 1013 -844 
L 513 -844 
Q 928 -128 1133 580 
Q 1338 1288 1338 2009 
Q 1338 2731 1133 3434 
Q 928 4138 513 4856 
z
" transform="scale(0.015625)"/>
      </defs>
      <use xlink:href="#DejaVuSans-4f"/>
      <use xlink:href="#DejaVuSans-76" transform="translate(78.710938 0)"/>
      <use xlink:href="#DejaVuSans-65" transform="translate(137.890625 0)"/>
      <use xlink:href="#DejaVuSans-72" transform="translate(199.414062 0)"/>
      <use xlink:href="#DejaVuSans-61" transform="translate(240.527344 0)"/>
      <use xlink:href="#DejaVuSans-6c" transform="translate(301.806641 0)"/>
      <use xlink:href="#DejaVuSans-6c" transform="translate(329.589844 0)"/>
      <use xlink:href="#DejaVuSans-20" transform="translate(357.373047 0)"/>
      <use xlink:href="#DejaVuSans-53" transform="translate(389.160156 0)"/>
      <use xlink:href="#DejaVuSans-75" transform="translate(452.636719 0)"/>
      <use xlink:href="#DejaVuSans-72" transform="translate(516.015625 0)"/>
      <use xlink:href="#DejaVuSans-76" transform="translate(557.128906 0)"/>
      <use xlink:href="#DejaVuSans-69" transform="translate(616.308594 0)"/>
      <use xlink:href="#DejaVuSans-76" transform="translate(644.091797 0)"/>
      <use xlink:href="#DejaVuSans-61" transform="translate(703.271484 0)"/>
      <use xlink:href="#DejaVuSans-6c" transform="translate(764.550781 0)"/>
      <use xlink:href="#DejaVuSans-20" transform="translate(792.333984 0)"/>
      <use xlink:href="#DejaVuSans-28" transform="translate(824.121094 0)"/>
      <use xlink:href="#DejaVuSans-25" transform="translate(863.134766 0)"/>
      <use xlink:href="#DejaVuSans-29" transform="translate(958.154297 0)"/>
     </g>
    </g>
   </g>
   <g id="line2d_13">
    <path d="M 57.11108 27.417559 
L 68.036954 27.417559 
L 68.036954 28.589843 
L 96.132059 28.589843 
L 96.132059 29.962272 
L 107.057933 29.962272 
L 107.057933 31.444011 
L 116.422968 31.444011 
L 116.422968 33.009621 
L 129.690101 33.009621 
L 129.690101 34.758441 
L 143.737653 34.758441 
L 143.737653 36.766345 
L 161.687303 36.766345 
L 161.687303 39.09435 
L 164.808982 39.09435 
L 164.808982 41.567855 
L 167.15024 41.567855 
L 167.15024 46.677063 
L 193.684506 46.677063 
L 193.684506 50.026433 
L 198.367024 50.026433 
L 198.367024 53.453694 
L 207.732059 53.453694 
L 207.732059 57.144592 
L 260.02017 57.144592 
L 260.02017 57.144592 
" clip-path="url(#p01db361d70)" style="fill: none; stroke: #1f77b4; stroke-width: 1.5; stroke-linecap: square"/>
   </g>
   <g id="line2d_14">
    <path d="M 57.11108 27.417559 
L 69.597793 27.417559 
L 69.597793 28.479941 
L 70.378212 28.479941 
L 70.378212 29.549047 
L 75.06073 29.549047 
L 75.06073 30.625006 
L 75.841149 30.625006 
L 75.841149 31.700966 
L 77.401989 31.700966 
L 77.401989 32.776925 
L 79.743247 32.776925 
L 79.743247 33.859963 
L 80.523667 33.859963 
L 80.523667 34.943001 
L 81.304087 34.943001 
L 81.304087 36.033307 
L 82.864926 36.033307 
L 82.864926 37.123614 
L 83.645345 37.123614 
L 83.645345 38.221388 
L 84.425765 38.221388 
L 84.425765 40.416937 
L 92.229961 40.416937 
L 92.229961 41.546303 
L 96.132059 41.546303 
L 96.132059 42.700765 
L 96.912478 42.700765 
L 96.912478 45.009689 
L 99.253737 45.009689 
L 99.253737 47.363293 
L 100.814576 47.363293 
L 100.814576 48.544674 
L 106.277513 48.544674 
L 106.277513 49.75487 
L 108.618772 49.75487 
L 108.618772 50.985235 
L 112.52087 50.985235 
L 112.52087 53.553892 
L 114.862128 53.553892 
L 114.862128 54.873569 
L 117.203387 54.873569 
L 117.203387 57.641047 
L 118.764226 57.641047 
L 118.764226 59.05274 
L 119.544646 59.05274 
L 119.544646 60.478987 
L 120.325066 60.478987 
L 120.325066 61.905234 
L 123.446744 61.905234 
L 123.446744 63.410717 
L 125.007583 63.410717 
L 125.007583 66.455898 
L 133.592198 66.455898 
L 133.592198 68.134652 
L 136.713877 68.134652 
L 136.713877 69.835495 
L 138.274716 69.835495 
L 138.274716 73.283149 
L 139.835555 73.283149 
L 139.835555 75.056228 
L 142.176814 75.056228 
L 142.176814 76.829307 
L 143.737653 76.829307 
L 143.737653 78.656116 
L 148.42017 78.656116 
L 148.42017 84.401724 
L 149.20059 84.401724 
L 149.20059 86.316927 
L 156.224366 86.316927 
L 156.224366 88.412809 
L 160.126464 88.412809 
L 160.126464 90.549788 
L 164.028562 90.549788 
L 164.028562 92.730377 
L 172.613177 92.730377 
L 172.613177 95.005776 
L 180.417373 95.005776 
L 180.417373 97.281174 
L 196.806184 97.281174 
L 196.806184 99.723064 
L 206.171219 99.723064 
L 206.171219 102.362946 
L 213.975415 102.362946 
L 213.975415 105.242817 
L 223.34045 105.242817 
L 223.34045 108.31468 
L 229.583807 108.31468 
L 229.583807 111.496251 
L 233.485905 111.496251 
L 233.485905 114.677823 
L 260.02017 114.677823 
L 260.02017 114.677823 
" clip-path="url(#p01db361d70)" style="fill: none; stroke: #ff7f0e; stroke-width: 1.5; stroke-linecap: square"/>
   </g>
   <g id="patch_3">
    <path d="M 46.965625 202.498125 
L 46.965625 22.318125 
" style="fill: none; stroke: #000000; stroke-width: 0.8; stroke-linejoin: miter; stroke-linecap: square"/>
   </g>
   <g id="patch_4">
    <path d="M 270.165625 202.498125 
L 270.165625 22.318125 
" style="fill: none; stroke: #000000; stroke-width: 0.8; stroke-linejoin: miter; stroke-linecap: square"/>
   </g>
   <g id="patch_5">
    <path d="M 46.965625 202.498125 
L 270.165625 202.498125 
" style="fill: none; stroke: #000000; stroke-width: 0.8; stroke-linejoin: miter; stroke-linecap: square"/>
   </g>
   <g id="patch_6">
    <path d="M 46.965625 22.318125 
L 270.165625 22.318125 
" style="fill: none; stroke: #000000; stroke-width: 0.8; stroke-linejoin: miter; stroke-linecap: square"/>
   </g>
   <g id="text_15">
    <g id="patch_7">
     <path d="M 128.465625 192.319187 
L 188.665625 192.319187 
Q 191.665625 192.319187 191.665625 189.319187 
L 191.665625 179.641062 
Q 191.665625 176.641062 188.665625 176.641062 
L 128.465625 176.641062 
Q 125.465625 176.641062 125.465625 179.641062 
L 125.465625 189.319187 
Q 125.465625 192.319187 128.465625 192.319187 
z
" style="fill: #ffffff; stroke: #808080; stroke-linejoin: miter"/>
    </g>
    <!-- $p =$ 1.5e-06 -->
    <g transform="translate(128.465625 187.219187) scale(0.1 -0.1)">
     <defs>
      <path id="DejaVuSans-Oblique-70" d="M 3175 2156 
Q 3175 2616 2975 2859 
Q 2775 3103 2400 3103 
Q 2144 3103 1911 2972 
Q 1678 2841 1497 2591 
Q 1319 2344 1212 1994 
Q 1106 1644 1106 1300 
Q 1106 863 1306 627 
Q 1506 391 1875 391 
Q 2147 391 2380 519 
Q 2613 647 2778 891 
Q 2956 1147 3065 1494 
Q 3175 1841 3175 2156 
z
M 1394 2969 
Q 1625 3272 1939 3428 
Q 2253 3584 2638 3584 
Q 3175 3584 3472 3232 
Q 3769 2881 3769 2247 
Q 3769 1728 3584 1258 
Q 3400 788 3053 416 
Q 2822 169 2531 39 
Q 2241 -91 1919 -91 
Q 1547 -91 1294 64 
Q 1041 219 916 525 
L 556 -1331 
L -19 -1331 
L 922 3500 
L 1497 3500 
L 1394 2969 
z
" transform="scale(0.015625)"/>
      <path id="DejaVuSans-3d" d="M 678 2906 
L 4684 2906 
L 4684 2381 
L 678 2381 
L 678 2906 
z
M 678 1631 
L 4684 1631 
L 4684 1100 
L 678 1100 
L 678 1631 
z
" transform="scale(0.015625)"/>
      <path id="DejaVuSans-2e" d="M 684 794 
L 1344 794 
L 1344 0 
L 684 0 
L 684 794 
z
" transform="scale(0.015625)"/>
      <path id="DejaVuSans-2d" d="M 313 2009 
L 1997 2009 
L 1997 1497 
L 313 1497 
L 313 2009 
z
" transform="scale(0.015625)"/>
     </defs>
     <use xlink:href="#DejaVuSans-Oblique-70" transform="translate(0 0.78125)"/>
     <use xlink:href="#DejaVuSans-3d" transform="translate(82.958984 0.78125)"/>
     <use xlink:href="#DejaVuSans-20" transform="translate(186.230469 0.78125)"/>
     <use xlink:href="#DejaVuSans-31" transform="translate(218.017578 0.78125)"/>
     <use xlink:href="#DejaVuSans-2e" transform="translate(281.640625 0.78125)"/>
     <use xlink:href="#DejaVuSans-35" transform="translate(313.427734 0.78125)"/>
     <use xlink:href="#DejaVuSans-65" transform="translate(377.050781 0.78125)"/>
     <use xlink:href="#DejaVuSans-2d" transform="translate(438.574219 0.78125)"/>
     <use xlink:href="#DejaVuSans-30" transform="translate(474.658203 0.78125)"/>
     <use xlink:href="#DejaVuSans-36" transform="translate(538.28125 0.78125)"/>
    </g>
   </g>
   <g id="text_16">
    <!-- Lower Grade Glioma -->
    <g transform="translate(97.308437 16.318125) scale(0.12 -0.12)">
     <defs>
      <path id="DejaVuSans-4c" d="M 628 4666 
L 1259 4666 
L 1259 531 
L 3531 531 
L 3531 0 
L 628 0 
L 628 4666 
z
" transform="scale(0.015625)"/>
      <path id="DejaVuSans-6f" d="M 1959 3097 
Q 1497 3097 1228 2736 
Q 959 2375 959 1747 
Q 959 1119 1226 758 
Q 1494 397 1959 397 
Q 2419 397 2687 759 
Q 2956 1122 2956 1747 
Q 2956 2369 2687 2733 
Q 2419 3097 1959 3097 
z
M 1959 3584 
Q 2709 3584 3137 3096 
Q 3566 2609 3566 1747 
Q 3566 888 3137 398 
Q 2709 -91 1959 -91 
Q 1206 -91 779 398 
Q 353 888 353 1747 
Q 353 2609 779 3096 
Q 1206 3584 1959 3584 
z
" transform="scale(0.015625)"/>
      <path id="DejaVuSans-77" d="M 269 3500 
L 844 3500 
L 1563 769 
L 2278 3500 
L 2956 3500 
L 3675 769 
L 4391 3500 
L 4966 3500 
L 4050 0 
L 3372 0 
L 2619 2869 
L 1863 0 
L 1184 0 
L 269 3500 
z
" transform="scale(0.015625)"/>
      <path id="DejaVuSans-47" d="M 3809 666 
L 3809 1919 
L 2778 1919 
L 2778 2438 
L 4434 2438 
L 4434 434 
Q 4069 175 3628 42 
Q 3188 -91 2688 -91 
Q 1594 -91 976 548 
Q 359 1188 359 2328 
Q 359 3472 976 4111 
Q 1594 4750 2688 4750 
Q 3144 4750 3555 4637 
Q 3966 4525 4313 4306 
L 4313 3634 
Q 3963 3931 3569 4081 
Q 3175 4231 2741 4231 
Q 1884 4231 1454 3753 
Q 1025 3275 1025 2328 
Q 1025 1384 1454 906 
Q 1884 428 2741 428 
Q 3075 428 3337 486 
Q 3600 544 3809 666 
z
" transform="scale(0.015625)"/>
      <path id="DejaVuSans-64" d="M 2906 2969 
L 2906 4863 
L 3481 4863 
L 3481 0 
L 2906 0 
L 2906 525 
Q 2725 213 2448 61 
Q 2172 -91 1784 -91 
Q 1150 -91 751 415 
Q 353 922 353 1747 
Q 353 2572 751 3078 
Q 1150 3584 1784 3584 
Q 2172 3584 2448 3432 
Q 2725 3281 2906 2969 
z
M 947 1747 
Q 947 1113 1208 752 
Q 1469 391 1925 391 
Q 2381 391 2643 752 
Q 2906 1113 2906 1747 
Q 2906 2381 2643 2742 
Q 2381 3103 1925 3103 
Q 1469 3103 1208 2742 
Q 947 2381 947 1747 
z
" transform="scale(0.015625)"/>
      <path id="DejaVuSans-6d" d="M 3328 2828 
Q 3544 3216 3844 3400 
Q 4144 3584 4550 3584 
Q 5097 3584 5394 3201 
Q 5691 2819 5691 2113 
L 5691 0 
L 5113 0 
L 5113 2094 
Q 5113 2597 4934 2840 
Q 4756 3084 4391 3084 
Q 3944 3084 3684 2787 
Q 3425 2491 3425 1978 
L 3425 0 
L 2847 0 
L 2847 2094 
Q 2847 2600 2669 2842 
Q 2491 3084 2119 3084 
Q 1678 3084 1418 2786 
Q 1159 2488 1159 1978 
L 1159 0 
L 581 0 
L 581 3500 
L 1159 3500 
L 1159 2956 
Q 1356 3278 1631 3431 
Q 1906 3584 2284 3584 
Q 2666 3584 2933 3390 
Q 3200 3197 3328 2828 
z
" transform="scale(0.015625)"/>
     </defs>
     <use xlink:href="#DejaVuSans-4c"/>
     <use xlink:href="#DejaVuSans-6f" transform="translate(53.962891 0)"/>
     <use xlink:href="#DejaVuSans-77" transform="translate(115.144531 0)"/>
     <use xlink:href="#DejaVuSans-65" transform="translate(196.931641 0)"/>
     <use xlink:href="#DejaVuSans-72" transform="translate(258.455078 0)"/>
     <use xlink:href="#DejaVuSans-20" transform="translate(299.568359 0)"/>
     <use xlink:href="#DejaVuSans-47" transform="translate(331.355469 0)"/>
     <use xlink:href="#DejaVuSans-72" transform="translate(408.845703 0)"/>
     <use xlink:href="#DejaVuSans-61" transform="translate(449.958984 0)"/>
     <use xlink:href="#DejaVuSans-64" transform="translate(511.238281 0)"/>
     <use xlink:href="#DejaVuSans-65" transform="translate(574.714844 0)"/>
     <use xlink:href="#DejaVuSans-20" transform="translate(636.238281 0)"/>
     <use xlink:href="#DejaVuSans-47" transform="translate(668.025391 0)"/>
     <use xlink:href="#DejaVuSans-6c" transform="translate(745.515625 0)"/>
     <use xlink:href="#DejaVuSans-69" transform="translate(773.298828 0)"/>
     <use xlink:href="#DejaVuSans-6f" transform="translate(801.082031 0)"/>
     <use xlink:href="#DejaVuSans-6d" transform="translate(862.263672 0)"/>
     <use xlink:href="#DejaVuSans-61" transform="translate(959.675781 0)"/>
    </g>
   </g>
   <g id="legend_1">
    <g id="text_17">
     <!-- Pfn1 -->
     <g transform="translate(293.532812 92.970562) scale(0.1 -0.1)">
      <defs>
       <path id="DejaVuSans-Oblique-50" d="M 1081 4666 
L 2541 4666 
Q 3178 4666 3512 4369 
Q 3847 4072 3847 3500 
Q 3847 2731 3353 2303 
Q 2859 1875 1966 1875 
L 1172 1875 
L 806 0 
L 172 0 
L 1081 4666 
z
M 1613 4147 
L 1275 2394 
L 2069 2394 
Q 2606 2394 2893 2669 
Q 3181 2944 3181 3456 
Q 3181 3784 2986 3965 
Q 2791 4147 2438 4147 
L 1613 4147 
z
" transform="scale(0.015625)"/>
       <path id="DejaVuSans-Oblique-66" d="M 3059 4863 
L 2969 4384 
L 2419 4384 
Q 2106 4384 1964 4261 
Q 1822 4138 1753 3809 
L 1691 3500 
L 2638 3500 
L 2553 3053 
L 1606 3053 
L 1013 0 
L 434 0 
L 1031 3053 
L 481 3053 
L 563 3500 
L 1113 3500 
L 1159 3744 
Q 1278 4363 1576 4613 
Q 1875 4863 2516 4863 
L 3059 4863 
z
" transform="scale(0.015625)"/>
       <path id="DejaVuSans-Oblique-6e" d="M 3566 2113 
L 3156 0 
L 2578 0 
L 2988 2091 
Q 3016 2238 3031 2350 
Q 3047 2463 3047 2528 
Q 3047 2791 2881 2937 
Q 2716 3084 2419 3084 
Q 1956 3084 1622 2776 
Q 1288 2469 1184 1941 
L 800 0 
L 225 0 
L 903 3500 
L 1478 3500 
L 1363 2950 
Q 1603 3253 1940 3418 
Q 2278 3584 2650 3584 
Q 3113 3584 3367 3334 
Q 3622 3084 3622 2631 
Q 3622 2519 3608 2391 
Q 3594 2263 3566 2113 
z
" transform="scale(0.015625)"/>
       <path id="DejaVuSans-Oblique-31" d="M 416 531 
L 1447 531 
L 2144 4122 
L 978 3897 
L 1088 4441 
L 2247 4666 
L 2881 4666 
L 2075 531 
L 3103 531 
L 3003 0 
L 313 0 
L 416 531 
z
" transform="scale(0.015625)"/>
      </defs>
      <use xlink:href="#DejaVuSans-Oblique-50"/>
      <use xlink:href="#DejaVuSans-Oblique-66" transform="translate(60.302734 0)"/>
      <use xlink:href="#DejaVuSans-Oblique-6e" transform="translate(95.507812 0)"/>
      <use xlink:href="#DejaVuSans-Oblique-31" transform="translate(158.886719 0)"/>
     </g>
    </g>
    <g id="line2d_15">
     <path d="M 279.165625 104.148687 
L 289.165625 104.148687 
L 289.165625 104.148687 
L 299.165625 104.148687 
L 299.165625 104.148687 
" style="fill: none; stroke: #1f77b4; stroke-width: 1.5; stroke-linecap: square"/>
    </g>
    <g id="text_18">
     <!-- Low -->
     <g transform="translate(307.165625 107.648687) scale(0.1 -0.1)">
      <use xlink:href="#DejaVuSans-4c"/>
      <use xlink:href="#DejaVuSans-6f" transform="translate(53.962891 0)"/>
      <use xlink:href="#DejaVuSans-77" transform="translate(115.144531 0)"/>
     </g>
    </g>
    <g id="line2d_16">
     <path d="M 279.165625 118.826812 
L 289.165625 118.826812 
L 289.165625 118.826812 
L 299.165625 118.826812 
L 299.165625 118.826812 
" style="fill: none; stroke: #ff7f0e; stroke-width: 1.5; stroke-linecap: square"/>
    </g>
    <g id="text_19">
     <!-- High -->
     <g transform="translate(307.165625 122.326812) scale(0.1 -0.1)">
      <defs>
       <path id="DejaVuSans-48" d="M 628 4666 
L 1259 4666 
L 1259 2753 
L 3553 2753 
L 3553 4666 
L 4184 4666 
L 4184 0 
L 3553 0 
L 3553 2222 
L 1259 2222 
L 1259 0 
L 628 0 
L 628 4666 
z
" transform="scale(0.015625)"/>
       <path id="DejaVuSans-67" d="M 2906 1791 
Q 2906 2416 2648 2759 
Q 2391 3103 1925 3103 
Q 1463 3103 1205 2759 
Q 947 2416 947 1791 
Q 947 1169 1205 825 
Q 1463 481 1925 481 
Q 2391 481 2648 825 
Q 2906 1169 2906 1791 
z
M 3481 434 
Q 3481 -459 3084 -895 
Q 2688 -1331 1869 -1331 
Q 1566 -1331 1297 -1286 
Q 1028 -1241 775 -1147 
L 775 -588 
Q 1028 -725 1275 -790 
Q 1522 -856 1778 -856 
Q 2344 -856 2625 -561 
Q 2906 -266 2906 331 
L 2906 616 
Q 2728 306 2450 153 
Q 2172 0 1784 0 
Q 1141 0 747 490 
Q 353 981 353 1791 
Q 353 2603 747 3093 
Q 1141 3584 1784 3584 
Q 2172 3584 2450 3431 
Q 2728 3278 2906 2969 
L 2906 3500 
L 3481 3500 
L 3481 434 
z
" transform="scale(0.015625)"/>
       <path id="DejaVuSans-68" d="M 3513 2113 
L 3513 0 
L 2938 0 
L 2938 2094 
Q 2938 2591 2744 2837 
Q 2550 3084 2163 3084 
Q 1697 3084 1428 2787 
Q 1159 2491 1159 1978 
L 1159 0 
L 581 0 
L 581 4863 
L 1159 4863 
L 1159 2956 
Q 1366 3272 1645 3428 
Q 1925 3584 2291 3584 
Q 2894 3584 3203 3211 
Q 3513 2838 3513 2113 
z
" transform="scale(0.015625)"/>
      </defs>
      <use xlink:href="#DejaVuSans-48"/>
      <use xlink:href="#DejaVuSans-69" transform="translate(75.195312 0)"/>
      <use xlink:href="#DejaVuSans-67" transform="translate(102.978516 0)"/>
      <use xlink:href="#DejaVuSans-68" transform="translate(166.455078 0)"/>
     </g>
    </g>
   </g>
  </g>
 </g>
 <defs>
  <clipPath id="p01db361d70">
   <rect x="46.965625" y="22.318125" width="223.2" height="180.18"/>
  </clipPath>
 </defs>
</svg>
