<?xml version="1.0" encoding="utf-8" standalone="no"?>
<!DOCTYPE svg PUBLIC "-//W3C//DTD SVG 1.1//EN"
  "http://www.w3.org/Graphics/SVG/1.1/DTD/svg11.dtd">
<svg xmlns:xlink="http://www.w3.org/1999/xlink" width="341.35pt" height="240.054375pt" viewBox="0 0 341.35 240.054375" xmlns="http://www.w3.org/2000/svg" version="1.1">
 <metadata>
  <rdf:RDF xmlns:dc="http://purl.org/dc/elements/1.1/" xmlns:cc="http://creativecommons.org/ns#" xmlns:rdf="http://www.w3.org/1999/02/22-rdf-syntax-ns#">
   <cc:Work>
    <dc:type rdf:resource="http://purl.org/dc/dcmitype/StillImage"/>
    <dc:date>2025-10-10T18:42:02.453048</dc:date>
    <dc:format>image/svg+xml</dc:format>
    <dc:creator>
     <cc:Agent>
      <dc:title>Matplotlib v3.10.6, https://matplotlib.org/</dc:title>
     </cc:Agent>
    </dc:creator>
   </cc:Work>
  </rdf:RDF>
 </metadata>
 <defs>
  <style type="text/css">*{stroke-linejoin: round; stroke-linecap: butt}</style>
 </defs>
 <g id="figure_1">
  <g id="patch_1">
   <path d="M 0 240.054375 
L 341.35 240.054375 
L 341.35 0 
L 0 0 
z
" style="fill: #ffffff"/>
  </g>
  <g id="axes_1">
   <g id="patch_2">
    <path d="M 46.965625 202.498125 
L 270.165625 202.498125 
L 270.165625 22.318125 
L 46.965625 22.318125 
z
" style="fill: #ffffff"/>
   </g>
   <g id="FillBetweenPolyCollection_1">
    <defs>
     <path id="mf4099b7512" d="M 57.11108 -212.636816 
L 57.11108 -212.636816 
L 58.151639 -212.636816 
L 58.151639 -212.636816 
L 59.192198 -212.636816 
L 59.192198 -212.636816 
L 60.232758 -212.636816 
L 60.232758 -212.636816 
L 61.273317 -212.636816 
L 61.273317 -212.636816 
L 62.313877 -212.636816 
L 62.313877 -212.636816 
L 63.354436 -212.636816 
L 63.354436 -168.306782 
L 64.394996 -168.306782 
L 64.394996 -168.306782 
L 65.435555 -168.306782 
L 65.435555 -168.306782 
L 66.476115 -168.306782 
L 66.476115 -168.306782 
L 67.516674 -168.306782 
L 67.516674 -168.306782 
L 68.557233 -168.306782 
L 68.557233 -168.306782 
L 69.597793 -168.306782 
L 69.597793 -168.306782 
L 70.638352 -168.306782 
L 70.638352 -168.306782 
L 71.678912 -168.306782 
L 71.678912 -168.306782 
L 72.719471 -168.306782 
L 72.719471 -168.306782 
L 73.760031 -168.306782 
L 73.760031 -168.306782 
L 74.80059 -168.306782 
L 74.80059 -168.306782 
L 75.841149 -168.306782 
L 75.841149 -168.306782 
L 76.881709 -168.306782 
L 76.881709 -168.306782 
L 77.922268 -168.306782 
L 77.922268 -168.306782 
L 78.962828 -168.306782 
L 78.962828 -168.306782 
L 80.003387 -168.306782 
L 80.003387 -168.306782 
L 81.043947 -168.306782 
L 81.043947 -168.306782 
L 82.084506 -168.306782 
L 82.084506 -168.306782 
L 83.125066 -168.306782 
L 83.125066 -168.306782 
L 84.165625 -168.306782 
L 84.165625 -168.306782 
L 85.206184 -168.306782 
L 85.206184 -168.306782 
L 86.246744 -168.306782 
L 86.246744 -168.306782 
L 87.287303 -168.306782 
L 87.287303 -168.306782 
L 88.327863 -168.306782 
L 88.327863 -168.306782 
L 89.368422 -168.306782 
L 89.368422 -168.306782 
L 90.408982 -168.306782 
L 90.408982 -168.306782 
L 91.449541 -168.306782 
L 91.449541 -168.306782 
L 92.490101 -168.306782 
L 92.490101 -168.306782 
L 93.53066 -168.306782 
L 93.53066 -168.306782 
L 94.571219 -168.306782 
L 94.571219 -168.306782 
L 95.611779 -168.306782 
L 95.611779 -168.306782 
L 96.652338 -168.306782 
L 96.652338 -168.306782 
L 97.692898 -168.306782 
L 97.692898 -168.306782 
L 98.733457 -168.306782 
L 98.733457 -168.306782 
L 99.774017 -168.306782 
L 99.774017 -168.306782 
L 100.814576 -168.306782 
L 100.814576 -168.306782 
L 101.855135 -168.306782 
L 101.855135 -168.306782 
L 102.895695 -168.306782 
L 102.895695 -168.306782 
L 103.936254 -168.306782 
L 103.936254 -168.306782 
L 104.976814 -168.306782 
L 104.976814 -168.306782 
L 106.017373 -168.306782 
L 106.017373 -168.306782 
L 107.057933 -168.306782 
L 107.057933 -168.306782 
L 108.098492 -168.306782 
L 108.098492 -168.306782 
L 109.139052 -168.306782 
L 109.139052 -168.306782 
L 110.179611 -168.306782 
L 110.179611 -168.306782 
L 111.22017 -168.306782 
L 111.22017 -168.306782 
L 112.26073 -168.306782 
L 112.26073 -168.306782 
L 113.301289 -168.306782 
L 113.301289 -168.306782 
L 114.341849 -168.306782 
L 114.341849 -168.306782 
L 115.382408 -168.306782 
L 115.382408 -168.306782 
L 116.422968 -168.306782 
L 116.422968 -168.306782 
L 117.463527 -168.306782 
L 117.463527 -168.306782 
L 118.504087 -168.306782 
L 118.504087 -168.306782 
L 119.544646 -168.306782 
L 119.544646 -168.306782 
L 120.585205 -168.306782 
L 120.585205 -168.306782 
L 121.625765 -168.306782 
L 121.625765 -168.306782 
L 122.666324 -168.306782 
L 122.666324 -168.306782 
L 123.706884 -168.306782 
L 123.706884 -168.306782 
L 124.747443 -168.306782 
L 124.747443 -168.306782 
L 125.788003 -168.306782 
L 125.788003 -168.306782 
L 126.828562 -168.306782 
L 126.828562 -168.306782 
L 127.869122 -168.306782 
L 127.869122 -168.306782 
L 128.909681 -168.306782 
L 128.909681 -168.306782 
L 129.95024 -168.306782 
L 129.95024 -168.306782 
L 130.9908 -168.306782 
L 130.9908 -168.306782 
L 132.031359 -168.306782 
L 132.031359 -168.306782 
L 133.071919 -168.306782 
L 133.071919 -168.306782 
L 134.112478 -168.306782 
L 134.112478 -168.306782 
L 135.153038 -168.306782 
L 135.153038 -168.306782 
L 136.193597 -168.306782 
L 136.193597 -168.306782 
L 137.234156 -168.306782 
L 137.234156 -168.306782 
L 138.274716 -168.306782 
L 138.274716 -168.306782 
L 139.315275 -168.306782 
L 139.315275 -168.306782 
L 140.355835 -168.306782 
L 140.355835 -168.306782 
L 141.396394 -168.306782 
L 141.396394 -168.306782 
L 142.436954 -168.306782 
L 142.436954 -168.306782 
L 143.477513 -168.306782 
L 143.477513 -168.306782 
L 144.518073 -168.306782 
L 144.518073 -168.306782 
L 145.558632 -168.306782 
L 145.558632 -168.306782 
L 146.599191 -168.306782 
L 146.599191 -168.306782 
L 147.639751 -168.306782 
L 147.639751 -168.306782 
L 148.68031 -168.306782 
L 148.68031 -168.306782 
L 149.72087 -168.306782 
L 149.72087 -168.306782 
L 150.761429 -168.306782 
L 150.761429 -168.306782 
L 151.801989 -168.306782 
L 151.801989 -160.481542 
L 152.842548 -160.481542 
L 152.842548 -160.481542 
L 153.883108 -160.481542 
L 153.883108 -160.481542 
L 154.923667 -160.481542 
L 154.923667 -160.481542 
L 155.964226 -160.481542 
L 155.964226 -160.481542 
L 157.004786 -160.481542 
L 157.004786 -160.481542 
L 158.045345 -160.481542 
L 158.045345 -160.481542 
L 159.085905 -160.481542 
L 159.085905 -160.481542 
L 160.126464 -160.481542 
L 160.126464 -160.481542 
L 161.167024 -160.481542 
L 161.167024 -160.481542 
L 162.207583 -160.481542 
L 162.207583 -160.481542 
L 163.248142 -160.481542 
L 163.248142 -160.481542 
L 164.288702 -160.481542 
L 164.288702 -160.481542 
L 165.329261 -160.481542 
L 165.329261 -160.481542 
L 166.369821 -160.481542 
L 166.369821 -160.481542 
L 167.41038 -160.481542 
L 167.41038 -160.481542 
L 168.45094 -160.481542 
L 168.45094 -160.481542 
L 169.491499 -160.481542 
L 169.491499 -160.481542 
L 170.532059 -160.481542 
L 170.532059 -160.481542 
L 171.572618 -160.481542 
L 171.572618 -160.481542 
L 172.613177 -160.481542 
L 172.613177 -160.481542 
L 173.653737 -160.481542 
L 173.653737 -160.481542 
L 174.694296 -160.481542 
L 174.694296 -160.481542 
L 175.734856 -160.481542 
L 175.734856 -160.481542 
L 176.775415 -160.481542 
L 176.775415 -160.481542 
L 177.815975 -160.481542 
L 177.815975 -160.481542 
L 178.856534 -160.481542 
L 178.856534 -160.481542 
L 179.897094 -160.481542 
L 179.897094 -160.481542 
L 180.937653 -160.481542 
L 180.937653 -160.481542 
L 181.978212 -160.481542 
L 181.978212 -160.481542 
L 183.018772 -160.481542 
L 183.018772 -160.481542 
L 184.059331 -160.481542 
L 184.059331 -160.481542 
L 185.099891 -160.481542 
L 185.099891 -160.481542 
L 186.14045 -160.481542 
L 186.14045 -160.481542 
L 187.18101 -160.481542 
L 187.18101 -160.481542 
L 188.221569 -160.481542 
L 188.221569 -160.481542 
L 189.262128 -160.481542 
L 189.262128 -160.481542 
L 190.302688 -160.481542 
L 190.302688 -160.481542 
L 191.343247 -160.481542 
L 191.343247 -160.481542 
L 192.383807 -160.481542 
L 192.383807 -160.481542 
L 193.424366 -160.481542 
L 193.424366 -160.481542 
L 194.464926 -160.481542 
L 194.464926 -160.481542 
L 195.505485 -160.481542 
L 195.505485 -160.481542 
L 196.546045 -160.481542 
L 196.546045 -160.481542 
L 197.586604 -160.481542 
L 197.586604 -160.481542 
L 198.627163 -160.481542 
L 198.627163 -160.481542 
L 199.667723 -160.481542 
L 199.667723 -160.481542 
L 200.708282 -160.481542 
L 200.708282 -160.481542 
L 201.748842 -160.481542 
L 201.748842 -160.481542 
L 202.789401 -160.481542 
L 202.789401 -160.481542 
L 203.829961 -160.481542 
L 203.829961 -160.481542 
L 204.87052 -160.481542 
L 204.87052 -160.481542 
L 205.91108 -160.481542 
L 205.91108 -160.481542 
L 206.951639 -160.481542 
L 206.951639 -160.481542 
L 207.992198 -160.481542 
L 207.992198 -160.481542 
L 209.032758 -160.481542 
L 209.032758 -160.481542 
L 210.073317 -160.481542 
L 210.073317 -160.481542 
L 211.113877 -160.481542 
L 211.113877 -160.481542 
L 212.154436 -160.481542 
L 212.154436 -160.481542 
L 213.194996 -160.481542 
L 213.194996 -160.481542 
L 214.235555 -160.481542 
L 214.235555 -160.481542 
L 215.276115 -160.481542 
L 215.276115 -160.481542 
L 216.316674 -160.481542 
L 216.316674 -160.481542 
L 217.357233 -160.481542 
L 217.357233 -160.481542 
L 218.397793 -160.481542 
L 218.397793 -160.481542 
L 219.438352 -160.481542 
L 219.438352 -160.481542 
L 220.478912 -160.481542 
L 220.478912 -160.481542 
L 221.519471 -160.481542 
L 221.519471 -160.481542 
L 222.560031 -160.481542 
L 222.560031 -160.481542 
L 223.60059 -160.481542 
L 223.60059 -160.481542 
L 224.641149 -160.481542 
L 224.641149 -160.481542 
L 225.681709 -160.481542 
L 225.681709 -160.481542 
L 226.722268 -160.481542 
L 226.722268 -160.481542 
L 227.762828 -160.481542 
L 227.762828 -160.481542 
L 228.803387 -160.481542 
L 228.803387 -160.481542 
L 229.843947 -160.481542 
L 229.843947 -160.481542 
L 230.884506 -160.481542 
L 230.884506 -160.481542 
L 231.925066 -160.481542 
L 231.925066 -160.481542 
L 232.965625 -160.481542 
L 232.965625 -160.481542 
L 234.006184 -160.481542 
L 234.006184 -160.481542 
L 235.046744 -160.481542 
L 235.046744 -160.481542 
L 236.087303 -160.481542 
L 236.087303 -160.481542 
L 237.127863 -160.481542 
L 237.127863 -160.481542 
L 238.168422 -160.481542 
L 238.168422 -160.481542 
L 239.208982 -160.481542 
L 239.208982 -160.481542 
L 240.249541 -160.481542 
L 240.249541 -160.481542 
L 241.290101 -160.481542 
L 241.290101 -160.481542 
L 242.33066 -160.481542 
L 242.33066 -160.481542 
L 243.371219 -160.481542 
L 243.371219 -160.481542 
L 244.411779 -160.481542 
L 244.411779 -160.481542 
L 245.452338 -160.481542 
L 245.452338 -160.481542 
L 246.492898 -160.481542 
L 246.492898 -160.481542 
L 247.533457 -160.481542 
L 247.533457 -160.481542 
L 248.574017 -160.481542 
L 248.574017 -160.481542 
L 249.614576 -160.481542 
L 249.614576 -160.481542 
L 250.655135 -160.481542 
L 250.655135 -160.481542 
L 251.695695 -160.481542 
L 251.695695 -160.481542 
L 252.736254 -160.481542 
L 252.736254 -160.481542 
L 253.776814 -160.481542 
L 253.776814 -160.481542 
L 254.817373 -160.481542 
L 254.817373 -160.481542 
L 255.857933 -160.481542 
L 255.857933 -160.481542 
L 256.898492 -160.481542 
L 256.898492 -160.481542 
L 257.939052 -160.481542 
L 257.939052 -160.481542 
L 258.979611 -160.481542 
L 258.979611 -160.481542 
L 260.02017 -160.481542 
L 260.02017 -160.481542 
L 260.02017 -208.81006 
L 260.02017 -208.81006 
L 260.02017 -208.81006 
L 258.979611 -208.81006 
L 258.979611 -208.81006 
L 257.939052 -208.81006 
L 257.939052 -208.81006 
L 256.898492 -208.81006 
L 256.898492 -208.81006 
L 255.857933 -208.81006 
L 255.857933 -208.81006 
L 254.817373 -208.81006 
L 254.817373 -208.81006 
L 253.776814 -208.81006 
L 253.776814 -208.81006 
L 252.736254 -208.81006 
L 252.736254 -208.81006 
L 251.695695 -208.81006 
L 251.695695 -208.81006 
L 250.655135 -208.81006 
L 250.655135 -208.81006 
L 249.614576 -208.81006 
L 249.614576 -208.81006 
L 248.574017 -208.81006 
L 248.574017 -208.81006 
L 247.533457 -208.81006 
L 247.533457 -208.81006 
L 246.492898 -208.81006 
L 246.492898 -208.81006 
L 245.452338 -208.81006 
L 245.452338 -208.81006 
L 244.411779 -208.81006 
L 244.411779 -208.81006 
L 243.371219 -208.81006 
L 243.371219 -208.81006 
L 242.33066 -208.81006 
L 242.33066 -208.81006 
L 241.290101 -208.81006 
L 241.290101 -208.81006 
L 240.249541 -208.81006 
L 240.249541 -208.81006 
L 239.208982 -208.81006 
L 239.208982 -208.81006 
L 238.168422 -208.81006 
L 238.168422 -208.81006 
L 237.127863 -208.81006 
L 237.127863 -208.81006 
L 236.087303 -208.81006 
L 236.087303 -208.81006 
L 235.046744 -208.81006 
L 235.046744 -208.81006 
L 234.006184 -208.81006 
L 234.006184 -208.81006 
L 232.965625 -208.81006 
L 232.965625 -208.81006 
L 231.925066 -208.81006 
L 231.925066 -208.81006 
L 230.884506 -208.81006 
L 230.884506 -208.81006 
L 229.843947 -208.81006 
L 229.843947 -208.81006 
L 228.803387 -208.81006 
L 228.803387 -208.81006 
L 227.762828 -208.81006 
L 227.762828 -208.81006 
L 226.722268 -208.81006 
L 226.722268 -208.81006 
L 225.681709 -208.81006 
L 225.681709 -208.81006 
L 224.641149 -208.81006 
L 224.641149 -208.81006 
L 223.60059 -208.81006 
L 223.60059 -208.81006 
L 222.560031 -208.81006 
L 222.560031 -208.81006 
L 221.519471 -208.81006 
L 221.519471 -208.81006 
L 220.478912 -208.81006 
L 220.478912 -208.81006 
L 219.438352 -208.81006 
L 219.438352 -208.81006 
L 218.397793 -208.81006 
L 218.397793 -208.81006 
L 217.357233 -208.81006 
L 217.357233 -208.81006 
L 216.316674 -208.81006 
L 216.316674 -208.81006 
L 215.276115 -208.81006 
L 215.276115 -208.81006 
L 214.235555 -208.81006 
L 214.235555 -208.81006 
L 213.194996 -208.81006 
L 213.194996 -208.81006 
L 212.154436 -208.81006 
L 212.154436 -208.81006 
L 211.113877 -208.81006 
L 211.113877 -208.81006 
L 210.073317 -208.81006 
L 210.073317 -208.81006 
L 209.032758 -208.81006 
L 209.032758 -208.81006 
L 207.992198 -208.81006 
L 207.992198 -208.81006 
L 206.951639 -208.81006 
L 206.951639 -208.81006 
L 205.91108 -208.81006 
L 205.91108 -208.81006 
L 204.87052 -208.81006 
L 204.87052 -208.81006 
L 203.829961 -208.81006 
L 203.829961 -208.81006 
L 202.789401 -208.81006 
L 202.789401 -208.81006 
L 201.748842 -208.81006 
L 201.748842 -208.81006 
L 200.708282 -208.81006 
L 200.708282 -208.81006 
L 199.667723 -208.81006 
L 199.667723 -208.81006 
L 198.627163 -208.81006 
L 198.627163 -208.81006 
L 197.586604 -208.81006 
L 197.586604 -208.81006 
L 196.546045 -208.81006 
L 196.546045 -208.81006 
L 195.505485 -208.81006 
L 195.505485 -208.81006 
L 194.464926 -208.81006 
L 194.464926 -208.81006 
L 193.424366 -208.81006 
L 193.424366 -208.81006 
L 192.383807 -208.81006 
L 192.383807 -208.81006 
L 191.343247 -208.81006 
L 191.343247 -208.81006 
L 190.302688 -208.81006 
L 190.302688 -208.81006 
L 189.262128 -208.81006 
L 189.262128 -208.81006 
L 188.221569 -208.81006 
L 188.221569 -208.81006 
L 187.18101 -208.81006 
L 187.18101 -208.81006 
L 186.14045 -208.81006 
L 186.14045 -208.81006 
L 185.099891 -208.81006 
L 185.099891 -208.81006 
L 184.059331 -208.81006 
L 184.059331 -208.81006 
L 183.018772 -208.81006 
L 183.018772 -208.81006 
L 181.978212 -208.81006 
L 181.978212 -208.81006 
L 180.937653 -208.81006 
L 180.937653 -208.81006 
L 179.897094 -208.81006 
L 179.897094 -208.81006 
L 178.856534 -208.81006 
L 178.856534 -208.81006 
L 177.815975 -208.81006 
L 177.815975 -208.81006 
L 176.775415 -208.81006 
L 176.775415 -208.81006 
L 175.734856 -208.81006 
L 175.734856 -208.81006 
L 174.694296 -208.81006 
L 174.694296 -208.81006 
L 173.653737 -208.81006 
L 173.653737 -208.81006 
L 172.613177 -208.81006 
L 172.613177 -208.81006 
L 171.572618 -208.81006 
L 171.572618 -208.81006 
L 170.532059 -208.81006 
L 170.532059 -208.81006 
L 169.491499 -208.81006 
L 169.491499 -208.81006 
L 168.45094 -208.81006 
L 168.45094 -208.81006 
L 167.41038 -208.81006 
L 167.41038 -208.81006 
L 166.369821 -208.81006 
L 166.369821 -208.81006 
L 165.329261 -208.81006 
L 165.329261 -208.81006 
L 164.288702 -208.81006 
L 164.288702 -208.81006 
L 163.248142 -208.81006 
L 163.248142 -208.81006 
L 162.207583 -208.81006 
L 162.207583 -208.81006 
L 161.167024 -208.81006 
L 161.167024 -208.81006 
L 160.126464 -208.81006 
L 160.126464 -208.81006 
L 159.085905 -208.81006 
L 159.085905 -208.81006 
L 158.045345 -208.81006 
L 158.045345 -208.81006 
L 157.004786 -208.81006 
L 157.004786 -208.81006 
L 155.964226 -208.81006 
L 155.964226 -208.81006 
L 154.923667 -208.81006 
L 154.923667 -208.81006 
L 153.883108 -208.81006 
L 153.883108 -208.81006 
L 152.842548 -208.81006 
L 152.842548 -208.81006 
L 151.801989 -208.81006 
L 151.801989 -211.620961 
L 150.761429 -211.620961 
L 150.761429 -211.620961 
L 149.72087 -211.620961 
L 149.72087 -211.620961 
L 148.68031 -211.620961 
L 148.68031 -211.620961 
L 147.639751 -211.620961 
L 147.639751 -211.620961 
L 146.599191 -211.620961 
L 146.599191 -211.620961 
L 145.558632 -211.620961 
L 145.558632 -211.620961 
L 144.518073 -211.620961 
L 144.518073 -211.620961 
L 143.477513 -211.620961 
L 143.477513 -211.620961 
L 142.436954 -211.620961 
L 142.436954 -211.620961 
L 141.396394 -211.620961 
L 141.396394 -211.620961 
L 140.355835 -211.620961 
L 140.355835 -211.620961 
L 139.315275 -211.620961 
L 139.315275 -211.620961 
L 138.274716 -211.620961 
L 138.274716 -211.620961 
L 137.234156 -211.620961 
L 137.234156 -211.620961 
L 136.193597 -211.620961 
L 136.193597 -211.620961 
L 135.153038 -211.620961 
L 135.153038 -211.620961 
L 134.112478 -211.620961 
L 134.112478 -211.620961 
L 133.071919 -211.620961 
L 133.071919 -211.620961 
L 132.031359 -211.620961 
L 132.031359 -211.620961 
L 130.9908 -211.620961 
L 130.9908 -211.620961 
L 129.95024 -211.620961 
L 129.95024 -211.620961 
L 128.909681 -211.620961 
L 128.909681 -211.620961 
L 127.869122 -211.620961 
L 127.869122 -211.620961 
L 126.828562 -211.620961 
L 126.828562 -211.620961 
L 125.788003 -211.620961 
L 125.788003 -211.620961 
L 124.747443 -211.620961 
L 124.747443 -211.620961 
L 123.706884 -211.620961 
L 123.706884 -211.620961 
L 122.666324 -211.620961 
L 122.666324 -211.620961 
L 121.625765 -211.620961 
L 121.625765 -211.620961 
L 120.585205 -211.620961 
L 120.585205 -211.620961 
L 119.544646 -211.620961 
L 119.544646 -211.620961 
L 118.504087 -211.620961 
L 118.504087 -211.620961 
L 117.463527 -211.620961 
L 117.463527 -211.620961 
L 116.422968 -211.620961 
L 116.422968 -211.620961 
L 115.382408 -211.620961 
L 115.382408 -211.620961 
L 114.341849 -211.620961 
L 114.341849 -211.620961 
L 113.301289 -211.620961 
L 113.301289 -211.620961 
L 112.26073 -211.620961 
L 112.26073 -211.620961 
L 111.22017 -211.620961 
L 111.22017 -211.620961 
L 110.179611 -211.620961 
L 110.179611 -211.620961 
L 109.139052 -211.620961 
L 109.139052 -211.620961 
L 108.098492 -211.620961 
L 108.098492 -211.620961 
L 107.057933 -211.620961 
L 107.057933 -211.620961 
L 106.017373 -211.620961 
L 106.017373 -211.620961 
L 104.976814 -211.620961 
L 104.976814 -211.620961 
L 103.936254 -211.620961 
L 103.936254 -211.620961 
L 102.895695 -211.620961 
L 102.895695 -211.620961 
L 101.855135 -211.620961 
L 101.855135 -211.620961 
L 100.814576 -211.620961 
L 100.814576 -211.620961 
L 99.774017 -211.620961 
L 99.774017 -211.620961 
L 98.733457 -211.620961 
L 98.733457 -211.620961 
L 97.692898 -211.620961 
L 97.692898 -211.620961 
L 96.652338 -211.620961 
L 96.652338 -211.620961 
L 95.611779 -211.620961 
L 95.611779 -211.620961 
L 94.571219 -211.620961 
L 94.571219 -211.620961 
L 93.53066 -211.620961 
L 93.53066 -211.620961 
L 92.490101 -211.620961 
L 92.490101 -211.620961 
L 91.449541 -211.620961 
L 91.449541 -211.620961 
L 90.408982 -211.620961 
L 90.408982 -211.620961 
L 89.368422 -211.620961 
L 89.368422 -211.620961 
L 88.327863 -211.620961 
L 88.327863 -211.620961 
L 87.287303 -211.620961 
L 87.287303 -211.620961 
L 86.246744 -211.620961 
L 86.246744 -211.620961 
L 85.206184 -211.620961 
L 85.206184 -211.620961 
L 84.165625 -211.620961 
L 84.165625 -211.620961 
L 83.125066 -211.620961 
L 83.125066 -211.620961 
L 82.084506 -211.620961 
L 82.084506 -211.620961 
L 81.043947 -211.620961 
L 81.043947 -211.620961 
L 80.003387 -211.620961 
L 80.003387 -211.620961 
L 78.962828 -211.620961 
L 78.962828 -211.620961 
L 77.922268 -211.620961 
L 77.922268 -211.620961 
L 76.881709 -211.620961 
L 76.881709 -211.620961 
L 75.841149 -211.620961 
L 75.841149 -211.620961 
L 74.80059 -211.620961 
L 74.80059 -211.620961 
L 73.760031 -211.620961 
L 73.760031 -211.620961 
L 72.719471 -211.620961 
L 72.719471 -211.620961 
L 71.678912 -211.620961 
L 71.678912 -211.620961 
L 70.638352 -211.620961 
L 70.638352 -211.620961 
L 69.597793 -211.620961 
L 69.597793 -211.620961 
L 68.557233 -211.620961 
L 68.557233 -211.620961 
L 67.516674 -211.620961 
L 67.516674 -211.620961 
L 66.476115 -211.620961 
L 66.476115 -211.620961 
L 65.435555 -211.620961 
L 65.435555 -211.620961 
L 64.394996 -211.620961 
L 64.394996 -211.620961 
L 63.354436 -211.620961 
L 63.354436 -212.636816 
L 62.313877 -212.636816 
L 62.313877 -212.636816 
L 61.273317 -212.636816 
L 61.273317 -212.636816 
L 60.232758 -212.636816 
L 60.232758 -212.636816 
L 59.192198 -212.636816 
L 59.192198 -212.636816 
L 58.151639 -212.636816 
L 58.151639 -212.636816 
L 57.11108 -212.636816 
z
" style="stroke: #1f77b4; stroke-opacity: 0.25"/>
    </defs>
    <g clip-path="url(#p5f4f42e0b3)">
     <use xlink:href="#mf4099b7512" x="0" y="240.054375" style="fill: #1f77b4; fill-opacity: 0.25; stroke: #1f77b4; stroke-opacity: 0.25"/>
    </g>
   </g>
   <g id="FillBetweenPolyCollection_2">
    <defs>
     <path id="m3d84c66bfb" d="M 57.11108 -212.636816 
L 57.11108 -212.636816 
L 58.151639 -212.636816 
L 58.151639 -212.636816 
L 59.192198 -212.636816 
L 59.192198 -212.636816 
L 60.232758 -212.636816 
L 60.232758 -212.636816 
L 61.273317 -212.636816 
L 61.273317 -212.636816 
L 62.313877 -212.636816 
L 62.313877 -212.636816 
L 63.354436 -212.636816 
L 63.354436 -212.636816 
L 64.394996 -212.636816 
L 64.394996 -212.636816 
L 65.435555 -212.636816 
L 65.435555 -212.636816 
L 66.476115 -212.636816 
L 66.476115 -212.636816 
L 67.516674 -212.636816 
L 67.516674 -212.636816 
L 68.557233 -212.636816 
L 68.557233 -212.636816 
L 69.597793 -212.636816 
L 69.597793 -212.636816 
L 70.638352 -212.636816 
L 70.638352 -212.636816 
L 71.678912 -212.636816 
L 71.678912 -212.636816 
L 72.719471 -212.636816 
L 72.719471 -212.636816 
L 73.760031 -212.636816 
L 73.760031 -212.636816 
L 74.80059 -212.636816 
L 74.80059 -212.636816 
L 75.841149 -212.636816 
L 75.841149 -212.636816 
L 76.881709 -212.636816 
L 76.881709 -212.636816 
L 77.922268 -212.636816 
L 77.922268 -212.636816 
L 78.962828 -212.636816 
L 78.962828 -212.636816 
L 80.003387 -212.636816 
L 80.003387 -168.306782 
L 81.043947 -168.306782 
L 81.043947 -168.306782 
L 82.084506 -168.306782 
L 82.084506 -168.306782 
L 83.125066 -168.306782 
L 83.125066 -168.306782 
L 84.165625 -168.306782 
L 84.165625 -168.306782 
L 85.206184 -168.306782 
L 85.206184 -168.306782 
L 86.246744 -168.306782 
L 86.246744 -168.306782 
L 87.287303 -168.306782 
L 87.287303 -168.306782 
L 88.327863 -168.306782 
L 88.327863 -168.306782 
L 89.368422 -168.306782 
L 89.368422 -168.306782 
L 90.408982 -168.306782 
L 90.408982 -168.306782 
L 91.449541 -168.306782 
L 91.449541 -168.306782 
L 92.490101 -168.306782 
L 92.490101 -168.306782 
L 93.53066 -168.306782 
L 93.53066 -161.638466 
L 94.571219 -161.638466 
L 94.571219 -161.638466 
L 95.611779 -161.638466 
L 95.611779 -161.638466 
L 96.652338 -161.638466 
L 96.652338 -161.638466 
L 97.692898 -161.638466 
L 97.692898 -161.638466 
L 98.733457 -161.638466 
L 98.733457 -161.638466 
L 99.774017 -161.638466 
L 99.774017 -161.638466 
L 100.814576 -161.638466 
L 100.814576 -161.638466 
L 101.855135 -161.638466 
L 101.855135 -161.638466 
L 102.895695 -161.638466 
L 102.895695 -161.638466 
L 103.936254 -161.638466 
L 103.936254 -161.638466 
L 104.976814 -161.638466 
L 104.976814 -161.638466 
L 106.017373 -161.638466 
L 106.017373 -161.638466 
L 107.057933 -161.638466 
L 107.057933 -161.638466 
L 108.098492 -161.638466 
L 108.098492 -161.638466 
L 109.139052 -161.638466 
L 109.139052 -161.638466 
L 110.179611 -161.638466 
L 110.179611 -161.638466 
L 111.22017 -161.638466 
L 111.22017 -161.638466 
L 112.26073 -161.638466 
L 112.26073 -161.638466 
L 113.301289 -161.638466 
L 113.301289 -161.638466 
L 114.341849 -161.638466 
L 114.341849 -161.638466 
L 115.382408 -161.638466 
L 115.382408 -153.420596 
L 116.422968 -153.420596 
L 116.422968 -145.220384 
L 117.463527 -145.220384 
L 117.463527 -145.220384 
L 118.504087 -145.220384 
L 118.504087 -145.220384 
L 119.544646 -145.220384 
L 119.544646 -145.220384 
L 120.585205 -145.220384 
L 120.585205 -145.220384 
L 121.625765 -145.220384 
L 121.625765 -145.220384 
L 122.666324 -145.220384 
L 122.666324 -145.220384 
L 123.706884 -145.220384 
L 123.706884 -145.220384 
L 124.747443 -145.220384 
L 124.747443 -136.46754 
L 125.788003 -136.46754 
L 125.788003 -136.46754 
L 126.828562 -136.46754 
L 126.828562 -136.46754 
L 127.869122 -136.46754 
L 127.869122 -136.46754 
L 128.909681 -136.46754 
L 128.909681 -136.46754 
L 129.95024 -136.46754 
L 129.95024 -136.46754 
L 130.9908 -136.46754 
L 130.9908 -136.46754 
L 132.031359 -136.46754 
L 132.031359 -136.46754 
L 133.071919 -136.46754 
L 133.071919 -136.46754 
L 134.112478 -136.46754 
L 134.112478 -136.46754 
L 135.153038 -136.46754 
L 135.153038 -136.46754 
L 136.193597 -136.46754 
L 136.193597 -136.46754 
L 137.234156 -136.46754 
L 137.234156 -136.46754 
L 138.274716 -136.46754 
L 138.274716 -136.46754 
L 139.315275 -136.46754 
L 139.315275 -136.46754 
L 140.355835 -136.46754 
L 140.355835 -136.46754 
L 141.396394 -136.46754 
L 141.396394 -136.46754 
L 142.436954 -136.46754 
L 142.436954 -136.46754 
L 143.477513 -136.46754 
L 143.477513 -126.273326 
L 144.518073 -126.273326 
L 144.518073 -126.273326 
L 145.558632 -126.273326 
L 145.558632 -126.273326 
L 146.599191 -126.273326 
L 146.599191 -126.273326 
L 147.639751 -126.273326 
L 147.639751 -115.717794 
L 148.68031 -115.717794 
L 148.68031 -115.717794 
L 149.72087 -115.717794 
L 149.72087 -115.717794 
L 150.761429 -115.717794 
L 150.761429 -115.717794 
L 151.801989 -115.717794 
L 151.801989 -115.717794 
L 152.842548 -115.717794 
L 152.842548 -115.717794 
L 153.883108 -115.717794 
L 153.883108 -115.717794 
L 154.923667 -115.717794 
L 154.923667 -115.717794 
L 155.964226 -115.717794 
L 155.964226 -115.717794 
L 157.004786 -115.717794 
L 157.004786 -115.717794 
L 158.045345 -115.717794 
L 158.045345 -115.717794 
L 159.085905 -115.717794 
L 159.085905 -115.717794 
L 160.126464 -115.717794 
L 160.126464 -115.717794 
L 161.167024 -115.717794 
L 161.167024 -115.717794 
L 162.207583 -115.717794 
L 162.207583 -115.717794 
L 163.248142 -115.717794 
L 163.248142 -115.717794 
L 164.288702 -115.717794 
L 164.288702 -115.717794 
L 165.329261 -115.717794 
L 165.329261 -115.717794 
L 166.369821 -115.717794 
L 166.369821 -106.03823 
L 167.41038 -106.03823 
L 167.41038 -106.03823 
L 168.45094 -106.03823 
L 168.45094 -106.03823 
L 169.491499 -106.03823 
L 169.491499 -106.03823 
L 170.532059 -106.03823 
L 170.532059 -106.03823 
L 171.572618 -106.03823 
L 171.572618 -106.03823 
L 172.613177 -106.03823 
L 172.613177 -106.03823 
L 173.653737 -106.03823 
L 173.653737 -106.03823 
L 174.694296 -106.03823 
L 174.694296 -106.03823 
L 175.734856 -106.03823 
L 175.734856 -106.03823 
L 176.775415 -106.03823 
L 176.775415 -106.03823 
L 177.815975 -106.03823 
L 177.815975 -95.666632 
L 178.856534 -95.666632 
L 178.856534 -95.666632 
L 179.897094 -95.666632 
L 179.897094 -95.666632 
L 180.937653 -95.666632 
L 180.937653 -95.666632 
L 181.978212 -95.666632 
L 181.978212 -95.666632 
L 183.018772 -95.666632 
L 183.018772 -95.666632 
L 184.059331 -95.666632 
L 184.059331 -95.666632 
L 185.099891 -95.666632 
L 185.099891 -95.666632 
L 186.14045 -95.666632 
L 186.14045 -95.666632 
L 187.18101 -95.666632 
L 187.18101 -86.216588 
L 188.221569 -86.216588 
L 188.221569 -86.216588 
L 189.262128 -86.216588 
L 189.262128 -86.216588 
L 190.302688 -86.216588 
L 190.302688 -86.216588 
L 191.343247 -86.216588 
L 191.343247 -86.216588 
L 192.383807 -86.216588 
L 192.383807 -86.216588 
L 193.424366 -86.216588 
L 193.424366 -86.216588 
L 194.464926 -86.216588 
L 194.464926 -86.216588 
L 195.505485 -86.216588 
L 195.505485 -86.216588 
L 196.546045 -86.216588 
L 196.546045 -86.216588 
L 197.586604 -86.216588 
L 197.586604 -86.216588 
L 198.627163 -86.216588 
L 198.627163 -86.216588 
L 199.667723 -86.216588 
L 199.667723 -86.216588 
L 200.708282 -86.216588 
L 200.708282 -86.216588 
L 201.748842 -86.216588 
L 201.748842 -86.216588 
L 202.789401 -86.216588 
L 202.789401 -86.216588 
L 203.829961 -86.216588 
L 203.829961 -86.216588 
L 204.87052 -86.216588 
L 204.87052 -86.216588 
L 205.91108 -86.216588 
L 205.91108 -86.216588 
L 206.951639 -86.216588 
L 206.951639 -86.216588 
L 207.992198 -86.216588 
L 207.992198 -86.216588 
L 209.032758 -86.216588 
L 209.032758 -86.216588 
L 210.073317 -86.216588 
L 210.073317 -86.216588 
L 211.113877 -86.216588 
L 211.113877 -86.216588 
L 212.154436 -86.216588 
L 212.154436 -86.216588 
L 213.194996 -86.216588 
L 213.194996 -86.216588 
L 214.235555 -86.216588 
L 214.235555 -86.216588 
L 215.276115 -86.216588 
L 215.276115 -86.216588 
L 216.316674 -86.216588 
L 216.316674 -86.216588 
L 217.357233 -86.216588 
L 217.357233 -86.216588 
L 218.397793 -86.216588 
L 218.397793 -86.216588 
L 219.438352 -86.216588 
L 219.438352 -86.216588 
L 220.478912 -86.216588 
L 220.478912 -86.216588 
L 221.519471 -86.216588 
L 221.519471 -86.216588 
L 222.560031 -86.216588 
L 222.560031 -64.005075 
L 223.60059 -64.005075 
L 223.60059 -64.005075 
L 224.641149 -64.005075 
L 224.641149 -64.005075 
L 225.681709 -64.005075 
L 225.681709 -64.005075 
L 226.722268 -64.005075 
L 226.722268 -64.005075 
L 227.762828 -64.005075 
L 227.762828 -64.005075 
L 228.803387 -64.005075 
L 228.803387 -64.005075 
L 229.843947 -64.005075 
L 229.843947 -64.005075 
L 230.884506 -64.005075 
L 230.884506 -64.005075 
L 231.925066 -64.005075 
L 231.925066 -64.005075 
L 232.965625 -64.005075 
L 232.965625 -64.005075 
L 234.006184 -64.005075 
L 234.006184 -64.005075 
L 235.046744 -64.005075 
L 235.046744 -64.005075 
L 236.087303 -64.005075 
L 236.087303 -64.005075 
L 237.127863 -64.005075 
L 237.127863 -64.005075 
L 238.168422 -64.005075 
L 238.168422 -64.005075 
L 239.208982 -64.005075 
L 239.208982 -64.005075 
L 240.249541 -64.005075 
L 240.249541 -64.005075 
L 241.290101 -64.005075 
L 241.290101 -64.005075 
L 242.33066 -64.005075 
L 242.33066 -64.005075 
L 243.371219 -64.005075 
L 243.371219 -64.005075 
L 244.411779 -64.005075 
L 244.411779 -64.005075 
L 245.452338 -64.005075 
L 245.452338 -64.005075 
L 246.492898 -64.005075 
L 246.492898 -50.815614 
L 247.533457 -50.815614 
L 247.533457 -50.815614 
L 248.574017 -50.815614 
L 248.574017 -50.815614 
L 249.614576 -50.815614 
L 249.614576 -50.815614 
L 250.655135 -50.815614 
L 250.655135 -50.815614 
L 251.695695 -50.815614 
L 251.695695 -50.815614 
L 252.736254 -50.815614 
L 252.736254 -43.984801 
L 253.776814 -43.984801 
L 253.776814 -43.984801 
L 254.817373 -43.984801 
L 254.817373 -43.984801 
L 255.857933 -43.984801 
L 255.857933 -43.984801 
L 256.898492 -43.984801 
L 256.898492 -43.984801 
L 257.939052 -43.984801 
L 257.939052 -43.984801 
L 258.979611 -43.984801 
L 258.979611 -43.984801 
L 260.02017 -43.984801 
L 260.02017 -43.984801 
L 260.02017 -111.628247 
L 260.02017 -111.628247 
L 260.02017 -111.628247 
L 258.979611 -111.628247 
L 258.979611 -111.628247 
L 257.939052 -111.628247 
L 257.939052 -111.628247 
L 256.898492 -111.628247 
L 256.898492 -111.628247 
L 255.857933 -111.628247 
L 255.857933 -111.628247 
L 254.817373 -111.628247 
L 254.817373 -111.628247 
L 253.776814 -111.628247 
L 253.776814 -111.628247 
L 252.736254 -111.628247 
L 252.736254 -131.904935 
L 251.695695 -131.904935 
L 251.695695 -131.904935 
L 250.655135 -131.904935 
L 250.655135 -131.904935 
L 249.614576 -131.904935 
L 249.614576 -131.904935 
L 248.574017 -131.904935 
L 248.574017 -131.904935 
L 247.533457 -131.904935 
L 247.533457 -131.904935 
L 246.492898 -131.904935 
L 246.492898 -148.31505 
L 245.452338 -148.31505 
L 245.452338 -148.31505 
L 244.411779 -148.31505 
L 244.411779 -148.31505 
L 243.371219 -148.31505 
L 243.371219 -148.31505 
L 242.33066 -148.31505 
L 242.33066 -148.31505 
L 241.290101 -148.31505 
L 241.290101 -148.31505 
L 240.249541 -148.31505 
L 240.249541 -148.31505 
L 239.208982 -148.31505 
L 239.208982 -148.31505 
L 238.168422 -148.31505 
L 238.168422 -148.31505 
L 237.127863 -148.31505 
L 237.127863 -148.31505 
L 236.087303 -148.31505 
L 236.087303 -148.31505 
L 235.046744 -148.31505 
L 235.046744 -148.31505 
L 234.006184 -148.31505 
L 234.006184 -148.31505 
L 232.965625 -148.31505 
L 232.965625 -148.31505 
L 231.925066 -148.31505 
L 231.925066 -148.31505 
L 230.884506 -148.31505 
L 230.884506 -148.31505 
L 229.843947 -148.31505 
L 229.843947 -148.31505 
L 228.803387 -148.31505 
L 228.803387 -148.31505 
L 227.762828 -148.31505 
L 227.762828 -148.31505 
L 226.722268 -148.31505 
L 226.722268 -148.31505 
L 225.681709 -148.31505 
L 225.681709 -148.31505 
L 224.641149 -148.31505 
L 224.641149 -148.31505 
L 223.60059 -148.31505 
L 223.60059 -148.31505 
L 222.560031 -148.31505 
L 222.560031 -160.587595 
L 221.519471 -160.587595 
L 221.519471 -160.587595 
L 220.478912 -160.587595 
L 220.478912 -160.587595 
L 219.438352 -160.587595 
L 219.438352 -160.587595 
L 218.397793 -160.587595 
L 218.397793 -160.587595 
L 217.357233 -160.587595 
L 217.357233 -160.587595 
L 216.316674 -160.587595 
L 216.316674 -160.587595 
L 215.276115 -160.587595 
L 215.276115 -160.587595 
L 214.235555 -160.587595 
L 214.235555 -160.587595 
L 213.194996 -160.587595 
L 213.194996 -160.587595 
L 212.154436 -160.587595 
L 212.154436 -160.587595 
L 211.113877 -160.587595 
L 211.113877 -160.587595 
L 210.073317 -160.587595 
L 210.073317 -160.587595 
L 209.032758 -160.587595 
L 209.032758 -160.587595 
L 207.992198 -160.587595 
L 207.992198 -160.587595 
L 206.951639 -160.587595 
L 206.951639 -160.587595 
L 205.91108 -160.587595 
L 205.91108 -160.587595 
L 204.87052 -160.587595 
L 204.87052 -160.587595 
L 203.829961 -160.587595 
L 203.829961 -160.587595 
L 202.789401 -160.587595 
L 202.789401 -160.587595 
L 201.748842 -160.587595 
L 201.748842 -160.587595 
L 200.708282 -160.587595 
L 200.708282 -160.587595 
L 199.667723 -160.587595 
L 199.667723 -160.587595 
L 198.627163 -160.587595 
L 198.627163 -160.587595 
L 197.586604 -160.587595 
L 197.586604 -160.587595 
L 196.546045 -160.587595 
L 196.546045 -160.587595 
L 195.505485 -160.587595 
L 195.505485 -160.587595 
L 194.464926 -160.587595 
L 194.464926 -160.587595 
L 193.424366 -160.587595 
L 193.424366 -160.587595 
L 192.383807 -160.587595 
L 192.383807 -160.587595 
L 191.343247 -160.587595 
L 191.343247 -160.587595 
L 190.302688 -160.587595 
L 190.302688 -160.587595 
L 189.262128 -160.587595 
L 189.262128 -160.587595 
L 188.221569 -160.587595 
L 188.221569 -160.587595 
L 187.18101 -160.587595 
L 187.18101 -169.028082 
L 186.14045 -169.028082 
L 186.14045 -169.028082 
L 185.099891 -169.028082 
L 185.099891 -169.028082 
L 184.059331 -169.028082 
L 184.059331 -169.028082 
L 183.018772 -169.028082 
L 183.018772 -169.028082 
L 181.978212 -169.028082 
L 181.978212 -169.028082 
L 180.937653 -169.028082 
L 180.937653 -169.028082 
L 179.897094 -169.028082 
L 179.897094 -169.028082 
L 178.856534 -169.028082 
L 178.856534 -169.028082 
L 177.815975 -169.028082 
L 177.815975 -176.92179 
L 176.775415 -176.92179 
L 176.775415 -176.92179 
L 175.734856 -176.92179 
L 175.734856 -176.92179 
L 174.694296 -176.92179 
L 174.694296 -176.92179 
L 173.653737 -176.92179 
L 173.653737 -176.92179 
L 172.613177 -176.92179 
L 172.613177 -176.92179 
L 171.572618 -176.92179 
L 171.572618 -176.92179 
L 170.532059 -176.92179 
L 170.532059 -176.92179 
L 169.491499 -176.92179 
L 169.491499 -176.92179 
L 168.45094 -176.92179 
L 168.45094 -176.92179 
L 167.41038 -176.92179 
L 167.41038 -176.92179 
L 166.369821 -176.92179 
L 166.369821 -183.91144 
L 165.329261 -183.91144 
L 165.329261 -183.91144 
L 164.288702 -183.91144 
L 164.288702 -183.91144 
L 163.248142 -183.91144 
L 163.248142 -183.91144 
L 162.207583 -183.91144 
L 162.207583 -183.91144 
L 161.167024 -183.91144 
L 161.167024 -183.91144 
L 160.126464 -183.91144 
L 160.126464 -183.91144 
L 159.085905 -183.91144 
L 159.085905 -183.91144 
L 158.045345 -183.91144 
L 158.045345 -183.91144 
L 157.004786 -183.91144 
L 157.004786 -183.91144 
L 155.964226 -183.91144 
L 155.964226 -183.91144 
L 154.923667 -183.91144 
L 154.923667 -183.91144 
L 153.883108 -183.91144 
L 153.883108 -183.91144 
L 152.842548 -183.91144 
L 152.842548 -183.91144 
L 151.801989 -183.91144 
L 151.801989 -183.91144 
L 150.761429 -183.91144 
L 150.761429 -183.91144 
L 149.72087 -183.91144 
L 149.72087 -183.91144 
L 148.68031 -183.91144 
L 148.68031 -183.91144 
L 147.639751 -183.91144 
L 147.639751 -190.408822 
L 146.599191 -190.408822 
L 146.599191 -190.408822 
L 145.558632 -190.408822 
L 145.558632 -190.408822 
L 144.518073 -190.408822 
L 144.518073 -190.408822 
L 143.477513 -190.408822 
L 143.477513 -196.141824 
L 142.436954 -196.141824 
L 142.436954 -196.141824 
L 141.396394 -196.141824 
L 141.396394 -196.141824 
L 140.355835 -196.141824 
L 140.355835 -196.141824 
L 139.315275 -196.141824 
L 139.315275 -196.141824 
L 138.274716 -196.141824 
L 138.274716 -196.141824 
L 137.234156 -196.141824 
L 137.234156 -196.141824 
L 136.193597 -196.141824 
L 136.193597 -196.141824 
L 135.153038 -196.141824 
L 135.153038 -196.141824 
L 134.112478 -196.141824 
L 134.112478 -196.141824 
L 133.071919 -196.141824 
L 133.071919 -196.141824 
L 132.031359 -196.141824 
L 132.031359 -196.141824 
L 130.9908 -196.141824 
L 130.9908 -196.141824 
L 129.95024 -196.141824 
L 129.95024 -196.141824 
L 128.909681 -196.141824 
L 128.909681 -196.141824 
L 127.869122 -196.141824 
L 127.869122 -196.141824 
L 126.828562 -196.141824 
L 126.828562 -196.141824 
L 125.788003 -196.141824 
L 125.788003 -196.141824 
L 124.747443 -196.141824 
L 124.747443 -201.013609 
L 123.706884 -201.013609 
L 123.706884 -201.013609 
L 122.666324 -201.013609 
L 122.666324 -201.013609 
L 121.625765 -201.013609 
L 121.625765 -201.013609 
L 120.585205 -201.013609 
L 120.585205 -201.013609 
L 119.544646 -201.013609 
L 119.544646 -201.013609 
L 118.504087 -201.013609 
L 118.504087 -201.013609 
L 117.463527 -201.013609 
L 117.463527 -201.013609 
L 116.422968 -201.013609 
L 116.422968 -205.257572 
L 115.382408 -205.257572 
L 115.382408 -208.897241 
L 114.341849 -208.897241 
L 114.341849 -208.897241 
L 113.301289 -208.897241 
L 113.301289 -208.897241 
L 112.26073 -208.897241 
L 112.26073 -208.897241 
L 111.22017 -208.897241 
L 111.22017 -208.897241 
L 110.179611 -208.897241 
L 110.179611 -208.897241 
L 109.139052 -208.897241 
L 109.139052 -208.897241 
L 108.098492 -208.897241 
L 108.098492 -208.897241 
L 107.057933 -208.897241 
L 107.057933 -208.897241 
L 106.017373 -208.897241 
L 106.017373 -208.897241 
L 104.976814 -208.897241 
L 104.976814 -208.897241 
L 103.936254 -208.897241 
L 103.936254 -208.897241 
L 102.895695 -208.897241 
L 102.895695 -208.897241 
L 101.855135 -208.897241 
L 101.855135 -208.897241 
L 100.814576 -208.897241 
L 100.814576 -208.897241 
L 99.774017 -208.897241 
L 99.774017 -208.897241 
L 98.733457 -208.897241 
L 98.733457 -208.897241 
L 97.692898 -208.897241 
L 97.692898 -208.897241 
L 96.652338 -208.897241 
L 96.652338 -208.897241 
L 95.611779 -208.897241 
L 95.611779 -208.897241 
L 94.571219 -208.897241 
L 94.571219 -208.897241 
L 93.53066 -208.897241 
L 93.53066 -211.620961 
L 92.490101 -211.620961 
L 92.490101 -211.620961 
L 91.449541 -211.620961 
L 91.449541 -211.620961 
L 90.408982 -211.620961 
L 90.408982 -211.620961 
L 89.368422 -211.620961 
L 89.368422 -211.620961 
L 88.327863 -211.620961 
L 88.327863 -211.620961 
L 87.287303 -211.620961 
L 87.287303 -211.620961 
L 86.246744 -211.620961 
L 86.246744 -211.620961 
L 85.206184 -211.620961 
L 85.206184 -211.620961 
L 84.165625 -211.620961 
L 84.165625 -211.620961 
L 83.125066 -211.620961 
L 83.125066 -211.620961 
L 82.084506 -211.620961 
L 82.084506 -211.620961 
L 81.043947 -211.620961 
L 81.043947 -211.620961 
L 80.003387 -211.620961 
L 80.003387 -212.636816 
L 78.962828 -212.636816 
L 78.962828 -212.636816 
L 77.922268 -212.636816 
L 77.922268 -212.636816 
L 76.881709 -212.636816 
L 76.881709 -212.636816 
L 75.841149 -212.636816 
L 75.841149 -212.636816 
L 74.80059 -212.636816 
L 74.80059 -212.636816 
L 73.760031 -212.636816 
L 73.760031 -212.636816 
L 72.719471 -212.636816 
L 72.719471 -212.636816 
L 71.678912 -212.636816 
L 71.678912 -212.636816 
L 70.638352 -212.636816 
L 70.638352 -212.636816 
L 69.597793 -212.636816 
L 69.597793 -212.636816 
L 68.557233 -212.636816 
L 68.557233 -212.636816 
L 67.516674 -212.636816 
L 67.516674 -212.636816 
L 66.476115 -212.636816 
L 66.476115 -212.636816 
L 65.435555 -212.636816 
L 65.435555 -212.636816 
L 64.394996 -212.636816 
L 64.394996 -212.636816 
L 63.354436 -212.636816 
L 63.354436 -212.636816 
L 62.313877 -212.636816 
L 62.313877 -212.636816 
L 61.273317 -212.636816 
L 61.273317 -212.636816 
L 60.232758 -212.636816 
L 60.232758 -212.636816 
L 59.192198 -212.636816 
L 59.192198 -212.636816 
L 58.151639 -212.636816 
L 58.151639 -212.636816 
L 57.11108 -212.636816 
z
" style="stroke: #ff7f0e; stroke-opacity: 0.25"/>
    </defs>
    <g clip-path="url(#p5f4f42e0b3)">
     <use xlink:href="#m3d84c66bfb" x="0" y="240.054375" style="fill: #ff7f0e; fill-opacity: 0.25; stroke: #ff7f0e; stroke-opacity: 0.25"/>
    </g>
   </g>
   <g id="matplotlib.axis_1">
    <g id="xtick_1">
     <g id="line2d_1">
      <defs>
       <path id="m4601398b50" d="M 0 0 
L 0 3.5 
" style="stroke: #000000; stroke-width: 0.8"/>
      </defs>
      <g>
       <use xlink:href="#m4601398b50" x="57.11108" y="202.498125" style="stroke: #000000; stroke-width: 0.8"/>
      </g>
     </g>
     <g id="text_1">
      <!-- 0 -->
      <g transform="translate(53.92983 217.096562) scale(0.1 -0.1)">
       <defs>
        <path id="DejaVuSans-30" d="M 2034 4250 
Q 1547 4250 1301 3770 
Q 1056 3291 1056 2328 
Q 1056 1369 1301 889 
Q 1547 409 2034 409 
Q 2525 409 2770 889 
Q 3016 1369 3016 2328 
Q 3016 3291 2770 3770 
Q 2525 4250 2034 4250 
z
M 2034 4750 
Q 2819 4750 3233 4129 
Q 3647 3509 3647 2328 
Q 3647 1150 3233 529 
Q 2819 -91 2034 -91 
Q 1250 -91 836 529 
Q 422 1150 422 2328 
Q 422 3509 836 4129 
Q 1250 4750 2034 4750 
z
" transform="scale(0.015625)"/>
       </defs>
       <use xlink:href="#DejaVuSans-30"/>
      </g>
     </g>
    </g>
    <g id="xtick_2">
     <g id="line2d_2">
      <g>
       <use xlink:href="#m4601398b50" x="111.368822" y="202.498125" style="stroke: #000000; stroke-width: 0.8"/>
      </g>
     </g>
     <g id="text_2">
      <!-- 1 -->
      <g transform="translate(108.187572 217.096562) scale(0.1 -0.1)">
       <defs>
        <path id="DejaVuSans-31" d="M 794 531 
L 1825 531 
L 1825 4091 
L 703 3866 
L 703 4441 
L 1819 4666 
L 2450 4666 
L 2450 531 
L 3481 531 
L 3481 0 
L 794 0 
L 794 531 
z
" transform="scale(0.015625)"/>
       </defs>
       <use xlink:href="#DejaVuSans-31"/>
      </g>
     </g>
    </g>
    <g id="xtick_3">
     <g id="line2d_3">
      <g>
       <use xlink:href="#m4601398b50" x="165.626564" y="202.498125" style="stroke: #000000; stroke-width: 0.8"/>
      </g>
     </g>
     <g id="text_3">
      <!-- 2 -->
      <g transform="translate(162.445314 217.096562) scale(0.1 -0.1)">
       <defs>
        <path id="DejaVuSans-32" d="M 1228 531 
L 3431 531 
L 3431 0 
L 469 0 
L 469 531 
Q 828 903 1448 1529 
Q 2069 2156 2228 2338 
Q 2531 2678 2651 2914 
Q 2772 3150 2772 3378 
Q 2772 3750 2511 3984 
Q 2250 4219 1831 4219 
Q 1534 4219 1204 4116 
Q 875 4013 500 3803 
L 500 4441 
Q 881 4594 1212 4672 
Q 1544 4750 1819 4750 
Q 2544 4750 2975 4387 
Q 3406 4025 3406 3419 
Q 3406 3131 3298 2873 
Q 3191 2616 2906 2266 
Q 2828 2175 2409 1742 
Q 1991 1309 1228 531 
z
" transform="scale(0.015625)"/>
       </defs>
       <use xlink:href="#DejaVuSans-32"/>
      </g>
     </g>
    </g>
    <g id="xtick_4">
     <g id="line2d_4">
      <g>
       <use xlink:href="#m4601398b50" x="219.884306" y="202.498125" style="stroke: #000000; stroke-width: 0.8"/>
      </g>
     </g>
     <g id="text_4">
      <!-- 3 -->
      <g transform="translate(216.703056 217.096562) scale(0.1 -0.1)">
       <defs>
        <path id="DejaVuSans-33" d="M 2597 2516 
Q 3050 2419 3304 2112 
Q 3559 1806 3559 1356 
Q 3559 666 3084 287 
Q 2609 -91 1734 -91 
Q 1441 -91 1130 -33 
Q 819 25 488 141 
L 488 750 
Q 750 597 1062 519 
Q 1375 441 1716 441 
Q 2309 441 2620 675 
Q 2931 909 2931 1356 
Q 2931 1769 2642 2001 
Q 2353 2234 1838 2234 
L 1294 2234 
L 1294 2753 
L 1863 2753 
Q 2328 2753 2575 2939 
Q 2822 3125 2822 3475 
Q 2822 3834 2567 4026 
Q 2313 4219 1838 4219 
Q 1578 4219 1281 4162 
Q 984 4106 628 3988 
L 628 4550 
Q 988 4650 1302 4700 
Q 1616 4750 1894 4750 
Q 2613 4750 3031 4423 
Q 3450 4097 3450 3541 
Q 3450 3153 3228 2886 
Q 3006 2619 2597 2516 
z
" transform="scale(0.015625)"/>
       </defs>
       <use xlink:href="#DejaVuSans-33"/>
      </g>
     </g>
    </g>
    <g id="text_5">
     <!-- Years -->
     <g transform="translate(145.373437 230.774687) scale(0.1 -0.1)">
      <defs>
       <path id="DejaVuSans-59" d="M -13 4666 
L 666 4666 
L 1959 2747 
L 3244 4666 
L 3922 4666 
L 2272 2222 
L 2272 0 
L 1638 0 
L 1638 2222 
L -13 4666 
z
" transform="scale(0.015625)"/>
       <path id="DejaVuSans-65" d="M 3597 1894 
L 3597 1613 
L 953 1613 
Q 991 1019 1311 708 
Q 1631 397 2203 397 
Q 2534 397 2845 478 
Q 3156 559 3463 722 
L 3463 178 
Q 3153 47 2828 -22 
Q 2503 -91 2169 -91 
Q 1331 -91 842 396 
Q 353 884 353 1716 
Q 353 2575 817 3079 
Q 1281 3584 2069 3584 
Q 2775 3584 3186 3129 
Q 3597 2675 3597 1894 
z
M 3022 2063 
Q 3016 2534 2758 2815 
Q 2500 3097 2075 3097 
Q 1594 3097 1305 2825 
Q 1016 2553 972 2059 
L 3022 2063 
z
" transform="scale(0.015625)"/>
       <path id="DejaVuSans-61" d="M 2194 1759 
Q 1497 1759 1228 1600 
Q 959 1441 959 1056 
Q 959 750 1161 570 
Q 1363 391 1709 391 
Q 2188 391 2477 730 
Q 2766 1069 2766 1631 
L 2766 1759 
L 2194 1759 
z
M 3341 1997 
L 3341 0 
L 2766 0 
L 2766 531 
Q 2569 213 2275 61 
Q 1981 -91 1556 -91 
Q 1019 -91 701 211 
Q 384 513 384 1019 
Q 384 1609 779 1909 
Q 1175 2209 1959 2209 
L 2766 2209 
L 2766 2266 
Q 2766 2663 2505 2880 
Q 2244 3097 1772 3097 
Q 1472 3097 1187 3025 
Q 903 2953 641 2809 
L 641 3341 
Q 956 3463 1253 3523 
Q 1550 3584 1831 3584 
Q 2591 3584 2966 3190 
Q 3341 2797 3341 1997 
z
" transform="scale(0.015625)"/>
       <path id="DejaVuSans-72" d="M 2631 2963 
Q 2534 3019 2420 3045 
Q 2306 3072 2169 3072 
Q 1681 3072 1420 2755 
Q 1159 2438 1159 1844 
L 1159 0 
L 581 0 
L 581 3500 
L 1159 3500 
L 1159 2956 
Q 1341 3275 1631 3429 
Q 1922 3584 2338 3584 
Q 2397 3584 2469 3576 
Q 2541 3569 2628 3553 
L 2631 2963 
z
" transform="scale(0.015625)"/>
       <path id="DejaVuSans-73" d="M 2834 3397 
L 2834 2853 
Q 2591 2978 2328 3040 
Q 2066 3103 1784 3103 
Q 1356 3103 1142 2972 
Q 928 2841 928 2578 
Q 928 2378 1081 2264 
Q 1234 2150 1697 2047 
L 1894 2003 
Q 2506 1872 2764 1633 
Q 3022 1394 3022 966 
Q 3022 478 2636 193 
Q 2250 -91 1575 -91 
Q 1294 -91 989 -36 
Q 684 19 347 128 
L 347 722 
Q 666 556 975 473 
Q 1284 391 1588 391 
Q 1994 391 2212 530 
Q 2431 669 2431 922 
Q 2431 1156 2273 1281 
Q 2116 1406 1581 1522 
L 1381 1569 
Q 847 1681 609 1914 
Q 372 2147 372 2553 
Q 372 3047 722 3315 
Q 1072 3584 1716 3584 
Q 2034 3584 2315 3537 
Q 2597 3491 2834 3397 
z
" transform="scale(0.015625)"/>
      </defs>
      <use xlink:href="#DejaVuSans-59"/>
      <use xlink:href="#DejaVuSans-65" transform="translate(47.833984 0)"/>
      <use xlink:href="#DejaVuSans-61" transform="translate(109.357422 0)"/>
      <use xlink:href="#DejaVuSans-72" transform="translate(170.636719 0)"/>
      <use xlink:href="#DejaVuSans-73" transform="translate(211.75 0)"/>
     </g>
    </g>
   </g>
   <g id="matplotlib.axis_2">
    <g id="ytick_1">
     <g id="line2d_5">
      <defs>
       <path id="ma101c0ea12" d="M 0 0 
L -3.5 0 
" style="stroke: #000000; stroke-width: 0.8"/>
      </defs>
      <g>
       <use xlink:href="#ma101c0ea12" x="46.965625" y="197.398691" style="stroke: #000000; stroke-width: 0.8"/>
      </g>
     </g>
     <g id="text_6">
      <!-- 0 -->
      <g transform="translate(33.603125 201.19791) scale(0.1 -0.1)">
       <use xlink:href="#DejaVuSans-30"/>
      </g>
     </g>
    </g>
    <g id="ytick_2">
     <g id="line2d_6">
      <g>
       <use xlink:href="#ma101c0ea12" x="46.965625" y="163.402465" style="stroke: #000000; stroke-width: 0.8"/>
      </g>
     </g>
     <g id="text_7">
      <!-- 20 -->
      <g transform="translate(27.240625 167.201683) scale(0.1 -0.1)">
       <use xlink:href="#DejaVuSans-32"/>
       <use xlink:href="#DejaVuSans-30" transform="translate(63.623047 0)"/>
      </g>
     </g>
    </g>
    <g id="ytick_3">
     <g id="line2d_7">
      <g>
       <use xlink:href="#ma101c0ea12" x="46.965625" y="129.406238" style="stroke: #000000; stroke-width: 0.8"/>
      </g>
     </g>
     <g id="text_8">
      <!-- 40 -->
      <g transform="translate(27.240625 133.205457) scale(0.1 -0.1)">
       <defs>
        <path id="DejaVuSans-34" d="M 2419 4116 
L 825 1625 
L 2419 1625 
L 2419 4116 
z
M 2253 4666 
L 3047 4666 
L 3047 1625 
L 3713 1625 
L 3713 1100 
L 3047 1100 
L 3047 0 
L 2419 0 
L 2419 1100 
L 313 1100 
L 313 1709 
L 2253 4666 
z
" transform="scale(0.015625)"/>
       </defs>
       <use xlink:href="#DejaVuSans-34"/>
       <use xlink:href="#DejaVuSans-30" transform="translate(63.623047 0)"/>
      </g>
     </g>
    </g>
    <g id="ytick_4">
     <g id="line2d_8">
      <g>
       <use xlink:href="#ma101c0ea12" x="46.965625" y="95.410012" style="stroke: #000000; stroke-width: 0.8"/>
      </g>
     </g>
     <g id="text_9">
      <!-- 60 -->
      <g transform="translate(27.240625 99.209231) scale(0.1 -0.1)">
       <defs>
        <path id="DejaVuSans-36" d="M 2113 2584 
Q 1688 2584 1439 2293 
Q 1191 2003 1191 1497 
Q 1191 994 1439 701 
Q 1688 409 2113 409 
Q 2538 409 2786 701 
Q 3034 994 3034 1497 
Q 3034 2003 2786 2293 
Q 2538 2584 2113 2584 
z
M 3366 4563 
L 3366 3988 
Q 3128 4100 2886 4159 
Q 2644 4219 2406 4219 
Q 1781 4219 1451 3797 
Q 1122 3375 1075 2522 
Q 1259 2794 1537 2939 
Q 1816 3084 2150 3084 
Q 2853 3084 3261 2657 
Q 3669 2231 3669 1497 
Q 3669 778 3244 343 
Q 2819 -91 2113 -91 
Q 1303 -91 875 529 
Q 447 1150 447 2328 
Q 447 3434 972 4092 
Q 1497 4750 2381 4750 
Q 2619 4750 2861 4703 
Q 3103 4656 3366 4563 
z
" transform="scale(0.015625)"/>
       </defs>
       <use xlink:href="#DejaVuSans-36"/>
       <use xlink:href="#DejaVuSans-30" transform="translate(63.623047 0)"/>
      </g>
     </g>
    </g>
    <g id="ytick_5">
     <g id="line2d_9">
      <g>
       <use xlink:href="#ma101c0ea12" x="46.965625" y="61.413785" style="stroke: #000000; stroke-width: 0.8"/>
      </g>
     </g>
     <g id="text_10">
      <!-- 80 -->
      <g transform="translate(27.240625 65.213004) scale(0.1 -0.1)">
       <defs>
        <path id="DejaVuSans-38" d="M 2034 2216 
Q 1584 2216 1326 1975 
Q 1069 1734 1069 1313 
Q 1069 891 1326 650 
Q 1584 409 2034 409 
Q 2484 409 2743 651 
Q 3003 894 3003 1313 
Q 3003 1734 2745 1975 
Q 2488 2216 2034 2216 
z
M 1403 2484 
Q 997 2584 770 2862 
Q 544 3141 544 3541 
Q 544 4100 942 4425 
Q 1341 4750 2034 4750 
Q 2731 4750 3128 4425 
Q 3525 4100 3525 3541 
Q 3525 3141 3298 2862 
Q 3072 2584 2669 2484 
Q 3125 2378 3379 2068 
Q 3634 1759 3634 1313 
Q 3634 634 3220 271 
Q 2806 -91 2034 -91 
Q 1263 -91 848 271 
Q 434 634 434 1313 
Q 434 1759 690 2068 
Q 947 2378 1403 2484 
z
M 1172 3481 
Q 1172 3119 1398 2916 
Q 1625 2713 2034 2713 
Q 2441 2713 2670 2916 
Q 2900 3119 2900 3481 
Q 2900 3844 2670 4047 
Q 2441 4250 2034 4250 
Q 1625 4250 1398 4047 
Q 1172 3844 1172 3481 
z
" transform="scale(0.015625)"/>
       </defs>
       <use xlink:href="#DejaVuSans-38"/>
       <use xlink:href="#DejaVuSans-30" transform="translate(63.623047 0)"/>
      </g>
     </g>
    </g>
    <g id="ytick_6">
     <g id="line2d_10">
      <g>
       <use xlink:href="#ma101c0ea12" x="46.965625" y="27.417559" style="stroke: #000000; stroke-width: 0.8"/>
      </g>
     </g>
     <g id="text_11">
      <!-- 100 -->
      <g transform="translate(20.878125 31.216778) scale(0.1 -0.1)">
       <use xlink:href="#DejaVuSans-31"/>
       <use xlink:href="#DejaVuSans-30" transform="translate(63.623047 0)"/>
       <use xlink:href="#DejaVuSans-30" transform="translate(127.246094 0)"/>
      </g>
     </g>
    </g>
    <g id="text_12">
     <!-- Overall Survival (%) -->
     <g transform="translate(14.798438 162.2675) rotate(-90) scale(0.1 -0.1)">
      <defs>
       <path id="DejaVuSans-4f" d="M 2522 4238 
Q 1834 4238 1429 3725 
Q 1025 3213 1025 2328 
Q 1025 1447 1429 934 
Q 1834 422 2522 422 
Q 3209 422 3611 934 
Q 4013 1447 4013 2328 
Q 4013 3213 3611 3725 
Q 3209 4238 2522 4238 
z
M 2522 4750 
Q 3503 4750 4090 4092 
Q 4678 3434 4678 2328 
Q 4678 1225 4090 567 
Q 3503 -91 2522 -91 
Q 1538 -91 948 565 
Q 359 1222 359 2328 
Q 359 3434 948 4092 
Q 1538 4750 2522 4750 
z
" transform="scale(0.015625)"/>
       <path id="DejaVuSans-76" d="M 191 3500 
L 800 3500 
L 1894 563 
L 2988 3500 
L 3597 3500 
L 2284 0 
L 1503 0 
L 191 3500 
z
" transform="scale(0.015625)"/>
       <path id="DejaVuSans-6c" d="M 603 4863 
L 1178 4863 
L 1178 0 
L 603 0 
L 603 4863 
z
" transform="scale(0.015625)"/>
       <path id="DejaVuSans-20" transform="scale(0.015625)"/>
       <path id="DejaVuSans-53" d="M 3425 4513 
L 3425 3897 
Q 3066 4069 2747 4153 
Q 2428 4238 2131 4238 
Q 1616 4238 1336 4038 
Q 1056 3838 1056 3469 
Q 1056 3159 1242 3001 
Q 1428 2844 1947 2747 
L 2328 2669 
Q 3034 2534 3370 2195 
Q 3706 1856 3706 1288 
Q 3706 609 3251 259 
Q 2797 -91 1919 -91 
Q 1588 -91 1214 -16 
Q 841 59 441 206 
L 441 856 
Q 825 641 1194 531 
Q 1563 422 1919 422 
Q 2459 422 2753 634 
Q 3047 847 3047 1241 
Q 3047 1584 2836 1778 
Q 2625 1972 2144 2069 
L 1759 2144 
Q 1053 2284 737 2584 
Q 422 2884 422 3419 
Q 422 4038 858 4394 
Q 1294 4750 2059 4750 
Q 2388 4750 2728 4690 
Q 3069 4631 3425 4513 
z
" transform="scale(0.015625)"/>
       <path id="DejaVuSans-75" d="M 544 1381 
L 544 3500 
L 1119 3500 
L 1119 1403 
Q 1119 906 1312 657 
Q 1506 409 1894 409 
Q 2359 409 2629 706 
Q 2900 1003 2900 1516 
L 2900 3500 
L 3475 3500 
L 3475 0 
L 2900 0 
L 2900 538 
Q 2691 219 2414 64 
Q 2138 -91 1772 -91 
Q 1169 -91 856 284 
Q 544 659 544 1381 
z
M 1991 3584 
L 1991 3584 
z
" transform="scale(0.015625)"/>
       <path id="DejaVuSans-69" d="M 603 3500 
L 1178 3500 
L 1178 0 
L 603 0 
L 603 3500 
z
M 603 4863 
L 1178 4863 
L 1178 4134 
L 603 4134 
L 603 4863 
z
" transform="scale(0.015625)"/>
       <path id="DejaVuSans-28" d="M 1984 4856 
Q 1566 4138 1362 3434 
Q 1159 2731 1159 2009 
Q 1159 1288 1364 580 
Q 1569 -128 1984 -844 
L 1484 -844 
Q 1016 -109 783 600 
Q 550 1309 550 2009 
Q 550 2706 781 3412 
Q 1013 4119 1484 4856 
L 1984 4856 
z
" transform="scale(0.015625)"/>
       <path id="DejaVuSans-25" d="M 4653 2053 
Q 4381 2053 4226 1822 
Q 4072 1591 4072 1178 
Q 4072 772 4226 539 
Q 4381 306 4653 306 
Q 4919 306 5073 539 
Q 5228 772 5228 1178 
Q 5228 1588 5073 1820 
Q 4919 2053 4653 2053 
z
M 4653 2450 
Q 5147 2450 5437 2106 
Q 5728 1763 5728 1178 
Q 5728 594 5436 251 
Q 5144 -91 4653 -91 
Q 4153 -91 3862 251 
Q 3572 594 3572 1178 
Q 3572 1766 3864 2108 
Q 4156 2450 4653 2450 
z
M 1428 4353 
Q 1159 4353 1004 4120 
Q 850 3888 850 3481 
Q 850 3069 1003 2837 
Q 1156 2606 1428 2606 
Q 1700 2606 1854 2837 
Q 2009 3069 2009 3481 
Q 2009 3884 1853 4118 
Q 1697 4353 1428 4353 
z
M 4250 4750 
L 4750 4750 
L 1831 -91 
L 1331 -91 
L 4250 4750 
z
M 1428 4750 
Q 1922 4750 2215 4408 
Q 2509 4066 2509 3481 
Q 2509 2891 2217 2550 
Q 1925 2209 1428 2209 
Q 931 2209 642 2551 
Q 353 2894 353 3481 
Q 353 4063 643 4406 
Q 934 4750 1428 4750 
z
" transform="scale(0.015625)"/>
       <path id="DejaVuSans-29" d="M 513 4856 
L 1013 4856 
Q 1481 4119 1714 3412 
Q 1947 2706 1947 2009 
Q 1947 1309 1714 600 
Q 1481 -109 1013 -844 
L 513 -844 
Q 928 -128 1133 580 
Q 1338 1288 1338 2009 
Q 1338 2731 1133 3434 
Q 928 4138 513 4856 
z
" transform="scale(0.015625)"/>
      </defs>
      <use xlink:href="#DejaVuSans-4f"/>
      <use xlink:href="#DejaVuSans-76" transform="translate(78.710938 0)"/>
      <use xlink:href="#DejaVuSans-65" transform="translate(137.890625 0)"/>
      <use xlink:href="#DejaVuSans-72" transform="translate(199.414062 0)"/>
      <use xlink:href="#DejaVuSans-61" transform="translate(240.527344 0)"/>
      <use xlink:href="#DejaVuSans-6c" transform="translate(301.806641 0)"/>
      <use xlink:href="#DejaVuSans-6c" transform="translate(329.589844 0)"/>
      <use xlink:href="#DejaVuSans-20" transform="translate(357.373047 0)"/>
      <use xlink:href="#DejaVuSans-53" transform="translate(389.160156 0)"/>
      <use xlink:href="#DejaVuSans-75" transform="translate(452.636719 0)"/>
      <use xlink:href="#DejaVuSans-72" transform="translate(516.015625 0)"/>
      <use xlink:href="#DejaVuSans-76" transform="translate(557.128906 0)"/>
      <use xlink:href="#DejaVuSans-69" transform="translate(616.308594 0)"/>
      <use xlink:href="#DejaVuSans-76" transform="translate(644.091797 0)"/>
      <use xlink:href="#DejaVuSans-61" transform="translate(703.271484 0)"/>
      <use xlink:href="#DejaVuSans-6c" transform="translate(764.550781 0)"/>
      <use xlink:href="#DejaVuSans-20" transform="translate(792.333984 0)"/>
      <use xlink:href="#DejaVuSans-28" transform="translate(824.121094 0)"/>
      <use xlink:href="#DejaVuSans-25" transform="translate(863.134766 0)"/>
      <use xlink:href="#DejaVuSans-29" transform="translate(958.154297 0)"/>
     </g>
    </g>
   </g>
   <g id="line2d_11">
    <path d="M 57.11108 27.417559 
L 63.354436 27.417559 
L 63.354436 34.500106 
L 151.801989 34.500106 
L 151.801989 42.257182 
L 260.02017 42.257182 
L 260.02017 42.257182 
" clip-path="url(#p5f4f42e0b3)" style="fill: none; stroke: #1f77b4; stroke-width: 1.5; stroke-linecap: square"/>
   </g>
   <g id="line2d_12">
    <path d="M 57.11108 27.417559 
L 80.003387 27.417559 
L 80.003387 34.500106 
L 93.53066 34.500106 
L 93.53066 41.904587 
L 115.382408 41.904587 
L 115.382408 49.309068 
L 116.422968 49.309068 
L 116.422968 56.71355 
L 124.747443 56.71355 
L 124.747443 64.529391 
L 143.477513 64.529391 
L 143.477513 73.387344 
L 147.639751 73.387344 
L 147.639751 82.926678 
L 166.369821 82.926678 
L 166.369821 92.466013 
L 177.815975 92.466013 
L 177.815975 102.959281 
L 187.18101 102.959281 
L 187.18101 113.452548 
L 222.560031 113.452548 
L 222.560031 134.439084 
L 246.492898 134.439084 
L 246.492898 155.42562 
L 252.736254 155.42562 
L 252.736254 176.412155 
L 260.02017 176.412155 
L 260.02017 176.412155 
" clip-path="url(#p5f4f42e0b3)" style="fill: none; stroke: #ff7f0e; stroke-width: 1.5; stroke-linecap: square"/>
   </g>
   <g id="patch_3">
    <path d="M 46.965625 202.498125 
L 46.965625 22.318125 
" style="fill: none; stroke: #000000; stroke-width: 0.8; stroke-linejoin: miter; stroke-linecap: square"/>
   </g>
   <g id="patch_4">
    <path d="M 270.165625 202.498125 
L 270.165625 22.318125 
" style="fill: none; stroke: #000000; stroke-width: 0.8; stroke-linejoin: miter; stroke-linecap: square"/>
   </g>
   <g id="patch_5">
    <path d="M 46.965625 202.498125 
L 270.165625 202.498125 
" style="fill: none; stroke: #000000; stroke-width: 0.8; stroke-linejoin: miter; stroke-linecap: square"/>
   </g>
   <g id="patch_6">
    <path d="M 46.965625 22.318125 
L 270.165625 22.318125 
" style="fill: none; stroke: #000000; stroke-width: 0.8; stroke-linejoin: miter; stroke-linecap: square"/>
   </g>
   <g id="text_13">
    <g id="patch_7">
     <path d="M 128.465625 192.319187 
L 188.665625 192.319187 
Q 191.665625 192.319187 191.665625 189.319187 
L 191.665625 179.641062 
Q 191.665625 176.641062 188.665625 176.641062 
L 128.465625 176.641062 
Q 125.465625 176.641062 125.465625 179.641062 
L 125.465625 189.319187 
Q 125.465625 192.319187 128.465625 192.319187 
z
" style="fill: #ffffff; stroke: #808080; stroke-linejoin: miter"/>
    </g>
    <!-- $p =$ 4.9e-05 -->
    <g transform="translate(128.465625 187.219187) scale(0.1 -0.1)">
     <defs>
      <path id="DejaVuSans-Oblique-70" d="M 3175 2156 
Q 3175 2616 2975 2859 
Q 2775 3103 2400 3103 
Q 2144 3103 1911 2972 
Q 1678 2841 1497 2591 
Q 1319 2344 1212 1994 
Q 1106 1644 1106 1300 
Q 1106 863 1306 627 
Q 1506 391 1875 391 
Q 2147 391 2380 519 
Q 2613 647 2778 891 
Q 2956 1147 3065 1494 
Q 3175 1841 3175 2156 
z
M 1394 2969 
Q 1625 3272 1939 3428 
Q 2253 3584 2638 3584 
Q 3175 3584 3472 3232 
Q 3769 2881 3769 2247 
Q 3769 1728 3584 1258 
Q 3400 788 3053 416 
Q 2822 169 2531 39 
Q 2241 -91 1919 -91 
Q 1547 -91 1294 64 
Q 1041 219 916 525 
L 556 -1331 
L -19 -1331 
L 922 3500 
L 1497 3500 
L 1394 2969 
z
" transform="scale(0.015625)"/>
      <path id="DejaVuSans-3d" d="M 678 2906 
L 4684 2906 
L 4684 2381 
L 678 2381 
L 678 2906 
z
M 678 1631 
L 4684 1631 
L 4684 1100 
L 678 1100 
L 678 1631 
z
" transform="scale(0.015625)"/>
      <path id="DejaVuSans-2e" d="M 684 794 
L 1344 794 
L 1344 0 
L 684 0 
L 684 794 
z
" transform="scale(0.015625)"/>
      <path id="DejaVuSans-39" d="M 703 97 
L 703 672 
Q 941 559 1184 500 
Q 1428 441 1663 441 
Q 2288 441 2617 861 
Q 2947 1281 2994 2138 
Q 2813 1869 2534 1725 
Q 2256 1581 1919 1581 
Q 1219 1581 811 2004 
Q 403 2428 403 3163 
Q 403 3881 828 4315 
Q 1253 4750 1959 4750 
Q 2769 4750 3195 4129 
Q 3622 3509 3622 2328 
Q 3622 1225 3098 567 
Q 2575 -91 1691 -91 
Q 1453 -91 1209 -44 
Q 966 3 703 97 
z
M 1959 2075 
Q 2384 2075 2632 2365 
Q 2881 2656 2881 3163 
Q 2881 3666 2632 3958 
Q 2384 4250 1959 4250 
Q 1534 4250 1286 3958 
Q 1038 3666 1038 3163 
Q 1038 2656 1286 2365 
Q 1534 2075 1959 2075 
z
" transform="scale(0.015625)"/>
      <path id="DejaVuSans-2d" d="M 313 2009 
L 1997 2009 
L 1997 1497 
L 313 1497 
L 313 2009 
z
" transform="scale(0.015625)"/>
      <path id="DejaVuSans-35" d="M 691 4666 
L 3169 4666 
L 3169 4134 
L 1269 4134 
L 1269 2991 
Q 1406 3038 1543 3061 
Q 1681 3084 1819 3084 
Q 2600 3084 3056 2656 
Q 3513 2228 3513 1497 
Q 3513 744 3044 326 
Q 2575 -91 1722 -91 
Q 1428 -91 1123 -41 
Q 819 9 494 109 
L 494 744 
Q 775 591 1075 516 
Q 1375 441 1709 441 
Q 2250 441 2565 725 
Q 2881 1009 2881 1497 
Q 2881 1984 2565 2268 
Q 2250 2553 1709 2553 
Q 1456 2553 1204 2497 
Q 953 2441 691 2322 
L 691 4666 
z
" transform="scale(0.015625)"/>
     </defs>
     <use xlink:href="#DejaVuSans-Oblique-70" transform="translate(0 0.78125)"/>
     <use xlink:href="#DejaVuSans-3d" transform="translate(82.958984 0.78125)"/>
     <use xlink:href="#DejaVuSans-20" transform="translate(186.230469 0.78125)"/>
     <use xlink:href="#DejaVuSans-34" transform="translate(218.017578 0.78125)"/>
     <use xlink:href="#DejaVuSans-2e" transform="translate(281.640625 0.78125)"/>
     <use xlink:href="#DejaVuSans-39" transform="translate(313.427734 0.78125)"/>
     <use xlink:href="#DejaVuSans-65" transform="translate(377.050781 0.78125)"/>
     <use xlink:href="#DejaVuSans-2d" transform="translate(438.574219 0.78125)"/>
     <use xlink:href="#DejaVuSans-30" transform="translate(474.658203 0.78125)"/>
     <use xlink:href="#DejaVuSans-35" transform="translate(538.28125 0.78125)"/>
    </g>
   </g>
   <g id="text_14">
    <!-- Ocular Melanomas -->
    <g transform="translate(102.690625 16.318125) scale(0.12 -0.12)">
     <defs>
      <path id="DejaVuSans-63" d="M 3122 3366 
L 3122 2828 
Q 2878 2963 2633 3030 
Q 2388 3097 2138 3097 
Q 1578 3097 1268 2742 
Q 959 2388 959 1747 
Q 959 1106 1268 751 
Q 1578 397 2138 397 
Q 2388 397 2633 464 
Q 2878 531 3122 666 
L 3122 134 
Q 2881 22 2623 -34 
Q 2366 -91 2075 -91 
Q 1284 -91 818 406 
Q 353 903 353 1747 
Q 353 2603 823 3093 
Q 1294 3584 2113 3584 
Q 2378 3584 2631 3529 
Q 2884 3475 3122 3366 
z
" transform="scale(0.015625)"/>
      <path id="DejaVuSans-4d" d="M 628 4666 
L 1569 4666 
L 2759 1491 
L 3956 4666 
L 4897 4666 
L 4897 0 
L 4281 0 
L 4281 4097 
L 3078 897 
L 2444 897 
L 1241 4097 
L 1241 0 
L 628 0 
L 628 4666 
z
" transform="scale(0.015625)"/>
      <path id="DejaVuSans-6e" d="M 3513 2113 
L 3513 0 
L 2938 0 
L 2938 2094 
Q 2938 2591 2744 2837 
Q 2550 3084 2163 3084 
Q 1697 3084 1428 2787 
Q 1159 2491 1159 1978 
L 1159 0 
L 581 0 
L 581 3500 
L 1159 3500 
L 1159 2956 
Q 1366 3272 1645 3428 
Q 1925 3584 2291 3584 
Q 2894 3584 3203 3211 
Q 3513 2838 3513 2113 
z
" transform="scale(0.015625)"/>
      <path id="DejaVuSans-6f" d="M 1959 3097 
Q 1497 3097 1228 2736 
Q 959 2375 959 1747 
Q 959 1119 1226 758 
Q 1494 397 1959 397 
Q 2419 397 2687 759 
Q 2956 1122 2956 1747 
Q 2956 2369 2687 2733 
Q 2419 3097 1959 3097 
z
M 1959 3584 
Q 2709 3584 3137 3096 
Q 3566 2609 3566 1747 
Q 3566 888 3137 398 
Q 2709 -91 1959 -91 
Q 1206 -91 779 398 
Q 353 888 353 1747 
Q 353 2609 779 3096 
Q 1206 3584 1959 3584 
z
" transform="scale(0.015625)"/>
      <path id="DejaVuSans-6d" d="M 3328 2828 
Q 3544 3216 3844 3400 
Q 4144 3584 4550 3584 
Q 5097 3584 5394 3201 
Q 5691 2819 5691 2113 
L 5691 0 
L 5113 0 
L 5113 2094 
Q 5113 2597 4934 2840 
Q 4756 3084 4391 3084 
Q 3944 3084 3684 2787 
Q 3425 2491 3425 1978 
L 3425 0 
L 2847 0 
L 2847 2094 
Q 2847 2600 2669 2842 
Q 2491 3084 2119 3084 
Q 1678 3084 1418 2786 
Q 1159 2488 1159 1978 
L 1159 0 
L 581 0 
L 581 3500 
L 1159 3500 
L 1159 2956 
Q 1356 3278 1631 3431 
Q 1906 3584 2284 3584 
Q 2666 3584 2933 3390 
Q 3200 3197 3328 2828 
z
" transform="scale(0.015625)"/>
     </defs>
     <use xlink:href="#DejaVuSans-4f"/>
     <use xlink:href="#DejaVuSans-63" transform="translate(78.710938 0)"/>
     <use xlink:href="#DejaVuSans-75" transform="translate(133.691406 0)"/>
     <use xlink:href="#DejaVuSans-6c" transform="translate(197.070312 0)"/>
     <use xlink:href="#DejaVuSans-61" transform="translate(224.853516 0)"/>
     <use xlink:href="#DejaVuSans-72" transform="translate(286.132812 0)"/>
     <use xlink:href="#DejaVuSans-20" transform="translate(327.246094 0)"/>
     <use xlink:href="#DejaVuSans-4d" transform="translate(359.033203 0)"/>
     <use xlink:href="#DejaVuSans-65" transform="translate(445.3125 0)"/>
     <use xlink:href="#DejaVuSans-6c" transform="translate(506.835938 0)"/>
     <use xlink:href="#DejaVuSans-61" transform="translate(534.619141 0)"/>
     <use xlink:href="#DejaVuSans-6e" transform="translate(595.898438 0)"/>
     <use xlink:href="#DejaVuSans-6f" transform="translate(659.277344 0)"/>
     <use xlink:href="#DejaVuSans-6d" transform="translate(720.458984 0)"/>
     <use xlink:href="#DejaVuSans-61" transform="translate(817.871094 0)"/>
     <use xlink:href="#DejaVuSans-73" transform="translate(879.150391 0)"/>
    </g>
   </g>
   <g id="legend_1">
    <g id="text_15">
     <!-- Pfn1 -->
     <g transform="translate(293.532812 92.970562) scale(0.1 -0.1)">
      <defs>
       <path id="DejaVuSans-Oblique-50" d="M 1081 4666 
L 2541 4666 
Q 3178 4666 3512 4369 
Q 3847 4072 3847 3500 
Q 3847 2731 3353 2303 
Q 2859 1875 1966 1875 
L 1172 1875 
L 806 0 
L 172 0 
L 1081 4666 
z
M 1613 4147 
L 1275 2394 
L 2069 2394 
Q 2606 2394 2893 2669 
Q 3181 2944 3181 3456 
Q 3181 3784 2986 3965 
Q 2791 4147 2438 4147 
L 1613 4147 
z
" transform="scale(0.015625)"/>
       <path id="DejaVuSans-Oblique-66" d="M 3059 4863 
L 2969 4384 
L 2419 4384 
Q 2106 4384 1964 4261 
Q 1822 4138 1753 3809 
L 1691 3500 
L 2638 3500 
L 2553 3053 
L 1606 3053 
L 1013 0 
L 434 0 
L 1031 3053 
L 481 3053 
L 563 3500 
L 1113 3500 
L 1159 3744 
Q 1278 4363 1576 4613 
Q 1875 4863 2516 4863 
L 3059 4863 
z
" transform="scale(0.015625)"/>
       <path id="DejaVuSans-Oblique-6e" d="M 3566 2113 
L 3156 0 
L 2578 0 
L 2988 2091 
Q 3016 2238 3031 2350 
Q 3047 2463 3047 2528 
Q 3047 2791 2881 2937 
Q 2716 3084 2419 3084 
Q 1956 3084 1622 2776 
Q 1288 2469 1184 1941 
L 800 0 
L 225 0 
L 903 3500 
L 1478 3500 
L 1363 2950 
Q 1603 3253 1940 3418 
Q 2278 3584 2650 3584 
Q 3113 3584 3367 3334 
Q 3622 3084 3622 2631 
Q 3622 2519 3608 2391 
Q 3594 2263 3566 2113 
z
" transform="scale(0.015625)"/>
       <path id="DejaVuSans-Oblique-31" d="M 416 531 
L 1447 531 
L 2144 4122 
L 978 3897 
L 1088 4441 
L 2247 4666 
L 2881 4666 
L 2075 531 
L 3103 531 
L 3003 0 
L 313 0 
L 416 531 
z
" transform="scale(0.015625)"/>
      </defs>
      <use xlink:href="#DejaVuSans-Oblique-50"/>
      <use xlink:href="#DejaVuSans-Oblique-66" transform="translate(60.302734 0)"/>
      <use xlink:href="#DejaVuSans-Oblique-6e" transform="translate(95.507812 0)"/>
      <use xlink:href="#DejaVuSans-Oblique-31" transform="translate(158.886719 0)"/>
     </g>
    </g>
    <g id="line2d_13">
     <path d="M 279.165625 104.148687 
L 289.165625 104.148687 
L 289.165625 104.148687 
L 299.165625 104.148687 
L 299.165625 104.148687 
" style="fill: none; stroke: #1f77b4; stroke-width: 1.5; stroke-linecap: square"/>
    </g>
    <g id="text_16">
     <!-- Low -->
     <g transform="translate(307.165625 107.648687) scale(0.1 -0.1)">
      <defs>
       <path id="DejaVuSans-4c" d="M 628 4666 
L 1259 4666 
L 1259 531 
L 3531 531 
L 3531 0 
L 628 0 
L 628 4666 
z
" transform="scale(0.015625)"/>
       <path id="DejaVuSans-77" d="M 269 3500 
L 844 3500 
L 1563 769 
L 2278 3500 
L 2956 3500 
L 3675 769 
L 4391 3500 
L 4966 3500 
L 4050 0 
L 3372 0 
L 2619 2869 
L 1863 0 
L 1184 0 
L 269 3500 
z
" transform="scale(0.015625)"/>
      </defs>
      <use xlink:href="#DejaVuSans-4c"/>
      <use xlink:href="#DejaVuSans-6f" transform="translate(53.962891 0)"/>
      <use xlink:href="#DejaVuSans-77" transform="translate(115.144531 0)"/>
     </g>
    </g>
    <g id="line2d_14">
     <path d="M 279.165625 118.826812 
L 289.165625 118.826812 
L 289.165625 118.826812 
L 299.165625 118.826812 
L 299.165625 118.826812 
" style="fill: none; stroke: #ff7f0e; stroke-width: 1.5; stroke-linecap: square"/>
    </g>
    <g id="text_17">
     <!-- High -->
     <g transform="translate(307.165625 122.326812) scale(0.1 -0.1)">
      <defs>
       <path id="DejaVuSans-48" d="M 628 4666 
L 1259 4666 
L 1259 2753 
L 3553 2753 
L 3553 4666 
L 4184 4666 
L 4184 0 
L 3553 0 
L 3553 2222 
L 1259 2222 
L 1259 0 
L 628 0 
L 628 4666 
z
" transform="scale(0.015625)"/>
       <path id="DejaVuSans-67" d="M 2906 1791 
Q 2906 2416 2648 2759 
Q 2391 3103 1925 3103 
Q 1463 3103 1205 2759 
Q 947 2416 947 1791 
Q 947 1169 1205 825 
Q 1463 481 1925 481 
Q 2391 481 2648 825 
Q 2906 1169 2906 1791 
z
M 3481 434 
Q 3481 -459 3084 -895 
Q 2688 -1331 1869 -1331 
Q 1566 -1331 1297 -1286 
Q 1028 -1241 775 -1147 
L 775 -588 
Q 1028 -725 1275 -790 
Q 1522 -856 1778 -856 
Q 2344 -856 2625 -561 
Q 2906 -266 2906 331 
L 2906 616 
Q 2728 306 2450 153 
Q 2172 0 1784 0 
Q 1141 0 747 490 
Q 353 981 353 1791 
Q 353 2603 747 3093 
Q 1141 3584 1784 3584 
Q 2172 3584 2450 3431 
Q 2728 3278 2906 2969 
L 2906 3500 
L 3481 3500 
L 3481 434 
z
" transform="scale(0.015625)"/>
       <path id="DejaVuSans-68" d="M 3513 2113 
L 3513 0 
L 2938 0 
L 2938 2094 
Q 2938 2591 2744 2837 
Q 2550 3084 2163 3084 
Q 1697 3084 1428 2787 
Q 1159 2491 1159 1978 
L 1159 0 
L 581 0 
L 581 4863 
L 1159 4863 
L 1159 2956 
Q 1366 3272 1645 3428 
Q 1925 3584 2291 3584 
Q 2894 3584 3203 3211 
Q 3513 2838 3513 2113 
z
" transform="scale(0.015625)"/>
      </defs>
      <use xlink:href="#DejaVuSans-48"/>
      <use xlink:href="#DejaVuSans-69" transform="translate(75.195312 0)"/>
      <use xlink:href="#DejaVuSans-67" transform="translate(102.978516 0)"/>
      <use xlink:href="#DejaVuSans-68" transform="translate(166.455078 0)"/>
     </g>
    </g>
   </g>
  </g>
 </g>
 <defs>
  <clipPath id="p5f4f42e0b3">
   <rect x="46.965625" y="22.318125" width="223.2" height="180.18"/>
  </clipPath>
 </defs>
</svg>
